<svg id="svg" version="1.1" xmlns="http://www.w3.org/2000/svg" xmlns:xlink="http://www.w3.org/1999/xlink" width="400" height="400" viewBox="0, 0, 400,400"><g id="svgg"><path id="path0" d="M33.800 29.342 C 33.002 29.934,33.000 30.400,33.000 196.468 L 33.000 363.000 62.600 363.000 L 92.200 363.000 92.302 325.740 L 92.404 288.480 93.549 287.340 C 94.178 286.713,95.977 285.030,97.545 283.600 C 99.114 282.170,101.793 279.700,103.498 278.111 C 105.204 276.523,107.047 274.813,107.593 274.311 C 108.140 273.810,110.300 271.793,112.393 269.828 C 114.487 267.863,117.416 265.118,118.901 263.728 C 121.885 260.936,122.843 260.661,123.872 262.300 C 124.252 262.905,125.112 264.056,125.782 264.858 C 126.452 265.660,128.260 268.053,129.800 270.175 C 131.340 272.298,133.213 274.792,133.961 275.717 C 134.710 276.643,135.905 278.300,136.618 279.400 C 137.330 280.500,138.287 281.826,138.744 282.348 C 139.202 282.869,139.684 283.634,139.815 284.048 C 139.946 284.461,140.222 284.800,140.427 284.800 C 140.632 284.800,140.800 284.997,140.800 285.237 C 140.800 285.681,141.199 286.246,144.017 289.793 C 144.888 290.889,145.600 291.981,145.600 292.221 C 145.600 292.460,146.050 293.047,146.600 293.525 C 147.150 294.003,147.600 294.588,147.600 294.824 C 147.600 295.201,149.589 297.864,152.011 300.734 C 152.445 301.248,152.800 301.923,152.800 302.234 C 152.800 302.545,152.977 302.800,153.194 302.800 C 153.411 302.800,154.076 303.565,154.671 304.500 C 155.266 305.435,156.236 306.740,156.826 307.400 C 157.417 308.060,159.362 310.580,161.149 313.000 C 163.982 316.836,167.378 321.311,170.800 325.715 C 171.350 326.423,171.980 327.300,172.200 327.663 C 172.420 328.026,173.733 329.825,175.118 331.661 C 176.503 333.498,177.904 335.360,178.231 335.800 C 178.558 336.240,179.809 337.860,181.011 339.400 C 182.212 340.940,183.197 342.343,183.198 342.517 C 183.199 342.691,183.575 343.231,184.034 343.717 C 184.493 344.203,185.129 345.098,185.448 345.707 C 186.144 347.036,190.751 352.917,192.415 354.600 C 193.067 355.260,193.601 355.957,193.600 356.150 C 193.600 356.342,194.905 357.994,196.500 359.820 L 199.400 363.141 290.000 363.158 C 369.060 363.172,380.699 363.100,381.376 362.587 C 382.028 362.095,382.048 362.000,381.500 362.000 C 381.141 362.000,380.736 362.180,380.600 362.400 C 380.436 362.665,349.885 362.800,290.243 362.800 L 200.134 362.800 198.770 361.100 C 197.429 359.429,194.458 355.979,192.644 353.987 C 192.136 353.430,191.488 352.530,191.203 351.987 C 190.918 351.444,189.496 349.475,188.042 347.610 C 185.564 344.431,184.321 342.690,181.040 337.800 C 180.302 336.700,179.025 335.080,178.203 334.200 C 177.381 333.320,176.470 332.060,176.178 331.400 C 175.887 330.740,174.923 329.300,174.037 328.200 C 173.151 327.100,171.745 325.335,170.913 324.279 C 170.081 323.222,168.908 321.782,168.306 321.079 C 167.705 320.375,167.210 319.559,167.206 319.264 C 167.200 318.712,163.791 314.450,162.900 313.880 C 162.625 313.704,162.400 313.327,162.400 313.041 C 162.400 312.756,161.770 311.874,161.000 311.081 C 160.230 310.288,159.600 309.518,159.600 309.369 C 159.600 308.952,155.626 303.688,154.342 302.403 C 153.714 301.775,153.200 300.900,153.200 300.458 C 153.200 300.005,152.850 299.543,152.400 299.400 C 151.960 299.260,151.600 298.888,151.600 298.573 C 151.600 298.258,151.420 298.000,151.200 298.000 C 150.980 298.000,150.800 297.659,150.800 297.243 C 150.800 296.826,150.527 296.381,150.194 296.253 C 149.543 296.003,148.620 294.117,148.752 293.306 C 148.799 293.014,148.581 292.909,148.216 293.049 C 147.834 293.196,147.600 293.063,147.600 292.698 C 147.600 292.375,146.781 291.232,145.780 290.157 C 143.337 287.533,142.721 286.212,143.011 284.215 C 143.256 282.520,142.309 281.600,140.320 281.600 C 139.924 281.600,139.600 281.420,139.600 281.200 C 139.600 280.980,139.749 280.800,139.931 280.800 C 140.113 280.800,140.178 280.233,140.077 279.540 L 139.892 278.280 141.646 278.561 C 143.435 278.847,144.356 279.377,143.883 279.850 C 143.738 279.995,143.310 279.863,142.933 279.557 C 142.479 279.188,142.348 279.169,142.547 279.500 C 142.726 279.798,142.636 280.000,142.324 280.001 C 142.036 280.001,142.430 280.541,143.200 281.200 C 145.253 282.957,146.300 282.777,144.981 280.894 C 144.455 280.143,144.450 280.044,144.950 280.236 C 145.274 280.360,145.912 280.088,146.369 279.631 C 147.009 278.991,147.706 278.800,149.400 278.800 C 151.578 278.800,151.600 278.788,151.600 277.600 L 151.600 276.400 154.800 276.400 C 157.701 276.400,158.000 276.327,158.000 275.624 C 158.000 275.197,158.180 274.736,158.400 274.600 C 158.620 274.464,158.800 273.553,158.800 272.576 L 158.800 270.800 161.200 270.800 C 163.076 270.800,163.600 270.668,163.600 270.195 C 163.600 269.540,164.314 268.144,165.071 267.315 C 165.339 267.023,166.432 266.800,167.600 266.800 C 169.719 266.800,170.800 266.202,170.800 265.029 C 170.800 264.520,171.308 264.400,173.456 264.400 C 176.324 264.400,177.162 263.883,177.187 262.100 C 177.202 261.062,182.151 260.711,183.120 261.680 C 183.493 262.053,183.600 262.015,183.600 261.507 C 183.600 261.148,183.240 260.740,182.800 260.600 C 181.535 260.199,181.629 257.092,182.900 257.272 C 183.589 257.370,183.805 257.669,183.819 258.546 C 183.845 260.100,185.112 261.063,185.850 260.090 C 186.457 259.292,186.560 258.400,186.047 258.400 C 185.852 258.400,185.599 258.040,185.484 257.600 C 185.369 257.160,184.988 256.800,184.637 256.800 C 184.176 256.800,184.000 256.414,184.000 255.400 C 184.000 253.570,184.561 253.620,185.321 255.519 C 185.655 256.354,186.665 257.638,187.564 258.371 C 188.464 259.104,189.200 259.951,189.200 260.252 C 189.200 260.553,189.425 260.806,189.700 260.813 C 190.005 260.820,189.928 261.032,189.500 261.357 C 188.508 262.110,188.633 262.525,189.785 262.305 C 191.088 262.056,192.589 263.576,192.212 264.763 C 192.017 265.375,192.095 265.539,192.505 265.381 C 192.861 265.244,193.690 266.071,194.813 267.684 C 195.776 269.068,196.887 270.435,197.282 270.723 C 197.677 271.010,198.000 271.505,198.000 271.823 C 198.000 272.140,198.180 272.400,198.400 272.400 C 198.620 272.400,198.800 272.630,198.800 272.912 C 198.800 273.193,199.160 273.683,199.600 274.000 C 200.040 274.317,200.400 274.865,200.400 275.219 C 200.400 275.572,200.867 276.297,201.438 276.830 C 202.009 277.364,202.756 278.340,203.098 279.000 C 203.439 279.660,204.055 280.437,204.466 280.727 C 204.877 281.017,205.110 281.422,204.984 281.626 C 204.858 281.830,205.215 282.206,205.777 282.463 C 206.340 282.719,206.800 283.170,206.800 283.464 C 206.800 283.759,207.142 284.342,207.561 284.761 C 207.979 285.179,208.429 285.862,208.562 286.280 C 208.781 286.971,210.682 289.297,212.785 291.449 C 213.325 292.001,213.518 292.548,213.339 293.014 C 213.154 293.496,213.213 293.639,213.517 293.451 C 214.148 293.061,216.400 295.509,216.400 296.584 C 216.400 296.924,217.087 297.823,217.926 298.581 C 218.766 299.339,219.796 300.599,220.217 301.380 C 220.638 302.161,221.181 302.800,221.423 302.800 C 221.666 302.800,222.120 303.293,222.432 303.897 C 222.745 304.500,223.782 305.760,224.737 306.697 L 226.473 308.400 273.788 308.400 C 311.693 308.400,321.186 308.298,321.526 307.889 C 321.819 307.536,321.956 293.823,321.969 263.589 C 321.991 213.848,322.134 203.612,322.813 203.192 C 323.107 203.010,323.246 201.834,323.195 199.953 C 323.035 194.080,323.338 180.197,323.569 182.800 C 323.727 184.574,323.959 185.368,324.300 185.300 C 324.659 185.228,324.800 185.933,324.800 187.800 C 324.800 189.396,324.967 190.400,325.232 190.400 C 325.529 190.400,325.609 188.740,325.487 185.100 C 325.389 182.185,325.384 180.790,325.476 182.000 C 325.569 183.210,325.808 184.364,326.007 184.565 C 326.226 184.785,326.277 184.355,326.137 183.490 C 325.920 182.151,325.966 182.066,326.797 182.283 C 327.576 182.487,327.663 182.713,327.483 184.058 C 327.368 184.917,327.434 185.502,327.633 185.379 C 327.830 185.258,327.884 185.438,327.753 185.779 C 327.622 186.121,327.714 186.400,327.957 186.400 C 328.201 186.400,328.400 186.850,328.400 187.400 C 328.400 188.697,329.040 188.691,329.366 187.391 C 329.578 186.547,329.743 186.449,330.378 186.788 C 330.925 187.081,331.191 187.056,331.336 186.697 C 331.447 186.424,331.554 186.650,331.575 187.200 C 331.605 187.997,331.691 188.078,332.000 187.600 C 332.331 187.087,332.389 187.102,332.394 187.700 C 332.397 188.085,332.580 188.400,332.800 188.400 C 333.020 188.400,333.200 187.680,333.200 186.800 L 333.200 185.200 335.429 185.200 C 337.722 185.200,338.800 184.634,338.800 183.429 C 338.800 182.911,339.351 182.800,341.933 182.800 L 345.066 182.800 345.433 180.900 L 345.800 179.000 348.700 178.882 L 351.600 178.765 351.600 177.582 L 351.600 176.400 354.256 176.400 C 357.124 176.400,357.962 175.883,357.987 174.100 C 357.999 173.243,358.152 173.200,361.200 173.200 C 364.133 173.200,364.400 173.133,364.400 172.400 C 364.400 171.696,364.667 171.600,366.629 171.600 C 369.078 171.600,369.555 171.296,370.395 169.200 C 370.703 168.430,371.281 167.509,371.678 167.153 C 372.681 166.255,372.697 162.892,371.700 162.498 C 371.146 162.280,371.250 162.171,372.200 161.980 L 373.400 161.738 372.300 161.205 C 370.921 160.536,370.862 159.600,372.200 159.600 C 372.750 159.600,373.200 159.380,373.200 159.111 C 373.200 158.842,373.480 159.022,373.823 159.511 C 374.165 160.000,374.705 160.400,375.023 160.400 C 375.340 160.400,375.600 160.580,375.600 160.800 C 375.600 161.020,375.318 161.200,374.973 161.200 C 374.528 161.200,374.420 161.432,374.600 162.000 C 374.750 162.474,374.672 162.800,374.407 162.800 C 374.116 162.800,374.002 163.601,374.080 165.100 C 374.181 167.045,374.310 167.382,374.909 167.280 C 376.148 167.071,376.796 168.195,376.863 170.671 C 376.917 172.647,376.970 172.454,377.211 169.400 C 377.368 167.420,377.403 163.595,377.290 160.900 C 377.086 156.037,377.091 156.000,377.976 156.000 C 378.821 156.000,378.861 156.137,378.734 158.601 C 378.643 160.364,378.747 161.201,379.057 161.201 C 379.784 161.200,379.901 161.927,379.990 167.011 C 380.174 177.586,380.670 179.706,380.829 170.600 C 380.957 163.250,380.991 162.888,381.099 167.700 C 381.339 178.362,381.999 173.604,382.016 161.100 C 382.025 154.445,382.131 122.839,382.252 90.864 C 382.471 33.107,382.467 32.723,381.671 31.864 C 381.231 31.389,380.809 30.550,380.735 30.000 L 380.600 29.000 262.800 28.887 C 198.010 28.825,144.420 28.877,143.710 29.003 L 142.421 29.232 142.414 56.116 C 142.409 72.525,142.555 83.234,142.789 83.600 C 143.316 84.427,188.631 84.838,264.565 84.702 L 321.730 84.600 321.461 163.800 C 321.232 230.998,321.181 298.043,321.353 305.400 L 321.400 307.400 274.600 307.504 C 241.334 307.578,227.511 307.482,226.800 307.170 C 225.890 306.771,221.351 301.580,220.254 299.684 C 219.871 299.021,218.327 297.025,215.802 293.926 C 215.500 293.556,214.933 292.746,214.543 292.126 C 214.152 291.507,213.396 290.550,212.864 290.000 C 212.332 289.450,211.334 288.173,210.648 287.163 C 209.962 286.153,208.907 284.713,208.305 283.963 C 207.049 282.399,204.391 278.854,203.800 277.952 C 201.836 274.957,200.678 273.319,199.638 272.069 C 197.502 269.500,196.000 267.499,196.000 267.220 C 196.000 267.072,195.683 266.602,195.295 266.175 C 194.907 265.749,193.242 263.533,191.595 261.252 C 187.335 255.351,187.184 255.145,185.300 252.669 C 184.365 251.440,183.600 250.309,183.600 250.156 C 183.600 250.003,182.745 248.930,181.700 247.773 C 179.591 245.437,178.619 244.190,176.493 241.097 C 175.701 239.944,174.321 238.218,173.426 237.263 C 172.532 236.308,170.539 233.698,168.997 231.463 C 167.455 229.228,165.524 226.500,164.707 225.400 C 163.889 224.300,163.215 223.034,163.210 222.586 C 163.201 221.823,167.300 217.369,169.545 215.702 C 170.065 215.316,170.871 214.550,171.336 214.000 C 172.173 213.010,176.037 209.190,187.485 198.037 C 206.072 179.927,217.632 168.649,223.604 162.800 C 227.310 159.170,235.519 151.160,241.845 145.000 C 257.184 130.066,263.200 124.045,263.200 123.629 C 263.200 122.951,251.369 122.733,221.760 122.866 L 191.720 123.000 189.473 124.920 C 188.238 125.975,185.278 128.765,182.896 131.120 C 180.514 133.474,177.853 136.049,176.982 136.841 C 174.943 138.699,168.006 145.889,161.400 152.991 C 158.540 156.066,153.508 161.196,150.218 164.391 C 146.928 167.586,132.999 181.405,119.264 195.100 C 95.493 218.803,93.117 220.978,92.600 219.500 C 92.504 219.225,92.374 176.400,92.312 124.333 C 92.251 72.267,92.050 29.517,91.867 29.333 C 91.201 28.667,34.699 28.675,33.800 29.342 M328.827 184.400 C 329.032 184.400,329.200 184.683,329.200 185.029 C 329.200 185.587,329.133 185.590,328.600 185.057 C 328.270 184.727,328.027 183.949,328.060 183.329 L 328.120 182.200 328.287 183.300 C 328.378 183.905,328.621 184.400,328.827 184.400 M333.127 183.731 C 333.216 184.489,333.071 184.800,332.627 184.800 C 332.193 184.800,332.000 184.420,332.000 183.567 C 332.000 182.036,332.942 182.174,333.127 183.731 M178.301 249.695 L 177.651 251.000 177.626 249.567 C 177.597 247.971,177.942 247.382,178.548 247.988 C 178.817 248.257,178.735 248.821,178.301 249.695 M174.400 254.827 C 174.400 255.066,174.738 255.147,175.166 255.011 C 175.588 254.877,176.048 254.955,176.190 255.184 C 176.472 255.639,175.250 255.748,174.233 255.357 C 173.535 255.089,173.367 254.400,174.000 254.400 C 174.220 254.400,174.400 254.592,174.400 254.827 M186.000 261.200 C 186.000 261.420,186.371 261.600,186.824 261.600 C 187.277 261.600,187.536 261.420,187.400 261.200 C 187.264 260.980,186.893 260.800,186.576 260.800 C 186.259 260.800,186.000 260.980,186.000 261.200 M192.239 266.738 C 192.100 266.961,192.182 267.265,192.420 267.412 C 193.035 267.793,193.432 267.272,192.918 266.758 C 192.631 266.471,192.407 266.464,192.239 266.738 M131.200 267.680 C 131.200 268.326,131.082 268.442,130.755 268.115 C 130.510 267.870,130.431 267.474,130.578 267.235 C 130.992 266.565,131.200 266.714,131.200 267.680 M147.600 272.024 C 147.600 272.933,147.419 273.200,146.800 273.200 C 146.360 273.200,146.000 273.020,146.000 272.800 C 146.000 272.580,146.180 272.400,146.400 272.400 C 146.620 272.400,146.800 271.939,146.800 271.376 C 146.800 270.796,146.973 270.460,147.200 270.600 C 147.420 270.736,147.600 271.377,147.600 272.024 M137.120 272.880 C 137.464 273.224,137.600 273.231,137.600 272.905 C 137.600 272.655,137.960 272.477,138.400 272.510 C 138.840 272.543,139.200 272.802,139.200 273.085 C 139.200 273.368,139.359 273.600,139.553 273.600 C 139.748 273.600,140.001 273.960,140.116 274.400 C 140.385 275.429,140.076 275.411,138.926 274.330 C 137.607 273.092,137.666 274.341,139.000 275.927 C 140.205 277.359,140.215 277.457,139.209 277.995 C 138.521 278.364,138.342 278.236,137.830 277.009 C 137.506 276.234,137.031 275.600,136.774 275.600 C 136.503 275.600,136.395 275.262,136.517 274.795 C 136.657 274.260,136.468 273.850,135.953 273.575 C 135.526 273.347,135.283 272.989,135.412 272.780 C 135.736 272.257,136.544 272.304,137.120 272.880 M164.900 273.798 C 164.087 274.722,164.267 274.800,167.200 274.800 C 169.733 274.800,170.000 274.724,170.000 274.000 C 170.000 272.994,165.756 272.826,164.900 273.798 M136.000 274.987 C 136.000 275.345,135.765 275.485,135.400 275.345 C 135.070 275.218,134.800 274.954,134.800 274.757 C 134.800 274.561,135.070 274.400,135.400 274.400 C 135.730 274.400,136.000 274.664,136.000 274.987 M142.216 283.627 C 142.683 284.381,142.079 284.501,141.137 283.841 L 140.222 283.200 141.087 283.200 C 141.563 283.200,142.071 283.392,142.216 283.627 M90.338 302.675 C 90.000 303.082,89.982 303.343,90.280 303.530 C 91.193 304.105,92.241 358.469,91.404 361.900 L 91.185 362.800 62.530 362.800 L 33.875 362.800 34.109 349.365 C 34.375 334.127,34.200 334.836,37.700 334.813 C 39.511 334.801,39.600 334.748,39.600 333.680 C 39.600 332.037,40.289 331.600,42.880 331.600 C 44.722 331.600,45.200 331.471,45.200 330.971 C 45.200 329.702,46.269 329.200,48.971 329.200 C 51.307 329.200,51.600 329.113,51.600 328.424 C 51.600 327.997,51.780 327.536,52.000 327.400 C 52.220 327.264,52.400 326.173,52.400 324.976 L 52.400 322.800 55.200 322.800 L 58.000 322.800 58.000 321.200 L 58.000 319.600 61.200 319.600 C 64.133 319.600,64.400 319.533,64.400 318.800 C 64.400 318.081,64.667 318.000,67.029 318.000 C 70.093 318.000,70.800 317.518,70.800 315.429 L 70.800 314.000 73.600 314.000 L 76.400 314.000 76.400 312.800 L 76.400 311.600 79.600 311.600 L 82.800 311.600 82.800 310.000 C 82.800 309.120,82.980 308.400,83.200 308.400 C 83.420 308.400,83.600 307.500,83.600 306.400 C 83.600 305.204,83.778 304.400,84.043 304.400 C 84.286 304.400,84.387 304.143,84.267 303.829 C 84.146 303.515,84.341 303.020,84.701 302.729 C 85.174 302.345,85.271 302.337,85.053 302.700 C 84.759 303.189,85.112 303.336,86.400 303.259 C 86.803 303.235,86.836 303.296,86.500 303.445 C 85.477 303.899,85.970 308.400,87.043 308.400 C 87.465 308.400,87.600 307.734,87.600 305.652 C 87.600 303.301,87.701 302.905,88.300 302.907 C 89.935 302.913,90.000 302.820,90.000 300.460 C 90.000 294.395,90.593 291.469,90.712 296.944 C 90.791 300.543,90.678 302.265,90.338 302.675 M59.278 326.622 C 58.378 327.642,59.612 328.400,62.171 328.400 C 64.381 328.400,64.400 328.390,64.400 327.200 C 64.400 325.804,60.398 325.353,59.278 326.622 " stroke="none" fill="#c33025" fill-rule="evenodd"></path><path id="path1" d="M31.029 27.554 C 30.481 28.422,29.845 29.249,29.616 29.390 C 28.689 29.963,29.158 32.729,30.398 33.997 L 31.595 35.222 31.590 126.956 C 31.586 217.907,31.579 218.695,30.793 219.406 C 29.717 220.380,29.536 276.501,30.602 278.546 C 31.074 279.449,31.200 281.363,31.200 287.603 C 31.200 294.266,31.295 295.551,31.800 295.745 C 32.333 295.949,32.400 281.133,32.404 163.887 C 32.409 31.048,32.425 29.030,33.468 28.629 C 33.782 28.509,45.055 28.429,58.520 28.452 C 90.682 28.507,91.885 28.527,92.379 29.020 C 92.670 29.310,92.876 58.788,93.047 124.220 C 93.206 185.192,93.433 219.052,93.684 219.146 C 93.899 219.226,95.905 217.426,98.142 215.146 C 100.379 212.866,104.097 209.182,106.405 206.960 C 108.712 204.738,111.329 202.128,112.220 201.160 C 113.111 200.192,115.316 198.009,117.120 196.309 C 118.924 194.609,120.400 193.030,120.400 192.800 C 120.400 192.301,124.770 188.000,125.278 188.000 C 125.583 188.000,128.885 184.713,133.014 180.298 C 134.069 179.169,140.281 173.147,148.843 164.952 C 150.249 163.606,151.899 161.948,152.509 161.268 C 153.119 160.589,153.929 159.800,154.309 159.516 C 155.450 158.664,157.262 156.024,156.999 155.598 C 156.861 155.376,157.184 155.200,157.728 155.200 C 158.409 155.200,159.169 154.626,160.245 153.300 C 161.093 152.255,162.870 150.310,164.193 148.978 C 165.517 147.646,167.700 145.396,169.044 143.978 C 171.554 141.331,184.298 128.849,188.781 124.646 C 191.263 122.319,191.322 122.291,193.856 122.203 C 196.712 122.104,197.147 121.900,196.408 121.010 C 195.829 120.312,191.806 120.143,191.400 120.800 C 191.264 121.020,190.247 121.200,189.139 121.200 C 187.494 121.200,187.089 121.340,186.926 121.963 C 186.816 122.383,186.383 122.816,185.963 122.926 C 185.429 123.065,185.200 123.481,185.200 124.308 C 185.200 126.227,182.035 128.852,180.527 128.184 C 178.395 127.239,176.636 128.184,178.250 129.406 C 178.976 129.957,178.974 129.975,178.180 129.987 C 177.097 130.004,176.400 130.745,176.400 131.880 C 176.400 132.439,176.160 132.800,175.787 132.800 C 175.451 132.800,175.078 133.052,174.960 133.361 C 174.841 133.669,174.397 134.012,173.972 134.123 C 173.390 134.275,173.200 134.679,173.200 135.763 C 173.200 136.881,173.040 137.200,172.478 137.200 C 171.709 137.200,169.471 139.355,169.081 140.471 C 168.953 140.840,168.342 141.200,167.725 141.271 C 166.942 141.361,166.309 141.854,165.634 142.900 C 164.905 144.030,164.397 144.400,163.576 144.400 C 162.400 144.400,161.727 145.389,162.373 146.167 C 162.637 146.485,162.512 146.788,161.980 147.120 C 161.551 147.388,161.200 148.018,161.200 148.521 C 161.200 149.099,160.466 150.128,159.200 151.322 C 158.100 152.360,157.200 153.561,157.200 153.991 C 157.200 154.897,156.086 155.600,154.649 155.600 C 153.958 155.600,153.424 155.974,152.936 156.800 C 152.546 157.460,152.086 158.000,151.914 158.000 C 151.741 158.000,151.600 158.524,151.600 159.165 C 151.600 160.212,151.438 160.357,150.000 160.600 C 149.120 160.749,148.373 161.079,148.339 161.335 C 148.306 161.591,148.256 161.980,148.229 162.200 C 148.131 162.983,147.512 163.646,145.966 164.621 C 144.797 165.359,144.400 165.875,144.400 166.654 C 144.400 167.442,144.277 167.597,143.900 167.287 C 143.134 166.656,140.288 166.793,139.500 167.498 C 138.560 168.338,138.619 168.981,139.700 169.707 L 140.600 170.312 139.424 171.256 C 138.777 171.775,137.892 172.295,137.458 172.410 C 137.023 172.526,136.312 173.306,135.877 174.143 C 135.443 174.981,134.485 176.057,133.748 176.533 C 133.012 177.010,132.408 177.715,132.405 178.100 C 132.402 178.485,132.124 178.800,131.786 178.800 C 131.448 178.800,130.750 179.076,130.234 179.414 C 129.386 179.970,129.273 179.967,129.050 179.386 C 128.710 178.500,127.048 178.794,126.861 179.774 C 126.779 180.199,127.007 180.762,127.365 181.024 C 128.309 181.714,127.582 183.345,125.820 184.486 C 125.044 184.989,124.408 185.672,124.405 186.005 C 124.399 186.707,122.691 188.102,121.452 188.416 C 120.807 188.579,120.570 188.993,120.476 190.116 C 120.346 191.671,118.817 192.257,117.729 191.169 C 116.772 190.212,115.009 190.911,114.875 192.300 C 114.804 193.030,114.936 193.600,115.175 193.600 C 115.409 193.600,115.600 193.870,115.600 194.200 C 115.600 194.530,115.420 194.800,115.200 194.800 C 114.980 194.800,114.800 195.083,114.800 195.429 C 114.800 196.256,114.127 196.877,112.300 197.734 C 111.292 198.207,110.800 198.703,110.800 199.247 C 110.800 200.289,109.884 201.200,108.837 201.200 C 108.282 201.200,107.752 201.719,107.200 202.800 C 106.345 204.475,105.600 204.893,105.600 203.698 C 105.600 203.300,105.073 202.762,104.388 202.459 C 102.562 201.650,101.941 202.363,102.054 205.140 C 102.111 206.554,101.973 207.409,101.672 207.509 C 101.412 207.596,101.200 208.012,101.200 208.433 C 101.200 208.933,100.922 209.200,100.400 209.200 C 99.960 209.200,99.600 209.359,99.600 209.553 C 99.600 209.748,99.240 210.001,98.800 210.116 C 98.360 210.231,97.991 210.657,97.981 211.063 C 97.948 212.335,96.639 214.507,95.700 214.848 L 94.800 215.174 94.800 121.787 L 94.800 28.400 95.627 28.400 C 96.292 28.400,96.429 28.186,96.327 27.300 L 96.200 26.200 64.113 26.087 L 32.026 25.975 31.029 27.554 M141.270 26.926 C 140.791 27.435,140.400 28.112,140.400 28.430 C 140.400 28.747,140.040 29.232,139.600 29.507 C 138.643 30.105,138.546 32.105,139.400 33.600 C 140.111 34.844,140.291 67.373,139.590 67.806 C 138.893 68.237,139.121 83.084,139.828 83.356 C 140.143 83.476,140.400 84.003,140.400 84.525 C 140.400 86.910,138.764 86.801,174.431 86.794 C 204.062 86.788,209.436 86.637,207.418 85.862 C 207.062 85.726,197.462 85.579,186.085 85.537 C 159.679 85.440,142.282 85.045,142.113 84.539 C 141.639 83.118,141.849 28.790,142.329 28.606 C 143.078 28.319,380.785 28.344,381.250 28.631 C 381.461 28.761,381.529 29.195,381.402 29.594 C 380.990 30.892,383.046 32.802,383.801 31.824 C 384.507 30.909,384.572 29.932,383.967 29.327 C 383.657 29.017,383.678 28.664,384.043 28.080 C 385.438 25.846,394.438 26.000,262.821 26.000 L 142.139 26.000 141.270 26.926 M319.749 85.300 C 319.064 86.282,319.712 306.600,320.400 306.600 C 320.857 306.600,320.952 306.267,320.800 305.200 C 320.471 302.895,320.622 189.079,321.025 135.671 C 321.231 108.320,321.256 85.685,321.080 85.371 C 320.686 84.667,320.208 84.642,319.749 85.300 M257.133 120.478 C 255.462 121.788,257.060 122.528,260.872 122.208 C 264.757 121.882,265.907 122.914,263.638 124.689 C 262.505 125.576,252.908 134.947,244.937 142.950 C 243.212 144.682,241.350 146.534,240.800 147.065 C 237.955 149.810,230.658 156.754,229.513 157.805 C 228.791 158.467,227.526 159.831,226.702 160.836 C 225.879 161.840,224.799 162.888,224.302 163.164 C 223.806 163.440,222.680 164.548,221.800 165.627 C 220.920 166.706,220.086 167.591,219.946 167.594 C 219.633 167.601,212.633 174.199,206.302 180.455 C 201.601 185.100,201.096 185.968,202.729 186.594 C 203.168 186.763,203.671 186.504,204.203 185.838 C 204.776 185.119,205.259 184.890,205.868 185.050 C 206.891 185.317,208.400 183.990,208.400 182.824 C 208.400 182.397,208.580 181.936,208.800 181.800 C 209.020 181.664,209.200 181.113,209.200 180.576 C 209.200 179.971,209.430 179.600,209.805 179.600 C 210.138 179.600,210.755 179.385,211.176 179.122 C 211.769 178.752,212.177 178.752,212.993 179.124 C 214.925 180.004,216.636 178.182,214.800 177.200 C 213.462 176.484,214.105 174.000,215.628 174.000 C 215.895 174.000,216.601 173.489,217.198 172.865 C 217.794 172.241,218.578 171.617,218.941 171.478 C 219.303 171.339,219.600 170.970,219.600 170.659 C 219.600 170.348,219.960 169.999,220.400 169.884 C 220.840 169.769,221.200 169.399,221.200 169.062 C 221.200 168.480,221.905 168.295,225.600 167.905 C 226.956 167.763,227.306 165.657,226.029 165.324 C 224.970 165.047,224.949 164.400,226.000 164.400 C 226.524 164.400,226.800 164.133,226.800 163.627 C 226.800 162.860,228.703 161.200,229.582 161.200 C 230.577 161.200,232.400 159.940,232.400 159.252 C 232.400 158.851,232.760 158.198,233.200 157.800 C 233.640 157.402,234.000 156.786,234.000 156.432 C 234.000 155.527,236.945 154.241,237.134 155.063 C 237.224 155.457,237.678 155.606,238.534 155.523 C 240.034 155.377,240.244 154.395,238.900 153.805 C 237.656 153.259,237.778 152.750,239.405 151.696 C 240.172 151.199,240.800 150.614,240.800 150.396 C 240.800 149.859,242.533 149.895,243.769 150.459 C 245.380 151.193,247.084 148.717,245.600 147.800 C 244.857 147.341,245.194 146.372,246.641 144.808 L 248.082 143.250 248.942 144.251 C 249.958 145.431,251.082 145.209,251.447 143.756 C 251.579 143.230,251.847 142.800,252.043 142.800 C 252.807 142.800,252.404 140.726,251.600 140.516 C 250.573 140.247,250.560 139.600,251.581 139.600 C 252.570 139.600,254.400 138.779,254.400 138.336 C 254.400 138.151,254.638 138.000,254.928 138.000 C 255.607 138.000,257.200 136.175,257.200 135.397 C 257.200 135.067,257.557 134.800,258.000 134.800 C 258.584 134.800,258.800 134.533,258.800 133.814 C 258.800 133.238,259.132 132.650,259.600 132.400 C 260.040 132.165,260.400 131.708,260.400 131.386 C 260.400 131.064,260.670 130.800,261.000 130.800 C 261.330 130.800,261.600 130.980,261.600 131.200 C 261.600 131.420,261.966 131.600,262.413 131.600 C 263.358 131.600,263.902 130.542,263.278 129.918 C 262.973 129.613,263.189 129.150,264.025 128.314 C 264.867 127.471,265.200 126.751,265.200 125.769 C 265.200 124.667,265.356 124.400,266.000 124.400 C 266.667 124.400,266.800 124.133,266.800 122.800 C 266.800 121.274,266.742 121.200,265.547 121.200 C 264.858 121.200,263.698 120.831,262.968 120.380 C 261.333 119.370,258.486 119.417,257.133 120.478 M269.467 121.067 C 268.733 121.800,269.590 123.332,270.532 122.971 C 271.472 122.610,271.418 120.800,270.467 120.800 C 270.063 120.800,269.613 120.920,269.467 121.067 M199.516 187.073 C 199.141 187.171,198.448 187.874,197.979 188.635 C 197.509 189.395,196.523 190.476,195.787 191.037 C 195.052 191.598,190.388 196.049,185.422 200.928 C 180.457 205.808,175.541 210.624,174.497 211.631 C 173.454 212.638,172.224 213.898,171.765 214.431 C 171.306 214.964,169.371 216.897,167.465 218.726 C 163.593 222.443,163.429 222.924,165.300 225.047 C 166.015 225.859,166.960 227.112,167.400 227.832 C 170.033 232.143,172.867 236.000,173.400 236.000 C 173.739 236.000,174.222 236.450,174.473 237.000 C 174.723 237.550,175.260 238.000,175.664 238.000 C 176.124 238.000,176.400 238.289,176.400 238.769 C 176.400 239.192,176.805 240.049,177.300 240.672 C 177.795 241.296,178.380 242.095,178.600 242.447 C 180.557 245.582,182.749 248.079,183.263 247.761 C 183.737 247.468,183.684 246.000,183.200 246.000 C 182.980 246.000,182.800 245.361,182.800 244.579 C 182.800 243.376,182.625 243.097,181.657 242.760 C 180.391 242.318,179.687 241.215,179.514 239.400 C 179.412 238.321,179.259 238.198,178.000 238.182 C 176.774 238.165,176.584 238.026,176.471 237.058 C 176.400 236.450,176.078 235.851,175.754 235.727 C 175.252 235.534,175.267 235.389,175.856 234.738 C 176.713 233.791,175.977 232.828,174.255 232.645 C 172.950 232.506,170.800 230.541,170.800 229.488 C 170.800 229.062,170.447 228.633,170.000 228.516 C 169.560 228.401,169.200 228.153,169.200 227.966 C 169.200 227.778,169.454 227.722,169.764 227.841 C 170.102 227.971,170.432 227.728,170.590 227.233 C 170.994 225.959,170.474 225.497,168.954 225.782 C 167.576 226.041,167.324 225.668,167.563 223.730 C 167.595 223.472,167.436 223.146,167.211 223.007 C 166.397 222.504,166.843 221.713,169.425 219.080 C 170.868 217.608,171.937 216.222,171.801 216.002 C 171.654 215.763,172.099 215.600,172.896 215.600 C 173.635 215.600,174.411 215.435,174.620 215.234 C 174.829 215.032,175.450 214.807,176.000 214.734 C 176.872 214.617,177.026 214.358,177.200 212.710 C 177.385 210.964,177.548 210.727,179.346 209.590 C 180.417 208.913,181.189 208.255,181.062 208.129 C 180.936 208.002,181.410 207.511,182.116 207.037 C 183.039 206.417,183.435 205.813,183.525 204.887 C 183.615 203.966,183.853 203.600,184.363 203.600 C 184.755 203.600,185.402 203.240,185.800 202.800 C 186.198 202.360,186.721 201.999,186.962 201.998 C 187.479 201.996,190.025 199.654,190.600 198.652 C 190.820 198.268,191.270 197.914,191.600 197.866 C 192.735 197.699,193.200 197.150,193.200 195.976 C 193.200 195.322,193.422 194.784,193.700 194.763 C 193.975 194.743,194.740 194.698,195.400 194.663 C 196.259 194.618,196.601 194.397,196.604 193.888 C 196.606 193.497,197.641 192.121,198.904 190.831 C 201.773 187.901,202.015 186.416,199.516 187.073 M185.175 251.057 C 186.412 253.242,186.878 253.804,187.900 254.349 C 188.395 254.612,188.800 255.190,188.800 255.633 C 188.800 256.478,190.777 258.462,191.298 258.140 C 191.903 257.766,191.625 255.600,190.971 255.600 C 190.025 255.600,188.400 253.502,188.400 252.281 C 188.400 251.657,186.587 250.240,185.243 249.814 L 184.301 249.515 185.175 251.057 M191.600 259.545 C 191.600 259.955,192.140 260.969,192.800 261.800 C 193.460 262.631,194.001 263.420,194.002 263.555 C 194.004 263.690,195.165 265.047,196.582 266.570 C 198.000 268.094,199.073 269.483,198.966 269.656 C 198.858 269.829,199.106 270.306,199.516 270.716 C 199.926 271.126,200.377 271.762,200.518 272.131 C 200.659 272.499,201.051 272.800,201.387 272.800 C 202.280 272.800,202.140 271.303,201.200 270.800 C 200.760 270.565,200.400 270.127,200.400 269.829 C 200.400 269.530,200.128 269.181,199.796 269.054 C 199.464 268.927,199.216 268.682,199.244 268.511 C 199.393 267.601,199.052 266.990,197.577 265.530 C 196.059 264.028,196.000 263.887,196.677 263.384 C 197.828 262.528,196.114 260.897,194.800 261.600 C 194.291 261.873,194.013 261.902,194.158 261.668 C 194.298 261.441,194.219 261.135,193.982 260.989 C 193.745 260.842,193.386 260.290,193.185 259.761 C 192.754 258.628,191.600 258.470,191.600 259.545 M120.486 262.900 C 119.803 263.615,119.009 264.402,118.722 264.648 C 118.435 264.895,117.313 266.035,116.228 267.182 C 115.144 268.330,113.627 269.748,112.856 270.334 C 112.086 270.920,109.103 273.694,106.228 276.498 C 103.353 279.303,100.869 281.598,100.709 281.598 C 100.242 281.601,94.143 287.713,93.649 288.674 C 93.326 289.302,93.200 299.914,93.200 326.384 L 93.200 363.220 92.174 363.610 C 90.321 364.314,33.551 364.122,32.532 363.407 C 31.776 362.878,31.628 362.886,31.143 363.484 C 30.766 363.948,30.753 364.061,31.100 363.853 C 31.435 363.652,31.600 363.823,31.600 364.371 C 31.600 365.187,31.696 365.190,60.900 365.343 C 77.015 365.427,90.470 365.527,90.800 365.564 C 91.130 365.602,91.997 365.513,92.728 365.367 C 93.814 365.149,94.166 365.259,94.664 365.970 C 95.156 366.673,95.383 366.746,95.856 366.353 C 96.672 365.676,96.403 363.784,95.500 363.856 C 94.838 363.908,94.800 361.937,94.800 327.600 C 94.800 293.263,94.838 291.292,95.500 291.344 C 96.044 291.388,96.200 291.088,96.200 290.002 C 96.200 288.873,96.354 288.603,96.995 288.602 C 97.565 288.600,97.848 288.261,97.997 287.400 C 98.184 286.314,98.393 286.168,100.202 285.866 C 102.965 285.403,103.423 285.092,103.274 283.777 C 103.034 281.649,103.451 280.917,104.791 281.113 C 105.650 281.239,106.000 281.127,106.000 280.726 C 106.000 280.316,106.383 280.205,107.389 280.323 C 109.173 280.531,110.048 279.101,109.232 277.311 C 108.921 276.628,108.884 276.172,109.133 276.089 C 109.800 275.867,111.600 274.065,111.600 273.619 C 111.600 273.389,111.883 273.200,112.229 273.200 C 112.957 273.200,113.731 272.501,114.110 271.500 C 114.256 271.115,114.573 270.800,114.816 270.800 C 115.059 270.800,115.527 270.530,115.857 270.200 C 116.187 269.870,116.894 269.600,117.429 269.600 C 118.214 269.600,118.406 269.389,118.432 268.500 C 118.449 267.895,118.554 267.625,118.665 267.900 C 118.957 268.624,121.581 268.541,121.813 267.800 C 122.446 265.774,122.463 265.757,122.860 266.789 C 123.314 267.972,123.892 268.386,125.100 268.394 C 125.788 268.399,126.000 268.632,126.000 269.386 C 126.000 269.962,126.332 270.550,126.800 270.800 C 127.240 271.035,127.600 271.554,127.600 271.952 C 127.600 272.654,128.757 274.000,129.360 274.000 C 130.028 274.000,130.748 275.165,130.870 276.442 C 130.966 277.447,131.182 277.786,131.700 277.744 C 132.124 277.711,132.400 277.968,132.400 278.398 C 132.400 278.789,132.895 279.432,133.500 279.827 C 135.336 281.028,135.769 281.591,135.254 282.106 C 134.003 283.357,134.866 285.386,136.800 285.742 C 138.618 286.077,140.400 287.619,140.400 288.858 C 140.400 289.389,140.760 290.083,141.200 290.400 C 141.681 290.746,142.000 291.435,142.000 292.126 C 142.000 292.938,142.234 293.336,142.800 293.484 C 143.318 293.619,143.600 294.030,143.600 294.647 C 143.600 295.227,143.834 295.600,144.200 295.600 C 144.530 295.600,144.800 295.870,144.800 296.200 C 144.800 296.530,145.048 296.800,145.351 296.800 C 146.196 296.800,147.004 298.003,146.867 299.056 C 146.798 299.575,146.891 300.014,147.071 300.031 C 148.399 300.154,149.044 300.529,150.238 301.870 C 150.987 302.712,151.600 303.679,151.600 304.020 C 151.600 304.361,151.769 304.811,151.976 305.020 C 152.183 305.229,152.408 306.282,152.476 307.359 C 152.617 309.580,153.481 310.513,154.699 309.761 C 155.523 309.251,157.257 310.614,157.375 311.864 C 157.468 312.856,158.449 314.800,158.856 314.800 C 159.605 314.800,160.833 317.991,160.397 318.806 C 159.601 320.293,161.725 322.216,162.600 320.800 C 162.991 320.168,164.800 320.334,165.066 321.027 C 165.198 321.372,165.102 321.858,164.853 322.107 C 164.109 322.851,164.308 324.451,165.172 324.677 C 165.597 324.788,166.041 325.131,166.160 325.439 C 166.622 326.645,168.800 326.117,168.800 324.800 C 168.800 324.140,168.622 323.600,168.404 323.600 C 168.186 323.600,167.601 322.972,167.104 322.205 C 166.607 321.438,165.975 320.808,165.700 320.805 C 165.425 320.802,165.200 320.626,165.200 320.412 C 165.200 319.641,161.611 314.499,160.618 313.849 C 160.058 313.482,159.600 312.831,159.600 312.403 C 159.600 311.974,159.060 311.225,158.400 310.737 C 157.740 310.249,157.200 309.647,157.200 309.400 C 157.200 309.153,156.660 308.551,156.000 308.063 C 155.340 307.575,154.800 306.822,154.800 306.389 C 154.800 305.956,154.170 304.905,153.400 304.053 C 152.630 303.200,152.000 302.288,152.000 302.026 C 152.000 301.531,150.855 300.198,148.322 297.744 C 147.509 296.957,146.734 295.811,146.600 295.198 C 146.465 294.585,146.005 293.766,145.577 293.379 C 145.150 292.993,144.795 292.479,144.789 292.238 C 144.783 291.997,143.688 290.450,142.354 288.800 C 141.021 287.150,139.559 285.081,139.106 284.201 C 138.654 283.322,138.032 282.419,137.725 282.195 C 137.418 281.970,136.949 281.410,136.683 280.950 C 135.382 278.699,133.979 276.873,132.877 275.996 C 132.207 275.463,131.749 274.883,131.858 274.706 C 132.191 274.168,129.938 270.764,127.959 268.815 C 127.387 268.251,126.620 267.213,126.255 266.507 C 125.890 265.801,125.233 265.032,124.795 264.797 C 124.357 264.563,123.738 263.748,123.420 262.986 C 122.699 261.262,122.069 261.243,120.486 262.900 M202.284 272.650 C 201.460 273.474,203.779 277.563,206.472 280.036 C 207.092 280.605,207.600 281.334,207.600 281.655 C 207.600 281.976,208.302 282.970,209.160 283.863 C 210.019 284.756,211.009 286.043,211.360 286.723 C 211.712 287.404,212.782 288.614,213.738 289.413 C 215.129 290.576,215.439 291.064,215.287 291.857 C 215.146 292.593,215.295 292.900,215.865 293.049 C 216.286 293.159,216.804 293.632,217.016 294.099 C 217.547 295.273,218.254 295.401,218.523 294.372 C 218.687 293.744,218.539 293.457,217.974 293.309 C 217.548 293.198,217.200 292.852,217.200 292.540 C 217.200 292.228,216.660 291.445,216.000 290.800 C 215.288 290.104,214.779 289.175,214.748 288.513 C 214.612 285.558,214.522 285.122,213.981 284.780 C 213.661 284.578,212.892 284.409,212.271 284.406 C 211.026 284.399,210.000 283.598,210.000 282.632 C 210.000 282.288,209.640 281.782,209.200 281.507 C 208.760 281.232,208.400 280.713,208.400 280.353 C 208.400 279.993,208.130 279.474,207.800 279.200 C 207.470 278.926,207.200 278.348,207.200 277.915 C 207.200 277.043,205.275 274.800,204.526 274.800 C 204.255 274.800,204.082 274.327,204.125 273.700 C 204.199 272.612,203.004 271.929,202.284 272.650 M212.033 278.739 C 211.538 279.664,212.184 280.400,213.493 280.400 C 214.602 280.400,215.088 279.429,214.396 278.595 C 213.716 277.776,212.509 277.849,212.033 278.739 M219.200 291.557 C 219.200 292.589,220.393 292.979,221.171 292.200 C 221.727 291.644,221.731 291.527,221.200 291.192 C 220.194 290.555,219.200 290.737,219.200 291.557 M218.960 296.066 C 218.793 296.336,219.157 296.948,219.826 297.524 C 220.461 298.070,221.278 299.166,221.642 299.958 C 222.005 300.751,222.820 301.978,223.451 302.685 C 224.083 303.391,225.025 304.516,225.545 305.185 C 226.129 305.935,226.855 306.400,227.445 306.400 C 228.603 306.400,228.716 305.608,227.600 305.316 C 227.033 305.168,226.800 304.770,226.800 303.953 C 226.800 302.939,226.656 302.800,225.600 302.800 C 224.433 302.800,224.400 302.747,224.400 300.880 C 224.400 298.850,223.904 298.000,222.720 298.000 C 222.324 298.000,222.000 297.742,222.000 297.427 C 222.000 297.112,221.640 296.740,221.200 296.600 C 220.760 296.460,220.400 296.178,220.400 295.973 C 220.400 295.440,219.302 295.511,218.960 296.066 M169.378 327.235 C 169.231 327.474,169.336 327.879,169.614 328.135 C 170.006 328.497,170.047 328.468,169.800 328.000 C 169.558 327.543,169.599 327.507,169.969 327.848 C 170.237 328.094,170.496 328.571,170.545 328.907 C 170.686 329.867,171.625 330.800,172.449 330.800 C 173.555 330.800,173.378 330.257,171.677 328.434 C 170.048 326.687,169.798 326.556,169.378 327.235 M173.200 331.821 C 173.200 332.721,175.069 335.334,175.788 335.439 C 176.693 335.572,176.535 334.678,175.329 332.836 C 174.245 331.181,173.200 330.683,173.200 331.821 M176.400 337.013 C 176.400 337.349,176.670 337.729,177.000 337.855 C 177.330 337.982,177.600 338.317,177.600 338.600 C 177.600 338.883,177.870 339.218,178.200 339.345 C 178.574 339.488,178.800 340.098,178.800 340.962 C 178.800 342.235,178.907 342.360,180.100 342.475 C 180.815 342.544,181.416 342.780,181.435 343.000 C 181.510 343.875,182.238 345.111,184.076 347.489 C 185.527 349.366,186.000 350.318,186.000 351.366 C 186.000 352.836,187.100 354.000,188.489 354.000 C 188.880 354.000,189.200 354.180,189.200 354.400 C 189.200 354.620,189.470 354.800,189.800 354.800 C 190.576 354.800,190.567 355.364,189.780 356.017 C 188.657 356.948,189.207 358.594,190.655 358.640 C 192.499 358.699,193.200 359.073,193.200 360.000 C 193.200 360.454,193.515 360.943,193.900 361.086 C 194.851 361.441,197.200 363.322,197.200 363.729 C 197.200 364.204,198.268 365.200,198.777 365.200 C 199.016 365.200,199.568 365.423,200.005 365.696 C 200.638 366.091,200.962 366.091,201.595 365.696 C 202.621 365.055,375.804 364.960,376.200 365.600 C 376.336 365.820,376.966 366.000,377.600 366.000 C 378.234 366.000,378.864 365.820,379.000 365.600 C 379.136 365.380,379.768 365.200,380.405 365.200 C 381.644 365.200,383.600 363.597,383.600 362.582 C 383.600 361.729,382.983 361.869,381.768 362.995 L 380.694 363.990 290.016 363.895 L 199.339 363.800 197.906 362.600 C 197.118 361.940,196.252 360.898,195.982 360.285 C 195.712 359.671,195.155 358.990,194.744 358.770 C 194.334 358.551,193.738 357.746,193.419 356.983 C 193.097 356.213,192.407 355.431,191.869 355.226 C 191.307 355.013,190.537 354.110,190.039 353.081 C 189.566 352.104,188.302 350.549,187.229 349.625 C 185.886 348.468,185.202 347.537,185.033 346.633 C 184.897 345.911,184.072 344.528,183.199 343.560 C 182.326 342.592,181.609 341.607,181.606 341.372 C 181.603 341.136,180.803 340.250,179.829 339.403 C 178.855 338.556,177.971 337.534,177.866 337.131 C 177.635 336.248,176.400 336.148,176.400 337.013 " stroke="none" fill="#e69f94" fill-rule="evenodd"></path><path id="path2" d="M382.381 87.700 C 382.321 258.005,382.030 315.200,381.221 315.200 C 380.304 315.200,379.997 312.122,379.948 302.440 C 379.878 288.394,379.513 280.302,378.942 280.113 C 378.310 279.904,377.997 286.770,377.669 308.000 C 377.406 325.044,377.384 325.400,376.600 325.400 C 375.708 325.400,375.585 323.069,374.901 293.005 C 374.635 281.351,374.525 279.795,373.957 279.686 C 373.268 279.555,373.396 277.423,371.951 313.000 C 371.624 321.048,371.629 324.247,371.969 325.554 C 372.410 327.246,372.252 328.221,371.678 327.359 C 371.525 327.130,371.112 326.836,370.760 326.706 C 369.871 326.380,369.624 323.806,369.519 313.800 C 369.470 309.180,369.372 307.335,369.302 309.700 L 369.173 314.000 366.786 314.000 L 364.400 314.000 364.400 316.229 C 364.400 319.540,364.276 319.600,357.429 319.600 L 351.600 319.600 351.600 322.400 L 351.600 325.200 342.870 325.200 C 331.850 325.200,332.400 324.857,332.400 331.726 C 332.400 336.133,332.354 336.400,331.600 336.400 C 331.160 336.400,330.800 336.580,330.800 336.800 C 330.800 337.057,326.800 337.200,319.600 337.200 L 308.400 337.200 308.400 339.912 C 308.400 342.165,308.265 342.721,307.600 343.200 C 306.935 343.679,306.800 344.235,306.800 346.488 L 306.800 349.200 300.800 349.200 L 294.800 349.200 294.800 351.600 L 294.800 354.000 289.382 354.000 C 282.793 354.000,282.000 354.431,282.000 358.010 C 282.000 361.304,281.470 361.174,295.432 361.294 C 304.702 361.374,307.774 361.521,307.897 361.890 C 308.020 362.259,306.502 362.409,301.730 362.501 C 298.248 362.567,314.390 362.648,337.600 362.679 C 360.810 362.711,379.575 362.646,379.300 362.535 C 378.624 362.262,378.664 361.600,379.357 361.600 C 380.239 361.600,380.243 361.489,379.896 343.400 L 379.567 326.200 380.449 325.483 C 381.146 324.916,381.400 324.874,381.660 325.283 C 382.321 326.326,382.071 360.398,381.400 360.655 C 380.414 361.034,380.702 362.000,381.800 362.000 L 382.800 362.000 382.800 197.200 C 382.800 106.560,382.710 32.400,382.600 32.400 C 382.490 32.400,382.391 57.285,382.381 87.700 M378.920 264.000 C 378.920 265.210,378.995 265.705,379.087 265.100 C 379.178 264.495,379.178 263.505,379.087 262.900 C 378.995 262.295,378.920 262.790,378.920 264.000 M376.800 277.318 C 376.800 277.639,377.087 278.140,377.438 278.432 C 377.996 278.894,378.059 278.841,377.938 278.012 C 377.787 276.974,376.800 276.372,376.800 277.318 M326.094 302.880 C 326.120 303.386,326.328 304.045,326.557 304.345 C 326.785 304.644,326.925 305.454,326.868 306.145 C 326.732 307.777,327.820 308.562,329.241 307.857 C 330.058 307.451,330.218 307.045,330.319 305.112 L 330.439 302.843 328.919 302.587 C 328.084 302.446,327.096 302.247,326.723 302.146 C 326.222 302.009,326.059 302.200,326.094 302.880 M286.482 310.296 C 287.958 310.373,290.478 310.373,292.082 310.297 C 293.687 310.221,292.480 310.158,289.400 310.158 C 286.320 310.157,285.007 310.219,286.482 310.296 M308.600 310.400 C 308.744 310.633,311.012 310.800,314.047 310.800 C 317.412 310.800,319.160 310.659,319.000 310.400 C 318.856 310.167,316.588 310.000,313.553 310.000 C 310.188 310.000,308.440 310.141,308.600 310.400 M194.800 353.213 C 194.800 353.866,194.609 354.400,194.376 354.400 C 194.143 354.400,194.079 354.604,194.234 354.854 C 194.419 355.155,194.763 354.986,195.248 354.354 C 196.145 353.188,196.191 352.559,195.400 352.255 C 194.950 352.083,194.800 352.321,194.800 353.213 " stroke="none" fill="#921d1d" fill-rule="evenodd"></path><path id="path3" d="M51.733 28.400 C 41.576 28.510,33.116 28.750,32.933 28.933 C 32.750 29.117,32.510 89.275,32.400 162.619 C 32.242 267.921,32.097 295.907,31.709 295.667 C 31.352 295.447,31.185 293.112,31.100 287.182 C 31.035 282.682,30.941 297.964,30.891 321.143 C 30.817 355.450,30.896 363.249,31.317 363.087 C 31.601 362.978,32.175 363.139,32.593 363.444 C 33.524 364.125,90.403 364.283,92.174 363.610 L 93.200 363.220 93.200 326.384 C 93.200 299.914,93.326 289.302,93.649 288.674 C 94.143 287.713,100.242 281.601,100.709 281.598 C 100.869 281.598,103.353 279.303,106.228 276.498 C 109.103 273.694,112.086 270.920,112.856 270.334 C 113.627 269.748,115.144 268.330,116.228 267.182 C 117.313 266.035,118.435 264.895,118.722 264.648 C 119.009 264.402,119.803 263.615,120.486 262.900 C 122.069 261.243,122.699 261.262,123.420 262.986 C 123.738 263.748,124.357 264.563,124.795 264.797 C 125.233 265.032,125.890 265.801,126.255 266.507 C 126.620 267.213,127.387 268.251,127.959 268.815 C 129.938 270.764,132.191 274.168,131.858 274.706 C 131.749 274.883,132.207 275.463,132.877 275.996 C 133.979 276.873,135.382 278.699,136.683 280.950 C 136.949 281.410,137.418 281.970,137.725 282.195 C 138.032 282.419,138.654 283.322,139.106 284.201 C 139.559 285.081,141.021 287.150,142.354 288.800 C 143.688 290.450,144.783 291.997,144.789 292.238 C 144.795 292.479,145.150 292.993,145.577 293.379 C 146.005 293.766,146.465 294.585,146.600 295.198 C 146.734 295.811,147.509 296.957,148.322 297.744 C 150.855 300.198,152.000 301.531,152.000 302.026 C 152.000 302.288,152.630 303.200,153.400 304.053 C 154.170 304.905,154.800 305.956,154.800 306.389 C 154.800 306.822,155.340 307.575,156.000 308.063 C 156.660 308.551,157.200 309.153,157.200 309.400 C 157.200 309.647,157.740 310.249,158.400 310.737 C 159.060 311.225,159.600 311.974,159.600 312.403 C 159.600 312.831,160.058 313.482,160.618 313.849 C 162.250 314.918,166.310 321.533,164.738 320.562 C 164.467 320.394,164.384 320.451,164.539 320.701 C 164.683 320.934,165.116 321.047,165.500 320.952 C 165.969 320.836,166.498 321.244,167.104 322.190 C 167.601 322.965,168.186 323.600,168.404 323.600 C 168.622 323.600,168.800 324.125,168.800 324.767 C 168.800 326.295,169.185 327.256,169.677 326.953 C 170.154 326.657,173.200 329.839,173.200 330.634 C 173.200 330.945,173.438 331.200,173.729 331.200 C 174.451 331.200,176.400 334.257,176.400 335.389 C 176.400 335.970,176.693 336.383,177.200 336.516 C 177.640 336.631,178.000 336.970,178.000 337.269 C 178.000 337.568,178.810 338.517,179.800 339.378 C 180.790 340.239,181.603 341.136,181.606 341.372 C 181.609 341.607,182.326 342.592,183.199 343.560 C 184.072 344.528,184.897 345.911,185.033 346.633 C 185.202 347.537,185.886 348.468,187.229 349.625 C 188.302 350.549,189.566 352.104,190.039 353.081 C 190.537 354.110,191.307 355.013,191.869 355.226 C 192.407 355.431,193.097 356.213,193.419 356.983 C 193.738 357.746,194.334 358.551,194.744 358.770 C 195.155 358.990,195.712 359.671,195.982 360.285 C 196.252 360.898,197.118 361.940,197.906 362.600 L 199.339 363.800 290.016 363.895 L 380.694 363.990 381.768 362.995 C 382.927 361.920,382.646 361.627,381.376 362.587 C 380.699 363.100,369.060 363.172,290.000 363.158 L 199.400 363.141 196.500 359.820 C 194.905 357.994,193.600 356.342,193.600 356.150 C 193.601 355.957,193.067 355.260,192.415 354.600 C 190.751 352.917,186.144 347.036,185.448 345.707 C 185.129 345.098,184.493 344.203,184.034 343.717 C 183.575 343.231,183.199 342.691,183.198 342.517 C 183.197 342.343,182.212 340.940,181.011 339.400 C 179.809 337.860,178.558 336.240,178.231 335.800 C 177.904 335.360,176.503 333.498,175.118 331.661 C 173.733 329.825,172.420 328.026,172.200 327.663 C 171.980 327.300,171.350 326.423,170.800 325.715 C 167.378 321.311,163.982 316.836,161.149 313.000 C 159.362 310.580,157.417 308.060,156.826 307.400 C 156.236 306.740,155.266 305.435,154.671 304.500 C 154.076 303.565,153.411 302.800,153.194 302.800 C 152.977 302.800,152.800 302.545,152.800 302.234 C 152.800 301.923,152.445 301.248,152.011 300.734 C 149.589 297.864,147.600 295.201,147.600 294.824 C 147.600 294.588,147.150 294.003,146.600 293.525 C 146.050 293.047,145.600 292.460,145.600 292.221 C 145.600 291.981,144.888 290.889,144.017 289.793 C 141.199 286.246,140.800 285.681,140.800 285.237 C 140.800 284.997,140.632 284.800,140.427 284.800 C 140.222 284.800,139.946 284.461,139.815 284.048 C 139.684 283.634,139.202 282.869,138.744 282.348 C 138.287 281.826,137.330 280.500,136.618 279.400 C 135.905 278.300,134.710 276.643,133.961 275.717 C 133.213 274.792,131.340 272.298,129.800 270.175 C 128.260 268.053,126.452 265.660,125.782 264.858 C 125.112 264.056,124.252 262.905,123.872 262.300 C 122.843 260.661,121.885 260.936,118.901 263.728 C 117.416 265.118,114.487 267.863,112.393 269.828 C 110.300 271.793,108.140 273.810,107.593 274.311 C 107.047 274.813,105.204 276.523,103.498 278.111 C 101.793 279.700,99.114 282.170,97.545 283.600 C 95.977 285.030,94.178 286.713,93.549 287.340 L 92.404 288.480 92.302 325.740 L 92.200 363.000 62.600 363.000 L 33.000 363.000 33.000 196.468 C 33.000 30.400,33.002 29.934,33.800 29.342 C 34.699 28.675,91.201 28.667,91.867 29.333 C 92.050 29.517,92.251 72.267,92.312 124.333 C 92.374 176.400,92.504 219.225,92.600 219.500 C 93.117 220.978,95.493 218.803,119.264 195.100 C 132.999 181.405,146.928 167.586,150.218 164.391 C 153.508 161.196,158.540 156.066,161.400 152.991 C 168.006 145.889,174.943 138.699,176.982 136.841 C 177.853 136.049,180.514 133.474,182.896 131.120 C 185.278 128.765,188.238 125.975,189.473 124.920 L 191.720 123.000 221.760 122.866 C 251.369 122.733,263.200 122.951,263.200 123.629 C 263.200 124.045,257.184 130.066,241.845 145.000 C 235.519 151.160,227.310 159.170,223.604 162.800 C 217.632 168.649,206.072 179.927,187.485 198.037 C 176.037 209.190,172.173 213.010,171.336 214.000 C 170.871 214.550,170.065 215.316,169.545 215.702 C 167.300 217.369,163.201 221.823,163.210 222.586 C 163.215 223.034,163.889 224.300,164.707 225.400 C 165.524 226.500,167.455 229.228,168.997 231.463 C 170.539 233.698,172.532 236.308,173.426 237.263 C 174.321 238.218,175.701 239.944,176.493 241.097 C 178.619 244.190,179.591 245.437,181.700 247.773 C 182.745 248.930,183.600 250.003,183.600 250.156 C 183.600 250.309,184.365 251.440,185.300 252.669 C 187.184 255.145,187.335 255.351,191.595 261.252 C 193.242 263.533,194.907 265.749,195.295 266.175 C 195.683 266.602,196.000 267.072,196.000 267.220 C 196.000 267.499,197.502 269.500,199.638 272.069 C 200.678 273.319,201.836 274.957,203.800 277.952 C 204.391 278.854,207.049 282.399,208.305 283.963 C 208.907 284.713,209.962 286.153,210.648 287.163 C 211.334 288.173,212.332 289.450,212.864 290.000 C 213.396 290.550,214.152 291.507,214.543 292.126 C 214.933 292.746,215.500 293.556,215.802 293.926 C 218.327 297.025,219.871 299.021,220.254 299.684 C 221.351 301.580,225.890 306.771,226.800 307.170 C 227.511 307.482,241.334 307.578,274.600 307.504 L 321.400 307.400 321.353 305.400 C 321.217 299.541,321.209 232.193,321.338 164.000 C 321.449 104.827,321.412 95.878,321.178 126.000 C 320.493 214.413,320.294 302.356,320.775 304.266 C 321.292 306.319,320.884 307.299,319.864 306.453 C 319.433 306.096,308.002 305.988,272.777 306.010 L 226.259 306.039 225.430 305.048 C 222.644 301.721,222.139 301.035,221.574 299.800 C 221.230 299.047,220.461 298.048,219.865 297.580 C 219.269 297.111,218.807 296.519,218.838 296.264 C 218.968 295.202,218.710 293.790,218.520 294.522 C 218.285 295.429,217.520 295.214,217.016 294.099 C 216.804 293.632,216.293 293.161,215.879 293.053 C 215.271 292.893,215.164 292.584,215.319 291.432 C 215.425 290.649,215.362 290.100,215.179 290.213 C 214.700 290.509,212.066 288.089,211.340 286.684 C 211.000 286.026,210.019 284.756,209.160 283.863 C 208.302 282.970,207.600 281.976,207.600 281.655 C 207.600 281.334,207.092 280.605,206.472 280.036 C 204.855 278.551,202.000 274.401,202.000 273.535 C 202.000 273.131,201.724 272.800,201.387 272.800 C 201.051 272.800,200.659 272.499,200.518 272.131 C 200.377 271.762,199.928 271.128,199.521 270.721 C 198.945 270.145,198.874 269.810,199.200 269.200 C 199.530 268.584,199.501 268.463,199.064 268.631 C 198.720 268.763,197.614 267.780,196.154 266.046 C 192.454 261.649,191.600 260.354,191.600 259.136 C 191.600 258.511,191.462 258.045,191.292 258.100 C 190.675 258.301,188.800 256.462,188.800 255.657 C 188.800 255.201,188.395 254.612,187.900 254.349 C 186.875 253.803,186.413 253.243,185.161 251.033 C 184.403 249.695,184.373 249.504,184.957 249.728 C 185.363 249.884,185.542 249.830,185.397 249.595 C 185.263 249.378,184.906 249.200,184.603 249.200 C 184.301 249.200,183.939 248.837,183.798 248.394 C 183.657 247.951,183.404 247.674,183.235 247.779 C 182.746 248.080,180.513 245.512,178.600 242.447 C 178.380 242.095,177.795 241.296,177.300 240.672 C 176.805 240.049,176.400 239.192,176.400 238.769 C 176.400 238.289,176.124 238.000,175.664 238.000 C 175.260 238.000,174.723 237.550,174.473 237.000 C 174.222 236.450,173.739 236.000,173.400 236.000 C 172.867 236.000,170.033 232.143,167.400 227.832 C 166.960 227.112,166.015 225.859,165.300 225.047 C 163.429 222.924,163.593 222.443,167.465 218.726 C 169.371 216.897,171.306 214.964,171.765 214.431 C 172.224 213.898,173.453 212.638,174.496 211.631 C 175.539 210.624,180.543 205.750,185.615 200.800 C 190.688 195.850,195.512 191.170,196.335 190.400 C 197.158 189.630,198.099 188.577,198.425 188.061 C 198.829 187.420,199.459 187.087,200.408 187.012 C 201.610 186.918,201.806 186.758,201.841 185.836 C 201.871 185.029,202.996 183.676,206.453 180.285 C 213.120 173.746,219.653 167.601,219.946 167.594 C 220.086 167.591,220.920 166.706,221.800 165.627 C 222.680 164.548,223.806 163.440,224.302 163.164 C 224.799 162.888,225.879 161.840,226.702 160.836 C 227.526 159.831,228.791 158.467,229.513 157.805 C 230.658 156.754,237.955 149.810,240.800 147.065 C 241.350 146.534,243.212 144.682,244.937 142.950 C 252.908 134.947,262.505 125.576,263.638 124.689 C 265.893 122.924,264.747 121.862,260.971 122.216 C 258.573 122.440,257.813 122.369,257.015 121.847 C 255.761 121.025,196.987 120.838,196.715 121.654 C 196.627 121.919,195.464 122.147,193.928 122.200 C 191.307 122.291,191.279 122.305,188.781 124.646 C 184.298 128.849,171.554 141.331,169.044 143.978 C 167.700 145.396,165.517 147.646,164.193 148.978 C 162.870 150.310,161.093 152.255,160.245 153.300 C 159.169 154.626,158.409 155.200,157.728 155.200 C 157.184 155.200,156.861 155.376,156.999 155.598 C 157.262 156.024,155.450 158.664,154.309 159.516 C 153.929 159.800,153.119 160.589,152.509 161.268 C 151.899 161.948,150.249 163.606,148.843 164.952 C 140.281 173.147,134.069 179.169,133.014 180.298 C 128.885 184.713,125.583 188.000,125.278 188.000 C 124.770 188.000,120.400 192.301,120.400 192.800 C 120.400 193.030,118.924 194.609,117.120 196.309 C 115.316 198.009,113.111 200.192,112.220 201.160 C 111.329 202.128,108.712 204.738,106.405 206.960 C 104.097 209.182,100.379 212.866,98.142 215.146 C 95.905 217.426,93.899 219.226,93.684 219.146 C 93.433 219.052,93.206 185.192,93.047 124.220 C 92.879 59.777,92.667 29.307,92.386 29.026 C 92.139 28.779,88.948 28.565,84.486 28.495 C 80.369 28.430,75.470 28.337,73.600 28.289 C 71.730 28.240,61.890 28.290,51.733 28.400 M260.600 28.402 C 195.260 28.513,141.800 28.648,141.800 28.702 C 141.800 44.010,142.019 84.256,142.103 84.510 C 142.169 84.708,145.908 84.948,150.412 85.042 C 154.915 85.136,160.580 85.297,163.000 85.399 C 180.098 86.121,318.833 86.094,319.634 85.369 C 320.457 84.624,320.482 84.625,321.036 85.382 C 321.592 86.143,321.600 86.143,321.600 85.376 C 321.600 84.611,320.791 84.601,264.500 84.702 C 188.631 84.838,143.315 84.427,142.789 83.600 C 142.555 83.234,142.409 72.525,142.414 56.116 L 142.421 29.232 143.710 29.003 C 144.420 28.877,198.010 28.825,262.800 28.887 L 380.600 29.000 380.736 30.000 C 380.883 31.074,381.871 32.400,382.524 32.400 C 382.744 32.400,382.589 32.030,382.180 31.578 C 381.771 31.126,381.428 30.284,381.418 29.707 C 381.391 28.122,387.333 28.187,260.600 28.402 M30.800 127.024 C 30.800 187.304,30.936 219.163,31.193 219.004 C 31.739 218.667,31.743 34.800,31.198 34.800 C 30.935 34.800,30.800 66.190,30.800 127.024 " stroke="none" fill="#d68b90" fill-rule="evenodd"></path><path id="path4" d="M382.170 106.000 C 382.170 110.730,382.228 112.665,382.298 110.300 C 382.369 107.935,382.369 104.065,382.298 101.700 C 382.228 99.335,382.170 101.270,382.170 106.000 M382.157 120.400 C 382.157 123.370,382.220 124.585,382.297 123.100 C 382.374 121.615,382.374 119.185,382.297 117.700 C 382.220 116.215,382.157 117.430,382.157 120.400 M382.140 140.800 C 382.140 142.670,382.209 143.435,382.293 142.500 C 382.377 141.565,382.377 140.035,382.293 139.100 C 382.209 138.165,382.140 138.930,382.140 140.800 M382.000 161.000 C 382.000 168.630,381.854 173.200,381.611 173.200 C 381.385 173.200,381.171 170.909,381.099 167.700 C 380.991 162.888,380.957 163.250,380.829 170.600 C 380.670 179.706,380.174 177.586,379.990 167.011 C 379.901 161.927,379.784 161.200,379.057 161.201 C 378.747 161.201,378.643 160.364,378.734 158.601 C 378.861 156.137,378.821 156.000,377.976 156.000 C 377.091 156.000,377.086 156.037,377.290 160.900 C 377.403 163.595,377.368 167.420,377.211 169.400 C 376.970 172.454,376.917 172.647,376.863 170.671 C 376.796 168.195,376.148 167.071,374.909 167.280 C 374.310 167.382,374.181 167.045,374.080 165.100 C 374.002 163.601,374.116 162.800,374.407 162.800 C 374.672 162.800,374.750 162.474,374.600 162.000 C 374.420 161.432,374.528 161.200,374.973 161.200 C 375.318 161.200,375.600 161.020,375.600 160.800 C 375.600 160.580,375.340 160.400,375.023 160.400 C 374.705 160.400,374.165 160.000,373.823 159.511 C 373.480 159.022,373.200 158.842,373.200 159.111 C 373.200 159.380,372.750 159.600,372.200 159.600 C 370.862 159.600,370.921 160.536,372.300 161.205 L 373.400 161.738 372.200 161.980 C 371.250 162.171,371.146 162.280,371.700 162.498 C 372.697 162.892,372.681 166.255,371.678 167.153 C 371.281 167.509,370.703 168.430,370.395 169.200 C 369.555 171.296,369.078 171.600,366.629 171.600 C 364.667 171.600,364.400 171.696,364.400 172.400 C 364.400 173.133,364.133 173.200,361.200 173.200 C 358.152 173.200,357.999 173.243,357.987 174.100 C 357.962 175.883,357.124 176.400,354.256 176.400 L 351.600 176.400 351.600 177.582 L 351.600 178.765 348.700 178.882 L 345.800 179.000 345.433 180.900 L 345.066 182.800 341.933 182.800 C 339.351 182.800,338.800 182.911,338.800 183.429 C 338.800 184.634,337.722 185.200,335.429 185.200 L 333.200 185.200 333.200 186.800 C 333.200 187.680,333.020 188.400,332.800 188.400 C 332.580 188.400,332.397 188.085,332.394 187.700 C 332.389 187.102,332.331 187.087,332.000 187.600 C 331.691 188.078,331.605 187.997,331.575 187.200 C 331.554 186.650,331.447 186.424,331.336 186.697 C 331.191 187.056,330.925 187.081,330.378 186.788 C 329.743 186.449,329.578 186.547,329.366 187.391 C 329.040 188.691,328.400 188.697,328.400 187.400 C 328.400 186.850,328.201 186.400,327.957 186.400 C 327.714 186.400,327.622 186.121,327.753 185.779 C 327.884 185.438,327.830 185.258,327.633 185.379 C 327.434 185.502,327.368 184.917,327.483 184.058 C 327.663 182.713,327.576 182.487,326.797 182.283 C 325.966 182.066,325.920 182.151,326.137 183.490 C 326.277 184.355,326.226 184.785,326.007 184.565 C 325.808 184.364,325.569 183.210,325.476 182.000 C 325.384 180.790,325.389 182.185,325.487 185.100 C 325.609 188.740,325.529 190.400,325.232 190.400 C 324.967 190.400,324.800 189.396,324.800 187.800 C 324.800 185.933,324.659 185.228,324.300 185.300 C 323.959 185.368,323.727 184.574,323.569 182.800 C 323.338 180.197,323.035 194.080,323.195 199.953 C 323.246 201.834,323.107 203.010,322.813 203.192 C 322.134 203.612,321.991 213.848,321.969 263.589 C 321.956 293.823,321.819 307.536,321.526 307.889 C 321.186 308.298,311.693 308.400,273.788 308.400 L 226.473 308.400 224.737 306.697 C 223.782 305.760,222.745 304.500,222.432 303.897 C 222.120 303.293,221.666 302.800,221.423 302.800 C 221.181 302.800,220.638 302.161,220.217 301.380 C 219.796 300.599,218.766 299.339,217.926 298.581 C 217.087 297.823,216.400 296.924,216.400 296.584 C 216.400 295.509,214.148 293.061,213.517 293.451 C 213.213 293.639,213.154 293.496,213.339 293.014 C 213.518 292.548,213.325 292.001,212.785 291.449 C 210.682 289.297,208.781 286.971,208.562 286.280 C 208.429 285.862,207.979 285.179,207.561 284.761 C 207.142 284.342,206.800 283.759,206.800 283.464 C 206.800 283.170,206.340 282.719,205.777 282.463 C 205.215 282.206,204.858 281.830,204.984 281.626 C 205.110 281.422,204.877 281.017,204.466 280.727 C 204.055 280.437,203.439 279.660,203.098 279.000 C 202.756 278.340,202.009 277.364,201.438 276.830 C 200.867 276.297,200.400 275.572,200.400 275.219 C 200.400 274.865,200.040 274.317,199.600 274.000 C 199.160 273.683,198.800 273.193,198.800 272.912 C 198.800 272.630,198.620 272.400,198.400 272.400 C 198.180 272.400,198.000 272.140,198.000 271.823 C 198.000 271.505,197.677 271.010,197.282 270.723 C 196.887 270.435,195.776 269.068,194.813 267.684 C 193.690 266.071,192.861 265.244,192.505 265.381 C 192.095 265.539,192.017 265.375,192.212 264.763 C 192.589 263.576,191.088 262.056,189.785 262.305 C 188.633 262.525,188.508 262.110,189.500 261.357 C 189.928 261.032,190.005 260.820,189.700 260.813 C 189.425 260.806,189.200 260.553,189.200 260.252 C 189.200 259.951,188.464 259.104,187.564 258.371 C 186.665 257.638,185.655 256.354,185.321 255.519 C 184.561 253.620,184.000 253.570,184.000 255.400 C 184.000 256.414,184.176 256.800,184.637 256.800 C 184.988 256.800,185.369 257.160,185.484 257.600 C 185.599 258.040,185.852 258.400,186.047 258.400 C 186.560 258.400,186.457 259.292,185.850 260.090 C 185.112 261.063,183.845 260.100,183.819 258.546 C 183.805 257.669,183.589 257.370,182.900 257.272 C 181.629 257.092,181.535 260.199,182.800 260.600 C 183.240 260.740,183.600 261.148,183.600 261.507 C 183.600 262.015,183.493 262.053,183.120 261.680 C 182.151 260.711,177.202 261.062,177.187 262.100 C 177.162 263.883,176.324 264.400,173.456 264.400 C 171.308 264.400,170.800 264.520,170.800 265.029 C 170.800 266.202,169.719 266.800,167.600 266.800 C 166.432 266.800,165.339 267.023,165.071 267.315 C 164.314 268.144,163.600 269.540,163.600 270.195 C 163.600 270.668,163.076 270.800,161.200 270.800 L 158.800 270.800 158.800 272.576 C 158.800 273.553,158.620 274.464,158.400 274.600 C 158.180 274.736,158.000 275.197,158.000 275.624 C 158.000 276.327,157.701 276.400,154.800 276.400 L 151.600 276.400 151.600 277.600 C 151.600 278.788,151.578 278.800,149.400 278.800 C 147.706 278.800,147.009 278.991,146.369 279.631 C 145.912 280.088,145.274 280.360,144.950 280.236 C 144.450 280.044,144.455 280.143,144.981 280.894 C 146.300 282.777,145.253 282.957,143.200 281.200 C 142.430 280.541,142.036 280.001,142.324 280.001 C 142.636 280.000,142.726 279.798,142.547 279.500 C 142.348 279.169,142.479 279.188,142.933 279.557 C 143.310 279.863,143.738 279.995,143.883 279.850 C 144.356 279.377,143.435 278.847,141.646 278.561 L 139.892 278.280 140.077 279.540 C 140.178 280.233,140.113 280.800,139.931 280.800 C 139.749 280.800,139.600 280.980,139.600 281.200 C 139.600 281.420,139.924 281.600,140.320 281.600 C 142.309 281.600,143.256 282.520,143.011 284.215 C 142.721 286.212,143.337 287.533,145.780 290.157 C 146.781 291.232,147.600 292.375,147.600 292.698 C 147.600 293.063,147.834 293.196,148.216 293.049 C 148.581 292.909,148.799 293.014,148.752 293.306 C 148.620 294.117,149.543 296.003,150.194 296.253 C 150.527 296.381,150.800 296.826,150.800 297.243 C 150.800 297.659,150.980 298.000,151.200 298.000 C 151.420 298.000,151.600 298.258,151.600 298.573 C 151.600 298.888,151.960 299.260,152.400 299.400 C 152.850 299.543,153.200 300.005,153.200 300.458 C 153.200 300.900,153.714 301.775,154.342 302.403 C 155.626 303.688,159.600 308.952,159.600 309.369 C 159.600 309.518,160.230 310.288,161.000 311.081 C 161.770 311.874,162.400 312.756,162.400 313.041 C 162.400 313.327,162.625 313.704,162.900 313.880 C 163.791 314.450,167.200 318.712,167.206 319.264 C 167.210 319.559,167.705 320.375,168.306 321.079 C 168.908 321.782,170.081 323.222,170.913 324.279 C 171.745 325.335,173.151 327.100,174.037 328.200 C 174.923 329.300,175.887 330.740,176.178 331.400 C 176.470 332.060,177.381 333.320,178.203 334.200 C 179.025 335.080,180.302 336.700,181.040 337.800 C 184.321 342.690,185.564 344.431,188.042 347.610 C 189.496 349.475,190.918 351.444,191.203 351.987 C 191.488 352.530,192.136 353.430,192.644 353.987 C 194.458 355.979,197.429 359.429,198.770 361.100 L 200.134 362.800 244.767 362.799 C 292.567 362.798,308.120 362.561,307.879 361.836 C 307.779 361.537,303.863 361.367,295.432 361.294 C 281.470 361.174,282.000 361.304,282.000 358.010 C 282.000 354.431,282.793 354.000,289.382 354.000 L 294.800 354.000 294.800 351.600 L 294.800 349.200 300.800 349.200 L 306.800 349.200 306.800 346.488 C 306.800 344.235,306.935 343.679,307.600 343.200 C 308.265 342.721,308.400 342.165,308.400 339.912 L 308.400 337.200 319.600 337.200 C 326.800 337.200,330.800 337.057,330.800 336.800 C 330.800 336.580,331.160 336.400,331.600 336.400 C 332.355 336.400,332.400 336.133,332.400 331.670 C 332.400 324.866,331.857 325.200,342.926 325.200 L 351.600 325.200 351.600 322.400 L 351.600 319.600 357.429 319.600 C 364.276 319.600,364.400 319.540,364.400 316.229 L 364.400 314.000 366.786 314.000 L 369.173 314.000 369.302 309.700 C 369.372 307.335,369.470 309.180,369.519 313.800 C 369.624 323.806,369.871 326.380,370.760 326.706 C 371.112 326.836,371.525 327.130,371.678 327.359 C 372.252 328.221,372.410 327.246,371.969 325.554 C 371.629 324.247,371.624 321.048,371.951 313.000 C 373.396 277.423,373.268 279.555,373.957 279.686 C 374.525 279.795,374.635 281.351,374.901 293.005 C 375.585 323.069,375.708 325.400,376.600 325.400 C 377.384 325.400,377.406 325.044,377.669 308.000 C 377.997 286.770,378.310 279.904,378.942 280.113 C 379.513 280.302,379.878 288.394,379.948 302.440 C 379.997 312.122,380.304 315.200,381.221 315.200 C 381.410 315.200,381.659 314.615,381.775 313.900 C 382.028 312.340,382.423 148.800,382.174 148.800 C 382.078 148.800,382.000 154.290,382.000 161.000 M328.060 183.329 C 328.027 183.949,328.270 184.727,328.600 185.057 C 329.133 185.590,329.200 185.587,329.200 185.029 C 329.200 184.683,329.032 184.400,328.827 184.400 C 328.621 184.400,328.378 183.905,328.287 183.300 L 328.120 182.200 328.060 183.329 M332.000 183.567 C 332.000 184.420,332.193 184.800,332.627 184.800 C 333.071 184.800,333.216 184.489,333.127 183.731 C 332.942 182.174,332.000 182.036,332.000 183.567 M177.873 247.860 C 177.723 248.010,177.612 248.778,177.626 249.567 L 177.651 251.000 178.301 249.695 C 178.909 248.472,178.598 247.135,177.873 247.860 M173.600 254.757 C 173.600 255.194,174.590 255.600,175.656 255.600 C 176.102 255.600,176.335 255.418,176.190 255.184 C 176.048 254.955,175.588 254.877,175.166 255.011 C 174.738 255.147,174.400 255.066,174.400 254.827 C 174.400 254.592,174.220 254.400,174.000 254.400 C 173.780 254.400,173.600 254.561,173.600 254.757 M187.400 261.200 C 187.536 261.420,187.277 261.600,186.824 261.600 C 186.371 261.600,186.000 261.420,186.000 261.200 C 186.000 260.980,186.259 260.800,186.576 260.800 C 186.893 260.800,187.264 260.980,187.400 261.200 M379.087 265.100 C 378.995 265.705,378.920 265.210,378.920 264.000 C 378.920 262.790,378.995 262.295,379.087 262.900 C 379.178 263.505,379.178 264.495,379.087 265.100 M193.100 267.433 C 192.719 267.815,191.955 267.197,192.239 266.738 C 192.407 266.464,192.631 266.471,192.918 266.758 C 193.154 266.994,193.236 267.298,193.100 267.433 M130.578 267.235 C 130.431 267.474,130.510 267.870,130.755 268.115 C 131.082 268.442,131.200 268.326,131.200 267.680 C 131.200 266.714,130.992 266.565,130.578 267.235 M146.800 271.376 C 146.800 271.939,146.620 272.400,146.400 272.400 C 146.180 272.400,146.000 272.580,146.000 272.800 C 146.000 273.020,146.360 273.200,146.800 273.200 C 147.668 273.200,147.993 271.090,147.200 270.600 C 146.973 270.460,146.800 270.796,146.800 271.376 M135.412 272.780 C 135.283 272.989,135.526 273.347,135.953 273.575 C 136.468 273.850,136.657 274.260,136.517 274.795 C 136.395 275.262,136.503 275.600,136.774 275.600 C 137.031 275.600,137.506 276.234,137.830 277.009 C 138.342 278.236,138.521 278.364,139.209 277.995 C 140.215 277.457,140.205 277.359,139.000 275.927 C 137.666 274.341,137.607 273.092,138.926 274.330 C 140.076 275.411,140.385 275.429,140.116 274.400 C 140.001 273.960,139.748 273.600,139.553 273.600 C 139.359 273.600,139.200 273.368,139.200 273.085 C 139.200 272.802,138.840 272.543,138.400 272.510 C 137.960 272.477,137.600 272.655,137.600 272.905 C 137.600 273.231,137.464 273.224,137.120 272.880 C 136.544 272.304,135.736 272.257,135.412 272.780 M170.000 274.000 C 170.000 274.724,169.733 274.800,167.200 274.800 C 164.267 274.800,164.087 274.722,164.900 273.798 C 165.756 272.826,170.000 272.994,170.000 274.000 M134.800 274.757 C 134.800 274.954,135.070 275.218,135.400 275.345 C 135.765 275.485,136.000 275.345,136.000 274.987 C 136.000 274.664,135.730 274.400,135.400 274.400 C 135.070 274.400,134.800 274.561,134.800 274.757 M377.938 278.012 C 378.059 278.841,377.996 278.894,377.438 278.432 C 376.684 277.805,376.580 276.661,377.300 276.898 C 377.575 276.989,377.862 277.490,377.938 278.012 M141.137 283.841 C 142.079 284.501,142.683 284.381,142.216 283.627 C 142.071 283.392,141.563 283.200,141.087 283.200 L 140.222 283.200 141.137 283.841 M90.300 294.960 C 90.135 296.699,90.000 299.174,90.000 300.460 C 90.000 302.820,89.935 302.913,88.300 302.907 C 87.701 302.905,87.600 303.301,87.600 305.652 C 87.600 307.734,87.465 308.400,87.043 308.400 C 85.970 308.400,85.477 303.899,86.500 303.445 C 86.836 303.296,86.803 303.235,86.400 303.259 C 85.112 303.336,84.759 303.189,85.053 302.700 C 85.271 302.337,85.174 302.345,84.701 302.729 C 84.341 303.020,84.146 303.515,84.267 303.829 C 84.387 304.143,84.286 304.400,84.043 304.400 C 83.778 304.400,83.600 305.204,83.600 306.400 C 83.600 307.500,83.420 308.400,83.200 308.400 C 82.980 308.400,82.800 309.120,82.800 310.000 L 82.800 311.600 79.600 311.600 L 76.400 311.600 76.400 312.800 L 76.400 314.000 73.600 314.000 L 70.800 314.000 70.800 315.429 C 70.800 317.518,70.093 318.000,67.029 318.000 C 64.667 318.000,64.400 318.081,64.400 318.800 C 64.400 319.533,64.133 319.600,61.200 319.600 L 58.000 319.600 58.000 321.200 L 58.000 322.800 55.200 322.800 L 52.400 322.800 52.400 324.976 C 52.400 326.173,52.220 327.264,52.000 327.400 C 51.780 327.536,51.600 327.997,51.600 328.424 C 51.600 329.113,51.307 329.200,48.971 329.200 C 46.269 329.200,45.200 329.702,45.200 330.971 C 45.200 331.471,44.722 331.600,42.880 331.600 C 40.289 331.600,39.600 332.037,39.600 333.680 C 39.600 334.748,39.511 334.801,37.700 334.813 C 34.200 334.836,34.375 334.127,34.109 349.365 L 33.875 362.800 62.530 362.800 L 91.185 362.800 91.404 361.900 C 92.241 358.469,91.193 304.105,90.280 303.530 C 89.982 303.343,90.000 303.082,90.338 302.675 C 90.678 302.265,90.791 300.543,90.712 296.944 C 90.600 291.817,90.599 291.810,90.300 294.960 M328.919 302.587 L 330.439 302.843 330.319 305.112 C 330.218 307.045,330.058 307.451,329.241 307.857 C 327.820 308.562,326.732 307.777,326.868 306.145 C 326.925 305.454,326.785 304.644,326.557 304.345 C 325.840 303.404,325.951 301.935,326.723 302.146 C 327.096 302.247,328.084 302.446,328.919 302.587 M292.082 310.297 C 290.478 310.373,287.958 310.373,286.482 310.296 C 285.007 310.219,286.320 310.157,289.400 310.158 C 292.480 310.158,293.687 310.221,292.082 310.297 M319.000 310.400 C 319.160 310.659,317.412 310.800,314.047 310.800 C 311.012 310.800,308.744 310.633,308.600 310.400 C 308.440 310.141,310.188 310.000,313.553 310.000 C 316.588 310.000,318.856 310.167,319.000 310.400 M380.449 325.483 L 379.567 326.200 379.896 343.400 C 380.243 361.489,380.239 361.600,379.357 361.600 C 378.598 361.600,378.652 362.258,379.436 362.559 C 380.278 362.881,380.800 362.522,380.800 361.619 C 380.800 361.216,381.070 360.782,381.400 360.655 C 382.071 360.398,382.321 326.326,381.660 325.283 C 381.400 324.874,381.146 324.916,380.449 325.483 M64.400 327.200 C 64.400 328.600,60.599 329.056,59.349 327.807 C 58.318 326.775,59.459 326.033,62.100 326.015 C 64.392 326.000,64.400 326.004,64.400 327.200 M195.991 352.943 C 195.975 353.778,194.536 355.343,194.234 354.854 C 194.079 354.604,194.143 354.400,194.376 354.400 C 194.609 354.400,194.800 353.866,194.800 353.213 C 194.800 352.321,194.950 352.083,195.400 352.255 C 195.730 352.382,195.996 352.691,195.991 352.943 " stroke="none" fill="#a01d22" fill-rule="evenodd"></path></g></svg>