<svg id="svg" version="1.1" xmlns="http://www.w3.org/2000/svg" xmlns:xlink="http://www.w3.org/1999/xlink" width="400" height="400" viewBox="0, 0, 400,400"><g id="svgg"><path id="path0" d="M307.333 153.333 C 307.333 153.538,307.194 153.620,307.023 153.514 C 306.852 153.409,306.616 153.479,306.498 153.669 C 306.380 153.860,306.482 153.975,306.725 153.925 C 307.082 153.851,307.181 155.655,307.243 163.333 C 307.311 171.928,307.270 172.770,306.807 172.167 C 306.526 171.800,306.081 171.544,305.819 171.597 C 305.556 171.650,305.002 171.530,304.587 171.329 C 303.864 170.978,303.860 170.984,304.480 171.482 C 304.836 171.767,305.265 172.000,305.432 172.000 C 306.114 172.000,307.508 173.528,307.410 174.167 L 307.307 174.833 307.858 174.167 C 308.397 173.515,308.407 173.521,308.253 174.407 C 308.167 174.905,308.223 175.235,308.379 175.139 C 308.718 174.929,310.105 176.259,310.430 177.105 C 310.558 177.437,310.813 177.616,310.998 177.501 C 311.182 177.387,311.333 177.519,311.333 177.794 C 311.333 178.069,311.507 178.401,311.718 178.532 C 311.955 178.678,312.013 178.623,311.868 178.389 C 311.715 178.142,311.815 178.078,312.149 178.206 C 312.434 178.315,312.667 178.653,312.667 178.957 C 312.667 179.260,313.004 179.657,313.417 179.838 C 313.829 180.019,314.156 180.317,314.144 180.500 C 314.132 180.683,314.579 181.208,315.138 181.667 C 315.697 182.125,317.057 183.439,318.161 184.586 C 319.264 185.733,320.363 186.670,320.603 186.669 C 320.843 186.668,320.963 186.790,320.870 186.941 C 320.650 187.296,321.874 188.348,322.166 188.056 C 322.289 187.934,322.339 188.046,322.278 188.306 C 322.217 188.566,322.470 188.941,322.840 189.139 C 323.210 189.338,324.952 190.925,326.710 192.667 C 334.539 200.421,337.609 203.333,337.958 203.333 C 338.165 203.333,338.333 203.501,338.333 203.705 C 338.333 203.910,339.121 204.823,340.083 205.736 C 357.156 221.917,358.192 222.966,357.731 223.609 C 357.512 223.916,357.199 224.467,357.037 224.833 C 356.876 225.200,356.426 225.786,356.038 226.135 C 355.651 226.484,355.333 226.913,355.333 227.087 C 355.333 227.261,354.883 227.972,354.333 228.667 C 353.783 229.361,353.330 230.058,353.326 230.215 C 353.321 230.372,352.785 231.092,352.134 231.815 C 351.483 232.538,350.716 233.588,350.430 234.148 C 350.144 234.708,349.710 235.284,349.465 235.427 C 349.221 235.571,348.792 236.171,348.512 236.762 C 348.231 237.352,347.327 238.659,346.501 239.665 C 345.675 240.672,345.000 241.671,345.000 241.887 C 345.000 242.102,344.887 242.328,344.750 242.389 C 344.613 242.450,344.050 243.175,343.500 244.000 C 342.950 244.825,342.238 245.791,341.917 246.146 C 341.596 246.502,341.333 246.905,341.333 247.042 C 341.333 247.180,340.883 247.785,340.333 248.387 C 339.783 248.989,339.333 249.585,339.333 249.711 C 339.333 250.118,337.557 252.667,337.274 252.667 C 337.123 252.667,337.000 252.892,337.000 253.167 C 337.000 253.442,336.866 253.667,336.703 253.667 C 336.539 253.667,336.318 254.017,336.210 254.446 C 336.103 254.874,335.524 255.755,334.924 256.403 C 334.324 257.052,333.421 258.336,332.917 259.257 L 332.000 260.932 332.000 314.799 L 332.000 368.667 313.083 368.742 C 302.679 368.783,296.829 368.862,300.083 368.916 C 303.645 368.976,306.000 369.145,306.000 369.341 C 306.000 369.520,306.862 369.692,307.917 369.723 C 309.339 369.764,309.511 369.812,308.583 369.909 L 307.333 370.040 307.333 376.520 C 307.333 383.000,307.333 383.000,306.583 383.060 C 303.620 383.298,315.659 383.711,329.967 383.863 C 343.919 384.010,347.151 383.962,347.376 383.605 C 347.528 383.364,347.656 356.572,347.661 324.067 L 347.670 264.968 348.418 263.901 C 348.830 263.314,349.242 262.758,349.333 262.667 C 349.425 262.575,349.650 262.263,349.833 261.973 C 351.470 259.385,352.850 257.455,353.220 257.233 C 353.466 257.087,353.667 256.762,353.667 256.511 C 353.667 256.261,353.779 256.006,353.917 255.944 C 354.321 255.765,356.000 253.410,356.000 253.022 C 356.000 252.827,356.123 252.667,356.273 252.667 C 356.424 252.667,357.211 251.603,358.023 250.302 C 358.836 249.002,360.363 246.829,361.417 245.474 C 362.471 244.119,363.333 242.858,363.333 242.672 C 363.333 242.486,363.483 242.333,363.667 242.333 C 363.850 242.333,364.000 242.107,364.000 241.830 C 364.000 241.553,364.300 241.070,364.667 240.756 C 365.033 240.442,365.333 240.006,365.333 239.787 C 365.333 239.568,365.446 239.339,365.583 239.278 C 365.952 239.114,368.275 235.907,370.395 232.634 C 371.416 231.058,372.542 229.483,372.897 229.134 C 373.251 228.785,374.423 227.172,375.501 225.548 C 376.579 223.925,377.658 222.521,377.897 222.429 C 378.434 222.223,378.481 220.333,377.950 220.333 C 377.739 220.333,376.577 219.369,375.367 218.190 C 369.303 212.282,364.662 207.823,351.868 195.617 C 349.686 193.536,346.944 190.896,345.774 189.750 C 344.604 188.604,343.492 187.667,343.304 187.667 C 343.115 187.667,343.047 187.527,343.152 187.357 C 343.257 187.187,343.039 186.951,342.667 186.833 C 342.295 186.715,342.076 186.479,342.181 186.309 C 342.287 186.139,342.234 186.000,342.064 186.000 C 341.895 186.000,340.703 184.987,339.417 183.750 C 338.131 182.512,336.799 181.262,336.456 180.971 C 336.114 180.680,335.509 180.080,335.113 179.637 C 333.609 177.959,329.434 174.077,328.723 173.697 C 328.315 173.478,328.059 173.174,328.154 173.021 C 328.248 172.868,328.103 172.557,327.830 172.330 C 327.557 172.104,327.333 172.012,327.333 172.126 C 327.333 172.240,327.033 172.033,326.667 171.667 C 326.300 171.300,326.000 170.850,326.000 170.667 C 326.000 170.483,325.866 170.333,325.703 170.333 C 325.539 170.333,324.677 169.612,323.786 168.730 C 322.895 167.848,321.904 167.028,321.583 166.907 C 321.262 166.786,321.000 166.462,321.000 166.186 C 321.000 165.910,320.587 165.466,320.083 165.199 C 319.579 164.932,318.717 164.163,318.167 163.490 C 317.617 162.818,316.754 162.053,316.249 161.791 C 315.744 161.529,314.940 160.724,314.462 160.002 C 313.984 159.281,313.171 158.503,312.654 158.274 C 312.138 158.046,311.794 157.730,311.891 157.574 C 311.988 157.417,311.752 157.206,311.367 157.105 C 310.982 157.005,310.667 156.790,310.667 156.628 C 310.667 156.466,310.442 156.333,310.167 156.333 C 309.892 156.333,309.667 156.174,309.667 155.980 C 309.667 155.786,309.479 155.740,309.250 155.878 C 308.984 156.038,309.004 155.917,309.306 155.545 C 309.567 155.225,309.642 154.989,309.473 155.021 C 308.821 155.145,308.333 154.985,308.333 154.647 C 308.333 154.453,308.507 154.401,308.718 154.532 C 308.964 154.684,309.012 154.623,308.851 154.362 C 308.713 154.138,308.394 154.033,308.144 154.129 C 307.893 154.226,307.585 154.138,307.459 153.934 C 307.321 153.710,307.382 153.657,307.615 153.802 C 307.827 153.932,308.000 153.889,308.000 153.706 C 308.000 153.523,307.850 153.280,307.667 153.167 C 307.483 153.053,307.333 153.128,307.333 153.333 " stroke="none" fill="#612114" fill-rule="evenodd"></path><path id="path1" d="M84.917 107.693 C 84.367 108.013,84.333 109.917,84.333 140.209 L 84.333 172.385 83.407 173.276 C 82.898 173.766,81.023 175.552,79.241 177.246 C 77.458 178.939,76.000 180.477,76.000 180.663 C 76.000 180.848,75.832 181.000,75.627 181.000 C 75.422 181.000,74.184 182.039,72.877 183.309 C 68.211 187.843,56.754 198.829,47.841 207.316 C 43.249 211.689,40.198 214.620,36.743 217.978 C 35.410 219.273,34.172 220.333,33.993 220.333 C 33.813 220.333,33.667 220.783,33.667 221.333 C 33.667 221.883,33.812 222.333,33.989 222.333 C 34.167 222.333,34.887 223.199,35.590 224.258 C 37.443 227.048,38.372 228.344,39.500 229.716 C 40.363 230.765,41.639 232.641,42.833 234.616 C 43.017 234.919,43.656 235.794,44.254 236.561 C 44.853 237.329,46.136 239.129,47.106 240.561 C 48.076 241.994,49.507 244.067,50.287 245.167 C 51.067 246.267,52.409 248.194,53.269 249.450 C 54.764 251.632,57.264 255.049,57.991 255.903 C 58.179 256.124,58.333 256.409,58.333 256.535 C 58.333 256.661,58.858 257.405,59.500 258.188 C 60.142 258.972,60.667 259.709,60.667 259.828 C 60.667 260.085,62.051 261.979,63.576 263.810 L 64.667 265.120 64.667 324.560 L 64.667 384.000 104.000 384.000 C 130.000 384.000,143.333 383.887,143.333 383.667 C 143.333 383.464,141.833 383.333,139.500 383.333 L 135.667 383.333 135.667 376.377 L 135.667 369.420 134.083 369.210 C 133.212 369.095,120.688 368.902,106.250 368.782 L 80.000 368.563 80.000 314.561 L 80.000 260.559 79.106 259.029 C 78.615 258.188,77.517 256.600,76.667 255.500 C 75.816 254.400,74.713 252.802,74.215 251.950 C 73.717 251.097,72.967 250.047,72.550 249.617 C 72.132 249.186,71.440 248.233,71.011 247.500 C 70.582 246.767,70.058 246.017,69.846 245.833 C 69.634 245.650,68.739 244.375,67.858 243.000 C 66.977 241.625,65.775 239.900,65.187 239.167 C 64.599 238.433,64.021 237.571,63.903 237.250 C 63.784 236.929,63.533 236.667,63.344 236.667 C 63.155 236.667,63.000 236.503,63.000 236.303 C 63.000 236.102,62.737 235.595,62.417 235.174 C 62.096 234.754,61.608 234.075,61.333 233.664 C 61.058 233.254,60.669 232.746,60.469 232.535 C 60.268 232.324,59.683 231.480,59.169 230.659 C 58.655 229.838,58.131 229.092,58.005 229.000 C 57.879 228.908,57.251 228.006,56.608 226.994 C 55.966 225.983,55.221 224.933,54.952 224.661 C 53.518 223.212,53.174 223.664,62.552 214.667 C 64.941 212.375,70.021 207.500,73.841 203.833 C 77.661 200.167,81.418 196.567,82.189 195.833 C 83.604 194.489,94.582 183.965,97.886 180.786 L 99.667 179.072 99.667 143.405 C 99.667 111.189,99.616 107.718,99.139 107.536 C 98.234 107.188,85.543 107.329,84.917 107.693 " stroke="none" fill="#e76424" fill-rule="evenodd"></path><path id="path2" d="M103.000 74.167 L 103.000 143.007 116.917 142.920 L 130.833 142.833 130.921 131.039 L 131.009 119.246 133.764 116.539 C 137.729 112.646,143.702 107.000,143.856 107.000 C 143.929 107.000,145.630 105.350,147.637 103.333 C 149.644 101.317,151.447 99.667,151.643 99.667 C 151.839 99.667,152.000 99.509,152.000 99.317 C 152.000 99.125,152.712 98.309,153.583 97.503 C 157.318 94.049,161.260 90.281,164.312 87.250 C 166.111 85.462,167.691 84.000,167.822 84.000 C 167.953 84.000,169.509 82.517,171.280 80.704 C 173.051 78.891,174.838 77.235,175.250 77.025 C 175.662 76.815,176.000 76.441,176.000 76.193 C 176.000 75.946,176.338 75.518,176.750 75.243 C 177.162 74.968,179.016 73.263,180.869 71.455 C 182.722 69.646,185.872 66.624,187.869 64.739 C 189.866 62.853,192.944 59.928,194.708 58.239 C 196.473 56.549,198.723 54.395,199.708 53.453 C 200.694 52.510,201.738 51.460,202.029 51.120 C 202.321 50.779,203.544 49.675,204.747 48.667 C 206.593 47.121,207.667 45.827,207.667 45.151 C 207.667 45.068,200.049 45.000,190.739 45.000 L 173.812 45.000 171.572 46.859 C 170.341 47.881,169.333 48.856,169.333 49.025 C 169.333 49.195,169.146 49.333,168.918 49.333 C 168.689 49.333,167.824 50.046,166.996 50.917 C 166.167 51.788,164.367 53.509,162.995 54.742 C 161.623 55.974,159.900 57.531,159.167 58.200 C 158.433 58.869,156.721 60.410,155.361 61.625 C 154.002 62.839,152.113 64.583,151.164 65.500 C 149.717 66.898,145.838 70.474,142.847 73.167 C 139.690 76.009,135.952 79.414,134.614 80.667 C 133.732 81.492,132.559 82.588,132.007 83.103 L 131.003 84.039 130.918 44.770 L 130.833 5.500 116.917 5.413 L 103.000 5.326 103.000 74.167 M204.667 56.651 C 204.667 57.061,201.692 60.000,201.276 60.000 C 201.103 60.000,201.053 60.150,201.167 60.333 C 201.280 60.517,201.234 60.667,201.065 60.667 C 200.896 60.667,200.024 61.413,199.129 62.326 C 197.091 64.403,197.476 64.033,193.333 67.886 C 191.408 69.676,189.129 71.842,188.268 72.700 C 187.407 73.557,186.623 74.179,186.526 74.082 C 186.429 73.984,186.244 74.177,186.117 74.510 C 185.868 75.158,184.801 76.333,184.461 76.333 C 184.110 76.333,180.333 80.285,180.333 80.652 C 180.333 80.844,180.126 81.000,179.873 81.000 C 179.621 81.000,178.908 81.563,178.290 82.251 C 177.672 82.939,176.597 83.927,175.901 84.447 C 175.204 84.967,174.304 85.897,173.901 86.513 C 173.497 87.130,172.811 87.724,172.377 87.834 C 171.943 87.943,171.669 88.113,171.767 88.212 C 171.940 88.384,167.410 93.000,167.068 93.000 C 165.579 93.000,164.225 96.564,165.500 97.129 C 165.867 97.291,166.590 98.020,167.107 98.749 C 167.624 99.478,168.336 100.150,168.690 100.243 C 169.044 100.335,169.333 100.555,169.333 100.731 C 169.333 100.907,169.783 101.501,170.333 102.051 C 170.883 102.601,171.333 102.961,171.333 102.852 C 171.333 102.742,172.149 103.480,173.145 104.493 C 174.932 106.308,176.000 106.810,176.000 105.833 C 176.000 105.558,176.161 105.333,176.358 105.333 C 176.555 105.333,177.458 104.583,178.365 103.667 C 179.272 102.750,180.161 102.000,180.340 102.000 C 180.520 102.000,180.667 101.775,180.667 101.500 C 180.667 101.225,180.792 101.000,180.945 101.000 C 181.098 101.000,182.132 100.138,183.243 99.083 C 184.353 98.029,185.690 96.772,186.214 96.289 C 186.738 95.806,187.337 95.206,187.546 94.955 C 187.754 94.705,188.467 94.061,189.129 93.525 C 189.791 92.989,190.333 92.352,190.333 92.109 C 190.333 91.866,190.489 91.667,190.678 91.667 C 191.008 91.667,192.952 89.958,195.039 87.833 C 195.580 87.283,196.179 86.683,196.371 86.500 C 196.564 86.317,198.271 84.629,200.165 82.750 C 202.059 80.871,203.772 79.333,203.971 79.333 C 204.170 79.333,204.333 79.108,204.333 78.833 C 204.333 78.558,204.473 78.333,204.643 78.333 C 204.813 78.333,205.214 78.072,205.533 77.753 C 205.950 77.336,206.152 77.289,206.251 77.586 C 206.327 77.814,206.560 78.000,206.769 78.000 C 206.978 78.000,208.766 79.671,210.741 81.714 C 212.717 83.756,214.333 85.320,214.333 85.188 C 214.333 85.056,214.783 85.399,215.333 85.949 C 215.883 86.499,216.333 87.034,216.333 87.137 C 216.333 87.488,217.479 88.667,217.824 88.670 C 218.013 88.672,218.827 89.417,219.634 90.325 C 220.440 91.234,221.228 91.899,221.384 91.802 C 221.539 91.706,221.667 91.861,221.667 92.147 C 221.667 92.433,221.892 92.667,222.167 92.667 C 222.442 92.667,222.667 92.793,222.667 92.948 C 222.667 93.338,224.125 95.000,224.467 95.000 C 224.621 95.000,225.431 95.712,226.268 96.583 C 227.105 97.454,227.912 98.129,228.061 98.083 C 228.211 98.038,228.333 98.198,228.333 98.440 C 228.333 98.854,229.786 100.333,230.193 100.333 C 230.451 100.333,231.333 101.236,231.333 101.500 C 231.333 101.789,232.227 102.667,232.521 102.667 C 232.651 102.667,233.112 103.049,233.545 103.517 C 233.979 103.985,234.343 104.247,234.354 104.101 C 234.366 103.954,234.515 104.180,234.685 104.605 C 234.871 105.069,235.149 105.281,235.382 105.137 C 235.631 104.983,235.680 105.043,235.518 105.304 C 235.359 105.562,235.513 105.776,235.936 105.887 C 236.304 105.983,236.684 106.363,236.780 106.731 C 236.876 107.099,237.098 107.312,237.273 107.204 C 237.448 107.096,237.672 107.317,237.771 107.695 C 237.870 108.073,238.262 108.464,238.642 108.564 C 239.022 108.663,239.333 108.886,239.333 109.059 C 239.333 109.231,239.483 109.280,239.667 109.167 C 239.850 109.053,240.000 109.117,240.000 109.308 C 240.000 109.853,242.220 111.999,242.512 111.736 C 242.656 111.606,242.665 111.689,242.532 111.920 C 242.378 112.188,242.659 112.550,243.310 112.920 C 243.870 113.239,244.330 113.621,244.331 113.770 C 244.332 113.918,244.487 113.944,244.675 113.828 C 244.863 113.712,244.995 113.741,244.969 113.892 C 244.852 114.567,245.028 115.022,245.333 114.833 C 245.517 114.720,245.667 114.877,245.667 115.183 C 245.667 115.548,245.844 115.670,246.184 115.539 C 246.469 115.430,246.617 115.477,246.514 115.644 C 246.274 116.032,247.292 117.065,247.679 116.825 C 247.840 116.726,248.214 117.114,248.510 117.687 C 248.807 118.260,249.143 118.635,249.257 118.521 C 249.372 118.406,249.667 118.655,249.913 119.073 L 250.361 119.833 250.137 119.016 C 249.924 118.240,249.942 118.228,250.488 118.774 C 250.805 119.091,250.982 119.567,250.880 119.831 C 250.640 120.457,251.283 120.850,251.762 120.371 C 251.966 120.167,251.991 120.000,251.817 120.000 C 251.625 120.000,251.488 116.225,251.469 110.417 C 251.437 100.580,251.392 99.591,250.987 99.841 C 250.858 99.921,250.410 99.689,249.992 99.326 C 249.574 98.964,249.395 98.667,249.596 98.667 C 249.797 98.667,250.053 98.817,250.167 99.000 C 250.280 99.183,250.626 99.323,250.936 99.310 C 251.408 99.290,251.418 99.250,250.998 99.060 C 250.115 98.662,248.667 97.229,248.667 96.754 C 248.667 96.501,248.517 96.387,248.333 96.500 C 248.150 96.613,248.000 96.538,248.000 96.333 C 248.000 96.128,247.852 96.052,247.670 96.164 C 247.474 96.285,247.430 96.135,247.562 95.793 C 247.733 95.347,247.653 95.267,247.207 95.438 C 246.838 95.580,246.712 95.530,246.855 95.299 C 247.060 94.967,244.261 92.005,243.733 91.996 C 243.605 91.994,243.153 91.456,242.729 90.802 C 242.244 90.053,241.780 89.680,241.479 89.795 C 241.215 89.896,241.000 89.813,241.000 89.611 C 241.000 89.136,239.433 87.678,239.187 87.924 C 239.084 88.027,239.000 87.852,239.000 87.536 C 239.000 87.220,238.887 87.029,238.750 87.112 C 238.443 87.298,237.637 86.474,237.884 86.227 C 237.982 86.129,237.593 85.807,237.020 85.510 C 236.447 85.214,236.069 84.824,236.181 84.644 C 236.292 84.464,236.184 84.358,235.941 84.408 C 235.699 84.459,235.537 84.313,235.583 84.083 C 235.629 83.854,235.443 83.667,235.169 83.667 C 234.896 83.667,234.484 83.358,234.253 82.981 C 234.022 82.604,233.346 81.992,232.750 81.621 C 232.154 81.249,231.667 80.804,231.667 80.631 C 231.667 80.274,227.876 76.333,227.533 76.333 C 227.297 76.333,222.925 72.164,218.005 67.250 C 216.399 65.646,214.950 64.333,214.784 64.333 C 214.428 64.333,213.151 62.925,213.240 62.631 C 213.274 62.520,212.934 62.232,212.484 61.991 C 212.034 61.751,211.667 61.354,211.667 61.110 C 211.667 60.866,211.442 60.667,211.167 60.667 C 210.892 60.667,210.667 60.442,210.667 60.167 C 210.667 59.892,210.553 59.667,210.415 59.667 C 210.277 59.667,209.414 58.921,208.499 58.011 C 206.911 56.432,204.667 55.636,204.667 56.651 M157.747 97.329 C 157.519 97.693,157.333 98.273,157.333 98.618 C 157.333 98.963,156.863 100.652,156.287 102.373 C 155.712 104.093,155.109 106.100,154.948 106.833 C 154.786 107.567,154.607 108.317,154.550 108.500 C 154.493 108.683,153.904 110.558,153.241 112.667 C 151.855 117.069,150.587 121.307,150.471 121.922 C 150.427 122.154,151.302 123.129,152.417 124.089 C 153.531 125.048,155.660 127.033,157.147 128.500 C 159.573 130.891,170.371 141.294,171.695 142.513 C 172.279 143.052,206.667 143.272,206.667 142.738 C 206.667 142.594,205.742 141.656,204.611 140.654 C 203.481 139.653,200.539 136.846,198.074 134.417 C 195.608 131.987,193.521 130.000,193.436 130.000 C 193.304 130.000,192.255 129.061,190.877 127.710 C 190.670 127.507,189.543 126.401,188.373 125.253 C 181.818 118.822,179.744 116.824,176.178 113.500 C 174.015 111.483,171.252 108.909,170.039 107.779 C 168.826 106.648,166.126 104.098,164.040 102.112 C 158.514 96.851,158.318 96.667,158.235 96.667 C 158.194 96.667,157.974 96.965,157.747 97.329 M252.827 101.515 C 252.464 101.809,252.380 101.939,252.640 101.803 C 252.990 101.622,253.056 101.707,252.894 102.129 C 252.763 102.469,252.808 102.619,253.004 102.498 C 253.185 102.386,253.333 102.056,253.333 101.765 C 253.333 101.381,253.561 101.482,254.167 102.135 C 255.064 103.104,255.344 104.059,254.476 103.190 C 253.721 102.436,253.453 102.544,254.155 103.320 C 254.480 103.679,254.841 103.962,254.956 103.947 C 255.593 103.868,255.771 104.050,255.333 104.333 C 254.902 104.612,254.911 104.657,255.396 104.662 C 256.300 104.670,255.978 103.577,254.678 102.221 C 253.556 101.051,253.450 101.011,252.827 101.515 M263.667 111.462 C 263.667 111.532,264.079 111.855,264.583 112.180 L 265.500 112.770 264.865 112.052 C 264.303 111.416,263.667 111.103,263.667 111.462 M252.859 121.440 C 252.322 121.833,252.318 121.906,252.811 122.315 C 253.273 122.698,253.319 122.683,253.137 122.210 C 252.983 121.808,253.065 121.712,253.442 121.857 C 253.726 121.966,253.887 122.240,253.800 122.467 C 253.612 122.958,254.783 124.527,255.708 125.022 C 256.304 125.341,256.326 125.313,255.949 124.708 C 255.720 124.342,255.430 124.107,255.304 124.185 C 255.179 124.262,254.901 124.115,254.687 123.858 C 254.380 123.487,254.424 123.356,254.899 123.233 C 255.452 123.090,255.453 123.074,254.917 123.039 C 254.582 123.016,254.333 122.733,254.333 122.374 C 254.333 121.409,253.566 120.923,252.859 121.440 M260.677 129.532 C 260.663 130.011,261.891 131.112,262.547 131.208 C 262.830 131.249,262.960 131.182,262.836 131.058 C 262.712 130.935,262.436 130.827,262.222 130.818 C 262.008 130.810,261.875 130.611,261.925 130.377 C 261.975 130.142,261.872 130.040,261.695 130.149 C 261.519 130.258,261.220 130.082,261.031 129.757 C 260.842 129.432,260.682 129.331,260.677 129.532 M276.333 144.553 C 276.333 144.735,276.746 145.247,277.250 145.692 L 278.167 146.500 277.333 145.500 C 276.875 144.950,276.462 144.438,276.417 144.361 C 276.371 144.285,276.333 144.371,276.333 144.553 M282.641 150.777 C 283.491 151.712,283.673 151.827,283.656 151.417 C 283.650 151.279,283.238 150.879,282.740 150.527 L 281.833 149.887 282.641 150.777 M127.167 369.017 C 131.567 369.141,135.279 369.263,135.417 369.288 C 135.554 369.313,135.667 372.483,135.667 376.333 L 135.667 383.333 139.500 383.333 C 141.823 383.333,143.333 383.464,143.333 383.665 C 143.333 383.883,129.918 384.027,104.250 384.083 C 82.754 384.131,117.517 384.181,181.500 384.196 C 245.864 384.211,289.643 384.113,279.500 383.978 C 261.800 383.742,247.325 383.292,250.250 383.069 L 251.667 382.962 251.667 376.481 L 251.667 370.000 253.306 370.000 C 254.320 370.000,254.997 369.841,255.083 369.583 C 255.191 369.259,259.573 369.128,274.861 368.990 C 285.662 368.893,255.050 368.808,206.833 368.802 C 158.617 368.796,122.767 368.893,127.167 369.017 " stroke="none" fill="#bc2424" fill-rule="evenodd"></path><path id="path3" d="M304.167 150.000 C 304.883 150.733,305.544 151.333,305.635 151.333 C 305.727 151.333,305.216 150.733,304.500 150.000 C 303.784 149.267,303.123 148.667,303.031 148.667 C 302.940 148.667,303.451 149.267,304.167 150.000 M203.000 161.333 C 203.000 161.517,202.572 161.667,202.050 161.667 C 200.448 161.667,195.690 164.573,192.541 167.476 C 191.831 168.131,191.179 168.667,191.093 168.667 C 190.956 168.667,187.293 171.315,184.518 173.421 C 183.977 173.831,178.802 177.684,173.018 181.984 C 167.233 186.283,162.449 189.924,162.386 190.076 C 162.323 190.227,161.723 190.653,161.053 191.022 C 159.660 191.789,158.514 192.603,156.161 194.500 C 154.328 195.978,154.374 195.942,152.500 197.326 C 151.767 197.867,150.867 198.536,150.500 198.812 C 150.133 199.088,149.008 199.909,148.000 200.637 C 146.992 201.365,145.867 202.253,145.500 202.610 C 145.133 202.968,144.496 203.362,144.083 203.486 C 143.670 203.610,143.178 204.002,142.988 204.356 C 142.798 204.710,142.457 205.000,142.229 205.000 C 142.002 205.000,141.344 205.412,140.768 205.917 C 138.704 207.724,137.040 209.000,136.747 209.000 C 136.583 209.000,136.097 209.375,135.667 209.833 C 135.236 210.292,134.735 210.667,134.553 210.667 C 134.371 210.667,133.985 210.890,133.695 211.162 C 132.821 211.982,130.130 214.111,128.845 215.000 C 126.119 216.884,120.375 221.162,119.275 222.127 C 118.968 222.396,118.437 222.766,118.095 222.949 C 116.048 224.044,113.603 227.303,112.801 230.005 C 111.750 233.544,112.859 242.000,114.374 242.000 C 114.535 242.000,114.667 242.197,114.667 242.437 C 114.667 242.995,117.400 245.537,118.310 245.826 C 118.689 245.946,119.000 246.161,119.000 246.302 C 119.000 246.726,120.531 247.292,122.320 247.530 C 123.244 247.652,124.000 247.883,124.000 248.043 C 124.000 248.430,128.908 248.418,129.147 248.031 C 129.250 247.865,130.112 247.622,131.062 247.491 C 132.300 247.321,133.349 246.863,134.758 245.877 C 135.840 245.120,137.050 244.275,137.446 244.000 C 137.842 243.726,139.217 242.717,140.500 241.758 C 141.783 240.799,143.358 239.644,144.000 239.190 C 144.642 238.736,146.067 237.679,147.167 236.841 C 152.545 232.742,153.739 231.851,156.833 229.622 C 158.667 228.302,160.392 227.016,160.667 226.765 C 160.942 226.513,162.592 225.269,164.333 224.000 C 166.075 222.731,168.700 220.787,170.167 219.680 C 171.633 218.573,173.883 216.889,175.167 215.938 C 180.336 212.104,184.530 208.958,185.061 208.514 C 185.370 208.255,186.045 207.775,186.561 207.446 C 187.078 207.118,187.575 206.766,187.667 206.664 C 187.758 206.563,188.808 205.767,190.000 204.897 C 191.192 204.027,192.560 202.981,193.041 202.574 C 193.522 202.167,194.866 201.158,196.028 200.333 C 199.622 197.781,201.473 196.399,202.167 195.750 C 202.533 195.407,203.680 194.559,204.714 193.865 L 206.596 192.605 207.548 193.209 C 208.496 193.811,210.811 195.533,211.526 196.167 C 211.732 196.350,212.755 197.100,213.799 197.833 C 215.377 198.942,220.293 202.615,221.500 203.588 C 221.683 203.735,224.308 205.681,227.333 207.912 C 230.358 210.142,233.573 212.537,234.476 213.234 C 235.379 213.930,237.479 215.503,239.143 216.729 C 240.806 217.955,242.542 219.263,243.000 219.635 C 243.724 220.223,245.103 221.250,248.298 223.584 C 248.737 223.904,249.996 224.842,251.096 225.667 C 252.196 226.492,253.411 227.391,253.798 227.665 C 254.184 227.939,254.873 228.502,255.330 228.915 C 255.786 229.329,256.323 229.667,256.522 229.667 C 256.721 229.667,257.236 230.042,257.667 230.500 C 258.097 230.958,258.594 231.333,258.770 231.333 C 258.946 231.333,259.427 231.671,259.839 232.083 C 260.700 232.946,263.467 235.000,263.767 235.000 C 263.879 235.000,264.338 235.338,264.787 235.750 C 265.237 236.162,266.227 236.950,266.987 237.500 C 267.747 238.050,268.868 238.912,269.478 239.417 C 270.089 239.921,270.748 240.333,270.944 240.333 C 271.140 240.333,271.420 240.535,271.567 240.781 C 271.713 241.027,272.283 241.513,272.833 241.860 C 273.383 242.207,274.033 242.682,274.276 242.915 C 274.519 243.147,275.044 243.511,275.443 243.722 C 275.841 243.933,276.363 244.382,276.602 244.720 C 276.842 245.057,277.226 245.333,277.456 245.333 C 277.686 245.333,278.175 245.613,278.541 245.955 C 279.536 246.882,280.330 247.224,282.076 247.477 C 282.942 247.602,283.738 247.847,283.845 248.019 C 284.083 248.404,289.333 248.442,289.333 248.059 C 289.333 247.908,290.206 247.622,291.272 247.424 C 294.952 246.740,298.839 243.254,300.202 239.416 C 300.544 238.454,300.938 237.667,301.078 237.667 C 301.219 237.667,301.333 236.167,301.333 234.333 C 301.333 232.500,301.219 231.000,301.078 231.000 C 300.938 231.000,300.546 230.213,300.207 229.250 C 299.196 226.383,293.398 220.819,288.270 217.796 C 287.924 217.593,287.300 217.105,286.883 216.713 C 286.465 216.321,285.972 216.000,285.787 216.000 C 285.601 216.000,285.097 215.625,284.667 215.167 C 284.236 214.708,283.697 214.333,283.470 214.333 C 283.242 214.333,283.006 214.215,282.944 214.071 C 282.883 213.927,282.158 213.289,281.333 212.654 C 280.508 212.019,279.713 211.313,279.567 211.083 C 279.420 210.854,279.109 210.667,278.875 210.667 C 278.641 210.667,278.097 210.292,277.667 209.833 C 277.236 209.375,276.722 209.000,276.525 208.999 C 276.328 208.999,275.679 208.582,275.083 208.072 L 274.000 207.147 274.000 192.428 C 274.000 183.863,273.867 177.359,273.681 176.871 C 272.992 175.058,272.516 175.000,258.333 175.000 C 242.050 175.000,242.729 174.771,242.409 180.376 L 242.243 183.293 239.372 181.288 C 237.792 180.186,235.493 178.507,234.263 177.558 C 233.033 176.610,231.018 175.083,229.785 174.167 C 228.552 173.250,226.409 171.641,225.022 170.591 C 223.635 169.541,222.389 168.679,222.253 168.674 C 222.000 168.667,221.174 168.012,218.983 166.083 C 218.306 165.487,217.596 165.000,217.404 165.000 C 217.212 165.000,217.006 164.872,216.944 164.716 C 216.625 163.901,212.378 161.667,211.148 161.667 C 210.722 161.667,210.280 161.517,210.167 161.333 C 210.051 161.146,208.441 161.000,206.480 161.000 C 204.382 161.000,203.000 161.132,203.000 161.333 M300.167 167.667 C 300.883 168.400,301.544 169.000,301.635 169.000 C 301.727 169.000,301.216 168.400,300.500 167.667 C 299.784 166.933,299.123 166.333,299.031 166.333 C 298.940 166.333,299.451 166.933,300.167 167.667 M209.540 169.933 C 211.078 170.771,213.671 172.651,217.842 175.950 C 218.030 176.098,218.630 176.505,219.175 176.852 C 219.721 177.200,220.242 177.563,220.333 177.659 C 220.470 177.801,222.192 179.152,223.833 180.403 C 224.017 180.542,224.617 181.012,225.167 181.445 C 225.717 181.879,226.516 182.418,226.942 182.642 C 227.368 182.867,227.968 183.273,228.275 183.546 C 229.437 184.578,233.992 188.000,234.203 188.000 C 234.324 188.000,234.759 188.338,235.169 188.750 C 235.579 189.162,237.672 190.775,239.818 192.333 C 243.449 194.969,247.054 197.628,247.833 198.246 C 248.017 198.391,248.992 199.103,250.000 199.827 C 251.008 200.552,251.908 201.230,252.000 201.334 C 252.092 201.438,253.897 202.793,256.012 204.345 C 258.127 205.897,260.302 207.503,260.845 207.913 C 261.389 208.323,263.408 209.820,265.333 211.240 C 267.258 212.659,269.896 214.658,271.194 215.682 C 272.493 216.706,274.143 217.900,274.861 218.337 C 275.579 218.773,276.268 219.288,276.392 219.482 C 276.515 219.675,277.462 220.433,278.495 221.167 C 281.555 223.339,285.463 226.266,286.000 226.787 C 286.275 227.054,286.912 227.460,287.417 227.690 C 287.921 227.919,288.333 228.221,288.333 228.360 C 288.333 228.499,288.856 228.935,289.494 229.330 C 293.573 231.851,293.439 237.239,289.243 239.379 C 286.546 240.756,283.888 239.825,278.671 235.676 C 277.396 234.663,274.617 232.558,272.495 231.000 C 270.372 229.442,268.361 227.942,268.025 227.667 C 267.689 227.392,266.555 226.567,265.504 225.833 C 264.454 225.100,263.284 224.162,262.904 223.750 C 262.524 223.338,262.034 223.000,261.814 223.000 C 261.595 223.000,261.229 222.776,261.003 222.503 C 260.776 222.230,259.670 221.381,258.545 220.617 C 257.420 219.853,255.750 218.595,254.833 217.823 C 253.917 217.051,252.679 216.171,252.083 215.868 C 251.487 215.564,251.000 215.180,251.000 215.014 C 251.000 214.848,250.737 214.624,250.417 214.517 C 250.096 214.410,249.278 213.837,248.599 213.244 C 247.920 212.652,246.870 211.820,246.266 211.397 C 243.608 209.537,236.503 204.241,234.663 202.750 C 234.154 202.338,233.571 202.000,233.369 202.000 C 233.166 202.000,232.996 201.887,232.991 201.750 C 232.987 201.612,231.845 200.675,230.454 199.667 C 229.063 198.658,226.720 196.889,225.247 195.736 C 223.775 194.582,222.257 193.471,221.875 193.267 C 221.493 193.062,221.006 192.731,220.794 192.531 C 220.581 192.330,220.053 191.911,219.620 191.598 C 219.187 191.285,217.381 189.935,215.607 188.598 C 213.832 187.261,212.053 185.942,211.653 185.667 C 211.252 185.392,210.392 184.751,209.740 184.242 C 207.677 182.632,205.484 182.604,203.567 184.165 C 202.479 185.049,196.191 189.759,194.886 190.667 C 193.974 191.301,187.150 196.405,185.871 197.410 C 185.342 197.826,184.742 198.227,184.538 198.300 C 184.334 198.373,184.092 198.523,184.000 198.633 C 183.908 198.743,182.858 199.570,181.667 200.470 C 180.475 201.371,179.350 202.285,179.167 202.503 C 178.983 202.720,178.383 203.151,177.833 203.462 C 177.283 203.772,176.292 204.432,175.630 204.929 C 173.386 206.615,171.836 207.831,171.187 208.417 C 170.832 208.737,170.399 209.000,170.225 209.000 C 170.052 209.000,169.574 209.338,169.163 209.750 C 168.753 210.162,167.857 210.875,167.173 211.333 C 166.490 211.792,165.365 212.654,164.675 213.250 C 163.984 213.846,163.251 214.333,163.046 214.333 C 162.840 214.333,162.485 214.633,162.256 215.000 C 162.027 215.367,161.676 215.667,161.476 215.667 C 161.276 215.667,159.774 216.721,158.139 218.010 C 156.504 219.300,154.727 220.612,154.190 220.927 C 153.652 221.242,152.885 221.838,152.485 222.250 C 152.084 222.662,151.595 223.000,151.397 223.000 C 151.200 223.000,150.842 223.262,150.602 223.583 C 150.363 223.904,149.079 224.904,147.750 225.804 C 146.421 226.705,145.333 227.544,145.333 227.668 C 145.333 227.792,144.921 228.081,144.417 228.310 C 143.912 228.540,143.275 228.935,143.000 229.188 C 141.742 230.349,140.056 231.667,139.830 231.667 C 139.693 231.667,139.016 232.154,138.325 232.750 C 137.635 233.346,136.520 234.208,135.848 234.667 C 135.176 235.125,134.298 235.764,133.896 236.086 C 128.003 240.822,124.143 241.208,121.429 237.334 C 120.028 235.332,121.424 229.667,123.319 229.667 C 123.510 229.667,123.667 229.551,123.667 229.409 C 123.667 229.267,124.182 228.874,124.812 228.535 C 125.442 228.196,126.379 227.510,126.895 227.010 C 127.411 226.511,129.661 224.805,131.896 223.220 C 134.130 221.635,136.049 220.190,136.160 220.010 C 136.272 219.830,137.219 219.122,138.265 218.436 C 139.311 217.751,140.242 217.107,140.333 217.005 C 140.546 216.770,148.217 210.998,149.200 210.333 C 149.876 209.877,156.018 205.283,159.667 202.505 C 164.247 199.018,166.799 197.111,167.483 196.667 C 168.318 196.123,169.322 195.384,171.331 193.833 C 172.044 193.283,173.176 192.458,173.847 192.000 C 174.518 191.542,175.384 190.867,175.771 190.500 C 176.158 190.133,176.803 189.608,177.204 189.333 C 177.605 189.058,178.762 188.263,179.776 187.567 C 180.790 186.870,182.184 185.782,182.875 185.150 C 183.565 184.517,184.319 184.000,184.549 184.000 C 184.779 184.000,185.087 183.797,185.233 183.549 C 185.380 183.300,185.875 182.902,186.333 182.663 C 186.792 182.425,187.467 181.966,187.833 181.643 C 190.568 179.238,191.289 178.667,191.589 178.667 C 191.776 178.667,192.283 178.294,192.715 177.839 C 193.147 177.384,193.686 177.009,193.914 177.006 C 194.141 177.003,194.515 176.700,194.744 176.333 C 194.973 175.967,195.335 175.667,195.549 175.667 C 195.894 175.667,197.174 174.718,199.628 172.643 C 200.065 172.273,200.839 171.756,201.348 171.493 C 201.857 171.229,202.331 170.841,202.401 170.629 C 202.794 169.452,207.768 168.966,209.540 169.933 M265.667 191.694 C 265.667 196.660,265.554 200.670,265.417 200.606 C 264.436 200.149,262.667 198.880,262.667 198.634 C 262.667 198.469,262.468 198.333,262.225 198.333 C 261.982 198.333,261.431 197.958,261.000 197.500 C 260.569 197.042,260.031 196.667,259.803 196.667 C 259.575 196.667,259.339 196.544,259.278 196.394 C 259.217 196.244,257.517 194.904,255.500 193.417 C 250.196 189.506,250.667 190.212,250.667 186.167 L 250.667 182.667 258.167 182.667 L 265.667 182.667 265.667 191.694 M330.833 197.000 C 331.549 197.733,332.210 198.333,332.302 198.333 C 332.394 198.333,331.883 197.733,331.167 197.000 C 330.451 196.267,329.790 195.667,329.698 195.667 C 329.606 195.667,330.117 196.267,330.833 197.000 M375.000 217.771 C 375.000 217.828,375.488 218.316,376.083 218.854 L 377.167 219.833 376.188 218.750 C 375.275 217.740,375.000 217.513,375.000 217.771 M352.417 231.013 C 351.364 232.312,351.476 232.611,352.541 231.345 C 353.023 230.773,353.360 230.256,353.291 230.197 C 353.223 230.137,352.829 230.504,352.417 231.013 M165.347 239.380 C 164.346 239.545,163.189 239.903,162.775 240.174 C 162.362 240.445,161.741 240.667,161.397 240.667 C 159.729 240.667,153.721 245.621,152.504 248.000 C 152.176 248.642,151.795 249.242,151.658 249.333 C 151.216 249.629,150.333 252.054,150.333 252.974 C 150.333 253.465,150.146 254.054,149.917 254.283 C 149.597 254.603,149.500 257.838,149.500 268.167 C 149.500 278.496,149.597 281.730,149.917 282.050 C 150.146 282.279,150.333 282.985,150.333 283.620 C 150.333 285.314,152.517 289.500,154.729 292.046 L 156.651 294.259 155.742 294.601 C 155.242 294.790,154.312 295.034,153.675 295.145 C 153.037 295.256,151.912 295.624,151.175 295.963 C 150.437 296.302,149.308 296.774,148.667 297.011 C 148.025 297.249,147.275 297.614,147.000 297.824 C 146.725 298.033,146.066 298.390,145.534 298.617 C 145.003 298.844,144.178 299.330,143.701 299.696 C 143.224 300.063,142.008 300.907,141.000 301.572 C 137.954 303.583,133.820 307.552,131.128 311.051 C 129.378 313.324,126.334 318.226,126.331 318.774 C 126.330 318.990,126.091 319.617,125.799 320.167 C 123.759 324.014,122.333 329.876,122.090 335.411 L 121.905 339.656 123.184 340.828 L 124.464 342.000 206.732 342.000 C 287.477 342.000,289.012 341.988,289.641 341.359 C 293.142 337.858,289.992 322.498,283.906 313.394 C 281.311 309.512,273.944 302.000,272.733 302.000 C 272.544 302.000,272.339 301.880,272.278 301.734 C 272.072 301.242,267.472 298.333,266.899 298.333 C 266.588 298.333,266.333 298.211,266.333 298.062 C 266.333 297.689,264.127 296.667,263.322 296.667 C 262.962 296.667,262.667 296.531,262.667 296.365 C 262.667 295.993,259.834 295.000,258.774 295.000 C 257.684 295.000,257.789 294.746,259.758 292.605 C 261.859 290.319,264.127 286.013,264.903 282.832 C 265.588 280.027,265.951 261.017,265.359 259.000 C 265.170 258.358,264.785 256.875,264.503 255.703 C 261.684 244.001,244.086 235.085,233.869 240.182 C 233.335 240.449,232.688 240.667,232.432 240.667 C 228.798 240.667,220.664 248.659,218.804 254.057 C 218.341 255.401,217.791 256.950,217.582 257.500 C 217.089 258.800,216.829 278.502,217.280 280.441 C 218.403 285.263,219.760 288.745,221.065 290.146 C 221.396 290.502,221.667 290.914,221.667 291.062 C 221.667 291.211,222.270 291.954,223.007 292.713 C 224.535 294.289,224.335 294.717,221.889 295.100 C 221.187 295.210,219.987 295.588,219.223 295.940 C 218.459 296.292,217.308 296.774,216.667 297.011 C 216.025 297.249,215.263 297.643,214.974 297.888 C 214.684 298.133,214.242 298.333,213.991 298.333 C 213.740 298.333,212.500 299.046,211.236 299.917 C 209.971 300.787,208.667 301.656,208.337 301.846 C 208.008 302.037,207.515 302.378,207.242 302.604 C 206.677 303.073,204.864 302.300,204.070 301.250 C 203.827 300.929,203.436 300.667,203.200 300.667 C 202.964 300.667,202.355 300.310,201.848 299.874 C 200.775 298.952,196.583 296.667,195.965 296.667 C 195.733 296.667,194.859 296.335,194.022 295.929 C 193.185 295.523,191.900 295.106,191.167 295.002 L 189.833 294.812 191.152 293.489 C 196.061 288.567,197.321 284.532,197.328 273.715 L 197.333 266.263 198.183 265.254 C 202.460 260.171,203.257 241.529,199.284 239.475 C 198.214 238.921,168.614 238.838,165.347 239.380 M360.479 246.557 C 359.966 247.230,359.716 247.676,359.924 247.547 C 360.351 247.283,361.794 245.333,361.562 245.333 C 361.480 245.333,360.992 245.884,360.479 246.557 M192.934 252.417 C 192.772 258.953,192.265 260.127,188.525 262.626 L 187.216 263.500 172.442 263.605 L 157.667 263.710 157.667 260.871 C 157.667 259.309,157.797 257.687,157.957 257.266 C 158.116 256.845,158.524 255.600,158.862 254.500 C 159.490 252.456,161.643 249.931,163.667 248.864 C 164.125 248.622,164.950 248.180,165.500 247.881 C 166.377 247.404,168.138 247.337,179.780 247.335 L 193.060 247.333 192.934 252.417 M246.263 247.843 C 246.393 248.031,247.175 248.475,248.000 248.829 C 252.878 250.922,256.295 255.763,256.599 261.010 L 256.752 263.667 241.376 263.667 L 226.000 263.667 226.000 261.375 C 226.000 256.170,229.478 251.220,234.833 248.803 C 235.567 248.472,236.242 248.098,236.333 247.973 C 236.821 247.303,245.808 247.186,246.263 247.843 M335.108 255.750 C 334.736 256.162,334.313 256.725,334.167 257.000 C 333.886 257.530,333.963 257.458,335.313 255.917 C 335.755 255.412,336.041 255.000,335.950 255.000 C 335.858 255.000,335.479 255.338,335.108 255.750 M188.667 275.788 C 188.667 280.945,188.316 282.821,186.966 284.876 C 185.772 286.693,183.027 289.667,182.544 289.667 C 182.371 289.667,181.765 290.013,181.198 290.437 C 178.042 292.793,169.765 292.818,165.701 290.484 C 161.879 288.289,158.333 283.154,158.333 279.815 C 158.333 279.388,158.183 278.947,158.000 278.833 C 157.814 278.718,157.667 277.164,157.667 275.317 L 157.667 272.007 172.417 271.917 C 180.529 271.867,187.504 271.790,187.917 271.746 C 188.658 271.668,188.667 271.713,188.667 275.788 M256.667 276.114 C 256.667 282.732,254.133 288.002,250.033 289.907 C 249.373 290.214,248.743 290.596,248.632 290.757 C 248.437 291.039,247.280 291.389,244.500 292.008 C 240.978 292.791,235.822 291.929,232.884 290.066 C 231.184 288.988,228.333 286.098,228.333 285.452 C 228.333 285.319,228.048 284.900,227.700 284.521 C 226.472 283.187,226.000 280.909,226.000 276.322 L 226.000 272.000 241.333 272.000 L 256.667 272.000 256.667 276.114 M182.000 301.370 C 183.925 301.576,185.969 301.950,186.543 302.202 C 187.117 302.454,188.531 302.902,189.685 303.197 C 190.838 303.493,191.987 303.939,192.236 304.188 C 192.485 304.438,193.200 304.783,193.824 304.955 C 194.449 305.127,195.470 305.658,196.094 306.134 C 196.719 306.610,197.377 307.000,197.557 307.000 C 197.737 307.000,198.236 307.375,198.667 307.833 C 199.097 308.292,199.648 308.667,199.891 308.667 C 200.543 308.667,200.453 308.921,199.167 310.711 C 198.525 311.604,198.000 312.447,198.000 312.584 C 197.999 312.721,197.618 313.277,197.152 313.819 C 195.710 315.495,193.749 319.373,192.579 322.858 C 191.965 324.690,191.357 326.358,191.229 326.566 C 191.101 326.773,190.751 328.530,190.451 330.471 L 189.905 334.000 170.286 334.000 L 150.667 334.000 150.667 329.153 C 150.667 322.589,149.642 320.667,146.144 320.667 C 142.855 320.667,141.667 322.965,141.667 329.330 L 141.667 334.000 136.152 334.000 L 130.636 334.000 130.839 332.750 C 131.832 326.638,138.042 314.000,140.052 314.000 C 140.207 314.000,140.333 313.837,140.333 313.637 C 140.333 313.224,143.216 310.333,143.628 310.333 C 143.776 310.333,144.158 310.044,144.478 309.691 C 144.797 309.338,146.133 308.333,147.446 307.457 C 148.759 306.582,149.883 305.746,149.944 305.599 C 150.006 305.453,150.243 305.333,150.471 305.333 C 150.700 305.333,151.625 304.949,152.527 304.480 C 153.429 304.010,154.992 303.409,156.000 303.143 C 157.008 302.878,158.358 302.449,159.000 302.190 C 161.687 301.108,175.079 300.631,182.000 301.370 M250.333 301.476 C 252.258 301.734,254.394 302.184,255.079 302.475 C 255.764 302.767,257.076 303.166,257.995 303.363 C 258.915 303.561,259.667 303.830,259.667 303.962 C 259.667 304.094,260.453 304.484,261.415 304.830 C 262.376 305.176,263.463 305.741,263.831 306.086 C 264.199 306.430,265.063 307.030,265.750 307.418 C 266.438 307.805,267.000 308.245,267.000 308.395 C 267.000 308.544,267.188 308.669,267.417 308.672 C 267.773 308.677,268.318 309.078,270.500 310.945 C 270.826 311.224,273.131 313.726,275.209 316.056 C 275.782 316.699,276.511 317.774,276.830 318.446 C 277.149 319.117,277.519 319.667,277.654 319.667 C 277.789 319.667,278.163 320.304,278.485 321.083 C 278.808 321.862,279.285 322.905,279.545 323.400 C 280.202 324.650,281.898 329.887,282.168 331.500 C 282.291 332.233,282.464 333.096,282.552 333.417 C 282.699 333.956,282.279 334.000,277.022 334.000 L 271.333 334.000 271.332 328.917 C 271.330 322.237,270.086 320.187,266.397 320.785 C 263.281 321.291,262.667 322.651,262.667 329.051 L 262.667 334.000 240.667 334.000 L 218.667 334.000 218.667 329.229 C 218.667 322.689,217.616 320.667,214.218 320.667 C 210.704 320.667,209.667 322.570,209.667 329.019 L 209.667 334.000 204.167 334.000 C 201.142 334.000,198.667 333.878,198.667 333.728 C 198.667 332.025,200.789 324.169,201.342 323.828 C 201.510 323.724,201.803 323.065,201.992 322.363 C 202.181 321.662,202.782 320.581,203.329 319.961 C 203.876 319.341,204.329 318.608,204.337 318.333 C 204.345 318.058,204.910 317.217,205.592 316.464 C 206.275 315.711,207.281 314.526,207.828 313.830 C 209.230 312.045,214.375 307.735,216.287 306.743 C 216.770 306.492,217.398 306.077,217.682 305.819 C 217.967 305.562,218.861 305.118,219.670 304.832 C 220.478 304.547,221.221 304.196,221.320 304.053 C 221.419 303.910,222.550 303.518,223.833 303.182 C 225.117 302.846,226.350 302.428,226.575 302.252 C 228.003 301.134,243.916 300.614,250.333 301.476 M309.725 384.250 C 316.449 384.300,327.549 384.300,334.392 384.250 C 341.235 384.200,335.733 384.158,322.167 384.158 C 308.600 384.158,303.001 384.199,309.725 384.250 " stroke="none" fill="#040404" fill-rule="evenodd"></path><path id="path4" d="M249.767 98.549 C 249.519 98.649,249.809 99.140,250.531 99.842 L 251.696 100.973 251.598 110.487 C 251.544 115.719,251.621 120.000,251.770 120.000 C 251.918 120.000,251.943 120.157,251.824 120.348 C 251.455 120.945,252.328 121.693,252.984 121.342 C 253.670 120.975,254.333 121.495,254.333 122.400 C 254.333 122.740,254.586 123.010,254.917 123.023 C 255.446 123.045,255.443 123.069,254.884 123.289 C 254.325 123.509,254.318 123.572,254.801 123.973 C 255.094 124.216,255.333 124.288,255.333 124.133 C 255.333 123.978,255.569 124.188,255.856 124.598 C 256.144 125.009,256.542 125.244,256.741 125.121 C 256.949 124.992,257.008 125.051,256.879 125.259 C 256.756 125.458,256.938 125.819,257.283 126.061 C 257.628 126.302,257.919 126.644,257.931 126.820 C 257.942 126.996,258.224 127.248,258.559 127.380 C 258.893 127.512,259.043 127.630,258.891 127.643 C 258.740 127.656,259.115 128.077,259.724 128.578 C 260.334 129.079,260.955 129.682,261.104 129.918 C 261.253 130.154,261.538 130.246,261.739 130.122 C 261.954 129.989,262.008 130.051,261.870 130.274 C 261.732 130.497,262.184 131.030,262.974 131.576 C 263.710 132.084,264.403 132.765,264.513 133.088 C 264.624 133.412,264.843 133.597,265.000 133.500 C 265.157 133.403,265.382 133.628,265.500 134.000 C 265.618 134.372,265.854 134.590,266.024 134.485 C 266.194 134.380,266.333 134.528,266.333 134.814 C 266.333 135.099,266.521 135.296,266.750 135.250 C 266.979 135.204,267.129 135.354,267.083 135.583 C 267.038 135.813,267.150 136.000,267.333 136.000 C 267.517 136.000,268.482 136.809,269.479 137.798 C 270.476 138.787,271.400 139.500,271.533 139.382 C 271.665 139.263,271.679 139.332,271.564 139.534 C 271.449 139.737,272.354 140.787,273.575 141.868 C 274.796 142.949,276.816 144.879,278.064 146.156 C 279.312 147.433,280.333 148.392,280.333 148.287 C 280.333 148.181,281.083 148.845,282.000 149.762 C 282.917 150.679,283.667 151.545,283.667 151.687 C 283.667 151.828,283.815 151.994,283.997 152.056 C 284.349 152.174,290.326 157.787,294.697 162.104 C 296.147 163.535,297.333 164.648,297.333 164.576 C 297.333 164.505,298.668 165.771,300.300 167.390 C 301.931 169.009,303.440 170.333,303.653 170.333 C 303.865 170.333,303.957 170.466,303.857 170.628 C 303.654 170.958,305.355 171.759,305.922 171.601 C 306.123 171.546,306.519 171.800,306.802 172.167 C 307.271 172.772,307.312 171.966,307.243 163.333 C 307.181 155.655,307.082 153.851,306.725 153.925 C 306.482 153.975,306.380 153.860,306.498 153.669 C 306.616 153.479,306.852 153.409,307.023 153.514 C 307.194 153.620,307.333 153.496,307.333 153.239 C 307.333 152.982,306.818 152.494,306.187 152.154 C 305.557 151.815,305.100 151.442,305.172 151.325 C 305.310 151.102,302.598 148.398,300.724 146.892 C 300.115 146.401,299.688 146.000,299.777 146.000 C 299.866 146.000,298.582 144.688,296.924 143.083 C 295.266 141.479,292.826 139.117,291.501 137.833 C 290.177 136.550,287.480 134.000,285.508 132.167 C 283.537 130.333,281.603 128.467,281.212 128.019 C 280.820 127.571,279.536 126.296,278.357 125.185 C 277.178 124.075,275.084 122.079,273.703 120.750 C 272.321 119.421,271.064 118.333,270.909 118.333 C 270.754 118.333,270.720 118.183,270.833 118.000 C 270.947 117.817,270.865 117.667,270.652 117.667 C 270.439 117.667,269.094 116.504,267.664 115.083 C 264.420 111.860,263.423 111.022,263.155 111.290 C 263.039 111.405,262.994 111.338,263.056 111.141 C 263.179 110.741,259.312 106.800,258.917 106.923 C 258.779 106.965,258.667 106.839,258.667 106.643 C 258.667 106.149,257.793 105.319,257.540 105.571 C 257.426 105.685,257.333 105.594,257.333 105.369 C 257.333 105.145,257.185 105.052,257.004 105.164 C 256.808 105.285,256.763 105.136,256.894 104.796 C 257.033 104.434,256.983 104.304,256.758 104.443 C 256.563 104.564,256.320 104.446,256.218 104.181 C 256.116 103.916,255.739 103.755,255.379 103.825 C 255.019 103.894,254.464 103.662,254.144 103.309 C 253.450 102.541,253.728 102.442,254.476 103.190 C 255.369 104.083,255.052 103.127,254.092 102.034 C 253.593 101.465,252.936 101.000,252.631 101.000 C 252.327 101.000,252.000 100.702,251.904 100.337 C 251.809 99.973,251.342 99.527,250.866 99.346 C 250.390 99.165,250.000 98.942,250.000 98.852 C 250.000 98.762,250.250 98.783,250.555 98.900 C 250.928 99.044,251.030 98.986,250.868 98.723 C 250.615 98.313,250.421 98.282,249.767 98.549 M253.333 101.814 C 253.333 102.078,253.185 102.386,253.004 102.498 C 252.808 102.619,252.763 102.469,252.894 102.129 C 253.055 101.711,252.995 101.630,252.672 101.830 C 252.378 102.012,252.310 101.974,252.468 101.718 C 252.801 101.179,253.333 101.238,253.333 101.814 M250.000 118.606 C 250.000 118.782,250.300 119.280,250.667 119.713 C 251.243 120.392,251.303 120.408,251.103 119.833 C 250.834 119.061,250.000 118.133,250.000 118.606 M253.149 121.696 C 253.026 121.895,253.075 122.208,253.258 122.391 C 253.480 122.614,253.666 122.604,253.815 122.362 C 253.939 122.163,253.872 122.000,253.667 122.000 C 253.462 122.000,253.387 121.850,253.500 121.667 C 253.613 121.483,253.631 121.333,253.539 121.333 C 253.448 121.333,253.272 121.496,253.149 121.696 M308.333 154.631 C 308.333 154.795,308.568 155.019,308.854 155.129 C 309.146 155.241,309.270 155.499,309.136 155.716 C 308.988 155.957,309.043 156.013,309.282 155.865 C 309.493 155.734,309.667 155.786,309.667 155.980 C 309.667 156.174,309.892 156.333,310.167 156.333 C 310.442 156.333,310.667 156.483,310.667 156.667 C 310.667 156.850,310.854 156.998,311.083 156.995 C 311.313 156.993,310.837 156.393,310.027 155.662 C 308.453 154.242,308.333 154.170,308.333 154.631 M314.637 160.277 C 314.817 160.613,315.225 161.101,315.546 161.361 C 315.906 161.653,315.825 161.420,315.334 160.750 C 314.459 159.554,314.131 159.332,314.637 160.277 M305.744 171.945 C 305.434 172.142,305.580 172.443,306.297 173.082 C 306.833 173.559,307.356 173.867,307.458 173.764 C 307.560 173.662,307.273 173.286,306.819 172.929 C 306.365 172.572,306.079 172.142,306.183 171.973 C 306.414 171.600,306.300 171.592,305.744 171.945 M307.933 174.042 C 307.789 174.406,308.146 175.000,309.026 175.859 C 309.745 176.561,310.333 177.015,310.333 176.868 C 310.333 176.721,309.900 176.196,309.371 175.702 C 308.842 175.207,308.350 174.510,308.278 174.151 C 308.166 173.596,308.115 173.580,307.933 174.042 M256.083 369.241 C 255.487 369.315,255.000 369.516,255.000 369.688 C 255.000 369.860,254.250 370.000,253.333 370.000 L 251.667 370.000 251.667 376.500 L 251.667 383.000 250.250 383.059 C 244.494 383.301,260.257 383.624,285.333 383.779 C 309.767 383.930,323.014 383.670,308.833 383.317 C 307.183 383.276,306.171 383.178,306.583 383.098 C 307.330 382.954,307.333 382.928,307.333 376.497 L 307.333 370.040 308.583 369.909 C 309.511 369.812,309.339 369.764,307.917 369.723 C 306.862 369.692,306.000 369.517,306.000 369.333 C 306.000 369.013,258.626 368.926,256.083 369.241 " stroke="none" fill="#8b1c1c" fill-rule="evenodd"></path></g></svg>