<svg id="svg" version="1.1" xmlns="http://www.w3.org/2000/svg" xmlns:xlink="http://www.w3.org/1999/xlink" width="400" height="400" viewBox="0, 0, 400,400"><g id="svgg"><path id="path0" d="M192.100 9.500 C 196.445 9.564,203.555 9.564,207.900 9.500 C 212.245 9.435,208.690 9.382,200.000 9.382 C 191.310 9.382,187.755 9.435,192.100 9.500 M178.500 9.891 C 179.325 9.978,180.675 9.978,181.500 9.891 C 182.325 9.805,181.650 9.734,180.000 9.734 C 178.350 9.734,177.675 9.805,178.500 9.891 M218.500 9.891 C 219.325 9.978,220.675 9.978,221.500 9.891 C 222.325 9.805,221.650 9.734,220.000 9.734 C 218.350 9.734,217.675 9.805,218.500 9.891 M169.100 10.295 C 170.255 10.376,172.145 10.376,173.300 10.295 C 174.455 10.214,173.510 10.148,171.200 10.148 C 168.890 10.148,167.945 10.214,169.100 10.295 M226.700 10.295 C 227.855 10.376,229.745 10.376,230.900 10.295 C 232.055 10.214,231.110 10.148,228.800 10.148 C 226.490 10.148,225.545 10.214,226.700 10.295 M164.105 10.687 C 164.714 10.779,165.614 10.777,166.105 10.682 C 166.597 10.587,166.100 10.511,165.000 10.514 C 163.900 10.517,163.497 10.595,164.105 10.687 M234.105 10.687 C 234.714 10.779,235.614 10.777,236.105 10.682 C 236.597 10.587,236.100 10.511,235.000 10.514 C 233.900 10.517,233.497 10.595,234.105 10.687 M155.000 11.204 C 154.120 11.364,155.290 11.403,157.600 11.292 C 159.910 11.180,161.875 11.024,161.967 10.944 C 162.257 10.693,156.669 10.901,155.000 11.204 M238.033 10.944 C 238.125 11.024,240.090 11.183,242.400 11.299 C 245.142 11.435,245.975 11.396,244.800 11.184 C 242.998 10.859,237.719 10.672,238.033 10.944 M146.800 12.013 C 145.967 12.196,146.695 12.234,148.600 12.106 C 150.360 11.989,151.875 11.826,151.967 11.746 C 152.261 11.488,148.248 11.695,146.800 12.013 M248.033 11.746 C 248.125 11.826,249.640 11.992,251.400 12.113 C 253.698 12.271,254.149 12.237,253.000 11.990 C 251.410 11.648,247.715 11.467,248.033 11.746 M140.200 12.800 C 138.470 13.240,140.357 13.255,142.800 12.820 L 144.600 12.500 143.000 12.497 C 142.120 12.496,140.860 12.632,140.200 12.800 M255.633 12.551 C 255.725 12.634,257.060 12.802,258.600 12.925 C 260.366 13.065,260.957 13.027,260.200 12.821 C 258.984 12.490,255.327 12.274,255.633 12.551 M134.000 13.600 C 132.596 14.050,134.063 14.065,136.200 13.623 L 137.800 13.292 136.400 13.286 C 135.630 13.283,134.550 13.424,134.000 13.600 M263.800 13.623 C 265.937 14.065,267.404 14.050,266.000 13.600 C 265.450 13.424,264.370 13.283,263.600 13.286 L 262.200 13.292 263.800 13.623 M128.400 14.400 L 127.400 14.720 128.400 14.713 C 128.950 14.709,129.940 14.568,130.600 14.400 L 131.800 14.095 130.600 14.087 C 129.940 14.083,128.950 14.224,128.400 14.400 M269.400 14.400 C 270.060 14.568,271.050 14.709,271.600 14.713 L 272.600 14.720 271.600 14.400 C 271.050 14.224,270.060 14.083,269.400 14.087 L 268.200 14.095 269.400 14.400 M123.600 15.200 C 122.256 15.631,123.708 15.631,125.400 15.200 C 126.478 14.926,126.498 14.894,125.600 14.887 C 125.050 14.883,124.150 15.024,123.600 15.200 M274.600 15.200 C 276.292 15.631,277.744 15.631,276.400 15.200 C 275.850 15.024,274.950 14.883,274.400 14.887 C 273.502 14.894,273.522 14.926,274.600 15.200 M119.200 16.000 C 118.408 16.254,118.367 16.320,119.000 16.320 C 119.440 16.320,120.250 16.176,120.800 16.000 C 121.592 15.746,121.633 15.680,121.000 15.680 C 120.560 15.680,119.750 15.824,119.200 16.000 M279.200 16.000 C 279.750 16.176,280.650 16.320,281.200 16.320 L 282.200 16.320 281.200 16.000 C 280.650 15.824,279.750 15.680,279.200 15.680 L 278.200 15.680 279.200 16.000 M114.800 16.800 C 114.008 17.054,113.967 17.120,114.600 17.120 C 115.040 17.120,115.850 16.976,116.400 16.800 C 117.192 16.546,117.233 16.480,116.600 16.480 C 116.160 16.480,115.350 16.624,114.800 16.800 M283.600 16.800 C 284.150 16.976,284.960 17.120,285.400 17.120 C 286.033 17.120,285.992 17.054,285.200 16.800 C 284.650 16.624,283.840 16.480,283.400 16.480 C 282.767 16.480,282.808 16.546,283.600 16.800 M110.800 17.600 C 109.996 17.857,109.957 17.923,110.600 17.932 C 111.040 17.938,111.760 17.789,112.200 17.600 C 113.219 17.162,112.168 17.162,110.800 17.600 M287.800 17.600 C 288.240 17.789,288.960 17.938,289.400 17.932 C 290.043 17.923,290.004 17.857,289.200 17.600 C 287.832 17.162,286.781 17.162,287.800 17.600 M107.400 18.400 C 106.896 18.617,106.822 18.744,107.200 18.744 C 107.530 18.744,108.160 18.589,108.600 18.400 C 109.104 18.183,109.178 18.056,108.800 18.056 C 108.470 18.056,107.840 18.211,107.400 18.400 M291.600 18.400 C 291.930 18.613,292.560 18.778,293.000 18.766 L 293.800 18.744 293.000 18.400 C 291.804 17.886,290.805 17.886,291.600 18.400 M103.400 19.200 L 102.600 19.544 103.400 19.544 C 103.840 19.544,104.560 19.389,105.000 19.200 L 105.800 18.856 105.000 18.856 C 104.560 18.856,103.840 19.011,103.400 19.200 M295.000 19.200 C 295.440 19.389,296.160 19.538,296.600 19.532 C 297.243 19.523,297.204 19.457,296.400 19.200 C 295.032 18.762,293.981 18.762,295.000 19.200 M100.200 20.000 L 99.400 20.344 100.200 20.366 C 100.640 20.378,101.270 20.213,101.600 20.000 C 102.395 19.486,101.396 19.486,100.200 20.000 M298.600 20.000 C 299.040 20.189,299.670 20.344,300.000 20.344 C 300.378 20.344,300.304 20.217,299.800 20.000 C 299.360 19.811,298.730 19.656,298.400 19.656 C 298.022 19.656,298.096 19.783,298.600 20.000 M97.000 20.800 L 96.200 21.144 97.000 21.166 C 97.440 21.178,98.070 21.013,98.400 20.800 C 99.195 20.286,98.196 20.286,97.000 20.800 M301.600 20.800 C 301.930 21.013,302.560 21.178,303.000 21.166 L 303.800 21.144 303.000 20.800 C 301.804 20.286,300.805 20.286,301.600 20.800 M94.000 21.600 C 93.176 21.864,93.141 21.926,93.800 21.954 C 94.240 21.973,94.870 21.813,95.200 21.600 C 95.901 21.147,95.414 21.147,94.000 21.600 M304.800 21.582 C 305.130 21.805,305.745 21.991,306.167 21.994 C 307.190 22.002,306.871 21.773,305.400 21.444 C 304.524 21.248,304.362 21.285,304.800 21.582 M91.200 22.400 C 90.376 22.664,90.341 22.726,91.000 22.754 C 91.440 22.773,92.070 22.613,92.400 22.400 C 93.101 21.947,92.614 21.947,91.200 22.400 M307.600 22.382 C 307.930 22.605,308.545 22.791,308.967 22.794 C 309.990 22.802,309.671 22.573,308.200 22.244 C 307.324 22.048,307.162 22.085,307.600 22.382 M88.400 23.200 C 87.576 23.464,87.541 23.526,88.200 23.554 C 88.640 23.573,89.270 23.413,89.600 23.200 C 90.301 22.747,89.814 22.747,88.400 23.200 M310.400 23.182 C 310.730 23.405,311.345 23.591,311.767 23.594 C 312.790 23.602,312.471 23.373,311.000 23.044 C 310.124 22.848,309.962 22.885,310.400 23.182 M82.294 25.085 C 81.245 25.435,80.460 25.794,80.550 25.883 C 80.732 26.065,84.800 24.794,84.800 24.554 C 84.800 24.307,84.321 24.409,82.294 25.085 M315.200 24.546 C 315.200 24.733,318.989 26.008,319.475 25.984 C 319.946 25.962,317.592 24.978,316.300 24.657 C 315.695 24.507,315.200 24.457,315.200 24.546 M230.587 32.400 C 235.708 37.841,235.420 37.553,234.758 36.551 C 234.024 35.441,231.397 32.655,228.957 30.400 C 227.886 29.410,228.619 30.310,230.587 32.400 M336.383 33.196 C 338.464 34.280,340.238 35.096,340.325 35.009 C 340.502 34.831,333.393 31.193,332.908 31.213 C 332.739 31.220,334.302 32.112,336.383 33.196 M61.201 34.027 C 59.991 34.693,58.821 35.437,58.601 35.679 C 58.180 36.142,62.722 33.729,63.380 33.140 C 64.047 32.543,63.457 32.783,61.201 34.027 M181.062 33.531 C 180.698 33.934,180.400 34.411,180.400 34.593 C 180.400 34.774,180.760 34.507,181.200 34.000 C 181.640 33.493,182.000 33.015,182.000 32.939 C 182.000 32.639,181.695 32.832,181.062 33.531 M178.400 35.442 C 177.850 35.779,177.730 35.953,178.133 35.828 C 178.536 35.702,179.121 35.600,179.433 35.600 C 179.745 35.600,180.000 35.420,180.000 35.200 C 180.000 34.654,179.581 34.717,178.400 35.442 M54.771 38.031 C 49.121 41.893,43.514 48.451,43.634 51.056 C 43.659 51.596,43.752 51.526,43.974 50.800 C 45.125 47.031,50.132 41.395,55.300 38.052 C 57.682 36.511,58.323 36.000,57.871 36.000 C 57.800 36.000,56.405 36.914,54.771 38.031 M342.000 36.144 C 342.000 36.249,342.673 36.751,343.496 37.260 C 344.319 37.768,346.164 39.054,347.596 40.116 C 349.028 41.179,349.570 41.482,348.800 40.790 C 346.894 39.076,342.000 35.733,342.000 36.144 M173.381 39.300 L 171.800 41.000 173.500 39.419 C 174.435 38.549,175.200 37.784,175.200 37.719 C 175.200 37.416,174.852 37.719,173.381 39.300 M236.255 39.000 C 236.867 39.880,237.420 40.675,237.484 40.767 C 237.548 40.858,237.600 40.762,237.600 40.552 C 237.600 40.342,237.047 39.547,236.371 38.785 L 235.142 37.400 236.255 39.000 M169.775 43.468 C 169.159 44.276,168.859 44.811,169.109 44.656 C 169.621 44.340,171.353 42.000,171.075 42.000 C 170.976 42.000,170.391 42.661,169.775 43.468 M239.078 43.795 C 239.444 44.562,239.814 45.119,239.901 45.032 C 240.084 44.849,238.870 42.400,238.596 42.400 C 238.495 42.400,238.712 43.028,239.078 43.795 M241.216 48.254 C 241.207 48.504,241.463 49.314,241.784 50.054 C 242.106 50.794,242.376 51.196,242.384 50.946 C 242.393 50.696,242.137 49.886,241.816 49.146 C 241.494 48.406,241.224 48.004,241.216 48.254 M190.580 51.307 C 190.473 51.586,190.437 56.311,190.500 61.807 L 190.615 71.800 190.707 61.500 C 190.758 55.835,190.937 51.200,191.105 51.200 C 191.273 51.200,192.368 51.845,193.539 52.633 C 194.709 53.421,195.752 53.981,195.857 53.876 C 196.047 53.686,191.524 50.800,191.035 50.800 C 190.892 50.800,190.687 51.028,190.580 51.307 M43.301 53.400 C 43.305 54.280,43.387 54.593,43.483 54.095 C 43.579 53.598,43.575 52.878,43.475 52.495 C 43.375 52.113,43.296 52.520,43.301 53.400 M198.374 55.524 C 198.909 55.959,199.899 56.619,200.574 56.991 L 201.800 57.667 200.826 56.876 C 200.291 56.441,199.301 55.781,198.626 55.409 L 197.400 54.733 198.374 55.524 M43.600 56.976 C 43.600 57.513,43.747 58.044,43.928 58.155 C 44.108 58.267,44.177 57.827,44.082 57.179 C 43.872 55.749,43.600 55.635,43.600 56.976 M243.623 57.233 C 243.636 57.985,243.805 59.320,243.998 60.200 C 244.269 61.430,244.298 61.152,244.126 59.000 C 243.887 56.020,243.585 54.958,243.623 57.233 M202.800 58.112 C 202.800 58.225,203.716 58.905,204.837 59.624 C 205.957 60.342,207.127 61.184,207.437 61.494 C 207.746 61.804,208.000 61.888,208.000 61.682 C 208.000 61.342,207.386 60.883,203.900 58.622 C 203.295 58.229,202.800 58.000,202.800 58.112 M222.800 59.288 C 222.800 59.366,223.655 60.133,224.700 60.992 C 225.745 61.851,226.240 62.140,225.800 61.634 C 225.022 60.739,222.800 59.002,222.800 59.288 M45.516 61.000 C 45.744 61.440,46.591 62.520,47.398 63.400 L 48.866 65.000 47.353 63.000 C 45.451 60.486,44.991 59.985,45.516 61.000 M244.093 68.800 C 244.093 69.570,244.175 69.885,244.276 69.500 C 244.376 69.115,244.376 68.485,244.276 68.100 C 244.175 67.715,244.093 68.030,244.093 68.800 M243.701 71.800 C 243.705 72.680,243.787 72.993,243.883 72.495 C 243.979 71.998,243.975 71.278,243.875 70.895 C 243.775 70.513,243.696 70.920,243.701 71.800 M43.200 93.400 C 43.200 104.803,43.287 114.047,43.393 113.940 C 43.659 113.674,43.680 73.147,43.414 72.881 C 43.296 72.763,43.200 81.997,43.200 93.400 M216.500 73.646 C 215.137 74.519,214.695 75.106,215.900 74.443 C 216.818 73.939,218.256 72.827,218.000 72.819 C 217.890 72.816,217.215 73.188,216.500 73.646 M243.000 74.800 C 242.848 75.491,242.807 76.141,242.909 76.242 C 243.011 76.344,243.209 75.853,243.350 75.150 C 243.683 73.483,243.360 73.160,243.000 74.800 M45.164 74.535 C 45.749 75.263,48.000 76.977,48.000 76.694 C 48.000 76.606,47.235 75.926,46.300 75.183 C 45.365 74.440,44.854 74.148,45.164 74.535 M208.900 78.446 C 207.537 79.319,207.095 79.906,208.300 79.243 C 209.218 78.739,210.656 77.627,210.400 77.619 C 210.290 77.616,209.615 77.988,208.900 78.446 M241.883 78.684 C 241.763 79.078,241.473 80.018,241.239 80.773 C 241.005 81.528,240.954 81.978,241.125 81.773 C 241.587 81.219,242.503 78.369,242.288 78.154 C 242.185 78.052,242.003 78.290,241.883 78.684 M167.800 82.800 C 168.141 83.460,168.511 84.000,168.621 84.000 C 168.731 84.000,168.541 83.460,168.200 82.800 C 167.859 82.140,167.489 81.600,167.379 81.600 C 167.269 81.600,167.459 82.140,167.800 82.800 M239.482 84.611 C 238.892 85.815,238.494 86.800,238.598 86.800 C 238.867 86.800,240.884 82.751,240.705 82.571 C 240.623 82.489,240.073 83.407,239.482 84.611 M198.300 85.029 C 196.805 85.840,196.896 86.178,198.400 85.400 C 199.060 85.059,199.600 84.694,199.600 84.590 C 199.600 84.332,199.557 84.347,198.300 85.029 M236.317 90.057 C 235.282 91.580,234.608 92.719,234.819 92.588 C 235.318 92.280,238.514 87.577,238.336 87.414 C 238.261 87.345,237.353 88.535,236.317 90.057 M103.668 88.811 C 106.883 90.509,106.777 89.876,106.900 108.255 L 107.009 124.600 107.105 108.238 L 107.200 91.876 106.179 90.537 C 105.246 89.313,103.301 87.974,102.520 88.018 C 102.344 88.027,102.861 88.384,103.668 88.811 M182.770 90.500 C 183.303 91.105,184.023 91.586,184.370 91.568 C 184.909 91.541,184.914 91.505,184.400 91.318 C 184.070 91.197,183.350 90.716,182.800 90.249 L 181.800 89.400 182.770 90.500 M164.484 94.377 C 165.667 95.684,167.527 97.522,168.617 98.460 C 169.708 99.399,168.800 98.332,166.600 96.090 C 162.096 91.499,161.288 90.846,164.484 94.377 M232.975 94.500 L 231.800 95.800 233.100 94.625 C 233.815 93.979,234.400 93.394,234.400 93.325 C 234.400 93.016,234.070 93.288,232.975 94.500 M230.860 96.642 C 230.562 96.978,230.399 97.332,230.495 97.429 C 230.592 97.526,230.998 97.244,231.398 96.802 C 231.797 96.361,231.961 96.007,231.762 96.015 C 231.563 96.024,231.157 96.305,230.860 96.642 M302.585 97.300 C 302.480 97.575,302.441 121.380,302.497 150.200 L 302.600 202.600 302.800 149.700 C 302.910 120.605,302.949 96.800,302.887 96.800 C 302.826 96.800,302.689 97.025,302.585 97.300 M227.600 99.670 C 226.068 101.088,225.886 101.339,227.000 100.497 C 228.484 99.376,230.334 97.578,229.962 97.617 C 229.873 97.627,228.810 98.551,227.600 99.670 M170.940 100.303 C 171.096 100.556,171.791 101.167,172.484 101.660 C 173.177 102.154,173.617 102.350,173.460 102.097 C 173.304 101.844,172.609 101.233,171.916 100.740 C 171.223 100.246,170.783 100.050,170.940 100.303 M174.600 103.011 C 175.040 103.369,175.940 103.926,176.600 104.250 C 177.722 104.801,177.748 104.797,177.000 104.189 C 176.560 103.831,175.660 103.274,175.000 102.950 C 173.878 102.399,173.852 102.403,174.600 103.011 M221.500 103.829 C 220.005 104.640,220.096 104.978,221.600 104.200 C 222.260 103.859,222.800 103.494,222.800 103.390 C 222.800 103.132,222.757 103.147,221.500 103.829 M180.000 106.000 C 181.210 106.639,182.470 107.171,182.800 107.181 C 183.130 107.191,182.259 106.660,180.864 106.000 C 177.643 104.476,177.116 104.476,180.000 106.000 M218.200 105.600 C 217.320 106.025,216.797 106.379,217.039 106.386 C 217.542 106.402,220.000 105.227,220.000 104.971 C 220.000 104.732,219.987 104.737,218.200 105.600 M186.039 108.156 C 186.444 108.589,190.469 109.498,193.000 109.728 L 195.400 109.946 193.400 109.567 C 190.888 109.090,187.647 108.398,186.600 108.116 C 186.160 107.998,185.908 108.016,186.039 108.156 M209.200 108.602 C 207.990 108.901,205.920 109.326,204.600 109.547 L 202.200 109.948 204.800 109.733 C 207.316 109.524,211.506 108.627,211.927 108.206 C 212.224 107.909,211.682 107.988,209.200 108.602 M197.491 110.289 C 198.201 110.377,199.461 110.379,200.291 110.292 C 201.121 110.205,200.540 110.133,199.000 110.131 C 197.460 110.129,196.781 110.200,197.491 110.289 M43.309 121.200 C 43.309 122.190,43.387 122.595,43.482 122.100 C 43.578 121.605,43.578 120.795,43.482 120.300 C 43.387 119.805,43.309 120.210,43.309 121.200 M189.800 158.165 C 171.914 161.590,157.973 175.438,154.584 193.147 C 150.524 214.368,159.431 237.177,174.300 243.631 C 175.015 243.941,175.600 244.331,175.600 244.498 C 175.600 244.664,175.872 244.800,176.205 244.800 C 176.538 244.800,177.213 245.008,177.705 245.262 C 179.684 246.285,180.036 246.400,181.195 246.400 C 181.858 246.400,182.400 246.580,182.400 246.800 C 182.400 247.020,183.199 247.200,184.176 247.200 C 185.153 247.200,186.064 247.380,186.200 247.600 C 186.354 247.849,190.071 248.000,196.024 248.000 C 202.141 248.000,205.600 247.856,205.600 247.600 C 205.600 247.380,206.399 247.200,207.376 247.200 C 208.353 247.200,209.264 247.020,209.400 246.800 C 209.536 246.580,210.177 246.400,210.824 246.400 C 211.471 246.400,212.000 246.220,212.000 246.000 C 212.000 245.780,212.540 245.600,213.200 245.600 C 213.860 245.600,214.400 245.420,214.400 245.200 C 214.400 244.980,214.760 244.800,215.200 244.800 C 215.640 244.800,216.000 244.620,216.000 244.400 C 216.000 244.180,216.349 244.000,216.776 244.000 C 217.203 244.000,217.664 243.820,217.800 243.600 C 217.936 243.380,218.397 243.200,218.824 243.200 C 219.251 243.200,219.600 243.020,219.600 242.800 C 219.600 242.580,219.870 242.400,220.200 242.400 C 220.530 242.400,220.800 242.220,220.800 242.000 C 220.800 241.780,220.984 241.600,221.209 241.600 C 221.580 241.600,224.721 239.706,225.200 239.193 C 225.310 239.076,226.210 238.358,227.200 237.598 C 229.354 235.944,232.400 232.778,232.400 232.192 C 232.400 232.082,232.940 231.428,233.600 230.737 C 234.260 230.046,234.800 229.321,234.800 229.124 C 234.800 228.927,235.160 228.380,235.600 227.908 C 236.040 227.436,236.400 226.813,236.400 226.525 C 236.400 226.236,236.580 226.000,236.800 226.000 C 237.020 226.000,237.200 225.655,237.200 225.233 C 237.200 224.812,237.335 224.407,237.500 224.333 C 237.973 224.123,239.600 220.798,239.600 220.042 C 239.600 219.667,239.753 219.189,239.941 218.980 C 240.545 218.306,241.600 213.802,241.600 211.897 C 241.600 210.880,241.780 209.936,242.000 209.800 C 242.498 209.492,242.551 191.200,242.054 191.200 C 241.863 191.200,241.610 189.985,241.491 188.500 C 241.223 185.167,239.087 178.400,238.302 178.400 C 238.136 178.400,238.000 178.210,238.000 177.978 C 238.000 174.611,227.611 165.028,220.191 161.550 C 212.652 158.018,198.690 156.462,189.800 158.165 M143.328 203.600 C 143.328 205.030,143.401 205.615,143.489 204.900 C 143.578 204.185,143.578 203.015,143.489 202.300 C 143.401 201.585,143.328 202.170,143.328 203.600 M143.377 223.400 C 143.377 229.780,143.432 232.334,143.499 229.076 C 143.567 225.817,143.566 220.597,143.499 217.476 C 143.431 214.354,143.376 217.020,143.377 223.400 M184.800 287.182 C 185.130 287.405,185.745 287.591,186.167 287.594 C 187.190 287.602,186.871 287.373,185.400 287.044 C 184.524 286.848,184.362 286.885,184.800 287.182 M208.100 288.276 C 208.485 288.376,209.115 288.376,209.500 288.276 C 209.885 288.175,209.570 288.093,208.800 288.093 C 208.030 288.093,207.715 288.175,208.100 288.276 M197.317 288.697 C 198.811 288.774,201.151 288.774,202.517 288.696 C 203.882 288.618,202.660 288.555,199.800 288.555 C 196.940 288.556,195.822 288.620,197.317 288.697 M134.200 306.425 C 119.032 307.729,106.529 319.467,103.784 334.983 C 102.890 340.037,102.933 386.612,103.833 386.957 C 104.181 387.091,110.211 387.200,117.233 387.200 L 130.000 387.200 130.000 364.153 L 130.000 341.105 131.300 339.959 C 132.163 339.198,133.043 338.811,133.917 338.806 C 135.221 338.800,135.565 338.986,137.366 340.664 C 137.875 341.140,139.001 341.890,139.867 342.332 C 142.458 343.654,142.400 343.120,142.400 365.739 C 142.400 381.151,142.519 386.359,142.880 386.720 C 143.249 387.089,156.231 387.200,198.880 387.200 L 254.400 387.200 254.400 364.136 L 254.400 341.071 255.672 339.936 C 257.506 338.298,259.220 338.393,261.118 340.236 C 261.931 341.025,263.137 341.900,263.798 342.180 C 266.758 343.434,266.587 342.082,266.711 365.313 C 266.787 379.677,266.957 386.307,267.260 386.672 C 267.606 387.089,270.372 387.200,280.449 387.200 L 293.200 387.200 293.200 358.600 C 293.200 339.800,293.063 330.000,292.800 330.000 C 292.580 330.000,292.400 329.190,292.400 328.200 C 292.400 327.210,292.244 326.400,292.053 326.400 C 291.862 326.400,291.612 325.705,291.498 324.856 C 290.633 318.402,280.588 309.885,270.600 307.135 L 267.400 306.254 202.600 306.185 C 166.960 306.147,136.180 306.255,134.200 306.425 " stroke="none" fill="#fb6b6b" fill-rule="evenodd"></path><path id="path1" d="M166.300 0.273 C 162.577 0.360,160.000 0.580,160.000 0.810 C 160.000 1.042,158.050 1.200,155.200 1.200 C 152.267 1.200,150.400 1.356,150.400 1.600 C 150.400 1.836,148.960 2.000,146.880 2.000 C 144.944 2.000,143.189 2.170,142.980 2.378 C 142.771 2.585,141.211 2.791,139.512 2.836 C 137.814 2.880,136.520 3.070,136.636 3.258 C 136.752 3.446,135.487 3.600,133.824 3.600 C 132.075 3.600,130.800 3.769,130.800 4.000 C 130.800 4.226,129.667 4.400,128.200 4.400 C 126.733 4.400,125.600 4.574,125.600 4.800 C 125.600 5.022,124.533 5.200,123.200 5.200 C 121.867 5.200,120.800 5.378,120.800 5.600 C 120.800 5.822,119.733 6.000,118.400 6.000 C 117.067 6.000,116.000 6.178,116.000 6.400 C 116.000 6.620,114.999 6.800,113.776 6.800 C 112.396 6.800,111.647 6.952,111.800 7.200 C 111.953 7.448,111.204 7.600,109.824 7.600 C 108.601 7.600,107.600 7.745,107.600 7.922 C 107.600 8.203,106.297 8.441,99.097 9.470 C 98.271 9.588,97.495 9.845,97.374 10.042 C 97.252 10.239,96.544 10.400,95.800 10.400 C 95.056 10.400,94.336 10.580,94.200 10.800 C 94.064 11.020,93.333 11.200,92.576 11.200 C 91.819 11.200,91.200 11.380,91.200 11.600 C 91.200 11.820,90.660 12.000,90.000 12.000 C 89.340 12.000,88.800 12.143,88.800 12.318 C 88.800 12.493,88.125 12.681,87.300 12.736 C 86.475 12.790,85.740 13.007,85.667 13.218 C 85.593 13.428,85.008 13.600,84.367 13.600 C 83.725 13.600,83.200 13.780,83.200 14.000 C 83.200 14.220,82.581 14.400,81.824 14.400 C 81.067 14.400,80.336 14.580,80.200 14.800 C 80.064 15.020,79.513 15.200,78.976 15.200 C 78.439 15.200,78.000 15.380,78.000 15.600 C 78.000 15.820,77.460 16.000,76.800 16.000 C 76.140 16.000,75.600 16.180,75.600 16.400 C 75.600 16.620,75.251 16.800,74.824 16.800 C 74.397 16.800,73.936 16.980,73.800 17.200 C 73.664 17.420,73.113 17.600,72.576 17.600 C 72.039 17.600,71.600 17.780,71.600 18.000 C 71.600 18.220,71.060 18.400,70.400 18.400 C 69.740 18.400,69.200 18.580,69.200 18.800 C 69.200 19.020,68.840 19.200,68.400 19.200 C 67.960 19.200,67.600 19.380,67.600 19.600 C 67.600 19.820,67.161 20.000,66.624 20.000 C 66.087 20.000,65.536 20.180,65.400 20.400 C 65.264 20.620,64.803 20.800,64.376 20.800 C 63.949 20.800,63.600 20.980,63.600 21.200 C 63.600 21.420,63.240 21.600,62.800 21.600 C 62.360 21.600,62.000 21.780,62.000 22.000 C 62.000 22.220,61.640 22.400,61.200 22.400 C 60.760 22.400,60.400 22.546,60.400 22.725 C 60.400 22.904,59.770 23.298,59.000 23.600 C 58.230 23.902,57.600 24.296,57.600 24.475 C 57.600 24.654,57.336 24.800,57.014 24.800 C 56.201 24.800,53.600 26.076,53.600 26.474 C 53.600 26.653,53.240 26.800,52.800 26.800 C 52.360 26.800,52.000 26.980,52.000 27.200 C 52.000 27.420,51.764 27.600,51.475 27.600 C 51.187 27.600,50.564 27.960,50.092 28.400 C 49.620 28.840,49.073 29.200,48.876 29.200 C 48.679 29.200,47.954 29.740,47.263 30.400 C 46.572 31.060,45.857 31.600,45.674 31.600 C 45.491 31.600,44.634 32.336,43.770 33.235 C 42.907 34.134,41.435 35.659,40.500 36.624 C 39.565 37.589,38.800 38.537,38.800 38.730 C 38.800 38.923,38.260 39.646,37.600 40.337 C 36.940 41.028,36.396 41.819,36.391 42.096 C 36.386 42.373,36.030 43.050,35.600 43.600 C 35.170 44.150,34.814 45.005,34.809 45.500 C 34.804 45.995,34.620 46.400,34.400 46.400 C 34.180 46.400,34.000 46.940,34.000 47.600 C 34.000 48.260,33.819 48.800,33.598 48.800 C 33.118 48.800,33.297 177.749,33.780 180.100 C 33.949 180.925,34.248 181.600,34.444 181.600 C 34.640 181.600,34.800 181.853,34.800 182.162 C 34.800 182.828,36.468 186.141,36.900 186.333 C 37.065 186.407,37.200 186.739,37.200 187.073 C 37.200 187.406,37.740 188.183,38.400 188.800 C 39.060 189.417,39.600 190.129,39.600 190.384 C 39.600 190.639,39.780 190.736,40.000 190.600 C 40.220 190.464,40.406 190.588,40.414 190.876 C 40.422 191.164,41.248 192.120,42.249 193.000 C 43.251 193.880,44.678 195.185,45.422 195.900 C 46.165 196.615,46.961 197.200,47.190 197.200 C 47.420 197.200,48.172 197.740,48.863 198.400 C 49.554 199.060,50.362 199.600,50.659 199.600 C 50.957 199.600,51.200 199.780,51.200 200.000 C 51.200 200.220,51.520 200.400,51.912 200.400 C 52.303 200.400,52.883 200.760,53.200 201.200 C 53.517 201.640,54.097 202.000,54.488 202.000 C 54.880 202.000,55.200 202.180,55.200 202.400 C 55.200 202.620,55.560 202.800,56.000 202.800 C 56.440 202.800,56.800 202.980,56.800 203.200 C 56.800 203.420,57.145 203.600,57.567 203.600 C 57.988 203.600,58.393 203.744,58.467 203.919 C 58.668 204.402,65.361 207.572,66.777 207.855 C 67.459 207.992,68.114 208.260,68.232 208.452 C 68.350 208.643,68.797 208.800,69.224 208.800 C 69.651 208.800,70.000 208.980,70.000 209.200 C 70.000 209.420,70.540 209.600,71.200 209.600 C 71.860 209.600,72.400 209.780,72.400 210.000 C 72.400 210.220,72.940 210.400,73.600 210.400 C 74.260 210.400,74.800 210.580,74.800 210.800 C 74.800 211.020,75.149 211.200,75.576 211.200 C 76.003 211.200,76.464 211.380,76.600 211.600 C 76.736 211.820,77.387 212.000,78.047 212.000 C 78.745 212.000,79.144 212.167,79.000 212.400 C 78.856 212.633,79.255 212.800,79.953 212.800 C 80.613 212.800,81.264 212.980,81.400 213.200 C 81.536 213.420,82.177 213.600,82.824 213.600 C 83.471 213.600,84.000 213.780,84.000 214.000 C 84.000 214.220,84.540 214.400,85.200 214.400 C 85.860 214.400,86.400 214.580,86.400 214.800 C 86.400 215.020,87.120 215.200,88.000 215.200 C 88.880 215.200,89.600 215.380,89.600 215.600 C 89.600 215.820,90.140 216.000,90.800 216.000 C 91.460 216.000,92.000 216.180,92.000 216.400 C 92.000 216.620,92.619 216.800,93.376 216.800 C 94.133 216.800,94.864 216.980,95.000 217.200 C 95.136 217.420,95.856 217.600,96.600 217.600 C 97.344 217.600,98.064 217.780,98.200 218.000 C 98.958 219.226,104.860 218.435,106.246 216.922 L 107.600 215.444 107.600 177.755 C 107.600 135.522,107.394 138.800,110.043 138.800 C 111.119 138.800,112.000 138.620,112.000 138.400 C 112.000 138.180,112.799 138.000,113.776 138.000 C 114.753 138.000,115.664 137.820,115.800 137.600 C 115.936 137.380,116.926 137.200,118.000 137.200 C 119.074 137.200,120.064 137.020,120.200 136.800 C 120.336 136.580,121.337 136.400,122.424 136.400 C 123.511 136.400,124.400 136.220,124.400 136.000 C 124.400 135.775,125.525 135.600,126.976 135.600 C 128.393 135.600,129.664 135.420,129.800 135.200 C 129.936 134.980,131.117 134.800,132.424 134.800 C 133.741 134.800,134.800 134.622,134.800 134.400 C 134.800 134.169,136.067 134.000,137.800 134.000 C 139.533 134.000,140.800 133.831,140.800 133.600 C 140.800 133.363,142.267 133.200,144.400 133.200 C 146.533 133.200,148.000 133.037,148.000 132.800 C 148.000 132.562,149.525 132.400,151.776 132.400 C 153.863 132.400,155.663 132.221,155.800 132.000 C 155.943 131.768,158.126 131.600,160.990 131.600 C 163.808 131.600,165.991 131.434,166.067 131.214 C 166.145 130.987,169.213 130.809,173.503 130.781 C 177.820 130.753,180.714 130.584,180.580 130.367 C 180.443 130.146,188.250 130.000,200.176 130.000 C 213.125 130.000,220.000 130.139,220.000 130.400 C 220.000 130.652,222.733 130.800,227.400 130.800 C 232.067 130.800,234.800 130.948,234.800 131.200 C 234.800 131.444,236.667 131.600,239.600 131.600 C 242.533 131.600,244.400 131.756,244.400 132.000 C 244.400 132.240,245.992 132.400,248.376 132.400 C 250.596 132.400,252.462 132.577,252.600 132.800 C 252.736 133.020,254.277 133.200,256.024 133.200 C 257.875 133.200,259.200 133.367,259.200 133.600 C 259.200 133.831,260.467 134.000,262.200 134.000 C 263.933 134.000,265.200 134.169,265.200 134.400 C 265.200 134.629,266.400 134.800,268.000 134.800 C 269.600 134.800,270.800 134.971,270.800 135.200 C 270.800 135.422,271.867 135.600,273.200 135.600 C 274.533 135.600,275.600 135.778,275.600 136.000 C 275.600 136.220,276.590 136.400,277.800 136.400 C 279.010 136.400,280.000 136.580,280.000 136.800 C 280.000 137.020,280.889 137.200,281.976 137.200 C 283.063 137.200,284.064 137.380,284.200 137.600 C 284.336 137.820,285.236 138.000,286.200 138.000 C 287.164 138.000,288.064 138.180,288.200 138.400 C 288.336 138.620,289.227 138.800,290.181 138.800 C 292.567 138.800,292.400 135.873,292.400 177.755 L 292.400 215.444 293.754 216.922 C 295.140 218.435,301.042 219.226,301.800 218.000 C 301.936 217.780,302.631 217.600,303.344 217.600 C 304.057 217.600,304.814 217.426,305.027 217.213 C 305.239 217.001,305.995 216.783,306.707 216.728 C 307.418 216.674,308.000 216.488,308.000 216.315 C 308.000 216.142,308.540 216.000,309.200 216.000 C 309.860 216.000,310.400 215.820,310.400 215.600 C 310.400 215.380,311.120 215.200,312.000 215.200 C 312.880 215.200,313.600 215.020,313.600 214.800 C 313.600 214.580,314.140 214.400,314.800 214.400 C 315.460 214.400,316.000 214.220,316.000 214.000 C 316.000 213.780,316.540 213.600,317.200 213.600 C 317.860 213.600,318.400 213.420,318.400 213.200 C 318.400 212.980,318.929 212.800,319.576 212.800 C 320.223 212.800,320.864 212.620,321.000 212.400 C 321.136 212.180,321.687 212.000,322.224 212.000 C 322.761 212.000,323.200 211.820,323.200 211.600 C 323.200 211.380,323.650 211.200,324.200 211.200 C 324.750 211.200,325.200 211.020,325.200 210.800 C 325.200 210.580,325.740 210.400,326.400 210.400 C 327.060 210.400,327.600 210.220,327.600 210.000 C 327.600 209.780,328.140 209.600,328.800 209.600 C 329.460 209.600,330.000 209.420,330.000 209.200 C 330.000 208.980,330.349 208.800,330.776 208.800 C 331.203 208.800,331.650 208.643,331.768 208.452 C 331.886 208.260,332.541 207.992,333.223 207.855 C 334.625 207.575,341.089 204.503,341.427 203.956 C 341.548 203.760,341.997 203.600,342.424 203.600 C 342.851 203.600,343.200 203.420,343.200 203.200 C 343.200 202.980,343.560 202.800,344.000 202.800 C 344.440 202.800,344.800 202.620,344.800 202.400 C 344.800 202.180,345.036 202.000,345.325 202.000 C 345.613 202.000,346.236 201.640,346.708 201.200 C 347.180 200.760,347.804 200.400,348.095 200.400 C 348.386 200.400,348.883 200.040,349.200 199.600 C 349.517 199.160,350.057 198.800,350.400 198.800 C 350.743 198.800,351.283 198.440,351.600 198.000 C 351.917 197.560,352.391 197.200,352.653 197.200 C 353.042 197.200,354.929 195.439,358.200 192.025 C 358.420 191.795,359.320 190.931,360.200 190.104 C 361.080 189.277,362.055 188.105,362.368 187.500 C 362.680 186.895,363.085 186.400,363.268 186.400 C 363.450 186.400,363.600 186.040,363.600 185.600 C 363.600 185.160,363.780 184.800,364.000 184.800 C 364.220 184.800,364.400 184.440,364.400 184.000 C 364.400 183.560,364.580 183.200,364.800 183.200 C 365.020 183.200,365.200 182.840,365.200 182.400 C 365.200 181.960,365.380 181.600,365.600 181.600 C 365.820 181.600,366.000 180.880,366.000 180.000 C 366.000 179.120,366.180 178.400,366.400 178.400 C 366.954 178.400,366.954 49.342,366.400 49.000 C 366.180 48.864,366.000 48.223,366.000 47.576 C 366.000 46.929,365.820 46.400,365.600 46.400 C 365.380 46.400,365.196 45.995,365.191 45.500 C 365.186 45.005,364.830 44.150,364.400 43.600 C 363.970 43.050,363.614 42.373,363.609 42.096 C 363.604 41.819,363.060 41.028,362.400 40.337 C 361.740 39.646,361.200 38.926,361.200 38.735 C 361.200 38.323,354.671 31.600,354.270 31.600 C 354.118 31.600,353.428 31.060,352.737 30.400 C 352.046 29.740,351.321 29.200,351.124 29.200 C 350.927 29.200,350.380 28.840,349.908 28.400 C 349.436 27.960,348.813 27.600,348.525 27.600 C 348.236 27.600,348.000 27.420,348.000 27.200 C 348.000 26.980,347.640 26.800,347.200 26.800 C 346.760 26.800,346.400 26.653,346.400 26.474 C 346.400 26.076,343.799 24.800,342.986 24.800 C 342.664 24.800,342.400 24.654,342.400 24.475 C 342.400 24.296,341.770 23.902,341.000 23.600 C 340.230 23.298,339.600 22.904,339.600 22.725 C 339.600 22.546,339.240 22.400,338.800 22.400 C 338.360 22.400,338.000 22.220,338.000 22.000 C 338.000 21.780,337.640 21.600,337.200 21.600 C 336.760 21.600,336.400 21.420,336.400 21.200 C 336.400 20.980,336.051 20.800,335.624 20.800 C 335.197 20.800,334.736 20.620,334.600 20.400 C 334.464 20.180,333.913 20.000,333.376 20.000 C 332.839 20.000,332.400 19.820,332.400 19.600 C 332.400 19.380,332.040 19.200,331.600 19.200 C 331.160 19.200,330.800 19.020,330.800 18.800 C 330.800 18.580,330.260 18.400,329.600 18.400 C 328.940 18.400,328.400 18.220,328.400 18.000 C 328.400 17.780,327.860 17.600,327.200 17.600 C 326.540 17.600,326.000 17.420,326.000 17.200 C 326.000 16.980,325.640 16.800,325.200 16.800 C 324.760 16.800,324.400 16.620,324.400 16.400 C 324.400 16.180,323.860 16.000,323.200 16.000 C 322.540 16.000,322.000 15.820,322.000 15.600 C 322.000 15.380,321.561 15.200,321.024 15.200 C 320.487 15.200,319.936 15.020,319.800 14.800 C 319.664 14.580,318.933 14.400,318.176 14.400 C 317.419 14.400,316.800 14.220,316.800 14.000 C 316.800 13.780,316.260 13.600,315.600 13.600 C 314.940 13.600,314.400 13.420,314.400 13.200 C 314.400 12.980,313.871 12.800,313.224 12.800 C 312.577 12.800,311.936 12.620,311.800 12.400 C 311.664 12.180,310.933 12.000,310.176 12.000 C 309.419 12.000,308.800 11.820,308.800 11.600 C 308.800 11.380,308.181 11.200,307.424 11.200 C 306.667 11.200,305.936 11.020,305.800 10.800 C 305.664 10.580,304.944 10.400,304.200 10.400 C 303.456 10.400,302.748 10.239,302.626 10.042 C 302.505 9.845,301.729 9.588,300.903 9.470 C 293.703 8.441,292.400 8.203,292.400 7.922 C 292.400 7.745,291.601 7.600,290.624 7.600 C 289.647 7.600,288.736 7.420,288.600 7.200 C 288.464 6.980,287.373 6.800,286.176 6.800 C 284.979 6.800,284.000 6.620,284.000 6.400 C 284.000 6.180,283.021 6.000,281.824 6.000 C 280.627 6.000,279.536 5.820,279.400 5.600 C 279.264 5.380,278.173 5.200,276.976 5.200 C 275.779 5.200,274.800 5.020,274.800 4.800 C 274.800 4.571,273.600 4.400,272.000 4.400 C 270.400 4.400,269.200 4.229,269.200 4.000 C 269.200 3.769,267.925 3.600,266.176 3.600 C 264.513 3.600,263.248 3.445,263.365 3.256 C 263.482 3.067,262.098 2.877,260.289 2.835 C 258.480 2.793,256.940 2.587,256.867 2.379 C 256.793 2.171,255.128 2.000,253.167 2.000 C 251.056 2.000,249.600 1.837,249.600 1.600 C 249.600 1.356,247.744 1.200,244.833 1.200 C 241.508 1.200,240.019 1.056,239.908 0.725 C 239.752 0.256,182.194 -0.097,166.300 0.273 M220.400 9.599 C 243.820 10.754,258.952 12.270,276.600 15.230 C 293.823 18.118,315.434 23.701,324.800 27.682 C 325.350 27.916,326.205 28.263,326.700 28.454 C 339.533 33.394,350.128 40.507,352.819 45.990 C 353.359 47.089,353.935 47.990,354.100 47.994 C 354.265 47.997,354.400 48.360,354.400 48.800 C 354.400 49.240,354.580 49.600,354.800 49.600 C 355.020 49.600,355.200 50.050,355.200 50.600 C 355.200 51.150,355.380 51.600,355.600 51.600 C 355.826 51.600,356.000 52.733,356.000 54.200 C 356.000 55.667,355.826 56.800,355.600 56.800 C 355.380 56.800,355.200 57.160,355.200 57.600 C 355.200 58.040,355.064 58.400,354.898 58.400 C 354.731 58.400,354.339 58.978,354.027 59.684 C 353.361 61.188,346.017 68.614,344.819 68.994 C 344.369 69.137,344.000 69.422,344.000 69.627 C 344.000 69.832,343.770 70.000,343.488 70.000 C 343.207 70.000,342.717 70.360,342.400 70.800 C 342.083 71.240,341.503 71.600,341.112 71.600 C 340.720 71.600,340.400 71.780,340.400 72.000 C 340.400 72.220,340.080 72.400,339.688 72.400 C 339.297 72.400,338.717 72.760,338.400 73.200 C 338.083 73.640,337.503 74.000,337.112 74.000 C 336.720 74.000,336.400 74.180,336.400 74.400 C 336.400 74.620,336.085 74.801,335.700 74.802 C 335.315 74.804,334.484 75.074,333.854 75.402 C 333.224 75.731,332.459 76.000,332.154 76.000 C 331.849 76.000,331.600 76.180,331.600 76.400 C 331.600 76.620,331.328 76.800,330.995 76.800 C 330.662 76.800,330.077 76.959,329.695 77.153 C 329.313 77.348,328.460 77.729,327.800 78.000 C 327.140 78.271,326.287 78.652,325.905 78.847 C 325.523 79.041,324.938 79.200,324.605 79.200 C 324.272 79.200,324.000 79.380,324.000 79.600 C 324.000 79.820,323.449 80.000,322.776 80.000 C 322.063 80.000,321.656 80.167,321.800 80.400 C 321.945 80.634,321.530 80.800,320.800 80.800 C 320.114 80.800,319.640 80.942,319.748 81.115 C 319.855 81.288,319.468 81.470,318.889 81.517 C 318.309 81.565,317.656 81.784,317.438 82.002 C 317.219 82.221,316.626 82.400,316.120 82.400 C 315.614 82.400,315.200 82.580,315.200 82.800 C 315.200 83.020,314.581 83.200,313.824 83.200 C 313.067 83.200,312.336 83.380,312.200 83.600 C 312.064 83.820,311.524 84.000,311.000 84.000 C 310.476 84.000,309.936 84.180,309.800 84.400 C 309.664 84.620,308.933 84.800,308.176 84.800 C 307.419 84.800,306.800 84.980,306.800 85.200 C 306.800 85.420,306.260 85.600,305.600 85.600 C 304.940 85.600,304.400 85.780,304.400 86.000 C 304.400 86.220,303.680 86.400,302.800 86.400 C 301.920 86.400,301.200 86.580,301.200 86.800 C 301.200 87.020,300.480 87.200,299.600 87.200 C 298.720 87.200,298.000 87.380,298.000 87.600 C 298.000 87.820,297.364 88.000,296.587 88.000 C 295.507 88.000,294.846 88.328,293.787 89.387 L 292.400 90.773 292.400 109.187 L 292.400 127.600 291.280 127.600 C 290.664 127.600,289.989 127.437,289.780 127.239 C 289.571 127.040,288.590 126.779,287.600 126.658 C 286.610 126.537,284.720 126.248,283.400 126.015 C 279.896 125.398,272.186 124.370,269.300 124.135 C 267.925 124.023,266.800 123.767,266.800 123.566 C 266.800 123.365,265.360 123.200,263.600 123.200 C 261.733 123.200,260.400 123.033,260.400 122.800 C 260.400 122.565,259.000 122.400,257.000 122.400 C 255.000 122.400,253.600 122.235,253.600 122.000 C 253.600 121.758,251.867 121.600,249.200 121.600 C 246.533 121.600,244.800 121.442,244.800 121.200 C 244.800 120.955,242.867 120.800,239.800 120.800 C 236.733 120.800,234.800 120.645,234.800 120.400 C 234.800 120.147,231.925 120.000,226.976 120.000 C 221.863 120.000,219.238 119.861,219.400 119.600 C 219.564 119.335,213.071 119.200,200.224 119.200 C 187.541 119.200,180.800 119.339,180.800 119.600 C 180.800 119.853,177.933 120.000,173.000 120.000 C 168.067 120.000,165.200 120.147,165.200 120.400 C 165.200 120.645,163.267 120.800,160.200 120.800 C 157.133 120.800,155.200 120.955,155.200 121.200 C 155.200 121.442,153.467 121.600,150.800 121.600 C 148.133 121.600,146.400 121.758,146.400 122.000 C 146.400 122.235,145.000 122.400,143.000 122.400 C 141.000 122.400,139.600 122.565,139.600 122.800 C 139.600 123.033,138.267 123.200,136.400 123.200 C 134.533 123.200,133.200 123.367,133.200 123.600 C 133.200 123.822,132.133 124.000,130.800 124.000 C 129.480 124.000,128.400 124.153,128.400 124.340 C 128.400 124.527,126.645 124.796,124.500 124.937 C 122.355 125.079,119.971 125.376,119.203 125.597 C 118.434 125.819,117.140 126.000,116.326 126.000 C 115.513 126.000,114.736 126.180,114.600 126.400 C 114.464 126.620,113.474 126.800,112.400 126.800 C 111.326 126.800,110.336 126.980,110.200 127.200 C 109.427 128.450,107.600 127.607,107.600 126.000 C 107.600 125.120,107.420 124.400,107.200 124.400 C 106.940 124.400,106.800 118.676,106.800 108.028 L 106.800 91.657 105.467 90.328 C 103.615 88.483,101.361 87.200,99.972 87.200 C 99.328 87.200,98.800 87.020,98.800 86.800 C 98.800 86.580,98.080 86.400,97.200 86.400 C 96.320 86.400,95.600 86.220,95.600 86.000 C 95.600 85.780,95.060 85.600,94.400 85.600 C 93.740 85.600,93.200 85.420,93.200 85.200 C 93.200 84.980,92.581 84.800,91.824 84.800 C 91.067 84.800,90.336 84.620,90.200 84.400 C 90.064 84.180,89.524 84.000,89.000 84.000 C 88.476 84.000,87.936 83.820,87.800 83.600 C 87.664 83.380,87.124 83.200,86.600 83.200 C 86.076 83.200,85.536 83.020,85.400 82.800 C 85.264 82.580,84.659 82.400,84.056 82.400 C 83.453 82.400,82.781 82.221,82.562 82.002 C 82.344 81.784,81.678 81.564,81.082 81.515 C 80.487 81.466,80.000 81.285,80.000 81.113 C 80.000 80.941,79.640 80.800,79.200 80.800 C 78.760 80.800,78.400 80.620,78.400 80.400 C 78.400 80.180,77.860 80.000,77.200 80.000 C 76.540 80.000,76.000 79.820,76.000 79.600 C 76.000 79.380,75.728 79.200,75.396 79.200 C 74.844 79.200,72.007 78.067,70.305 77.167 C 69.923 76.965,69.338 76.800,69.005 76.800 C 68.672 76.800,68.400 76.620,68.400 76.400 C 68.400 76.180,68.151 76.000,67.846 76.000 C 67.541 76.000,66.776 75.731,66.146 75.402 C 65.516 75.074,64.685 74.804,64.300 74.802 C 63.915 74.801,63.600 74.620,63.600 74.400 C 63.600 74.180,63.240 74.000,62.800 74.000 C 62.360 74.000,62.000 73.841,62.000 73.647 C 62.000 73.452,61.685 73.190,61.300 73.064 C 60.537 72.814,57.592 71.117,56.000 70.010 C 55.450 69.627,54.787 69.243,54.528 69.157 C 52.127 68.359,46.534 62.855,44.618 59.406 C 38.895 49.101,51.537 36.345,76.500 27.239 C 77.765 26.778,79.745 26.046,80.900 25.614 C 85.408 23.925,100.680 19.655,105.200 18.820 C 106.190 18.637,109.250 18.015,112.000 17.439 C 114.750 16.862,118.080 16.199,119.400 15.965 C 120.720 15.731,122.610 15.388,123.600 15.204 C 147.945 10.664,191.203 8.159,220.400 9.599 M193.600 18.800 C 193.600 19.022,192.533 19.200,191.200 19.200 C 189.867 19.200,188.800 19.378,188.800 19.600 C 188.800 19.820,188.181 20.000,187.424 20.000 C 186.667 20.000,185.936 20.180,185.800 20.400 C 185.664 20.620,185.023 20.800,184.376 20.800 C 183.729 20.800,183.200 20.980,183.200 21.200 C 183.200 21.420,182.750 21.600,182.200 21.600 C 181.650 21.600,181.200 21.780,181.200 22.000 C 181.200 22.220,180.750 22.400,180.200 22.400 C 179.650 22.400,179.200 22.580,179.200 22.800 C 179.200 23.020,178.840 23.200,178.400 23.200 C 177.960 23.200,177.600 23.337,177.600 23.505 C 177.600 23.673,177.264 23.988,176.854 24.205 C 172.899 26.297,171.709 27.017,171.153 27.656 C 170.797 28.065,170.310 28.400,170.070 28.400 C 169.523 28.400,162.800 35.091,162.800 35.635 C 162.800 35.856,162.350 36.486,161.800 37.036 C 161.250 37.586,160.800 38.195,160.800 38.390 C 160.800 38.584,160.570 38.981,160.288 39.271 C 160.006 39.562,159.241 40.880,158.588 42.200 C 157.935 43.520,157.265 44.660,157.100 44.733 C 156.935 44.807,156.800 45.402,156.800 46.057 C 156.800 46.749,156.632 47.144,156.400 47.000 C 156.173 46.860,156.000 47.196,156.000 47.776 C 156.000 48.339,155.820 48.800,155.600 48.800 C 155.380 48.800,155.200 49.441,155.200 50.224 C 155.200 51.007,155.056 51.558,154.880 51.449 C 154.704 51.341,154.516 51.915,154.463 52.726 C 154.409 53.537,154.193 54.260,153.982 54.333 C 153.772 54.407,153.600 55.532,153.600 56.833 C 153.600 58.144,153.422 59.200,153.200 59.200 C 152.953 59.200,152.800 61.267,152.800 64.600 C 152.800 67.933,152.953 70.000,153.200 70.000 C 153.422 70.000,153.600 71.067,153.600 72.400 C 153.600 73.733,153.778 74.800,154.000 74.800 C 154.220 74.800,154.400 75.430,154.400 76.200 C 154.400 76.970,154.580 77.600,154.800 77.600 C 155.020 77.600,155.200 78.140,155.200 78.800 C 155.200 79.460,155.380 80.000,155.600 80.000 C 155.820 80.000,156.000 80.540,156.000 81.200 C 156.000 81.860,156.136 82.400,156.302 82.400 C 156.469 82.400,156.857 82.985,157.165 83.700 C 159.219 88.462,166.092 96.382,172.200 101.023 C 179.007 106.195,190.197 110.000,198.602 110.000 C 234.932 110.000,256.524 69.767,236.475 39.429 C 231.689 32.186,219.037 21.600,215.167 21.600 C 214.745 21.600,214.400 21.420,214.400 21.200 C 214.400 20.980,213.860 20.800,213.200 20.800 C 212.540 20.800,212.000 20.620,212.000 20.400 C 212.000 20.180,211.280 20.000,210.400 20.000 C 209.520 20.000,208.800 19.820,208.800 19.600 C 208.800 19.380,207.821 19.200,206.624 19.200 C 205.427 19.200,204.336 19.020,204.200 18.800 C 204.056 18.567,201.796 18.400,198.776 18.400 C 195.592 18.400,193.600 18.554,193.600 18.800 M207.529 29.638 C 216.969 31.917,226.375 39.336,228.947 46.532 C 229.196 47.229,229.490 47.890,229.600 48.000 C 230.062 48.462,231.600 51.721,231.600 52.238 C 231.600 52.547,231.780 52.800,232.000 52.800 C 232.220 52.800,232.400 53.340,232.400 54.000 C 232.400 54.660,232.580 55.200,232.800 55.200 C 233.020 55.200,233.200 55.819,233.200 56.576 C 233.200 57.333,233.380 58.064,233.600 58.200 C 233.839 58.348,234.000 60.937,234.000 64.624 C 234.000 68.475,233.849 70.800,233.600 70.800 C 233.380 70.800,233.200 71.520,233.200 72.400 C 233.200 73.280,233.020 74.000,232.800 74.000 C 232.580 74.000,232.400 74.540,232.400 75.200 C 232.400 75.860,232.220 76.400,232.000 76.400 C 231.780 76.400,231.600 76.850,231.600 77.400 C 231.600 77.950,231.420 78.400,231.200 78.400 C 230.980 78.400,230.800 78.760,230.800 79.200 C 230.800 79.640,230.620 80.000,230.400 80.000 C 230.180 80.000,230.000 80.360,230.000 80.800 C 230.000 81.240,229.842 81.600,229.649 81.600 C 229.455 81.600,229.073 82.140,228.800 82.800 C 228.527 83.460,228.174 84.000,228.016 84.000 C 227.858 84.000,227.520 84.457,227.266 85.015 C 226.036 87.715,218.171 94.800,216.404 94.800 C 216.182 94.800,216.000 94.980,216.000 95.200 C 216.000 95.420,215.640 95.600,215.200 95.600 C 214.760 95.600,214.400 95.780,214.400 96.000 C 214.400 96.220,214.040 96.400,213.600 96.400 C 213.160 96.400,212.800 96.580,212.800 96.800 C 212.800 97.020,212.350 97.200,211.800 97.200 C 211.250 97.200,210.800 97.380,210.800 97.600 C 210.800 97.820,210.260 98.000,209.600 98.000 C 208.940 98.000,208.400 98.180,208.400 98.400 C 208.400 98.620,207.680 98.800,206.800 98.800 C 205.920 98.800,205.200 98.980,205.200 99.200 C 205.200 99.450,202.808 99.600,198.824 99.600 C 195.004 99.600,192.348 99.440,192.200 99.200 C 192.064 98.980,191.434 98.800,190.800 98.800 C 190.166 98.800,189.536 98.620,189.400 98.400 C 189.264 98.180,188.713 98.000,188.176 98.000 C 187.639 98.000,187.200 97.820,187.200 97.600 C 187.200 97.380,186.946 97.200,186.634 97.200 C 186.143 97.200,182.606 95.604,180.200 94.295 C 179.760 94.056,178.688 93.487,177.818 93.030 C 166.022 86.842,159.873 67.786,164.900 53.000 C 167.379 45.710,173.481 37.777,178.400 35.451 C 179.390 34.983,180.443 34.274,180.739 33.876 C 181.036 33.478,182.296 32.694,183.539 32.135 C 184.783 31.575,186.160 30.955,186.600 30.757 C 191.138 28.712,201.416 28.162,207.529 29.638 M182.581 37.709 C 180.827 38.589,180.800 38.984,180.800 63.496 C 180.800 97.697,179.741 97.020,206.600 80.004 C 227.588 66.708,227.204 67.025,226.520 63.499 C 226.297 62.349,221.130 57.511,218.933 56.395 C 218.310 56.078,216.503 54.960,214.918 53.910 C 213.333 52.859,211.930 52.000,211.800 52.000 C 211.670 52.000,210.230 51.100,208.600 50.000 C 206.970 48.900,205.534 48.000,205.409 48.000 C 205.284 48.000,203.822 47.100,202.161 46.000 C 200.500 44.900,199.055 44.000,198.949 44.000 C 198.844 44.000,197.517 43.190,196.000 42.200 C 194.483 41.210,193.156 40.400,193.050 40.400 C 192.943 40.400,191.773 39.680,190.448 38.800 C 187.906 37.112,184.667 36.662,182.581 37.709 M197.501 54.646 C 207.400 60.894,208.000 61.291,208.000 61.586 C 208.000 61.983,209.425 63.600,209.775 63.600 C 210.119 63.600,211.355 64.800,211.148 64.932 C 211.066 64.984,210.508 65.274,209.907 65.577 C 209.305 65.880,208.458 66.459,208.023 66.864 C 207.589 67.269,206.996 67.600,206.705 67.600 C 206.414 67.600,205.917 67.960,205.600 68.400 C 205.283 68.840,204.703 69.200,204.312 69.200 C 203.920 69.200,203.600 69.380,203.600 69.600 C 203.600 69.820,203.280 70.000,202.888 70.000 C 202.497 70.000,201.917 70.360,201.600 70.800 C 201.283 71.240,200.743 71.600,200.400 71.600 C 200.057 71.600,199.517 71.960,199.200 72.400 C 198.883 72.840,198.303 73.200,197.912 73.200 C 197.520 73.200,197.200 73.342,197.200 73.516 C 197.200 73.690,196.213 74.333,195.007 74.943 C 193.801 75.554,192.710 76.222,192.583 76.427 C 192.023 77.333,191.600 76.647,191.600 74.833 C 191.600 73.615,191.410 72.803,191.100 72.700 C 190.582 72.528,190.100 52.559,190.584 51.298 C 190.885 50.514,191.181 50.657,197.501 54.646 M53.650 80.353 C 66.098 87.131,73.769 90.171,91.100 95.193 C 92.989 95.741,94.000 96.237,94.000 96.617 C 94.000 96.998,94.415 97.200,95.200 97.200 L 96.400 97.200 96.400 151.600 L 96.400 206.000 95.424 206.000 C 94.887 206.000,94.336 205.820,94.200 205.600 C 94.064 205.380,93.423 205.200,92.776 205.200 C 92.129 205.200,91.600 205.020,91.600 204.800 C 91.600 204.580,90.970 204.400,90.200 204.400 C 89.430 204.400,88.800 204.220,88.800 204.000 C 88.800 203.780,88.241 203.600,87.557 203.600 C 86.709 203.600,86.377 203.437,86.512 203.086 C 86.655 202.712,86.339 202.614,85.355 202.729 C 84.534 202.825,84.000 202.713,84.000 202.444 C 84.000 202.200,83.460 202.000,82.800 202.000 C 82.140 202.000,81.600 201.820,81.600 201.600 C 81.600 201.380,81.060 201.200,80.400 201.200 C 79.740 201.200,79.200 201.020,79.200 200.800 C 79.200 200.580,78.660 200.400,78.000 200.400 C 77.340 200.400,76.800 200.220,76.800 200.000 C 76.800 199.780,76.440 199.600,76.000 199.600 C 75.560 199.600,75.200 199.420,75.200 199.200 C 75.200 198.980,74.750 198.800,74.200 198.800 C 73.650 198.800,73.200 198.620,73.200 198.400 C 73.200 198.180,72.928 198.000,72.595 198.000 C 72.262 198.000,71.632 197.820,71.195 197.600 C 70.758 197.380,70.042 197.020,69.605 196.800 C 69.168 196.580,68.538 196.400,68.205 196.400 C 67.872 196.400,67.600 196.220,67.600 196.000 C 67.600 195.780,67.240 195.600,66.800 195.600 C 66.360 195.600,66.000 195.420,66.000 195.200 C 66.000 194.980,65.640 194.800,65.200 194.800 C 64.760 194.800,64.400 194.620,64.400 194.400 C 64.400 194.180,64.040 194.000,63.600 194.000 C 63.160 194.000,62.800 193.820,62.800 193.600 C 62.800 193.380,62.440 193.200,62.000 193.200 C 61.560 193.200,61.200 193.040,61.200 192.843 C 61.200 192.647,60.746 192.373,60.191 192.233 C 55.855 191.145,46.538 183.324,44.368 178.950 L 43.400 177.000 43.294 124.904 L 43.188 72.807 47.544 76.104 C 49.939 77.917,52.687 79.829,53.650 80.353 M356.000 125.576 C 356.000 158.729,355.863 176.037,355.600 176.200 C 355.380 176.336,355.200 176.887,355.200 177.424 C 355.200 177.961,355.020 178.400,354.800 178.400 C 354.580 178.400,354.400 178.771,354.400 179.224 C 354.400 179.677,354.220 179.936,354.000 179.800 C 353.780 179.664,353.600 179.794,353.600 180.088 C 353.600 180.383,353.240 180.883,352.800 181.200 C 352.360 181.517,352.000 182.025,352.000 182.328 C 352.000 182.931,348.504 186.400,347.897 186.400 C 347.690 186.400,347.017 186.940,346.400 187.600 C 345.783 188.260,345.071 188.800,344.816 188.800 C 344.561 188.800,344.464 188.980,344.600 189.200 C 344.736 189.420,344.477 189.600,344.024 189.600 C 343.571 189.600,343.200 189.780,343.200 190.000 C 343.200 190.220,342.930 190.400,342.600 190.400 C 342.270 190.400,342.000 190.548,342.000 190.729 C 342.000 190.910,340.605 191.753,338.900 192.602 C 337.195 193.451,335.740 194.293,335.667 194.473 C 335.593 194.653,335.295 194.800,335.004 194.800 C 334.549 194.800,333.250 195.367,330.305 196.850 C 329.923 197.043,329.338 197.200,329.005 197.200 C 328.672 197.200,328.400 197.380,328.400 197.600 C 328.400 197.820,328.040 198.000,327.600 198.000 C 327.160 198.000,326.800 198.180,326.800 198.400 C 326.800 198.620,326.350 198.800,325.800 198.800 C 325.250 198.800,324.800 198.980,324.800 199.200 C 324.800 199.420,324.260 199.600,323.600 199.600 C 322.940 199.600,322.400 199.780,322.400 200.000 C 322.400 200.220,322.040 200.400,321.600 200.400 C 321.160 200.400,320.800 200.580,320.800 200.800 C 320.800 201.020,320.260 201.200,319.600 201.200 C 318.940 201.200,318.400 201.380,318.400 201.600 C 318.400 201.820,317.860 202.000,317.200 202.000 C 316.540 202.000,316.000 202.180,316.000 202.400 C 316.000 202.620,315.460 202.800,314.800 202.800 C 314.140 202.800,313.600 202.980,313.600 203.200 C 313.600 203.420,313.071 203.600,312.424 203.600 C 311.777 203.600,311.136 203.780,311.000 204.000 C 310.864 204.220,310.223 204.400,309.576 204.400 C 308.929 204.400,308.400 204.580,308.400 204.800 C 308.400 205.020,307.860 205.200,307.200 205.200 C 306.540 205.200,306.000 205.380,306.000 205.600 C 306.000 205.820,305.460 206.000,304.800 206.000 C 303.669 206.000,303.600 205.909,303.600 204.420 C 303.600 203.429,303.376 202.714,302.999 202.503 C 302.467 202.206,302.409 196.038,302.499 149.600 L 302.600 97.033 304.000 96.552 C 304.770 96.287,307.830 95.401,310.800 94.583 C 327.500 89.984,340.938 84.187,351.438 77.052 C 352.289 76.473,353.383 76.000,353.869 76.000 C 354.355 76.000,354.864 75.820,355.000 75.600 C 355.136 75.380,355.417 75.200,355.624 75.200 C 355.857 75.200,356.000 94.365,356.000 125.576 M191.200 147.600 C 191.200 147.822,190.133 148.000,188.800 148.000 C 187.467 148.000,186.400 148.178,186.400 148.400 C 186.400 148.620,185.691 148.800,184.824 148.800 C 183.957 148.800,183.136 148.980,183.000 149.200 C 182.864 149.420,182.234 149.600,181.600 149.600 C 180.966 149.600,180.336 149.780,180.200 150.000 C 180.064 150.220,179.513 150.400,178.976 150.400 C 178.439 150.400,178.000 150.580,178.000 150.800 C 178.000 151.020,177.766 151.200,177.480 151.200 C 176.744 151.200,174.807 152.141,174.803 152.500 C 174.801 152.665,174.440 152.800,174.000 152.800 C 173.560 152.800,173.200 152.980,173.200 153.200 C 173.200 153.420,172.840 153.600,172.400 153.600 C 171.960 153.600,171.600 153.780,171.600 154.000 C 171.600 154.220,171.240 154.400,170.800 154.400 C 170.360 154.400,170.000 154.580,170.000 154.800 C 170.000 155.020,169.629 155.200,169.176 155.200 C 168.723 155.200,168.464 155.380,168.600 155.600 C 168.736 155.820,168.567 156.000,168.224 156.000 C 167.881 156.000,167.600 156.180,167.600 156.400 C 167.600 156.620,167.306 156.800,166.947 156.800 C 166.588 156.800,166.003 157.133,165.647 157.541 C 165.291 157.948,164.454 158.563,163.786 158.907 C 162.537 159.550,155.200 167.026,155.200 167.656 C 155.200 167.849,154.660 168.572,154.000 169.263 C 153.340 169.954,152.800 170.679,152.800 170.876 C 152.800 171.073,152.440 171.620,152.000 172.092 C 151.560 172.564,151.200 173.187,151.200 173.475 C 151.200 173.764,151.020 174.000,150.800 174.000 C 150.580 174.000,150.400 174.360,150.400 174.800 C 150.400 175.240,150.254 175.600,150.075 175.600 C 149.896 175.600,149.502 176.230,149.200 177.000 C 148.898 177.770,148.504 178.400,148.325 178.400 C 148.146 178.400,148.000 178.749,148.000 179.176 C 148.000 179.603,147.820 180.064,147.600 180.200 C 147.380 180.336,147.200 180.887,147.200 181.424 C 147.200 181.961,147.020 182.400,146.800 182.400 C 146.580 182.400,146.400 182.940,146.400 183.600 C 146.400 184.260,146.220 184.800,146.000 184.800 C 145.780 184.800,145.600 185.329,145.600 185.976 C 145.600 186.623,145.420 187.264,145.200 187.400 C 144.980 187.536,144.800 188.447,144.800 189.424 C 144.800 190.401,144.620 191.200,144.400 191.200 C 144.169 191.200,144.000 192.459,144.000 194.176 C 144.000 195.813,143.864 197.237,143.699 197.339 C 143.349 197.555,143.415 238.748,143.766 239.099 C 143.895 239.228,144.000 240.743,144.000 242.467 C 144.000 244.289,144.167 245.600,144.400 245.600 C 144.620 245.600,144.800 246.399,144.800 247.376 C 144.800 248.353,144.980 249.264,145.200 249.400 C 145.420 249.536,145.600 250.177,145.600 250.824 C 145.600 251.471,145.780 252.000,146.000 252.000 C 146.220 252.000,146.400 252.540,146.400 253.200 C 146.400 253.860,146.580 254.400,146.800 254.400 C 147.020 254.400,147.200 254.850,147.200 255.400 C 147.200 255.950,147.380 256.400,147.600 256.400 C 147.820 256.400,148.000 256.760,148.000 257.200 C 148.000 257.640,148.180 258.000,148.400 258.000 C 148.620 258.000,148.800 258.360,148.800 258.800 C 148.800 259.240,148.980 259.600,149.200 259.600 C 149.420 259.600,149.600 259.960,149.600 260.400 C 149.600 260.840,149.780 261.200,150.000 261.200 C 150.220 261.200,150.400 261.560,150.400 262.000 C 150.400 262.440,150.550 262.800,150.732 262.800 C 150.915 262.800,151.320 263.295,151.632 263.900 C 151.945 264.505,152.515 265.349,152.900 265.775 C 153.285 266.202,153.600 266.747,153.600 266.987 C 153.600 267.227,153.960 267.683,154.400 268.000 C 154.840 268.317,155.200 268.807,155.200 269.088 C 155.200 269.370,155.380 269.600,155.600 269.600 C 155.820 269.600,156.000 269.791,156.000 270.024 C 156.000 270.710,162.291 276.800,162.999 276.800 C 163.356 276.800,163.536 276.980,163.400 277.200 C 163.264 277.420,163.345 277.600,163.580 277.600 C 163.815 277.600,164.572 278.140,165.263 278.800 C 165.954 279.460,166.762 280.000,167.059 280.000 C 167.495 280.000,167.600 281.514,167.600 287.800 L 167.600 295.600 151.600 295.600 C 141.200 295.600,135.600 295.740,135.600 296.000 C 135.600 296.235,134.208 296.400,132.224 296.400 C 130.367 296.400,128.736 296.580,128.600 296.800 C 128.464 297.020,127.733 297.200,126.976 297.200 C 126.219 297.200,125.600 297.380,125.600 297.600 C 125.600 297.820,125.237 298.000,124.794 298.000 C 123.667 298.000,120.800 298.931,120.800 299.297 C 120.800 299.464,120.555 299.600,120.256 299.600 C 119.599 299.600,114.655 302.076,114.467 302.500 C 114.393 302.665,114.028 302.800,113.655 302.800 C 113.282 302.800,112.717 303.160,112.400 303.600 C 112.083 304.040,111.583 304.400,111.288 304.400 C 110.994 304.400,110.864 304.580,111.000 304.800 C 111.136 305.020,110.916 305.200,110.512 305.200 C 110.107 305.200,109.512 305.577,109.188 306.037 C 108.202 307.441,107.321 308.400,107.019 308.400 C 106.641 308.400,102.000 313.117,101.999 313.503 C 101.999 313.666,101.459 314.430,100.800 315.200 C 100.141 315.970,99.601 316.825,99.601 317.100 C 99.600 317.375,99.420 317.600,99.200 317.600 C 98.980 317.600,98.800 317.960,98.800 318.400 C 98.800 318.840,98.620 319.200,98.400 319.200 C 98.180 319.200,98.000 319.560,98.000 320.000 C 98.000 320.440,97.820 320.800,97.600 320.800 C 97.380 320.800,97.200 321.160,97.200 321.600 C 97.200 322.040,97.053 322.400,96.872 322.400 C 96.692 322.400,96.300 323.300,96.000 324.400 C 95.700 325.500,95.308 326.400,95.128 326.400 C 94.947 326.400,94.800 327.019,94.800 327.776 C 94.800 328.533,94.620 329.264,94.400 329.400 C 94.180 329.536,94.000 330.436,94.000 331.400 C 94.000 332.364,93.820 333.264,93.600 333.400 C 92.903 333.831,93.065 397.522,93.764 398.221 C 94.075 398.532,94.405 399.014,94.498 399.293 C 94.747 400.041,305.253 400.041,305.502 399.293 C 305.595 399.014,305.925 398.532,306.236 398.221 C 306.935 397.522,307.097 333.831,306.400 333.400 C 306.180 333.264,306.000 332.364,306.000 331.400 C 306.000 330.436,305.820 329.536,305.600 329.400 C 305.380 329.264,305.200 328.533,305.200 327.776 C 305.200 327.019,305.053 326.400,304.872 326.400 C 304.692 326.400,304.300 325.500,304.000 324.400 C 303.700 323.300,303.308 322.400,303.128 322.400 C 302.947 322.400,302.800 322.040,302.800 321.600 C 302.800 321.160,302.620 320.800,302.400 320.800 C 302.180 320.800,302.000 320.440,302.000 320.000 C 302.000 319.560,301.820 319.200,301.600 319.200 C 301.380 319.200,301.200 318.840,301.200 318.400 C 301.200 317.960,301.020 317.600,300.800 317.600 C 300.580 317.600,300.400 317.375,300.399 317.100 C 300.399 316.825,299.859 315.970,299.200 315.200 C 298.541 314.430,298.001 313.655,298.001 313.478 C 298.000 313.207,295.745 310.944,292.200 307.656 C 291.760 307.248,291.135 306.528,290.812 306.057 C 290.488 305.586,289.993 305.200,289.712 305.200 C 289.430 305.200,289.200 305.020,289.200 304.800 C 289.200 304.580,288.970 304.400,288.688 304.400 C 288.407 304.400,287.917 304.040,287.600 303.600 C 287.283 303.160,286.703 302.800,286.312 302.800 C 285.920 302.800,285.600 302.641,285.600 302.447 C 285.600 302.252,285.285 301.993,284.900 301.871 C 284.515 301.749,283.660 301.341,283.000 300.964 C 281.086 299.871,280.451 299.600,279.805 299.600 C 279.472 299.600,279.200 299.420,279.200 299.200 C 279.200 298.980,278.761 298.800,278.224 298.800 C 277.687 298.800,277.136 298.620,277.000 298.400 C 276.864 298.180,276.223 298.000,275.576 298.000 C 274.929 298.000,274.400 297.820,274.400 297.600 C 274.400 297.380,273.781 297.200,273.024 297.200 C 272.267 297.200,271.536 297.020,271.400 296.800 C 271.264 296.580,269.633 296.400,267.776 296.400 C 265.792 296.400,264.400 296.235,264.400 296.000 C 264.400 295.740,258.800 295.600,248.400 295.600 L 232.400 295.600 232.400 287.982 C 232.400 279.907,232.691 278.764,234.867 278.309 C 235.569 278.162,244.800 268.981,244.800 268.429 C 244.800 268.189,245.340 267.428,246.000 266.737 C 246.660 266.046,247.200 265.238,247.200 264.941 C 247.200 264.643,247.380 264.400,247.600 264.400 C 247.820 264.400,248.000 264.080,248.000 263.688 C 248.000 263.297,248.360 262.717,248.800 262.400 C 249.240 262.083,249.600 261.503,249.600 261.112 C 249.600 260.720,249.780 260.400,250.000 260.400 C 250.220 260.400,250.400 260.040,250.400 259.600 C 250.400 259.160,250.580 258.800,250.800 258.800 C 251.020 258.800,251.200 258.440,251.200 258.000 C 251.200 257.560,251.380 257.200,251.600 257.200 C 251.820 257.200,252.000 256.750,252.000 256.200 C 252.000 255.650,252.180 255.200,252.400 255.200 C 252.620 255.200,252.800 254.660,252.800 254.000 C 252.800 253.340,252.980 252.800,253.200 252.800 C 253.420 252.800,253.600 252.260,253.600 251.600 C 253.600 250.940,253.780 250.400,254.000 250.400 C 254.220 250.400,254.400 249.680,254.400 248.800 C 254.400 247.920,254.580 247.200,254.800 247.200 C 255.022 247.200,255.200 246.133,255.200 244.800 C 255.200 243.467,255.378 242.400,255.600 242.400 C 255.862 242.400,256.000 234.141,256.000 218.424 C 256.000 202.871,255.859 194.360,255.600 194.200 C 255.380 194.064,255.200 192.973,255.200 191.776 C 255.200 190.579,255.020 189.600,254.800 189.600 C 254.580 189.600,254.400 188.880,254.400 188.000 C 254.400 187.120,254.220 186.400,254.000 186.400 C 253.780 186.400,253.600 185.871,253.600 185.224 C 253.600 184.577,253.420 183.936,253.200 183.800 C 252.980 183.664,252.800 183.113,252.800 182.576 C 252.800 182.039,252.620 181.600,252.400 181.600 C 252.180 181.600,252.000 181.296,252.000 180.924 C 252.000 180.319,249.705 175.297,249.201 174.800 C 249.090 174.690,248.744 174.105,248.432 173.500 C 248.120 172.895,247.715 172.400,247.532 172.400 C 247.350 172.400,247.200 172.080,247.200 171.688 C 247.200 171.297,246.840 170.717,246.400 170.400 C 245.960 170.083,245.600 169.617,245.600 169.365 C 245.600 168.551,235.783 158.400,234.996 158.400 C 234.733 158.400,233.954 157.860,233.263 157.200 C 232.572 156.540,231.736 156.000,231.404 156.000 C 231.072 156.000,230.800 155.820,230.800 155.600 C 230.800 155.380,230.564 155.200,230.275 155.200 C 229.987 155.200,229.364 154.840,228.892 154.400 C 228.420 153.960,227.756 153.600,227.417 153.600 C 227.078 153.600,226.800 153.420,226.800 153.200 C 226.800 152.980,226.440 152.800,226.000 152.800 C 225.560 152.800,225.200 152.620,225.200 152.400 C 225.200 152.180,224.851 152.000,224.424 152.000 C 223.997 152.000,223.536 151.820,223.400 151.600 C 223.264 151.380,222.803 151.200,222.376 151.200 C 221.949 151.200,221.600 151.020,221.600 150.800 C 221.600 150.580,221.060 150.400,220.400 150.400 C 219.740 150.400,219.200 150.220,219.200 150.000 C 219.200 149.780,218.660 149.600,218.000 149.600 C 217.340 149.600,216.800 149.420,216.800 149.200 C 216.800 148.980,216.091 148.800,215.224 148.800 C 214.357 148.800,213.536 148.620,213.400 148.400 C 213.264 148.180,211.993 148.000,210.576 148.000 C 209.125 148.000,208.000 147.825,208.000 147.600 C 208.000 147.346,204.933 147.200,199.600 147.200 C 194.267 147.200,191.200 147.346,191.200 147.600 M213.157 158.958 C 220.559 161.040,227.347 164.960,232.027 169.853 C 234.624 172.568,238.000 177.160,238.000 177.978 C 238.000 178.210,238.135 178.401,238.300 178.403 C 238.659 178.407,239.600 180.344,239.600 181.080 C 239.600 181.366,239.780 181.600,240.000 181.600 C 240.220 181.600,240.400 181.971,240.400 182.424 C 240.400 182.940,240.571 183.142,240.858 182.964 C 241.174 182.769,241.253 183.009,241.113 183.741 C 240.978 184.447,241.084 184.800,241.431 184.800 C 241.741 184.800,242.060 185.529,242.222 186.605 C 242.371 187.598,242.652 188.508,242.846 188.629 C 243.041 188.749,243.200 189.366,243.200 190.000 C 243.200 190.634,243.380 191.264,243.600 191.400 C 243.820 191.536,244.000 192.537,244.000 193.624 C 244.000 194.711,244.180 195.600,244.400 195.600 C 244.655 195.600,244.800 198.792,244.800 204.376 C 244.800 209.796,244.647 213.247,244.400 213.400 C 244.180 213.536,244.000 214.436,244.000 215.400 C 244.000 216.364,243.820 217.264,243.600 217.400 C 243.380 217.536,243.200 218.078,243.200 218.605 C 243.200 219.131,243.032 219.976,242.827 220.481 C 242.622 220.987,242.147 222.435,241.772 223.700 C 241.397 224.965,240.935 226.000,240.745 226.000 C 240.555 226.000,240.400 226.360,240.400 226.800 C 240.400 227.240,240.220 227.600,240.000 227.600 C 239.780 227.600,239.600 227.971,239.600 228.424 C 239.600 228.877,239.420 229.136,239.200 229.000 C 238.980 228.864,238.800 229.033,238.800 229.376 C 238.800 229.719,238.620 230.000,238.400 230.000 C 238.180 230.000,238.000 230.272,238.000 230.604 C 238.000 230.936,237.460 231.772,236.800 232.463 C 236.140 233.154,235.600 233.882,235.600 234.082 C 235.600 234.571,228.038 242.000,227.540 242.000 C 227.099 242.000,224.274 244.033,224.067 244.500 C 223.993 244.665,223.588 244.800,223.167 244.800 C 222.745 244.800,222.400 244.980,222.400 245.200 C 222.400 245.420,222.040 245.600,221.600 245.600 C 221.160 245.600,220.800 245.780,220.800 246.000 C 220.800 246.220,220.440 246.400,220.000 246.400 C 219.560 246.400,219.200 246.580,219.200 246.800 C 219.200 247.020,218.739 247.200,218.176 247.200 C 217.613 247.200,217.240 247.342,217.348 247.515 C 217.455 247.688,217.060 247.870,216.471 247.919 C 215.882 247.967,215.340 248.185,215.267 248.403 C 215.193 248.622,214.529 248.800,213.790 248.800 C 213.052 248.800,212.336 248.980,212.200 249.200 C 212.064 249.420,211.344 249.600,210.600 249.600 C 209.856 249.600,209.136 249.780,209.000 250.000 C 208.847 250.247,205.329 250.400,199.776 250.400 C 194.059 250.400,190.800 250.255,190.800 250.000 C 190.800 249.780,189.990 249.600,189.000 249.600 C 188.010 249.600,187.200 249.420,187.200 249.200 C 187.200 248.980,186.671 248.800,186.024 248.800 C 185.377 248.800,184.736 248.620,184.600 248.400 C 184.464 248.180,183.928 248.000,183.410 248.000 C 182.891 248.000,182.407 247.837,182.333 247.638 C 182.260 247.439,181.750 247.214,181.200 247.138 C 180.650 247.062,180.072 246.820,179.915 246.600 C 179.758 246.380,179.488 246.188,179.315 246.174 C 178.936 246.142,175.883 244.684,175.600 244.399 C 175.490 244.289,174.860 243.934,174.200 243.610 C 161.042 237.157,154.000 223.487,154.000 204.400 C 154.000 181.860,164.400 166.331,183.906 159.746 C 191.370 157.226,205.632 156.842,213.157 158.958 M156.072 241.100 C 177.144 264.815,212.687 267.902,236.349 248.071 C 237.971 246.712,239.552 245.600,239.862 245.600 C 240.621 245.600,243.200 242.983,243.200 242.213 C 243.200 241.876,243.398 241.600,243.640 241.600 C 244.269 241.600,243.441 247.804,242.756 248.227 C 242.560 248.348,242.399 248.842,242.398 249.324 C 242.396 249.806,242.126 250.716,241.798 251.346 C 241.469 251.976,241.200 252.741,241.200 253.046 C 241.200 253.351,241.020 253.600,240.800 253.600 C 240.580 253.600,240.400 253.960,240.400 254.400 C 240.400 254.840,240.220 255.200,240.000 255.200 C 239.780 255.200,239.600 255.560,239.600 256.000 C 239.600 256.440,239.420 256.800,239.200 256.800 C 238.980 256.800,238.800 257.120,238.800 257.512 C 238.800 257.903,238.440 258.483,238.000 258.800 C 237.560 259.117,237.200 259.525,237.200 259.706 C 237.200 259.888,236.762 260.474,236.227 261.009 C 235.692 261.544,234.749 262.661,234.131 263.491 C 232.824 265.246,230.399 267.600,229.898 267.600 C 229.708 267.600,229.664 267.780,229.800 268.000 C 229.936 268.220,229.749 268.400,229.384 268.400 C 229.019 268.400,228.217 268.940,227.600 269.600 C 226.983 270.260,226.364 270.800,226.223 270.800 C 226.082 270.800,225.580 271.160,225.108 271.600 C 224.636 272.040,224.013 272.400,223.725 272.400 C 223.436 272.400,223.200 272.580,223.200 272.800 C 223.200 273.020,222.840 273.200,222.400 273.200 C 221.960 273.200,221.600 273.380,221.600 273.600 C 221.600 273.820,221.240 274.000,220.800 274.000 C 220.360 274.000,220.000 274.137,220.000 274.305 C 220.000 274.473,218.785 274.950,217.300 275.366 C 215.815 275.782,214.420 276.252,214.200 276.411 C 213.685 276.783,211.555 277.208,208.900 277.468 C 207.745 277.581,206.800 277.844,206.800 278.052 C 206.800 278.276,203.883 278.410,199.600 278.382 C 195.532 278.355,192.400 278.174,192.400 277.967 C 192.400 277.765,191.738 277.600,190.928 277.600 C 190.119 277.600,188.904 277.432,188.228 277.227 C 187.553 277.021,185.503 276.391,183.672 275.827 C 181.842 275.262,180.087 274.800,179.772 274.800 C 179.458 274.800,179.200 274.547,179.200 274.237 C 179.200 273.872,178.920 273.748,178.400 273.884 C 177.960 273.999,177.600 273.921,177.600 273.710 C 177.600 273.498,176.745 272.899,175.700 272.377 C 167.104 268.085,159.927 259.943,156.512 250.611 C 155.183 246.979,153.566 239.200,154.140 239.200 C 154.274 239.200,155.143 240.055,156.072 241.100 M183.000 286.359 C 191.664 288.975,207.820 289.175,215.200 286.757 C 215.970 286.505,217.725 286.276,219.100 286.249 L 221.600 286.200 221.600 290.900 L 221.600 295.600 200.054 295.600 L 178.509 295.600 178.254 293.744 C 178.114 292.723,178.000 290.363,178.000 288.499 L 178.000 285.109 179.100 285.311 C 179.705 285.422,181.460 285.894,183.000 286.359 M270.600 307.135 C 276.546 308.772,281.822 311.704,285.400 315.359 C 288.196 318.215,292.400 324.712,292.400 326.177 C 292.400 326.520,292.580 326.800,292.800 326.800 C 293.020 326.800,293.200 327.220,293.200 327.733 C 293.200 328.247,293.323 328.790,293.474 328.941 C 293.954 329.420,294.788 332.160,294.794 333.276 C 294.797 333.868,294.980 334.464,295.200 334.600 C 295.460 334.761,295.600 344.537,295.600 362.624 L 295.600 390.400 281.600 390.400 L 267.600 390.400 267.600 388.680 C 267.600 387.734,267.425 386.785,267.211 386.571 C 266.971 386.331,266.779 378.166,266.711 365.332 C 266.587 342.027,266.769 343.438,263.727 342.151 C 263.027 341.855,262.360 341.459,262.245 341.273 C 261.993 340.865,259.600 341.160,259.600 341.599 C 259.600 341.768,259.227 342.004,258.770 342.124 C 258.314 342.243,257.843 342.714,257.724 343.170 C 257.604 343.627,257.348 344.000,257.153 344.000 C 256.953 344.000,256.800 354.042,256.800 367.200 L 256.800 390.400 200.000 390.400 L 143.200 390.400 143.200 388.624 C 143.200 387.647,143.020 386.736,142.800 386.600 C 142.542 386.440,142.400 379.069,142.400 365.795 C 142.400 342.688,142.527 343.695,139.421 342.087 C 137.248 340.963,136.867 340.940,134.949 341.818 C 132.292 343.035,132.400 341.954,132.400 367.386 L 132.400 390.400 118.400 390.400 L 104.400 390.400 104.400 388.787 C 104.400 387.723,104.196 387.097,103.800 386.945 C 102.931 386.611,102.916 339.886,103.784 334.983 C 106.529 319.467,119.032 307.729,134.200 306.425 C 136.180 306.255,166.960 306.147,202.600 306.185 L 267.400 306.254 270.600 307.135 " stroke="none" fill="#343434" fill-rule="evenodd"></path><path id="path2" d="M178.200 10.035 C 158.577 11.007,139.198 12.925,125.800 15.220 C 123.160 15.672,120.010 16.201,118.800 16.394 C 117.590 16.588,115.700 16.940,114.600 17.177 C 113.500 17.413,112.060 17.705,111.400 17.825 C 108.414 18.368,100.315 20.279,95.400 21.600 C 93.860 22.014,92.150 22.468,91.600 22.610 C 91.050 22.751,90.240 23.011,89.800 23.188 C 89.360 23.364,88.190 23.730,87.200 24.000 C 86.210 24.270,85.040 24.626,84.600 24.790 C 84.160 24.955,83.080 25.307,82.200 25.574 C 81.320 25.840,79.160 26.604,77.400 27.270 C 42.801 40.370,34.461 55.189,54.081 68.700 C 55.758 69.855,57.326 70.800,57.565 70.800 C 57.804 70.800,58.000 70.936,58.000 71.102 C 58.000 71.269,58.585 71.657,59.300 71.965 C 60.015 72.273,61.050 72.832,61.600 73.206 C 62.150 73.580,62.825 73.807,63.100 73.710 C 63.375 73.613,63.600 73.692,63.600 73.886 C 63.600 74.080,64.275 74.467,65.100 74.746 C 65.925 75.025,67.050 75.445,67.600 75.680 C 68.150 75.915,69.005 76.263,69.500 76.454 C 71.249 77.127,72.608 77.697,73.295 78.047 C 73.677 78.241,74.341 78.400,74.771 78.400 C 75.201 78.400,75.664 78.580,75.800 78.800 C 75.936 79.020,76.487 79.200,77.024 79.200 C 77.561 79.200,78.000 79.380,78.000 79.600 C 78.000 79.820,78.362 80.000,78.805 80.000 C 79.248 80.000,79.923 80.158,80.305 80.351 C 81.472 80.940,83.808 81.600,84.728 81.600 C 85.208 81.600,85.600 81.780,85.600 82.000 C 85.600 82.220,86.140 82.400,86.800 82.400 C 87.460 82.400,88.000 82.543,88.000 82.718 C 88.000 82.893,88.675 83.082,89.499 83.137 C 90.324 83.193,91.170 83.410,91.379 83.619 C 91.589 83.829,92.253 84.000,92.856 84.000 C 93.459 84.000,94.064 84.180,94.200 84.400 C 94.336 84.620,95.067 84.800,95.824 84.800 C 96.581 84.800,97.200 84.980,97.200 85.200 C 97.200 85.420,97.740 85.600,98.400 85.600 C 99.060 85.600,99.600 85.780,99.600 86.000 C 99.600 86.220,99.848 86.400,100.151 86.400 C 100.454 86.400,100.928 86.672,101.204 87.005 C 101.480 87.337,102.497 87.959,103.464 88.387 C 107.283 90.076,107.192 89.600,107.304 108.400 L 107.400 124.600 108.400 124.544 C 108.950 124.514,110.030 124.359,110.800 124.201 C 111.570 124.042,112.747 123.876,113.415 123.832 C 114.084 123.788,114.828 123.630,115.069 123.481 C 115.310 123.332,116.383 123.183,117.454 123.149 C 118.524 123.116,119.580 122.953,119.800 122.788 C 120.215 122.477,122.856 122.089,127.000 121.731 C 128.320 121.617,129.582 121.375,129.804 121.193 C 130.026 121.011,131.466 120.820,133.004 120.768 C 134.542 120.716,135.892 120.535,136.005 120.367 C 136.118 120.198,137.783 120.011,139.705 119.951 C 141.627 119.891,143.200 119.697,143.200 119.521 C 143.200 119.344,144.628 119.200,146.374 119.200 C 148.120 119.200,150.002 119.027,150.558 118.816 C 151.113 118.605,153.645 118.405,156.184 118.373 C 158.723 118.340,160.800 118.153,160.800 117.957 C 160.800 117.760,164.211 117.600,168.400 117.600 C 173.200 117.600,176.000 117.453,176.000 117.200 C 176.000 116.939,182.992 116.800,196.176 116.800 C 209.196 116.800,216.440 116.942,216.600 117.200 C 216.749 117.442,219.577 117.600,223.744 117.600 C 228.707 117.600,230.791 117.740,231.179 118.100 C 231.616 118.506,231.658 118.488,231.400 118.000 C 231.142 117.512,231.184 117.494,231.621 117.900 C 231.986 118.239,233.618 118.400,236.680 118.400 C 239.427 118.400,241.200 118.557,241.200 118.800 C 241.200 119.040,242.800 119.200,245.200 119.200 C 247.600 119.200,249.200 119.360,249.200 119.600 C 249.200 119.835,250.573 120.000,252.520 120.000 C 254.622 120.000,256.038 120.183,256.379 120.500 C 256.817 120.907,256.855 120.888,256.582 120.400 C 256.309 119.912,256.356 119.889,256.835 120.276 C 257.159 120.538,258.551 120.792,259.929 120.842 C 261.307 120.892,262.528 121.083,262.641 121.266 C 262.754 121.450,264.007 121.600,265.424 121.600 C 266.841 121.600,268.000 121.748,268.000 121.929 C 268.000 122.109,268.931 122.300,270.069 122.351 C 271.207 122.403,272.422 122.585,272.769 122.756 C 273.116 122.926,274.120 123.101,275.000 123.144 C 275.880 123.187,277.140 123.381,277.800 123.575 C 278.460 123.769,279.270 123.923,279.600 123.918 C 279.930 123.912,280.920 124.079,281.800 124.288 C 282.680 124.497,283.797 124.638,284.281 124.602 C 284.766 124.566,285.071 124.686,284.958 124.868 C 284.845 125.051,286.013 125.200,287.554 125.200 L 290.354 125.200 290.388 106.795 C 290.422 88.255,290.556 86.400,291.864 86.400 C 292.159 86.400,292.400 86.220,292.400 86.000 C 292.400 85.780,292.940 85.600,293.600 85.600 C 294.260 85.600,294.800 85.420,294.800 85.200 C 294.800 84.980,295.419 84.800,296.176 84.800 C 296.933 84.800,297.664 84.620,297.800 84.400 C 297.936 84.180,298.757 84.000,299.624 84.000 C 300.491 84.000,301.200 83.820,301.200 83.600 C 301.200 83.380,301.819 83.200,302.576 83.200 C 303.333 83.200,304.064 83.020,304.200 82.800 C 304.336 82.580,304.887 82.400,305.424 82.400 C 305.961 82.400,306.400 82.220,306.400 82.000 C 306.400 81.780,307.030 81.600,307.800 81.600 C 308.570 81.600,309.200 81.420,309.200 81.200 C 309.200 80.980,309.729 80.800,310.376 80.800 C 311.023 80.800,311.664 80.620,311.800 80.400 C 311.936 80.180,312.476 80.000,313.000 80.000 C 313.524 80.000,314.064 79.820,314.200 79.600 C 314.336 79.380,314.977 79.200,315.624 79.200 C 316.271 79.200,316.800 79.020,316.800 78.800 C 316.800 78.580,317.239 78.400,317.776 78.400 C 318.313 78.400,318.864 78.220,319.000 78.000 C 319.136 77.780,319.697 77.600,320.247 77.600 C 320.812 77.600,321.140 77.426,321.000 77.200 C 320.860 76.973,321.196 76.800,321.776 76.800 C 322.339 76.800,322.800 76.620,322.800 76.400 C 322.800 76.180,323.261 76.000,323.824 76.000 C 324.404 76.000,324.740 75.827,324.600 75.600 C 324.456 75.367,324.863 75.200,325.576 75.200 C 326.249 75.200,326.800 75.009,326.800 74.776 C 326.800 74.543,326.939 74.439,327.109 74.544 C 327.279 74.649,328.490 74.209,329.799 73.567 C 331.108 72.925,332.409 72.400,332.690 72.400 C 332.970 72.400,333.200 72.220,333.200 72.000 C 333.200 71.780,333.560 71.600,334.000 71.600 C 334.440 71.600,334.800 71.420,334.800 71.200 C 334.800 70.980,335.160 70.800,335.600 70.800 C 336.040 70.800,336.400 70.620,336.400 70.400 C 336.400 70.180,336.670 70.000,337.000 70.000 C 337.330 70.000,337.600 69.820,337.600 69.600 C 337.600 69.380,337.870 69.200,338.200 69.200 C 338.530 69.200,338.800 69.020,338.800 68.800 C 338.800 68.580,339.030 68.400,339.312 68.400 C 339.593 68.400,340.083 68.040,340.400 67.600 C 340.717 67.160,341.180 66.800,341.429 66.800 C 341.678 66.800,342.432 66.274,343.105 65.631 C 343.778 64.988,344.403 64.536,344.494 64.627 C 344.747 64.881,349.600 60.140,349.600 59.639 C 349.600 59.398,349.780 59.200,350.000 59.200 C 350.220 59.200,350.400 58.970,350.400 58.688 C 350.400 58.407,350.750 57.924,351.179 57.615 C 351.607 57.307,351.879 56.927,351.783 56.772 C 351.687 56.617,351.877 56.268,352.204 55.996 C 352.532 55.724,352.800 55.085,352.800 54.575 C 352.800 54.065,352.980 53.536,353.200 53.400 C 353.953 52.935,353.660 48.119,352.763 46.211 C 349.287 38.816,330.314 28.660,309.000 22.786 C 305.911 21.935,301.246 20.700,299.800 20.350 C 298.920 20.137,297.570 19.810,296.800 19.622 C 294.789 19.132,291.259 18.362,289.400 18.008 C 288.520 17.840,286.360 17.409,284.600 17.050 C 256.508 11.314,211.837 8.369,178.200 10.035 M199.600 16.400 C 199.600 16.622,200.659 16.800,201.976 16.800 C 203.283 16.800,204.464 16.980,204.600 17.200 C 204.736 17.420,205.467 17.600,206.224 17.600 C 206.981 17.600,207.600 17.780,207.600 18.000 C 207.600 18.220,208.033 18.400,208.562 18.400 C 209.091 18.400,210.216 18.746,211.062 19.170 C 211.908 19.593,213.185 20.177,213.900 20.467 C 214.615 20.758,215.200 21.142,215.200 21.321 C 215.200 21.501,215.365 21.545,215.568 21.420 C 215.770 21.295,216.207 21.464,216.539 21.796 C 216.871 22.128,217.426 22.400,217.771 22.400 C 218.117 22.400,218.400 22.538,218.400 22.706 C 218.400 22.874,219.076 23.304,219.903 23.662 C 221.484 24.347,225.503 27.222,228.196 29.594 C 258.431 56.226,244.610 103.691,204.835 109.820 C 198.394 110.812,185.874 109.462,183.820 107.553 C 183.611 107.359,183.214 107.200,182.938 107.200 C 181.207 107.200,174.155 103.061,169.600 99.372 C 166.050 96.497,157.160 86.000,158.274 86.000 C 158.412 86.000,158.198 85.640,157.800 85.200 C 157.402 84.760,157.239 84.397,157.438 84.394 C 157.637 84.391,157.595 84.256,157.344 84.094 C 156.798 83.742,154.400 78.884,154.400 78.129 C 154.400 77.838,154.220 77.600,154.000 77.600 C 153.780 77.600,153.600 77.165,153.600 76.633 C 153.600 76.102,153.422 75.607,153.203 75.533 C 152.985 75.460,152.766 74.905,152.716 74.300 C 152.666 73.695,152.485 73.200,152.313 73.200 C 152.141 73.200,152.000 72.606,152.000 71.880 C 152.000 71.154,151.837 70.389,151.637 70.180 C 150.399 68.884,150.400 52.723,151.639 51.420 C 151.837 51.211,152.003 50.671,152.006 50.220 C 152.013 49.308,152.899 46.567,153.326 46.141 C 153.477 45.990,153.600 45.447,153.600 44.933 C 153.600 44.420,153.742 44.000,153.915 44.000 C 154.088 44.000,154.257 43.638,154.290 43.196 C 154.324 42.754,154.722 41.871,155.175 41.235 C 155.629 40.598,156.000 39.904,156.000 39.692 C 156.000 39.481,156.354 38.858,156.787 38.308 C 157.220 37.757,157.472 37.205,157.347 37.080 C 157.222 36.955,157.498 36.447,157.960 35.951 C 158.422 35.455,158.800 34.892,158.800 34.701 C 158.800 34.509,159.008 34.481,159.262 34.638 C 159.545 34.814,159.615 34.748,159.442 34.469 C 159.111 33.933,168.232 24.649,168.765 24.978 C 168.958 25.098,169.220 24.925,169.347 24.594 C 169.474 24.264,170.078 23.780,170.689 23.519 C 171.300 23.259,172.115 22.782,172.500 22.461 C 172.885 22.139,173.200 22.007,173.200 22.167 C 173.200 22.326,173.492 22.165,173.848 21.809 C 174.205 21.452,175.015 21.057,175.648 20.930 C 176.282 20.804,176.800 20.543,176.800 20.350 C 176.800 20.157,177.160 20.000,177.600 20.000 C 178.040 20.000,178.400 19.820,178.400 19.600 C 178.400 19.380,178.850 19.200,179.400 19.200 C 179.950 19.200,180.400 19.020,180.400 18.800 C 180.400 18.580,180.839 18.400,181.376 18.400 C 181.913 18.400,182.464 18.220,182.600 18.000 C 182.736 17.780,183.467 17.600,184.224 17.600 C 184.981 17.600,185.600 17.420,185.600 17.200 C 185.600 16.978,186.659 16.800,187.976 16.800 C 189.283 16.800,190.464 16.620,190.600 16.400 C 190.740 16.173,192.737 16.000,195.224 16.000 C 197.875 16.000,199.600 16.158,199.600 16.400 M190.800 61.813 C 190.800 72.030,190.827 72.400,191.577 72.400 C 192.370 72.400,194.982 71.030,195.919 70.122 C 196.204 69.846,197.104 69.306,197.919 68.923 C 198.733 68.540,199.749 67.905,200.175 67.513 C 200.602 67.121,201.187 66.800,201.475 66.800 C 201.764 66.800,202.000 66.620,202.000 66.400 C 202.000 66.180,202.317 66.000,202.704 66.000 C 203.091 66.000,203.632 65.640,203.907 65.200 C 204.182 64.760,204.765 64.400,205.203 64.400 C 205.642 64.400,206.000 64.220,206.000 64.000 C 206.000 63.780,206.193 63.600,206.429 63.600 C 208.756 63.600,208.086 61.714,205.093 59.838 C 203.722 58.979,201.160 57.375,199.400 56.275 C 197.640 55.174,195.300 53.705,194.200 53.010 C 190.477 50.656,190.800 49.819,190.800 61.813 " stroke="none" fill="#cbd37b" fill-rule="evenodd"></path><path id="path3" d="M191.852 29.604 C 187.192 30.586,182.843 32.288,181.500 33.654 C 180.515 34.657,180.607 34.800,182.246 34.800 C 183.662 34.800,186.800 36.229,186.800 36.874 C 186.800 37.053,187.034 37.200,187.320 37.200 C 188.056 37.200,189.993 38.141,189.997 38.500 C 189.999 38.665,190.183 38.800,190.406 38.800 C 190.630 38.800,191.755 39.403,192.906 40.139 C 197.948 43.364,202.862 46.400,203.042 46.400 C 203.149 46.400,204.570 47.300,206.200 48.400 C 207.830 49.500,209.270 50.400,209.400 50.400 C 209.530 50.400,210.970 51.300,212.600 52.400 C 214.230 53.500,215.658 54.400,215.772 54.400 C 216.589 54.400,225.296 60.831,226.171 62.080 C 227.595 64.113,225.706 69.600,223.583 69.600 C 223.405 69.600,221.941 70.473,220.329 71.539 C 210.295 78.181,195.118 87.454,189.635 90.293 C 185.091 92.645,181.887 91.640,180.996 87.581 C 180.834 86.843,180.338 86.263,179.585 85.929 L 178.423 85.415 178.406 60.943 C 178.392 41.567,178.494 36.433,178.894 36.290 C 179.172 36.191,179.290 35.990,179.155 35.844 C 178.360 34.979,173.136 39.375,170.177 43.400 C 158.181 59.712,162.197 83.460,178.625 93.366 C 179.931 94.154,181.315 94.798,181.700 94.799 C 182.085 94.800,182.400 94.980,182.400 95.200 C 182.400 95.420,182.929 95.600,183.576 95.600 C 184.223 95.600,184.864 95.780,185.000 96.000 C 185.136 96.220,185.867 96.400,186.624 96.400 C 187.381 96.400,188.000 96.580,188.000 96.800 C 188.000 97.052,190.675 97.200,195.224 97.200 C 199.400 97.200,202.353 97.048,202.225 96.840 C 202.103 96.642,202.767 96.384,203.701 96.266 C 206.525 95.910,208.000 95.528,208.000 95.155 C 208.000 94.960,208.272 94.800,208.605 94.800 C 208.938 94.800,209.568 94.620,210.005 94.400 C 210.442 94.180,211.160 93.820,211.600 93.600 C 212.892 92.954,214.185 92.215,214.400 92.000 C 214.510 91.890,215.269 91.460,216.087 91.044 C 216.904 90.628,218.376 89.520,219.356 88.580 C 220.337 87.641,221.243 86.976,221.369 87.103 C 221.496 87.230,221.600 87.150,221.600 86.925 C 221.600 86.701,222.005 86.045,222.500 85.469 C 224.207 83.482,225.200 82.072,225.200 81.637 C 225.200 81.397,225.380 81.200,225.600 81.200 C 225.820 81.200,226.000 80.930,226.000 80.600 C 226.000 80.270,226.159 80.000,226.353 80.000 C 226.548 80.000,226.807 79.685,226.929 79.300 C 227.051 78.915,227.411 78.150,227.728 77.600 C 228.046 77.050,228.507 76.105,228.753 75.500 C 228.999 74.895,229.401 73.905,229.647 73.300 C 229.892 72.695,230.252 71.887,230.447 71.505 C 230.641 71.123,230.800 70.088,230.800 69.205 C 230.800 68.322,230.980 67.600,231.200 67.600 C 231.451 67.600,231.600 65.000,231.600 60.600 C 231.600 56.200,231.451 53.600,231.200 53.600 C 230.980 53.600,230.800 52.880,230.800 52.000 C 230.800 51.120,230.620 50.400,230.400 50.400 C 230.180 50.400,230.000 49.860,230.000 49.200 C 230.000 48.540,229.820 48.000,229.600 48.000 C 229.380 48.000,229.200 47.735,229.200 47.412 C 229.200 47.089,228.822 46.144,228.361 45.312 C 221.559 33.059,206.403 26.538,191.852 29.604 M43.597 82.700 C 43.595 87.705,43.478 109.890,43.337 132.000 C 43.027 180.570,42.819 178.454,48.463 184.063 C 50.966 186.550,58.556 191.823,60.243 192.247 C 60.769 192.379,61.200 192.647,61.200 192.843 C 61.200 193.040,61.560 193.200,62.000 193.200 C 62.440 193.200,62.800 193.380,62.800 193.600 C 62.800 193.820,63.160 194.000,63.600 194.000 C 64.040 194.000,64.400 194.180,64.400 194.400 C 64.400 194.620,64.760 194.800,65.200 194.800 C 65.640 194.800,66.000 194.980,66.000 195.200 C 66.000 195.420,66.540 195.600,67.200 195.600 C 67.860 195.600,68.400 195.780,68.400 196.000 C 68.400 196.220,68.850 196.400,69.400 196.400 C 69.950 196.400,70.400 196.580,70.400 196.800 C 70.400 197.020,70.850 197.200,71.400 197.200 C 71.950 197.200,72.400 197.380,72.400 197.600 C 72.400 197.820,72.672 198.000,73.005 198.000 C 73.338 198.000,73.923 198.168,74.305 198.373 C 74.687 198.579,75.855 198.978,76.900 199.261 C 77.945 199.543,78.800 199.915,78.800 200.087 C 78.800 200.259,79.419 200.400,80.176 200.400 C 80.933 200.400,81.664 200.580,81.800 200.800 C 81.936 201.020,82.476 201.200,83.000 201.200 C 83.524 201.200,84.064 201.380,84.200 201.600 C 84.336 201.820,84.977 202.000,85.624 202.000 C 86.271 202.000,86.800 202.180,86.800 202.400 C 86.800 202.620,87.430 202.800,88.200 202.800 C 88.970 202.800,89.600 202.980,89.600 203.200 C 89.600 203.420,90.309 203.600,91.176 203.600 C 92.043 203.600,92.864 203.780,93.000 204.000 C 93.136 204.220,93.417 204.400,93.625 204.400 C 93.861 204.400,93.965 184.063,93.901 150.319 L 93.800 96.238 89.800 95.099 C 85.150 93.774,76.163 90.938,75.000 90.427 C 74.560 90.234,72.670 89.491,70.800 88.777 C 60.709 84.920,48.236 77.975,45.023 74.426 C 43.690 72.953,43.600 73.475,43.597 82.700 M352.139 76.906 C 351.666 77.178,349.681 78.411,347.729 79.647 C 344.178 81.895,338.764 84.773,335.000 86.413 C 331.361 87.999,330.621 88.301,328.200 89.193 C 326.880 89.680,325.440 90.236,325.000 90.428 C 323.385 91.136,314.836 93.786,309.000 95.388 L 303.000 97.035 303.000 149.818 L 303.000 202.600 304.300 202.640 C 305.015 202.662,305.600 202.527,305.600 202.340 C 305.600 202.153,306.140 202.000,306.800 202.000 C 307.460 202.000,308.000 201.820,308.000 201.600 C 308.000 201.380,308.529 201.200,309.176 201.200 C 309.823 201.200,310.464 201.020,310.600 200.800 C 310.736 200.580,311.276 200.400,311.800 200.400 C 312.324 200.400,312.864 200.220,313.000 200.000 C 313.136 199.780,313.676 199.600,314.200 199.600 C 314.724 199.600,315.264 199.420,315.400 199.200 C 315.536 198.980,316.087 198.800,316.624 198.800 C 317.161 198.800,317.600 198.620,317.600 198.400 C 317.600 198.180,318.140 198.000,318.800 198.000 C 319.460 198.000,320.000 197.820,320.000 197.600 C 320.000 197.380,320.360 197.200,320.800 197.200 C 321.240 197.200,321.600 197.020,321.600 196.800 C 321.600 196.580,321.939 196.400,322.354 196.400 C 322.769 196.400,323.611 196.139,324.226 195.820 C 324.840 195.502,325.518 195.350,325.733 195.482 C 325.950 195.616,325.996 195.518,325.838 195.262 C 325.651 194.959,325.905 194.800,326.576 194.800 C 327.139 194.800,327.600 194.620,327.600 194.400 C 327.600 194.180,327.960 194.000,328.400 194.000 C 328.840 194.000,329.200 193.820,329.200 193.600 C 329.200 193.380,329.560 193.200,330.000 193.200 C 330.440 193.200,330.800 193.020,330.800 192.800 C 330.800 192.580,331.160 192.400,331.600 192.400 C 332.040 192.400,332.400 192.243,332.400 192.050 C 332.400 191.858,332.918 191.596,333.552 191.470 C 334.185 191.343,334.952 190.991,335.256 190.687 C 335.559 190.383,336.260 190.022,336.812 189.883 C 337.364 189.744,338.210 189.264,338.691 188.815 C 339.173 188.367,339.754 188.000,339.983 188.000 C 340.212 188.000,340.400 187.820,340.400 187.600 C 340.400 187.380,340.604 187.200,340.853 187.200 C 341.102 187.200,341.642 186.812,342.053 186.339 C 342.464 185.865,342.800 185.602,342.800 185.755 C 342.800 186.093,343.514 185.512,345.785 183.328 C 346.741 182.409,347.630 181.764,347.761 181.895 C 347.893 182.026,348.000 181.909,348.000 181.635 C 348.000 181.361,348.735 180.431,349.633 179.569 C 350.531 178.706,351.163 178.000,351.039 178.000 C 350.915 178.000,351.215 177.235,351.706 176.300 C 353.662 172.578,353.588 174.631,353.594 124.100 C 353.597 97.865,353.465 76.403,353.300 76.406 C 353.135 76.409,352.613 76.634,352.139 76.906 M178.186 285.692 C 178.065 286.008,178.018 287.782,178.083 289.633 L 178.200 293.000 198.716 293.104 L 219.231 293.207 219.116 289.704 C 218.989 285.853,219.141 286.005,216.200 286.778 C 210.200 288.353,208.486 288.542,200.000 288.568 C 190.171 288.598,185.427 287.877,179.103 285.391 C 178.666 285.219,178.325 285.331,178.186 285.692 " stroke="none" fill="#fbcb5b" fill-rule="evenodd"></path><path id="path4" d="M154.153 241.100 C 156.172 256.048,166.763 269.996,178.800 273.560 C 179.790 273.853,181.140 274.262,181.800 274.467 C 182.460 274.673,184.485 274.949,186.300 275.080 C 188.115 275.211,189.600 275.472,189.600 275.659 C 189.600 276.150,203.496 276.092,203.800 275.600 C 203.936 275.380,204.802 275.192,205.724 275.183 C 206.646 275.173,208.210 274.980,209.200 274.754 C 210.190 274.527,211.585 274.246,212.300 274.127 C 213.015 274.009,213.600 273.752,213.600 273.556 C 213.600 273.360,214.039 273.200,214.576 273.200 C 215.113 273.200,215.664 273.020,215.800 272.800 C 215.936 272.580,216.397 272.400,216.824 272.400 C 217.251 272.400,217.600 272.220,217.600 272.000 C 217.600 271.780,217.960 271.600,218.400 271.600 C 218.840 271.600,219.200 271.420,219.200 271.200 C 219.200 270.980,219.436 270.800,219.725 270.800 C 220.013 270.800,220.636 270.440,221.108 270.000 C 221.580 269.560,222.126 269.200,222.321 269.200 C 222.516 269.200,223.002 268.840,223.400 268.400 C 223.798 267.960,224.282 267.600,224.475 267.600 C 224.933 267.600,234.000 258.533,234.000 258.075 C 234.000 257.882,234.360 257.398,234.800 257.000 C 235.240 256.602,235.600 256.034,235.600 255.738 C 235.600 255.442,235.761 255.200,235.958 255.200 C 236.390 255.200,239.600 248.734,239.600 247.863 C 239.600 247.524,239.780 247.136,240.000 247.000 C 240.595 246.632,240.484 245.600,239.849 245.600 C 239.546 245.600,237.971 246.712,236.349 248.071 C 212.687 267.902,177.144 264.815,156.072 241.100 C 155.143 240.055,154.274 239.200,154.140 239.200 C 154.006 239.200,154.012 240.055,154.153 241.100 " stroke="none" fill="#0c9ba3" fill-rule="evenodd"></path></g></svg>