<svg id="svg" version="1.1" xmlns="http://www.w3.org/2000/svg" xmlns:xlink="http://www.w3.org/1999/xlink" width="400" height="400" viewBox="0, 0, 400,400"><g id="svgg"><path id="path0" d="M175.520 78.313 C 172.947 80.899,170.086 83.600,169.922 83.600 C 169.835 83.600,168.480 84.815,166.910 86.300 C 161.423 91.492,155.390 97.141,154.200 98.201 C 151.554 100.557,147.432 104.344,144.732 106.900 C 143.164 108.385,141.805 109.600,141.712 109.600 C 141.378 109.600,140.549 110.615,140.259 111.381 C 139.972 112.138,147.437 120.000,148.443 120.000 C 148.639 120.000,148.800 120.180,148.800 120.400 C 148.800 121.312,149.967 120.667,152.241 118.500 C 153.567 117.235,156.229 114.760,158.156 113.000 C 160.082 111.240,162.616 108.900,163.785 107.800 C 164.955 106.700,167.583 104.270,169.626 102.400 C 171.668 100.530,173.622 98.713,173.969 98.363 C 174.316 98.013,175.360 97.051,176.290 96.226 L 177.979 94.726 180.052 96.663 C 183.608 99.986,184.144 100.485,189.015 105.000 C 191.625 107.420,195.019 110.570,196.556 112.000 C 199.865 115.079,200.473 115.644,206.169 120.939 C 208.572 123.172,211.020 125.450,211.608 126.000 C 212.197 126.550,214.248 128.440,216.166 130.200 C 218.083 131.960,220.612 134.300,221.785 135.400 C 222.958 136.500,225.487 138.840,227.407 140.600 C 229.326 142.360,231.548 144.402,232.343 145.137 C 233.139 145.872,235.016 147.582,236.515 148.937 C 238.013 150.292,240.038 152.165,241.014 153.100 C 241.990 154.035,243.046 154.800,243.361 154.800 C 243.676 154.800,244.024 155.025,244.135 155.300 C 244.246 155.575,244.351 151.975,244.368 147.300 C 244.386 142.625,244.503 138.800,244.629 138.800 C 244.754 138.800,245.136 139.079,245.476 139.419 C 245.817 139.760,246.175 139.959,246.272 139.861 C 246.518 139.616,244.455 137.600,243.958 137.600 C 243.735 137.600,243.681 137.808,243.838 138.062 C 244.011 138.341,243.948 138.415,243.679 138.249 C 243.435 138.098,243.336 137.710,243.460 137.387 C 243.661 136.864,243.198 136.611,242.300 136.753 C 242.135 136.779,242.045 136.648,242.100 136.462 C 242.200 136.124,238.969 132.400,238.577 132.400 C 238.464 132.400,237.526 131.590,236.492 130.600 C 235.459 129.610,234.476 128.800,234.307 128.800 C 234.138 128.800,234.000 128.530,234.000 128.200 C 234.000 127.870,233.815 127.600,233.589 127.600 C 233.364 127.600,232.396 126.835,231.439 125.900 C 229.745 124.244,223.408 118.338,221.000 116.170 C 218.444 113.869,211.837 107.683,209.390 105.300 C 207.978 103.925,206.742 102.800,206.642 102.800 C 206.543 102.800,205.947 102.305,205.319 101.700 C 204.690 101.095,202.056 98.620,199.464 96.200 C 196.872 93.780,193.795 90.900,192.627 89.800 C 191.458 88.700,189.476 86.902,188.224 85.805 C 186.971 84.708,184.306 82.233,182.301 80.305 C 178.162 76.324,177.650 76.174,175.520 78.313 M89.600 235.200 L 89.600 349.600 113.200 349.600 L 136.800 349.600 136.800 329.600 C 136.800 318.600,136.945 309.600,137.123 309.600 C 137.300 309.600,138.814 308.295,140.488 306.700 C 142.161 305.105,144.310 303.104,145.265 302.254 C 147.079 300.637,154.676 293.566,158.107 290.300 C 159.205 289.255,160.167 288.400,160.245 288.400 C 160.323 288.400,161.695 287.149,163.294 285.620 C 164.892 284.092,166.853 282.247,167.650 281.520 C 168.448 280.794,171.148 278.295,173.650 275.968 C 176.153 273.640,179.169 270.850,180.354 269.768 C 181.539 268.685,183.359 266.990,184.398 266.000 C 186.067 264.410,188.457 262.199,196.719 254.600 C 197.915 253.500,199.937 251.610,201.212 250.400 C 203.462 248.265,208.963 243.175,211.400 240.972 C 212.944 239.576,221.417 231.678,222.634 230.500 C 223.145 230.005,223.721 229.600,223.914 229.600 C 224.107 229.600,224.506 229.150,224.800 228.600 C 225.094 228.050,225.487 227.600,225.674 227.600 C 225.860 227.600,226.813 226.835,227.792 225.900 C 228.771 224.965,230.960 222.940,232.658 221.400 C 234.355 219.860,236.890 217.520,238.291 216.200 C 239.691 214.880,241.428 213.260,242.151 212.600 C 242.873 211.940,245.423 209.600,247.818 207.400 C 250.213 205.200,253.152 202.500,254.350 201.400 C 255.547 200.300,256.908 199.040,257.374 198.600 C 260.111 196.012,266.796 189.919,267.900 189.005 C 268.615 188.413,269.200 187.765,269.200 187.564 C 269.200 187.348,257.250 187.200,239.872 187.200 L 210.544 187.200 209.292 188.300 C 208.604 188.905,207.103 190.210,205.957 191.200 C 204.811 192.190,203.587 193.287,203.237 193.639 C 202.887 193.990,201.070 195.610,199.200 197.239 C 197.330 198.867,195.326 200.650,194.746 201.200 C 194.166 201.750,192.816 202.962,191.746 203.893 C 188.353 206.846,184.649 210.162,183.474 211.300 C 182.850 211.905,182.217 212.405,182.069 212.411 C 181.921 212.416,180.574 213.586,179.074 215.011 C 177.575 216.435,176.285 217.600,176.206 217.600 C 176.128 217.600,175.363 218.275,174.507 219.100 C 173.205 220.355,169.016 224.140,165.895 226.882 C 163.071 229.363,158.868 233.142,158.089 233.900 C 157.580 234.395,157.058 234.800,156.929 234.800 C 156.800 234.800,156.403 235.124,156.047 235.521 C 155.691 235.917,154.320 237.139,153.000 238.237 C 151.680 239.335,149.956 240.856,149.170 241.617 C 147.204 243.518,143.978 246.400,143.814 246.400 C 143.740 246.400,143.072 246.985,142.329 247.700 C 140.583 249.379,137.119 252.400,136.939 252.400 C 136.863 252.400,136.800 222.790,136.800 186.600 L 136.800 120.800 113.200 120.800 L 89.600 120.800 89.600 235.200 M183.614 273.974 C 183.386 274.399,183.200 275.137,183.200 275.613 C 183.200 276.089,182.942 277.046,182.627 277.740 C 181.872 279.399,180.000 285.471,180.000 286.260 C 180.000 286.601,179.758 287.446,179.462 288.140 C 178.983 289.262,178.522 290.748,177.148 295.600 C 176.930 296.370,176.512 297.630,176.219 298.400 C 175.926 299.170,175.471 300.610,175.209 301.600 C 174.946 302.590,174.027 305.585,173.166 308.255 C 171.376 313.805,171.234 315.298,172.418 316.127 C 172.868 316.443,175.232 318.568,177.671 320.850 C 182.965 325.803,183.030 325.864,188.816 331.200 C 191.321 333.510,194.124 336.120,195.045 337.000 C 196.942 338.813,203.968 345.346,206.752 347.887 L 208.600 349.573 237.700 349.587 C 253.705 349.594,266.800 349.452,266.800 349.270 C 266.800 349.089,265.597 347.874,264.126 346.570 C 262.655 345.267,260.871 343.660,260.161 343.000 C 259.451 342.340,257.304 340.360,255.391 338.600 C 253.477 336.840,250.790 334.320,249.420 333.000 C 245.806 329.519,243.271 327.200,243.080 327.200 C 242.918 327.200,240.275 324.730,234.713 319.383 C 233.235 317.962,231.958 316.800,231.876 316.800 C 231.794 316.800,230.541 315.675,229.093 314.300 C 227.645 312.925,225.170 310.630,223.594 309.200 C 222.019 307.770,220.143 306.060,219.426 305.400 C 218.709 304.740,216.439 302.670,214.380 300.800 C 209.124 296.026,206.988 294.057,204.941 292.100 C 203.963 291.165,203.090 290.400,203.001 290.400 C 202.911 290.400,202.245 289.803,201.519 289.074 C 200.794 288.344,199.024 286.679,197.587 285.374 C 191.222 279.593,186.171 274.930,185.373 274.100 C 184.318 273.002,184.141 272.990,183.614 273.974 M109.900 357.097 L 112.800 357.235 112.800 363.356 L 112.800 369.477 117.900 369.737 C 124.699 370.083,246.362 369.951,243.800 369.600 C 242.280 369.392,242.112 369.311,243.100 369.263 L 244.400 369.200 244.400 363.260 L 244.400 357.320 240.739 357.060 C 238.725 356.917,207.810 356.836,172.039 356.879 C 136.267 356.923,108.305 357.021,109.900 357.097 " stroke="none" fill="#bb2324" fill-rule="evenodd"></path><path id="path1" d="M65.600 151.248 L 65.600 180.096 62.375 183.248 C 60.602 184.982,59.074 186.400,58.980 186.400 C 58.886 186.400,58.133 187.120,57.305 187.999 C 56.477 188.879,55.605 189.599,55.368 189.599 C 55.130 189.600,54.694 190.050,54.400 190.600 C 54.106 191.150,53.697 191.600,53.492 191.600 C 53.287 191.600,52.298 192.410,51.294 193.400 C 50.290 194.390,49.318 195.200,49.134 195.200 C 48.950 195.200,48.800 195.470,48.800 195.800 C 48.800 196.130,48.632 196.400,48.426 196.400 C 48.221 196.400,46.556 197.853,44.726 199.629 C 42.897 201.405,40.604 203.520,39.632 204.329 C 38.659 205.138,36.608 207.015,35.073 208.500 C 33.538 209.985,32.128 211.200,31.941 211.200 C 31.753 211.200,31.600 211.470,31.600 211.800 C 31.600 212.130,31.401 212.400,31.157 212.400 C 30.913 212.400,29.818 213.300,28.724 214.400 C 27.630 215.500,26.569 216.400,26.367 216.400 C 26.165 216.400,26.000 216.670,26.000 217.000 C 26.000 217.330,25.850 217.600,25.667 217.600 C 25.483 217.600,24.601 218.275,23.707 219.100 C 22.813 219.925,21.258 221.320,20.252 222.200 C 18.080 224.099,18.027 224.447,19.614 226.347 C 21.523 228.632,21.600 228.742,21.600 229.183 C 21.600 229.412,21.735 229.600,21.900 229.600 C 22.218 229.600,26.000 234.562,26.000 234.979 C 26.000 235.227,28.651 238.815,29.783 240.100 C 30.122 240.485,30.400 240.961,30.400 241.157 C 30.400 241.354,30.670 241.618,31.000 241.745 C 31.330 241.871,31.600 242.251,31.600 242.587 C 31.600 242.924,31.780 243.200,32.000 243.200 C 32.220 243.200,32.401 243.425,32.402 243.700 C 32.403 243.975,32.898 244.740,33.502 245.400 C 34.106 246.060,35.140 247.410,35.800 248.400 C 36.460 249.390,37.135 250.260,37.300 250.333 C 37.465 250.407,37.600 250.694,37.600 250.972 C 37.600 251.250,38.230 252.126,39.000 252.919 C 39.770 253.712,40.400 254.508,40.400 254.689 C 40.400 254.870,40.900 255.644,41.511 256.409 C 42.122 257.174,43.067 258.474,43.611 259.297 C 44.155 260.121,44.717 260.796,44.860 260.797 C 45.002 260.799,45.497 261.526,45.960 262.412 L 46.800 264.025 46.800 317.012 L 46.800 370.000 83.300 369.918 C 103.375 369.873,118.225 369.775,116.300 369.702 L 112.800 369.569 112.800 363.445 L 112.800 357.322 108.538 357.061 C 106.194 356.917,94.494 356.800,82.538 356.800 L 60.800 356.800 60.800 308.056 L 60.800 259.313 56.576 253.556 C 54.253 250.390,52.048 247.349,51.676 246.798 C 49.420 243.453,46.318 239.230,45.802 238.802 C 45.471 238.527,45.200 238.131,45.200 237.922 C 45.200 237.714,44.938 237.281,44.618 236.961 C 44.299 236.641,43.283 235.304,42.360 233.990 C 41.438 232.675,40.530 231.600,40.342 231.600 C 40.154 231.600,40.000 231.346,40.000 231.036 C 40.000 230.726,39.280 229.561,38.400 228.448 C 36.402 225.920,36.408 225.764,38.571 223.805 C 41.379 221.260,47.189 215.913,48.573 214.600 C 49.268 213.940,51.792 211.600,54.181 209.400 C 56.570 207.200,59.090 204.860,59.781 204.200 C 60.472 203.540,62.998 201.200,65.395 199.000 C 67.792 196.800,70.318 194.460,71.008 193.800 C 71.698 193.140,73.824 191.164,75.732 189.410 L 79.200 186.220 79.200 154.310 L 79.200 122.400 72.400 122.400 L 65.600 122.400 65.600 151.248 " stroke="none" fill="#e76424" fill-rule="evenodd"></path><path id="path2" d="M244.368 147.300 C 244.351 151.975,244.246 155.575,244.135 155.300 C 244.024 155.025,243.762 154.800,243.553 154.800 C 243.333 154.800,243.360 155.152,243.618 155.634 C 243.864 156.093,244.148 156.386,244.249 156.284 C 244.350 156.183,245.749 157.383,247.356 158.950 C 248.964 160.518,252.134 163.510,254.400 165.600 C 256.666 167.690,259.182 170.030,259.990 170.800 C 261.396 172.140,266.734 177.055,271.766 181.643 C 273.067 182.829,275.067 184.700,276.211 185.800 C 277.355 186.900,280.150 189.510,282.423 191.600 C 284.696 193.690,287.738 196.509,289.184 197.865 C 290.629 199.221,292.380 200.841,293.076 201.465 C 296.293 204.354,301.094 208.749,302.618 210.200 C 307.093 214.462,307.584 214.857,308.050 214.569 C 308.388 214.360,308.456 214.478,308.273 214.955 C 308.110 215.379,308.167 215.544,308.423 215.386 C 308.877 215.105,308.913 197.171,308.459 197.303 C 308.317 197.345,306.829 196.033,305.152 194.389 C 303.476 192.745,300.447 189.870,298.422 188.000 C 296.397 186.130,293.797 183.700,292.645 182.600 C 291.492 181.500,289.481 179.631,288.175 178.447 C 285.298 175.838,278.236 169.276,275.643 166.800 C 274.606 165.810,272.166 163.560,270.221 161.800 C 266.926 158.818,262.584 154.783,258.602 151.000 C 257.675 150.120,255.347 147.960,253.429 146.200 C 251.510 144.440,249.178 142.280,248.246 141.400 C 247.314 140.520,246.292 139.742,245.975 139.670 C 245.659 139.599,245.340 139.374,245.267 139.170 C 244.667 137.507,244.396 139.965,244.368 147.300 M308.165 241.500 C 308.320 241.775,308.257 242.000,308.024 242.000 C 307.791 242.000,307.586 242.405,307.568 242.900 C 307.551 243.395,307.444 243.567,307.329 243.283 C 307.204 242.971,306.666 243.486,305.970 244.583 C 305.336 245.582,304.623 246.400,304.385 246.400 C 304.147 246.400,304.064 246.580,304.200 246.800 C 304.336 247.020,304.269 247.200,304.051 247.200 C 303.832 247.200,303.550 247.515,303.423 247.900 C 303.296 248.285,302.699 249.167,302.096 249.859 C 301.493 250.551,300.280 252.142,299.400 253.393 C 298.520 254.644,297.215 256.452,296.500 257.410 L 295.200 259.152 295.200 307.976 L 295.200 356.800 267.300 356.877 C 251.955 356.919,240.525 357.018,241.900 357.096 L 244.400 357.238 244.400 363.219 L 244.400 369.200 243.100 369.256 C 242.202 369.295,242.480 369.408,244.000 369.621 C 245.210 369.791,260.284 369.937,277.498 369.946 L 308.797 369.963 308.698 316.419 C 308.644 286.971,308.690 262.932,308.800 263.000 C 309.239 263.273,308.770 241.811,308.328 241.407 C 308.016 241.122,307.967 241.150,308.165 241.500 " stroke="none" fill="#671f14" fill-rule="evenodd"></path><path id="path3" d="M282.232 9.805 C 277.252 12.190,274.707 16.091,274.611 21.487 L 274.544 25.222 271.972 27.517 C 270.557 28.779,268.943 30.259,268.384 30.806 C 267.825 31.352,265.412 33.600,263.021 35.800 C 260.631 38.000,258.107 40.340,257.414 41.000 C 256.720 41.660,254.192 44.000,251.795 46.200 C 249.398 48.400,246.875 50.740,246.187 51.400 C 245.108 52.435,241.762 55.548,234.415 62.352 C 232.712 63.930,232.544 63.994,230.740 63.754 C 228.592 63.469,223.903 64.256,222.400 65.152 C 220.200 66.465,217.600 68.594,217.600 69.082 C 217.600 69.367,217.452 69.600,217.271 69.600 C 216.369 69.600,215.013 73.507,214.865 76.532 C 214.606 81.849,215.907 83.816,225.625 92.800 C 228.124 95.110,230.652 97.450,231.244 98.000 C 231.835 98.550,233.912 100.465,235.859 102.255 C 237.807 104.045,240.480 106.534,241.800 107.785 C 251.017 116.524,253.230 117.809,259.000 117.776 C 267.280 117.728,273.389 111.869,273.164 104.192 L 273.076 101.162 274.764 99.588 L 276.452 98.014 278.414 99.976 C 279.494 101.056,280.697 102.027,281.088 102.134 C 285.860 103.447,289.605 103.243,292.062 101.537 C 293.338 100.651,293.855 100.612,294.280 101.370 C 294.545 101.842,299.789 107.529,305.000 112.995 C 305.660 113.687,308.270 116.480,310.800 119.202 C 313.330 121.924,316.525 125.293,317.900 126.689 C 319.275 128.085,320.400 129.305,320.400 129.400 C 320.400 129.495,321.525 130.714,322.900 132.109 C 324.275 133.504,326.840 136.214,328.600 138.131 C 330.360 140.048,332.970 142.847,334.400 144.350 C 338.263 148.410,342.905 153.357,347.400 158.204 C 354.522 165.884,360.204 171.478,361.618 172.203 C 362.378 172.593,363.090 173.027,363.200 173.167 C 364.121 174.345,370.541 175.684,374.463 175.517 C 378.599 175.341,385.200 173.406,385.200 172.371 C 385.200 172.167,385.455 172.000,385.768 172.000 C 386.748 172.000,390.683 168.073,392.298 165.483 C 394.127 162.550,394.806 159.867,394.783 155.669 C 394.743 148.475,392.565 144.679,384.987 138.600 C 384.438 138.160,383.497 137.401,382.895 136.914 C 382.293 136.426,380.990 135.373,380.000 134.573 C 375.862 131.230,375.057 130.561,374.256 129.800 C 373.793 129.360,373.119 128.820,372.758 128.600 C 372.073 128.183,369.968 126.494,355.400 114.680 C 350.560 110.754,345.160 106.375,343.400 104.948 C 341.640 103.521,339.590 101.868,338.844 101.276 C 338.099 100.684,337.289 100.015,337.044 99.789 C 336.800 99.563,335.520 98.522,334.200 97.475 C 329.567 93.801,327.054 91.747,325.181 90.100 C 324.368 89.385,323.565 88.800,323.397 88.800 C 323.229 88.800,322.675 88.395,322.165 87.900 C 321.655 87.405,320.644 86.521,319.919 85.937 C 319.193 85.352,317.970 84.343,317.200 83.695 C 316.430 83.047,315.378 82.296,314.862 82.024 C 313.926 81.532,313.925 81.531,314.716 80.666 C 318.464 76.561,316.901 68.233,312.026 66.342 L 311.052 65.964 312.911 64.182 L 314.771 62.400 318.647 62.400 C 328.587 62.400,334.939 54.250,331.996 45.272 C 330.961 42.116,329.902 40.868,322.431 34.000 C 319.918 31.690,317.384 29.350,316.800 28.800 C 315.290 27.378,307.364 20.053,305.070 17.961 C 304.009 16.992,302.167 15.300,300.979 14.200 C 295.042 8.707,287.982 7.052,282.232 9.805 M291.646 16.340 C 292.171 16.747,292.803 17.152,293.051 17.240 C 293.444 17.380,296.537 20.202,304.620 27.800 C 305.790 28.900,308.315 31.240,310.231 33.000 C 318.281 40.396,319.471 41.506,321.647 43.653 C 325.437 47.392,326.007 49.589,323.962 52.573 C 321.154 56.672,316.918 56.573,312.356 52.301 C 311.121 51.146,308.536 48.760,306.611 47.000 C 304.686 45.240,302.153 42.900,300.982 41.800 C 299.811 40.700,297.292 38.360,295.385 36.600 C 293.478 34.840,290.960 32.500,289.790 31.400 C 288.621 30.300,286.567 28.420,285.226 27.222 C 282.515 24.799,281.803 23.172,282.245 20.408 C 282.830 16.749,288.828 14.154,291.646 16.340 M283.436 35.800 C 285.804 38.000,288.216 40.250,288.795 40.800 C 289.374 41.350,291.425 43.240,293.353 45.000 C 295.281 46.760,297.817 49.100,298.988 50.200 C 300.159 51.300,302.653 53.621,304.531 55.357 L 307.946 58.515 306.427 59.957 C 305.592 60.751,302.958 63.200,300.573 65.400 C 298.189 67.600,295.668 69.940,294.973 70.600 C 294.277 71.260,292.135 73.240,290.213 75.000 C 288.290 76.760,285.758 79.100,284.585 80.200 C 283.412 81.300,280.885 83.640,278.970 85.400 C 277.055 87.160,275.198 88.888,274.844 89.240 C 274.490 89.592,272.975 90.980,271.478 92.324 L 268.756 94.767 267.514 93.683 C 266.831 93.088,265.708 92.060,265.017 91.400 C 264.327 90.740,261.808 88.400,259.419 86.200 C 257.030 84.000,254.510 81.660,253.819 81.000 C 253.128 80.340,250.606 78.000,248.215 75.800 C 245.824 73.600,242.903 70.894,241.725 69.786 L 239.584 67.772 243.273 64.386 C 245.303 62.524,247.528 60.460,248.219 59.800 C 248.910 59.140,251.425 56.800,253.808 54.600 C 259.104 49.711,263.321 45.798,265.018 44.200 C 265.719 43.540,267.865 41.560,269.787 39.800 C 271.709 38.040,274.478 35.475,275.941 34.101 C 277.403 32.726,278.719 31.646,278.865 31.701 C 279.011 31.755,281.068 33.600,283.436 35.800 M276.933 41.694 C 276.186 42.131,270.046 47.680,266.195 51.400 C 265.512 52.060,263.914 53.545,262.643 54.701 C 259.171 57.859,259.397 61.251,263.142 62.198 C 264.501 62.542,266.852 61.182,269.910 58.283 C 271.350 56.917,273.099 55.260,273.797 54.600 C 274.494 53.940,276.715 51.880,278.732 50.022 C 282.373 46.668,282.400 46.629,282.400 44.731 C 282.400 42.029,279.306 40.310,276.933 41.694 M250.900 65.727 C 249.048 68.448,250.540 71.193,253.873 71.197 C 256.923 71.201,258.549 68.551,257.140 65.874 C 256.038 63.780,252.285 63.692,250.900 65.727 M232.688 71.840 C 233.177 72.149,234.179 72.987,234.916 73.701 C 236.349 75.090,239.264 77.804,246.192 84.200 C 248.575 86.400,251.093 88.740,251.786 89.400 C 252.480 90.060,255.008 92.400,257.405 94.600 C 265.118 101.680,265.600 102.277,265.600 104.743 C 265.600 107.553,261.927 110.819,258.796 110.791 C 257.080 110.776,254.597 109.373,251.985 106.943 C 250.600 105.654,248.984 104.150,248.394 103.600 C 247.804 103.050,245.752 101.160,243.834 99.400 C 241.917 97.640,239.390 95.300,238.220 94.200 C 231.242 87.642,226.991 83.734,226.323 83.264 C 224.391 81.904,222.400 78.755,222.403 77.064 C 222.410 72.386,228.594 69.245,232.688 71.840 M307.440 72.246 C 308.771 72.877,308.996 73.392,308.823 75.400 C 308.757 76.167,306.503 78.459,298.988 85.400 C 297.082 87.160,295.039 89.050,294.447 89.600 C 286.611 96.878,285.901 97.224,283.836 94.769 C 282.079 92.681,281.997 92.796,291.366 84.200 C 293.763 82.000,296.295 79.660,296.992 79.000 C 305.538 70.903,305.145 71.157,307.440 72.246 M309.800 87.420 C 310.843 88.196,312.976 89.965,314.237 91.100 C 314.786 91.595,315.341 92.000,315.470 92.000 C 315.598 92.000,316.359 92.585,317.160 93.300 C 317.962 94.015,319.326 95.140,320.191 95.800 C 321.056 96.460,322.185 97.405,322.700 97.900 C 323.215 98.395,323.734 98.800,323.854 98.800 C 323.974 98.800,325.090 99.655,326.333 100.700 C 329.502 103.362,329.407 103.283,330.875 104.480 C 331.604 105.075,336.429 108.987,341.598 113.174 C 346.767 117.361,351.047 120.940,351.109 121.126 C 351.171 121.312,347.875 124.577,343.785 128.382 L 336.348 135.300 333.576 132.350 C 332.051 130.727,328.958 127.434,326.702 125.032 C 324.446 122.630,321.880 119.909,321.000 118.986 C 320.120 118.062,317.600 115.373,315.400 113.010 C 313.200 110.647,310.005 107.257,308.300 105.476 C 306.595 103.696,305.200 102.201,305.200 102.154 C 305.200 102.108,303.863 100.684,302.229 98.991 C 298.848 95.487,298.856 95.638,301.915 92.893 C 303.172 91.766,305.187 89.933,306.393 88.821 C 308.856 86.552,308.712 86.611,309.800 87.420 M360.111 128.154 L 362.022 129.672 360.493 131.136 C 359.652 131.941,356.920 134.490,354.422 136.800 C 351.924 139.110,348.898 141.914,347.696 143.031 L 345.512 145.062 344.056 143.505 C 343.255 142.649,342.378 141.706,342.107 141.409 C 341.521 140.769,341.797 140.459,348.184 134.600 C 350.582 132.400,353.630 129.574,354.956 128.321 C 356.312 127.040,357.551 126.172,357.784 126.339 C 358.013 126.502,359.060 127.319,360.111 128.154 M371.076 137.100 C 372.213 138.035,373.284 138.800,373.457 138.800 C 373.629 138.800,374.227 139.261,374.785 139.824 C 375.343 140.387,376.538 141.422,377.441 142.124 C 381.227 145.069,382.181 145.863,383.359 147.057 C 386.065 149.799,387.204 152.389,387.204 155.800 C 387.204 157.759,386.195 161.364,385.401 162.244 C 385.180 162.488,384.411 163.343,383.690 164.144 C 382.970 164.945,382.239 165.600,382.066 165.600 C 381.893 165.600,381.402 165.921,380.975 166.312 C 379.591 167.584,375.553 168.534,372.526 168.301 C 367.459 167.912,365.739 166.748,358.200 158.611 C 356.000 156.236,353.435 153.506,352.500 152.544 C 351.565 151.582,350.800 150.719,350.800 150.626 C 350.800 150.411,350.986 150.231,356.424 145.200 C 358.921 142.890,361.422 140.552,361.982 140.006 C 365.834 136.243,368.214 134.403,368.601 134.889 C 368.825 135.170,369.938 136.165,371.076 137.100 " stroke="none" fill="#040404" fill-rule="evenodd"></path><path id="path4" d="M307.613 196.630 C 307.620 196.834,307.890 197.349,308.213 197.776 C 308.688 198.405,308.794 200.153,308.768 206.976 C 308.751 211.609,308.646 215.174,308.534 214.898 C 308.423 214.621,308.169 214.496,307.970 214.619 C 307.771 214.742,308.624 215.778,309.866 216.921 C 311.108 218.065,312.976 219.810,314.017 220.800 C 315.057 221.790,316.660 223.279,317.578 224.110 C 319.116 225.500,319.588 227.200,318.437 227.200 C 318.267 227.200,317.930 227.636,317.687 228.169 C 317.444 228.702,316.974 229.467,316.643 229.869 C 315.326 231.468,312.221 235.816,312.211 236.077 C 312.205 236.230,311.840 236.702,311.400 237.128 C 309.674 238.798,307.304 242.477,308.385 241.809 C 308.717 241.604,308.805 244.448,308.718 252.565 C 308.649 259.073,308.750 263.601,308.967 263.600 C 309.168 263.600,309.214 263.481,309.069 263.336 C 308.924 263.191,309.164 262.820,309.603 262.513 C 310.041 262.206,310.400 261.594,310.400 261.154 C 310.400 260.713,310.541 260.440,310.713 260.546 C 310.885 260.653,311.470 260.078,312.013 259.270 C 312.556 258.461,313.270 257.562,313.600 257.270 C 314.133 256.800,314.133 256.773,313.600 257.029 C 313.270 257.188,313.396 256.933,313.879 256.463 C 314.363 255.993,316.070 253.761,317.674 251.504 C 319.277 249.247,320.979 246.971,321.456 246.446 C 321.933 245.921,322.565 245.030,322.862 244.467 C 323.158 243.904,323.805 243.002,324.300 242.463 C 324.795 241.924,325.200 241.239,325.200 240.942 C 325.200 240.644,325.358 240.400,325.551 240.400 C 325.744 240.400,326.599 239.368,327.451 238.107 C 328.303 236.846,329.327 235.451,329.727 235.007 C 330.126 234.563,330.828 233.595,331.286 232.856 C 331.744 232.117,332.543 231.056,333.060 230.498 C 333.577 229.940,334.000 229.254,334.000 228.975 C 334.000 228.695,334.137 228.407,334.304 228.333 C 334.941 228.055,337.200 224.990,337.200 224.405 C 337.200 224.069,336.255 222.953,335.100 221.927 C 333.945 220.900,332.080 219.192,330.956 218.130 C 329.163 216.438,325.677 213.199,319.122 207.137 C 318.088 206.182,316.225 204.500,314.981 203.400 C 311.968 200.737,311.201 199.932,311.194 199.425 C 311.191 199.191,311.013 199.270,310.800 199.600 C 310.463 200.122,310.411 200.115,310.406 199.547 C 310.403 199.187,310.022 198.794,309.560 198.674 C 309.098 198.553,308.805 198.307,308.909 198.127 C 309.013 197.947,308.761 197.454,308.349 197.030 C 307.937 196.607,307.606 196.427,307.613 196.630 M294.994 308.200 C 294.994 335.040,295.042 345.961,295.100 332.469 C 295.158 318.977,295.158 297.017,295.100 283.669 C 295.041 270.321,294.994 281.360,294.994 308.200 " stroke="none" fill="#4e2414" fill-rule="evenodd"></path></g></svg>