<svg id="svg" version="1.1" xmlns="http://www.w3.org/2000/svg" xmlns:xlink="http://www.w3.org/1999/xlink" width="400" height="400" viewBox="0, 0, 400,400"><g id="svgg"><path id="path0" d="M103.200 74.000 L 103.200 142.800 117.100 142.800 L 131.000 142.800 130.888 131.188 L 130.776 119.575 133.964 116.388 C 135.717 114.634,137.342 113.200,137.576 113.200 C 137.809 113.200,138.000 112.930,138.000 112.600 C 138.000 112.270,138.162 112.000,138.359 112.000 C 138.557 112.000,140.356 110.380,142.357 108.400 C 144.357 106.420,146.176 104.800,146.397 104.800 C 146.619 104.800,146.800 104.573,146.800 104.295 C 146.800 104.017,147.295 103.433,147.900 102.997 C 148.505 102.561,150.743 100.449,152.872 98.302 C 155.002 96.156,156.817 94.400,156.905 94.400 C 156.993 94.400,159.459 92.060,162.385 89.200 C 165.310 86.340,167.756 84.000,167.819 84.000 C 167.882 84.000,169.584 82.380,171.600 80.400 C 173.616 78.420,175.431 76.800,175.633 76.800 C 175.835 76.800,176.000 76.545,176.000 76.233 C 176.000 75.922,176.177 75.607,176.394 75.533 C 176.945 75.347,184.003 68.622,199.936 53.100 C 201.912 51.175,203.611 49.600,203.712 49.600 C 204.160 49.600,207.600 45.838,207.600 45.347 C 207.600 44.893,204.712 44.800,190.560 44.800 L 173.521 44.800 172.430 45.900 C 171.829 46.505,169.463 48.710,167.172 50.800 C 164.880 52.890,162.215 55.365,161.250 56.300 C 160.285 57.235,159.422 58.000,159.334 58.000 C 159.245 58.000,158.054 59.053,156.686 60.339 C 155.319 61.625,152.859 63.920,151.219 65.439 C 149.580 66.958,147.816 68.605,147.301 69.100 C 146.785 69.595,146.192 70.000,145.982 70.000 C 145.772 70.000,145.600 70.144,145.600 70.320 C 145.600 70.495,143.215 72.823,140.300 75.492 C 137.385 78.160,134.100 81.194,133.000 82.234 L 131.000 84.124 130.898 44.662 L 130.796 5.200 116.998 5.200 L 103.200 5.200 103.200 74.000 M203.345 58.106 C 200.467 61.038,199.698 61.797,197.232 64.140 C 196.040 65.273,193.892 67.325,192.459 68.700 C 191.026 70.075,189.706 71.200,189.527 71.200 C 189.347 71.200,189.200 71.470,189.200 71.800 C 189.200 72.130,189.065 72.400,188.900 72.401 C 188.362 72.403,186.000 74.611,186.000 75.112 C 186.000 75.380,185.863 75.555,185.696 75.500 C 185.528 75.445,183.733 77.020,181.707 79.000 C 179.681 80.980,176.754 83.770,175.202 85.200 C 170.284 89.732,164.400 95.528,164.400 95.841 C 164.400 96.007,166.245 97.913,168.500 100.076 C 170.755 102.239,173.140 104.547,173.800 105.205 C 175.361 106.760,175.186 106.816,178.305 103.756 C 179.787 102.302,181.585 100.660,182.300 100.108 C 183.015 99.557,183.600 98.856,183.600 98.553 C 183.600 98.249,183.777 98.000,183.993 98.000 C 184.210 98.000,186.052 96.380,188.088 94.400 C 190.123 92.420,191.926 90.800,192.094 90.800 C 192.262 90.800,192.400 90.530,192.400 90.200 C 192.400 89.870,192.576 89.600,192.791 89.600 C 193.007 89.600,194.173 88.610,195.383 87.400 C 196.593 86.190,197.767 85.200,197.991 85.200 C 198.216 85.200,198.405 84.975,198.411 84.700 C 198.417 84.425,199.037 83.750,199.788 83.200 C 200.540 82.650,201.375 81.795,201.645 81.300 C 201.915 80.805,202.271 80.400,202.437 80.400 C 202.603 80.400,203.467 79.657,204.358 78.748 L 205.978 77.096 208.779 79.848 C 210.320 81.362,213.220 84.130,215.223 86.000 C 217.227 87.870,220.844 91.335,223.262 93.700 C 225.679 96.065,227.794 98.000,227.961 98.000 C 228.128 98.000,228.506 98.450,228.800 99.000 C 229.094 99.550,229.447 100.000,229.584 100.000 C 229.720 100.000,231.556 101.665,233.663 103.700 C 235.769 105.735,240.335 110.100,243.809 113.400 C 247.283 116.700,251.689 120.930,253.600 122.800 C 258.365 127.463,261.187 130.087,262.554 131.124 C 263.189 131.606,263.549 132.000,263.354 132.000 C 263.159 132.001,263.523 132.451,264.162 133.000 C 264.801 133.550,265.476 134.000,265.662 134.000 C 265.848 134.000,265.955 134.135,265.900 134.300 C 265.795 134.614,267.434 136.400,267.826 136.400 C 267.950 136.400,269.030 137.378,270.225 138.573 C 271.420 139.768,272.749 140.857,273.178 140.993 C 273.609 141.130,273.868 141.477,273.757 141.768 C 273.641 142.069,273.907 142.387,274.377 142.510 C 274.830 142.628,275.200 143.006,275.200 143.350 C 275.200 143.770,275.420 143.891,275.869 143.718 C 276.375 143.524,276.477 143.624,276.284 144.126 C 276.144 144.491,276.157 144.771,276.314 144.748 C 277.476 144.575,278.068 144.836,277.652 145.337 C 277.073 146.035,277.565 146.527,278.263 145.948 C 278.684 145.599,278.800 143.518,278.800 136.351 C 278.800 130.517,278.945 127.200,279.200 127.200 C 279.420 127.200,279.600 127.020,279.600 126.800 C 279.600 126.580,279.259 126.400,278.843 126.400 C 278.426 126.400,277.978 126.121,277.847 125.779 C 277.691 125.371,277.778 125.244,278.105 125.409 C 278.377 125.547,278.288 125.403,277.906 125.090 C 277.525 124.777,277.330 124.404,277.473 124.260 C 277.616 124.117,277.513 124.000,277.243 124.000 C 276.971 124.000,276.881 123.792,277.042 123.532 C 277.236 123.217,277.113 123.148,276.666 123.319 C 276.300 123.460,276.000 123.390,276.000 123.164 C 276.000 122.938,275.822 122.863,275.605 122.997 C 275.369 123.143,275.316 122.962,275.474 122.551 C 275.679 122.016,275.584 121.921,275.049 122.126 C 274.635 122.285,274.457 122.231,274.605 121.993 C 274.740 121.774,274.569 121.486,274.225 121.354 C 273.881 121.222,273.600 120.941,273.600 120.729 C 273.600 120.228,272.371 119.000,271.869 119.000 C 271.655 119.000,271.340 118.640,271.168 118.200 C 270.997 117.760,270.844 117.548,270.828 117.728 C 270.813 117.909,270.170 117.389,269.400 116.573 C 268.630 115.756,267.989 115.248,267.975 115.444 C 267.961 115.640,267.782 115.383,267.578 114.874 C 267.374 114.365,267.052 114.044,266.864 114.161 C 266.675 114.277,266.296 113.974,266.022 113.486 C 265.748 112.999,264.742 111.970,263.786 111.200 C 262.831 110.430,262.038 109.575,262.024 109.300 C 262.011 109.025,261.796 108.800,261.546 108.800 C 260.967 108.800,259.210 106.924,259.509 106.625 C 259.632 106.501,259.505 106.400,259.226 106.400 C 258.947 106.400,257.326 104.960,255.624 103.200 C 253.922 101.440,252.405 100.000,252.253 100.000 C 252.101 100.000,249.555 97.615,246.595 94.700 C 243.635 91.785,239.659 87.960,237.760 86.200 C 235.861 84.440,231.907 80.615,228.973 77.700 C 226.040 74.785,223.568 72.400,223.481 72.400 C 223.237 72.400,215.576 65.117,210.752 60.300 C 205.756 55.311,206.013 55.388,203.345 58.106 M157.600 97.524 C 157.600 97.881,157.349 98.899,157.041 99.787 C 156.734 100.674,156.273 102.210,156.017 103.200 C 155.474 105.299,153.251 112.633,152.803 113.800 C 152.635 114.240,152.038 116.309,151.477 118.397 L 150.456 122.195 155.124 126.597 C 157.691 129.019,160.888 132.080,162.229 133.400 C 163.570 134.720,166.293 137.375,168.281 139.300 L 171.895 142.800 189.148 142.800 C 198.636 142.800,206.393 142.665,206.385 142.500 C 206.376 142.335,204.817 140.760,202.921 139.000 C 201.024 137.240,197.816 134.180,195.792 132.200 C 193.768 130.220,191.030 127.610,189.707 126.400 C 187.355 124.249,176.893 114.273,170.937 108.500 C 169.291 106.905,167.875 105.600,167.790 105.600 C 167.705 105.600,165.727 103.728,163.394 101.441 C 159.173 97.300,157.600 96.237,157.600 97.524 M88.920 107.498 C 90.855 107.572,93.915 107.571,95.720 107.497 C 97.524 107.423,95.940 107.363,92.200 107.364 C 88.460 107.364,86.984 107.425,88.920 107.498 M132.691 369.097 L 135.582 369.235 135.691 376.317 L 135.800 383.400 139.600 383.600 C 141.690 383.710,125.760 383.891,104.200 384.003 C 82.640 384.115,116.840 384.225,180.200 384.248 C 243.560 384.271,299.810 384.168,305.200 384.020 L 315.000 383.750 299.359 383.675 C 290.756 383.634,282.611 383.484,281.259 383.343 L 278.800 383.086 278.800 376.208 L 278.800 369.329 266.500 369.065 C 254.280 368.803,127.161 368.833,132.691 369.097 " stroke="none" fill="#bc2424" fill-rule="evenodd"></path><path id="path1" d="M84.667 107.867 C 84.520 108.013,84.400 122.553,84.400 140.178 L 84.400 172.222 79.661 176.811 C 77.055 179.335,73.050 183.175,70.761 185.344 C 68.472 187.514,64.342 191.474,61.582 194.144 C 51.328 204.067,39.312 215.524,36.540 218.023 C 33.753 220.534,32.756 222.400,34.200 222.400 C 34.530 222.400,34.800 222.599,34.800 222.842 C 34.800 223.086,35.340 223.967,36.000 224.800 C 36.660 225.633,37.200 226.432,37.200 226.574 C 37.200 226.849,37.303 226.989,39.127 229.200 C 39.763 229.970,40.513 231.039,40.795 231.575 C 41.077 232.111,41.462 232.741,41.651 232.975 C 42.731 234.315,46.800 240.038,46.800 240.217 C 46.800 240.334,48.510 242.756,50.600 245.600 C 52.690 248.444,54.400 250.886,54.400 251.028 C 54.400 251.170,55.118 252.211,55.996 253.343 C 58.157 256.128,57.952 255.842,60.200 259.206 C 61.300 260.853,62.290 262.290,62.400 262.400 C 64.350 264.350,64.182 259.176,64.400 324.142 L 64.600 383.800 104.000 383.824 C 125.670 383.838,141.690 383.748,139.600 383.624 L 135.800 383.400 135.691 376.360 L 135.582 369.320 131.329 369.060 C 128.990 368.917,116.484 368.800,103.538 368.800 L 80.000 368.800 80.000 314.592 L 80.000 260.384 79.044 258.892 C 78.040 257.327,70.684 246.898,70.084 246.190 C 69.892 245.964,69.397 245.244,68.984 244.590 C 68.570 243.935,67.054 241.780,65.614 239.800 C 64.174 237.820,62.510 235.480,61.915 234.600 C 59.172 230.539,57.598 228.341,57.024 227.767 C 56.681 227.424,56.400 226.929,56.400 226.667 C 56.400 226.406,55.963 225.720,55.429 225.144 C 53.540 223.108,53.519 223.138,63.205 214.000 C 66.353 211.030,69.755 207.820,70.765 206.866 C 71.774 205.912,75.056 202.762,78.057 199.866 C 85.707 192.485,95.411 183.187,97.900 180.854 L 100.000 178.885 100.000 143.485 C 100.000 111.574,99.938 108.062,99.367 107.843 C 98.504 107.511,85.000 107.533,84.667 107.867 " stroke="none" fill="#e76424" fill-rule="evenodd"></path><path id="path2" d="M185.528 158.411 L 184.317 159.622 184.458 166.021 L 184.600 172.420 183.400 172.149 C 176.592 170.610,166.550 174.715,164.974 179.682 C 164.849 180.077,164.578 180.400,164.373 180.400 C 164.168 180.400,164.000 180.749,164.000 181.176 C 164.000 181.603,163.820 182.064,163.600 182.200 C 163.380 182.336,163.200 183.146,163.200 184.000 C 163.200 184.854,163.020 185.664,162.800 185.800 C 162.264 186.132,162.288 189.328,162.831 189.871 C 163.728 190.768,163.089 192.553,161.776 192.820 C 159.012 193.380,153.200 197.403,153.200 198.757 C 153.200 199.000,153.020 199.200,152.800 199.200 C 152.580 199.200,152.400 199.470,152.400 199.800 C 152.400 200.130,152.225 200.400,152.012 200.400 C 151.070 200.400,149.901 205.974,150.076 209.628 L 150.246 213.200 149.123 213.200 C 148.505 213.200,148.000 213.380,148.000 213.600 C 148.000 213.820,147.550 214.000,147.000 214.000 C 146.450 214.000,146.000 214.180,146.000 214.400 C 146.000 214.620,145.730 214.800,145.400 214.800 C 145.070 214.800,144.800 214.980,144.800 215.200 C 144.800 215.420,144.622 215.600,144.405 215.600 C 143.907 215.600,142.602 216.656,141.246 218.156 C 140.670 218.791,139.975 219.544,139.700 219.827 C 139.425 220.111,139.200 220.626,139.200 220.971 C 139.200 221.317,139.042 221.600,138.849 221.600 C 137.248 221.600,136.502 231.074,137.831 234.536 C 138.004 234.987,137.787 235.301,137.128 235.551 C 129.663 238.390,126.000 243.475,126.000 251.000 C 126.000 257.006,127.091 259.059,133.774 265.633 L 138.823 270.600 136.311 272.960 C 134.930 274.258,130.500 278.488,126.466 282.360 C 122.432 286.232,118.022 290.458,116.666 291.752 C 114.711 293.616,105.022 302.923,96.329 311.287 C 94.527 313.021,94.674 316.187,96.639 317.926 C 98.428 319.511,101.456 319.744,102.800 318.400 C 103.240 317.960,103.680 317.600,103.778 317.600 C 103.946 317.600,107.021 314.652,117.650 304.300 C 120.078 301.935,122.114 300.000,122.175 300.000 C 122.235 300.000,124.214 298.110,126.572 295.800 C 128.930 293.490,130.913 291.600,130.978 291.600 C 131.043 291.600,132.520 290.205,134.259 288.500 C 135.999 286.795,138.272 284.631,139.311 283.692 C 140.350 282.752,141.200 281.807,141.200 281.592 C 141.200 281.376,141.380 281.200,141.600 281.200 C 141.820 281.200,142.978 280.214,144.174 279.009 L 146.348 276.817 148.074 277.449 C 152.554 279.089,159.420 278.497,163.600 276.109 C 165.722 274.897,169.600 270.911,169.600 269.942 C 169.600 269.571,169.778 269.207,169.996 269.133 C 170.466 268.975,171.600 264.830,171.600 263.271 C 171.600 262.220,171.712 262.163,174.700 261.688 C 182.195 260.496,187.659 254.994,188.294 247.999 L 188.511 245.600 190.327 245.600 C 194.969 245.600,203.183 240.686,203.197 237.900 C 203.198 237.515,203.367 237.200,203.571 237.200 C 204.160 237.200,205.600 232.930,205.600 231.185 C 205.600 229.883,205.738 229.600,206.376 229.600 C 206.803 229.600,207.264 229.420,207.400 229.200 C 207.536 228.980,208.449 228.800,209.429 228.800 C 210.409 228.800,211.523 228.636,211.905 228.436 C 212.287 228.236,213.185 227.817,213.899 227.506 C 215.956 226.608,219.759 223.034,220.677 221.135 C 222.854 216.637,222.895 216.458,222.730 212.352 C 222.636 209.997,222.377 208.217,222.086 207.926 C 221.819 207.659,221.600 207.202,221.600 206.911 C 221.600 206.621,221.112 205.645,220.515 204.743 L 219.430 203.103 223.680 199.052 C 226.018 196.823,232.457 190.680,237.989 185.400 C 249.175 174.723,250.115 174.005,252.904 174.002 C 257.045 173.998,260.067 176.772,260.067 180.578 C 260.067 183.458,260.440 183.028,245.936 196.877 C 242.781 199.890,239.714 202.770,239.119 203.277 C 233.959 207.682,239.236 215.261,244.807 211.446 C 246.204 210.490,247.035 209.713,256.514 200.512 C 263.988 193.256,267.812 192.418,271.604 197.205 C 272.810 198.727,273.437 203.600,272.427 203.600 C 272.222 203.600,271.943 203.950,271.807 204.377 C 271.671 204.805,270.542 206.110,269.297 207.277 C 268.052 208.445,265.805 210.615,264.303 212.100 C 262.801 213.585,261.518 214.800,261.450 214.800 C 260.639 214.800,254.476 221.672,254.261 222.815 C 253.618 226.245,255.724 228.800,259.195 228.800 C 260.078 228.800,260.800 228.620,260.800 228.400 C 260.800 228.180,261.061 228.000,261.381 228.000 C 261.700 228.000,262.845 227.145,263.925 226.100 C 275.317 215.074,275.678 214.800,278.776 214.800 C 281.479 214.800,284.339 216.598,284.980 218.700 C 285.130 219.195,285.422 219.600,285.627 219.600 C 285.832 219.600,286.000 220.410,286.000 221.400 C 286.000 222.390,285.840 223.200,285.643 223.200 C 285.447 223.200,285.178 223.632,285.046 224.160 C 284.786 225.197,283.581 226.479,276.083 233.705 L 271.200 238.411 271.200 240.375 C 271.200 243.575,272.513 244.800,275.943 244.800 L 278.614 244.800 281.451 242.100 C 285.604 238.148,286.797 237.200,287.618 237.200 C 288.022 237.200,288.464 237.020,288.600 236.800 C 288.922 236.279,291.200 236.279,291.200 236.800 C 291.200 237.020,291.626 237.200,292.147 237.200 C 293.518 237.200,296.710 240.514,297.042 242.281 C 297.323 243.780,296.616 246.800,295.984 246.800 C 295.773 246.800,295.600 246.989,295.600 247.221 C 295.600 247.684,292.748 250.528,283.788 259.000 C 280.531 262.080,276.627 265.815,275.114 267.300 C 273.600 268.785,272.320 270.000,272.270 270.000 C 272.220 270.000,269.728 272.385,266.733 275.300 C 253.893 287.797,251.644 289.873,247.826 292.749 C 245.611 294.416,243.710 295.890,243.600 296.022 C 243.490 296.155,242.815 296.519,242.100 296.830 C 241.385 297.141,240.800 297.531,240.800 297.698 C 240.800 297.864,240.455 298.000,240.033 298.000 C 239.612 298.000,239.207 298.139,239.133 298.310 C 238.698 299.320,228.084 303.193,223.928 303.858 C 223.078 303.994,222.286 304.261,222.168 304.453 C 222.049 304.644,220.714 304.800,219.200 304.800 C 217.686 304.800,216.336 304.980,216.200 305.200 C 216.064 305.420,214.886 305.600,213.583 305.600 C 211.313 305.600,211.127 305.680,209.147 307.500 C 206.616 309.827,198.699 317.403,193.995 322.000 C 192.082 323.870,187.670 328.100,184.192 331.400 C 168.679 346.119,168.748 346.034,169.616 349.258 C 170.171 351.321,171.781 352.400,174.305 352.400 C 176.509 352.400,177.480 351.721,182.857 346.420 C 184.319 344.979,188.535 340.920,192.227 337.400 C 195.919 333.880,200.555 329.434,202.530 327.520 C 206.117 324.042,206.121 324.040,207.360 324.568 C 210.009 325.696,211.806 326.613,211.933 326.900 C 212.007 327.065,212.491 327.200,213.010 327.200 C 213.528 327.200,214.064 327.380,214.200 327.600 C 214.336 327.820,215.067 328.000,215.824 328.000 C 216.581 328.000,217.200 328.180,217.200 328.400 C 217.200 328.620,218.175 328.800,219.367 328.800 C 220.558 328.800,221.593 328.974,221.667 329.186 C 221.740 329.398,223.756 329.663,226.146 329.776 L 230.491 329.981 233.746 333.038 C 235.536 334.719,240.268 339.232,244.262 343.067 C 248.256 346.902,251.946 350.387,252.462 350.812 C 252.978 351.237,253.617 351.769,253.883 351.993 C 255.094 353.014,258.454 352.467,259.860 351.020 C 262.414 348.390,261.594 345.651,257.000 341.472 C 255.457 340.069,241.798 326.970,238.824 324.042 C 234.944 320.222,234.365 320.000,228.288 320.000 C 223.309 320.000,219.548 319.333,215.584 317.747 C 212.528 316.524,214.208 314.920,219.120 314.370 C 225.873 313.614,233.726 311.724,237.314 309.990 C 238.214 309.556,239.186 309.200,239.475 309.200 C 239.764 309.200,240.000 309.020,240.000 308.800 C 240.000 308.580,240.349 308.400,240.776 308.400 C 241.203 308.400,241.664 308.220,241.800 308.000 C 241.936 307.780,242.397 307.600,242.824 307.600 C 243.251 307.600,243.600 307.432,243.600 307.227 C 243.600 307.022,244.004 306.726,244.498 306.569 C 245.539 306.239,251.787 302.422,253.066 301.336 C 254.993 299.700,255.615 299.200,255.725 299.200 C 255.943 299.200,260.142 295.404,263.026 292.600 C 264.609 291.060,268.286 287.550,271.196 284.800 C 287.737 269.169,300.591 256.707,303.443 253.537 C 306.953 249.635,307.757 241.482,305.161 236.120 C 303.453 232.591,297.726 228.000,295.032 228.000 C 294.580 228.000,294.590 227.651,295.090 225.945 C 297.059 219.228,293.308 209.935,287.700 207.636 C 286.985 207.343,286.400 206.945,286.400 206.751 C 286.400 206.558,285.961 206.400,285.424 206.400 C 284.887 206.400,284.336 206.220,284.200 206.000 C 284.064 205.780,283.648 205.600,283.275 205.600 C 282.682 205.600,282.596 205.067,282.580 201.300 C 282.547 193.424,278.447 187.606,271.500 185.580 L 269.600 185.025 269.600 183.113 C 269.600 182.061,269.780 181.200,270.000 181.200 C 270.220 181.200,270.400 180.930,270.400 180.600 C 270.400 180.270,270.220 180.000,270.000 180.000 C 269.778 180.000,269.600 178.944,269.600 177.633 C 269.600 176.332,269.465 175.207,269.300 175.133 C 269.135 175.060,268.683 174.315,268.296 173.478 C 267.358 171.451,265.117 168.435,264.533 168.416 C 264.277 168.407,264.007 168.247,263.933 168.060 C 262.853 165.304,253.623 163.581,247.789 165.047 L 245.213 165.694 243.706 164.419 C 242.878 163.718,241.840 162.828,241.400 162.441 C 240.960 162.054,240.015 161.483,239.300 161.171 C 238.585 160.860,238.000 160.469,238.000 160.302 C 238.000 160.136,237.787 160.000,237.526 160.000 C 237.266 160.000,236.275 159.623,235.324 159.163 C 231.393 157.260,230.689 157.210,208.069 157.205 L 186.738 157.200 185.528 158.411 M228.119 166.996 C 230.929 167.728,235.005 169.748,236.480 171.141 L 237.580 172.179 233.490 176.126 C 231.241 178.297,226.351 182.982,222.623 186.537 C 218.896 190.092,215.045 193.765,214.065 194.700 C 212.164 196.514,212.000 196.618,212.000 196.008 C 212.000 195.793,211.151 194.848,210.114 193.908 C 209.076 192.969,207.276 191.255,206.114 190.100 C 204.951 188.945,203.820 188.000,203.600 188.000 C 203.380 188.000,203.200 187.745,203.200 187.433 C 203.200 187.122,202.975 186.776,202.700 186.665 C 202.425 186.554,205.862 186.449,210.338 186.432 C 219.203 186.397,220.109 186.200,221.105 184.090 C 222.027 182.136,221.369 178.411,220.100 178.403 C 219.825 178.401,219.600 178.220,219.600 178.000 C 219.600 177.780,219.060 177.600,218.400 177.600 C 217.740 177.600,217.200 177.417,217.200 177.194 C 217.200 176.930,214.397 176.807,209.223 176.845 C 202.334 176.895,201.157 176.814,200.594 176.252 C 200.236 175.893,199.686 175.600,199.371 175.600 C 199.057 175.600,198.800 175.432,198.800 175.227 C 198.800 175.022,198.461 174.746,198.046 174.615 C 197.631 174.483,196.776 173.616,196.146 172.688 C 195.516 171.759,194.865 170.940,194.700 170.867 C 194.535 170.793,194.400 169.758,194.400 168.567 L 194.400 166.400 210.116 166.400 C 222.744 166.400,226.281 166.517,228.119 166.996 M182.708 181.924 C 182.795 182.186,183.030 182.400,183.229 182.400 C 183.825 182.400,184.594 183.106,197.800 195.790 C 213.359 210.735,212.800 210.084,212.800 213.239 C 212.800 218.229,207.069 221.397,202.400 218.988 C 201.850 218.704,199.481 216.610,197.135 214.336 C 194.790 212.061,189.224 206.690,184.768 202.400 C 180.311 198.110,175.959 193.909,175.097 193.065 C 171.747 189.784,171.794 184.466,175.188 182.720 C 175.745 182.434,176.457 181.956,176.771 181.658 C 177.484 180.980,182.468 181.203,182.708 181.924 M169.986 202.618 C 172.161 203.795,194.259 224.917,195.155 226.674 C 197.677 231.622,192.352 237.549,186.775 236.000 C 185.107 235.536,185.166 235.590,163.321 214.574 C 161.935 213.240,160.800 211.950,160.800 211.708 C 160.800 211.465,160.575 211.192,160.300 211.100 C 159.970 210.990,159.800 210.071,159.800 208.400 C 159.800 206.729,159.970 205.810,160.300 205.700 C 160.575 205.608,160.800 205.355,160.800 205.138 C 160.800 202.698,166.995 200.998,169.986 202.618 M155.899 222.467 C 157.817 222.949,157.971 223.085,170.328 235.108 C 172.197 236.927,174.520 239.146,175.488 240.039 C 177.800 242.170,178.797 243.866,178.799 245.674 C 178.804 251.309,171.748 254.796,167.493 251.262 C 164.866 249.081,153.962 238.743,149.770 234.458 C 144.841 229.421,146.915 222.904,153.723 222.041 C 153.900 222.018,154.880 222.210,155.899 222.467 M144.600 244.400 C 144.736 244.620,145.163 244.800,145.550 244.800 C 146.182 244.800,150.818 248.971,157.890 255.903 C 161.539 259.481,162.255 261.546,160.965 264.771 C 160.313 266.400,158.143 268.400,157.027 268.400 C 156.682 268.400,156.400 268.580,156.400 268.800 C 156.400 270.879,151.109 268.464,146.863 264.449 C 136.299 254.459,136.000 254.088,136.000 251.000 C 136.000 248.067,138.142 244.800,140.066 244.800 C 140.444 244.800,140.864 244.620,141.000 244.400 C 141.136 244.180,141.946 244.000,142.800 244.000 C 143.654 244.000,144.464 244.180,144.600 244.400 M292.084 274.427 C 287.005 275.502,287.408 282.916,292.577 283.499 C 294.931 283.764,296.570 283.055,297.586 281.335 C 299.857 277.486,296.650 273.460,292.084 274.427 M303.400 284.800 C 303.264 285.020,302.805 285.200,302.381 285.200 C 301.373 285.200,300.000 286.391,300.000 287.265 C 300.000 287.643,299.820 288.064,299.600 288.200 C 299.380 288.336,299.200 288.876,299.200 289.400 C 299.200 289.924,299.380 290.464,299.600 290.600 C 299.820 290.736,300.000 291.116,300.000 291.444 C 300.000 291.973,301.591 293.587,309.974 301.555 C 314.428 305.790,319.600 304.623,319.600 299.383 L 319.600 297.211 316.552 294.306 C 314.876 292.708,312.055 290.005,310.283 288.300 C 308.147 286.245,306.748 285.200,306.131 285.200 C 305.619 285.200,305.200 285.020,305.200 284.800 C 305.200 284.580,304.851 284.400,304.424 284.400 C 303.997 284.400,303.536 284.580,303.400 284.800 M322.200 384.000 L 297.400 384.209 322.076 384.305 C 338.200 384.367,346.838 384.261,347.000 384.000 C 347.136 383.780,347.192 383.643,347.124 383.695 C 347.056 383.748,335.840 383.885,322.200 384.000 " stroke="none" fill="#040404" fill-rule="evenodd"></path><path id="path3" d="M130.992 44.800 C 130.992 66.470,131.041 75.335,131.100 64.500 C 131.159 53.665,131.159 35.935,131.100 25.100 C 131.041 14.265,130.992 23.130,130.992 44.800 M130.977 130.800 C 130.977 137.290,131.032 139.945,131.099 136.700 C 131.166 133.455,131.166 128.145,131.099 124.900 C 131.032 121.655,130.977 124.310,130.977 130.800 M277.534 124.751 C 277.828 124.937,278.053 125.204,278.034 125.345 C 277.923 126.178,278.084 126.400,278.800 126.400 C 279.240 126.400,279.600 126.580,279.600 126.800 C 279.600 127.020,279.423 127.200,279.207 127.200 C 278.965 127.200,278.774 130.722,278.707 136.400 C 278.639 142.282,278.456 145.565,278.200 145.500 C 277.980 145.445,277.845 145.265,277.900 145.100 C 277.955 144.935,277.724 144.800,277.387 144.800 C 277.051 144.800,276.671 144.530,276.545 144.200 C 276.418 143.870,276.117 143.600,275.876 143.600 C 275.635 143.600,276.133 144.313,276.984 145.183 C 277.834 146.054,278.681 146.674,278.865 146.560 C 279.049 146.446,279.200 146.606,279.200 146.914 C 279.200 147.223,279.591 147.819,280.069 148.238 C 280.547 148.657,280.806 148.775,280.645 148.500 C 280.484 148.225,280.458 148.000,280.586 148.000 C 280.715 148.000,280.998 148.468,281.215 149.041 C 281.482 149.741,281.812 150.004,282.226 149.845 C 282.566 149.715,282.736 149.780,282.605 149.991 C 282.475 150.202,282.736 150.603,283.184 150.883 C 283.633 151.163,284.000 151.542,284.000 151.725 C 284.000 151.908,284.270 152.327,284.600 152.657 C 284.930 152.987,285.200 153.180,285.200 153.086 C 285.200 152.992,287.379 155.049,290.042 157.658 C 292.706 160.266,295.046 162.400,295.242 162.400 C 295.439 162.400,295.600 162.670,295.600 163.000 C 295.600 163.330,295.774 163.600,295.987 163.600 C 296.200 163.600,298.280 165.490,300.609 167.800 C 302.939 170.110,304.985 172.000,305.155 172.000 C 305.325 172.000,305.706 172.450,306.000 173.000 C 306.294 173.550,306.673 174.000,306.841 174.000 C 307.010 174.000,309.121 175.935,311.533 178.300 C 315.376 182.069,322.934 189.309,329.906 195.900 C 331.128 197.055,332.279 198.000,332.464 198.000 C 332.649 198.000,332.800 198.227,332.800 198.505 C 332.800 198.783,333.280 199.368,333.867 199.805 C 334.454 200.242,336.726 202.355,338.915 204.500 C 341.105 206.645,343.054 208.400,343.248 208.400 C 343.442 208.400,343.600 208.580,343.600 208.800 C 343.600 209.020,343.827 209.200,344.105 209.200 C 344.383 209.200,344.795 209.605,345.020 210.100 C 345.245 210.595,345.648 210.955,345.915 210.900 C 346.182 210.845,346.400 210.995,346.400 211.233 C 346.400 211.898,348.995 214.268,349.529 214.090 C 349.788 214.004,350.000 214.199,350.000 214.524 C 350.000 214.849,350.270 215.218,350.600 215.345 C 350.930 215.471,351.200 215.851,351.200 216.187 C 351.200 216.994,352.246 216.978,352.557 216.167 C 352.691 215.819,352.800 211.679,352.800 206.967 C 352.800 200.383,352.916 198.399,353.300 198.394 C 353.633 198.390,353.600 198.258,353.200 198.000 C 352.764 197.718,352.743 197.611,353.124 197.606 C 353.412 197.603,353.531 197.413,353.390 197.184 C 353.248 196.955,352.743 196.863,352.266 196.980 C 351.790 197.097,351.615 197.093,351.878 196.970 C 352.140 196.848,352.254 196.485,352.131 196.164 C 351.947 195.685,351.793 195.671,351.277 196.090 C 350.881 196.410,350.750 196.427,350.925 196.136 C 351.077 195.881,351.087 195.371,350.946 195.003 C 350.759 194.515,350.607 194.465,350.388 194.819 C 350.182 195.153,350.001 195.035,349.813 194.440 C 349.500 193.454,347.767 191.600,347.158 191.600 C 346.935 191.600,346.864 191.420,347.000 191.200 C 347.136 190.980,347.071 190.800,346.856 190.800 C 346.369 190.800,342.400 186.843,342.400 186.357 C 342.400 186.160,342.254 186.000,342.076 186.000 C 341.898 186.000,339.953 184.245,337.754 182.100 C 334.138 178.572,323.276 168.154,316.457 161.675 C 314.996 160.286,311.715 157.136,309.166 154.675 C 306.618 152.214,301.966 147.770,298.829 144.800 C 295.691 141.830,292.076 138.365,290.794 137.100 C 289.513 135.835,288.280 134.800,288.056 134.800 C 287.831 134.800,287.519 134.592,287.362 134.338 C 287.173 134.033,287.254 133.986,287.600 134.200 C 287.946 134.414,288.027 134.367,287.838 134.062 C 287.681 133.808,287.371 133.600,287.148 133.600 C 286.700 133.600,285.600 132.605,285.600 132.200 C 285.600 132.059,285.330 131.673,285.000 131.343 C 284.670 131.013,284.400 130.869,284.400 131.024 C 284.400 131.179,282.908 129.752,281.084 127.853 C 279.261 125.954,277.596 124.403,277.384 124.406 C 277.173 124.409,277.240 124.565,277.534 124.751 M272.000 140.520 C 272.000 140.886,273.611 141.906,273.774 141.643 C 273.884 141.464,273.531 141.115,272.987 140.867 C 272.444 140.620,272.000 140.463,272.000 140.520 M350.914 233.162 C 350.534 233.774,350.534 233.985,350.914 234.140 C 351.187 234.251,351.094 234.351,350.700 234.368 C 350.286 234.387,350.000 234.716,350.000 235.173 C 350.000 235.598,349.640 236.060,349.200 236.200 C 348.760 236.340,348.378 236.622,348.350 236.827 C 348.322 237.032,348.278 237.339,348.250 237.510 C 348.204 237.793,347.785 238.342,346.553 239.733 C 346.307 240.010,345.979 240.637,345.824 241.124 C 345.669 241.612,345.408 241.928,345.243 241.827 C 345.079 241.725,344.087 242.937,343.040 244.521 C 340.465 248.415,339.338 250.032,336.900 253.336 C 336.405 254.007,336.000 254.681,336.000 254.835 C 336.000 254.989,335.448 255.706,334.774 256.428 C 332.208 259.175,332.388 254.780,332.397 314.391 L 332.406 368.800 297.303 368.891 C 277.996 368.942,265.935 369.035,270.500 369.100 L 278.800 369.216 278.800 376.172 L 278.800 383.128 282.100 383.352 C 287.032 383.686,322.973 383.862,335.906 383.616 L 347.212 383.400 347.203 323.924 C 347.195 265.525,347.209 264.439,347.970 263.906 C 348.397 263.607,348.803 263.101,348.873 262.781 C 348.943 262.462,349.315 261.965,349.700 261.677 C 350.085 261.390,350.400 260.895,350.400 260.577 C 350.400 260.260,350.651 260.000,350.957 260.000 C 351.264 260.000,351.622 259.721,351.753 259.379 C 351.914 258.958,351.832 258.854,351.495 259.055 C 351.223 259.217,351.416 258.912,351.924 258.375 C 352.433 257.839,352.834 257.261,352.816 257.092 C 352.771 256.668,353.746 255.652,354.033 255.824 C 354.162 255.902,354.267 255.697,354.267 255.369 C 354.267 254.959,354.138 254.902,353.853 255.187 C 352.914 256.126,352.808 255.102,352.706 244.105 C 352.596 232.151,352.376 230.812,350.914 233.162 M357.386 250.900 L 356.752 252.200 357.567 251.200 C 358.352 250.237,358.608 249.600,358.210 249.600 C 358.106 249.600,357.735 250.185,357.386 250.900 " stroke="none" fill="#632114" fill-rule="evenodd"></path><path id="path4" d="M353.200 198.000 C 353.600 198.258,353.633 198.390,353.300 198.394 C 352.916 198.399,352.799 200.413,352.794 207.100 C 352.791 211.885,352.619 216.067,352.412 216.394 C 351.998 217.049,353.437 218.948,354.058 218.564 C 354.246 218.448,354.400 218.612,354.400 218.930 C 354.400 219.247,354.778 219.606,355.240 219.726 C 355.702 219.847,355.979 220.111,355.854 220.312 C 355.730 220.513,356.247 221.226,357.003 221.895 L 358.379 223.113 357.008 224.908 C 356.254 225.896,355.749 226.815,355.885 226.952 C 356.022 227.088,355.893 227.200,355.600 227.200 C 355.307 227.200,355.186 227.319,355.331 227.464 C 355.476 227.609,355.224 227.988,354.771 228.306 C 354.310 228.629,354.044 229.138,354.169 229.462 C 354.291 229.781,354.232 229.943,354.037 229.823 C 353.505 229.494,353.199 230.639,353.689 231.129 C 353.991 231.431,353.878 231.493,353.303 231.343 C 352.347 231.093,351.714 231.874,352.355 232.515 C 352.661 232.821,352.800 236.490,352.800 244.237 C 352.800 253.449,352.901 255.553,353.351 255.726 C 353.917 255.943,354.800 255.313,354.800 254.691 C 354.800 254.500,355.072 254.071,355.404 253.739 C 355.736 253.407,355.888 252.942,355.742 252.706 C 355.596 252.470,355.655 252.387,355.874 252.522 C 356.092 252.657,356.672 252.055,357.161 251.184 C 357.651 250.313,358.220 249.600,358.426 249.600 C 358.632 249.600,358.800 249.356,358.800 249.058 C 358.800 248.761,359.250 248.031,359.800 247.438 C 360.350 246.844,360.800 246.270,360.800 246.163 C 360.800 246.055,360.983 245.749,361.207 245.483 C 362.825 243.564,363.200 243.017,363.200 242.572 C 363.200 242.294,363.335 242.007,363.500 241.933 C 363.849 241.778,368.400 235.726,368.400 235.417 C 368.400 235.303,368.660 234.892,368.977 234.505 C 370.037 233.210,376.000 224.779,376.000 224.575 C 376.000 224.464,376.540 223.845,377.200 223.200 C 378.311 222.114,378.840 220.400,378.065 220.400 C 377.881 220.400,376.835 219.545,375.741 218.500 C 369.766 212.795,365.903 209.200,365.748 209.200 C 365.355 209.200,363.297 206.837,363.506 206.627 C 363.631 206.502,363.541 206.400,363.306 206.400 C 363.072 206.400,361.422 204.934,359.640 203.143 C 357.858 201.351,356.400 200.011,356.400 200.163 C 356.400 200.316,355.980 199.988,355.467 199.434 C 354.782 198.696,354.415 198.545,354.089 198.871 C 353.763 199.197,353.705 199.086,353.869 198.458 C 354.039 197.806,353.914 197.601,353.347 197.606 C 352.718 197.611,352.695 197.674,353.200 198.000 M332.194 314.800 C 332.194 344.610,332.242 356.805,332.300 341.900 C 332.358 326.995,332.358 302.605,332.300 287.700 C 332.242 272.795,332.194 284.990,332.194 314.800 M347.648 264.143 C 347.317 264.541,347.225 280.452,347.300 323.843 L 347.403 383.000 347.501 323.780 C 347.577 278.364,347.712 264.448,348.080 264.080 C 348.344 263.816,348.456 263.600,348.329 263.600 C 348.202 263.600,347.895 263.844,347.648 264.143 M331.276 383.899 C 334.068 383.967,338.748 383.968,341.676 383.899 C 344.604 383.831,342.320 383.775,336.600 383.774 C 330.880 383.774,328.484 383.830,331.276 383.899 " stroke="none" fill="#492414" fill-rule="evenodd"></path></g></svg>