<svg id="svg" version="1.1" xmlns="http://www.w3.org/2000/svg" xmlns:xlink="http://www.w3.org/1999/xlink" width="400" height="355.3935860058309" viewBox="0, 0, 400,355.3935860058309"><g id="svgg"><path id="path0" d="M179.010 20.844 L 158.167 41.689 163.411 46.939 L 168.655 52.189 184.325 36.520 L 199.996 20.852 226.018 46.796 L 252.041 72.741 252.118 62.583 L 252.194 52.426 251.438 51.504 C 250.488 50.348,200.208 0.000,200.003 0.000 C 199.920 0.000,190.473 9.380,179.010 20.844 M102.915 188.484 L 102.915 324.198 128.717 324.198 L 154.519 324.198 154.519 300.776 L 154.519 277.353 206.633 225.171 C 235.295 196.471,268.094 163.704,279.519 152.355 C 290.944 141.007,300.292 131.669,300.292 131.604 C 300.292 131.540,285.893 131.489,268.294 131.491 L 236.297 131.495 235.073 132.600 C 234.400 133.207,232.235 135.261,230.263 137.164 C 222.745 144.417,219.775 147.268,213.703 153.061 C 207.638 158.847,204.597 161.761,197.230 168.842 C 195.306 170.691,192.096 173.768,190.096 175.679 C 181.942 183.472,174.259 190.830,169.534 195.372 C 164.091 200.604,159.245 205.240,156.851 207.505 L 154.665 209.575 154.591 131.172 L 154.518 52.770 128.717 52.770 L 102.915 52.770 102.915 188.484 M199.914 258.385 C 196.099 271.732,192.983 282.805,192.990 282.990 C 192.997 283.176,202.273 292.523,213.602 303.763 L 234.201 324.198 265.934 324.198 C 283.388 324.198,297.668 324.149,297.668 324.088 C 297.668 323.866,273.232 299.490,247.224 273.769 C 232.556 259.262,217.621 244.404,214.037 240.752 C 210.452 237.099,207.369 234.112,207.186 234.114 C 206.993 234.115,203.907 244.417,199.914 258.385 M128.280 340.814 L 128.280 348.101 107.799 348.178 C 96.534 348.220,124.413 348.287,169.752 348.326 L 252.187 348.397 252.187 340.962 L 252.187 333.528 190.233 333.528 L 128.280 333.528 128.280 340.814 " stroke="none" fill="#bb2324" fill-rule="evenodd"></path><path id="path1" d="M76.385 89.139 L 76.385 123.468 50.428 149.426 L 24.472 175.384 40.224 198.742 L 55.977 222.101 55.977 285.297 L 55.977 348.492 79.640 348.299 C 92.655 348.192,108.923 348.105,115.792 348.105 L 128.280 348.105 128.280 340.816 L 128.280 333.528 99.563 333.528 L 70.845 333.528 70.840 275.437 L 70.834 217.347 57.268 197.246 L 43.702 177.145 67.332 153.514 L 90.962 129.882 90.962 92.346 L 90.962 54.810 83.673 54.810 L 76.385 54.810 76.385 89.139 " stroke="none" fill="#e76424" fill-rule="evenodd"></path><path id="path2" d="M333.819 144.362 L 333.819 154.662 345.063 165.908 L 356.307 177.155 352.477 182.819 C 341.165 199.553,339.174 202.547,338.798 203.397 C 338.645 203.743,338.383 204.110,338.215 204.213 C 337.856 204.435,335.395 208.189,335.356 208.574 C 335.341 208.720,335.118 208.958,334.860 209.102 C 334.601 209.247,334.457 209.474,334.539 209.606 C 334.621 209.738,334.492 210.009,334.253 210.207 C 333.871 210.524,333.819 218.788,333.819 279.318 L 333.819 348.070 332.726 348.182 C 332.125 348.244,334.421 348.298,337.828 348.302 L 344.023 348.309 344.023 285.192 L 344.023 222.074 345.712 219.565 C 348.688 215.144,357.100 202.682,361.674 195.918 C 364.114 192.310,368.227 186.212,370.814 182.366 L 375.517 175.373 355.762 155.598 C 344.896 144.722,335.514 135.426,334.913 134.942 L 333.819 134.062 333.819 144.362 M329.297 275.510 C 329.297 307.500,329.332 320.587,329.373 304.592 C 329.415 288.597,329.415 262.423,329.373 246.429 C 329.332 230.434,329.297 243.520,329.297 275.510 " stroke="none" fill="#592413" fill-rule="evenodd"></path><path id="path3" d="M251.550 51.622 C 252.178 52.360,252.187 52.508,252.187 62.528 L 252.187 72.685 251.531 72.144 C 250.328 71.152,295.140 116.026,298.324 119.002 L 301.458 121.931 301.458 111.657 L 301.458 101.382 276.186 76.129 C 262.286 62.239,251.200 51.211,251.550 51.622 M297.652 134.329 L 296.647 135.423 297.741 134.418 C 298.342 133.865,298.834 133.373,298.834 133.325 C 298.834 133.102,298.587 133.312,297.652 134.329 M256.268 175.364 C 255.074 176.567,254.162 177.551,254.242 177.551 C 254.322 177.551,255.365 176.567,256.560 175.364 C 257.754 174.162,258.666 173.178,258.586 173.178 C 258.506 173.178,257.463 174.162,256.268 175.364 M216.035 242.937 C 216.035 242.981,217.052 243.998,218.294 245.197 L 220.554 247.376 218.375 245.117 C 216.351 243.018,216.035 242.724,216.035 242.937 M228.863 319.096 C 231.666 321.902,234.024 324.198,234.105 324.198 C 234.185 324.198,231.957 321.902,229.155 319.096 C 226.352 316.290,223.993 313.994,223.913 313.994 C 223.833 313.994,226.060 316.290,228.863 319.096 M252.187 341.009 L 252.187 348.490 258.965 348.298 C 262.693 348.193,273.779 348.106,283.601 348.106 L 301.458 348.105 301.458 340.816 L 301.458 333.528 276.822 333.528 L 252.187 333.528 252.187 341.009 " stroke="none" fill="#881c1b" fill-rule="evenodd"></path><path id="path4" d="M299.790 99.936 L 301.458 101.620 301.458 111.806 L 301.458 121.992 299.781 120.403 C 298.859 119.529,306.108 126.848,315.889 136.667 L 333.673 154.521 333.750 144.274 L 333.827 134.027 334.479 134.565 C 334.838 134.861,326.866 126.811,316.765 116.677 C 306.663 106.542,298.336 98.251,298.261 98.251 C 298.185 98.251,298.873 99.009,299.790 99.936 M332.872 212.001 C 332.431 212.621,332.070 213.234,332.070 213.364 C 332.070 213.494,331.746 213.905,331.350 214.277 C 330.954 214.649,330.700 215.066,330.784 215.203 C 330.869 215.340,330.814 215.452,330.663 215.452 C 329.394 215.452,329.440 213.210,329.445 275.213 L 329.449 333.528 315.453 333.528 L 301.458 333.528 301.458 340.814 L 301.458 348.101 281.414 348.182 C 270.390 348.226,277.595 348.260,297.425 348.257 C 317.255 348.253,333.556 348.174,333.650 348.080 C 333.744 347.986,333.787 317.077,333.747 279.392 L 333.673 210.875 332.872 212.001 " stroke="none" fill="#681c14" fill-rule="evenodd"></path></g></svg>