<svg id="svg" version="1.1" xmlns="http://www.w3.org/2000/svg" xmlns:xlink="http://www.w3.org/1999/xlink" width="400" height="400" viewBox="0, 0, 400,400"><g id="svgg"><path id="path0" d="M383.460 14.900 C 382.767 15.615,381.570 17.007,380.800 17.992 C 380.030 18.978,378.255 20.958,376.855 22.392 C 375.455 23.827,374.105 25.285,373.855 25.634 C 372.894 26.974,369.684 30.598,367.000 33.373 C 363.494 36.998,362.053 38.637,360.036 41.296 C 359.158 42.453,357.953 43.760,357.358 44.200 C 356.763 44.640,354.464 47.160,352.249 49.800 C 350.033 52.440,347.136 55.683,345.810 57.006 C 343.124 59.688,340.400 62.748,340.400 63.086 C 340.400 63.207,338.915 64.823,337.100 66.678 L 333.800 70.051 333.600 174.564 C 333.454 251.078,333.280 279.228,332.950 279.639 C 332.703 279.947,332.405 280.740,332.289 281.400 C 331.384 286.545,331.130 287.735,330.813 288.326 C 330.614 288.697,330.143 290.215,329.766 291.700 C 329.390 293.185,328.928 294.400,328.741 294.400 C 328.553 294.400,328.400 294.768,328.400 295.217 C 328.400 295.666,328.041 296.419,327.602 296.890 C 327.164 297.360,326.441 298.443,325.997 299.295 C 325.553 300.147,324.832 301.229,324.395 301.698 C 323.958 302.167,323.600 302.692,323.600 302.864 C 323.600 303.144,321.299 306.704,320.798 307.200 C 320.091 307.899,318.400 310.419,318.400 310.773 C 318.400 311.008,318.143 311.200,317.828 311.200 C 317.513 311.200,315.875 312.550,314.187 314.200 C 312.499 315.850,311.062 317.200,310.993 317.200 C 310.860 317.200,309.647 318.193,307.208 320.300 C 306.380 321.015,305.420 321.600,305.075 321.600 C 304.730 321.600,304.358 321.745,304.248 321.922 C 304.139 322.099,303.048 322.751,301.824 323.370 C 300.601 323.989,299.600 324.654,299.600 324.848 C 299.600 325.041,299.283 325.200,298.896 325.200 C 298.509 325.200,297.707 325.650,297.113 326.200 C 296.500 326.769,295.553 327.201,294.917 327.202 C 294.303 327.203,292.914 327.653,291.832 328.202 C 290.750 328.751,289.573 329.200,289.217 329.200 C 288.280 329.200,284.437 330.603,283.898 331.142 C 283.646 331.394,283.242 331.600,283.000 331.600 C 281.965 331.600,281.630 332.497,282.231 333.660 C 282.555 334.287,282.996 334.800,283.210 334.800 C 283.425 334.800,283.600 335.028,283.600 335.307 C 283.600 335.586,284.372 336.621,285.316 337.607 C 287.043 339.413,290.400 343.765,290.400 344.200 C 290.400 344.328,290.585 344.651,290.811 344.917 C 291.037 345.183,292.044 346.480,293.049 347.800 C 294.054 349.120,295.128 350.470,295.435 350.800 C 295.743 351.130,296.536 351.971,297.197 352.669 C 297.859 353.367,298.400 354.132,298.400 354.369 C 298.400 354.606,298.568 354.800,298.773 354.800 C 298.978 354.800,299.247 355.115,299.371 355.500 C 299.495 355.885,300.137 356.830,300.797 357.600 C 301.458 358.370,301.999 359.109,301.999 359.242 C 302.000 359.374,302.405 359.931,302.900 360.478 C 303.395 361.025,304.340 362.160,305.000 363.000 C 305.660 363.839,306.695 365.031,307.300 365.649 C 307.905 366.267,308.400 366.944,308.400 367.153 C 308.400 367.362,308.542 367.593,308.715 367.667 C 308.888 367.740,309.892 369.105,310.946 370.700 C 311.999 372.295,313.028 373.600,313.231 373.600 C 313.434 373.600,313.600 373.863,313.600 374.185 C 313.600 374.507,314.680 375.925,316.000 377.336 C 317.320 378.747,318.400 380.022,318.400 380.168 C 318.400 380.314,318.745 380.804,319.166 381.256 C 319.948 382.095,322.400 382.028,322.400 381.168 C 322.400 380.966,322.649 380.800,322.953 380.800 C 323.256 380.800,324.021 380.276,324.653 379.636 C 325.284 378.995,326.880 377.891,328.200 377.183 C 329.520 376.474,331.149 375.378,331.819 374.747 C 332.490 374.116,333.177 373.600,333.348 373.600 C 333.518 373.600,333.908 373.375,334.215 373.100 C 335.478 371.967,335.983 371.600,336.283 371.594 C 336.587 371.587,337.873 370.539,340.713 367.982 C 341.436 367.332,342.162 366.800,342.327 366.800 C 342.743 366.800,344.479 365.377,347.082 362.900 C 348.297 361.745,349.418 360.800,349.574 360.800 C 350.231 360.800,361.524 349.159,363.400 346.548 C 363.840 345.936,364.490 345.137,364.845 344.773 C 365.199 344.408,365.823 343.546,366.231 342.855 C 366.639 342.165,367.093 341.600,367.241 341.600 C 367.388 341.600,367.812 341.015,368.184 340.300 C 369.391 337.973,369.886 337.166,370.649 336.273 C 371.062 335.790,371.756 334.721,372.191 333.897 C 372.626 333.074,373.121 332.400,373.291 332.400 C 373.461 332.400,373.600 332.126,373.600 331.792 C 373.600 331.458,374.050 330.471,374.600 329.600 C 375.150 328.729,375.600 327.847,375.600 327.640 C 375.600 327.119,376.934 324.630,377.300 324.467 C 377.465 324.393,377.600 323.926,377.600 323.428 C 377.600 322.611,378.208 320.995,379.226 319.105 C 379.432 318.723,379.600 318.048,379.600 317.603 C 379.600 317.159,380.050 315.863,380.600 314.723 C 381.150 313.583,381.600 312.155,381.600 311.549 C 381.600 310.943,381.770 310.342,381.977 310.214 C 382.184 310.086,382.475 309.173,382.623 308.186 C 382.771 307.198,383.052 306.292,383.246 306.171 C 383.441 306.051,383.600 305.074,383.600 304.000 C 383.600 302.926,383.765 301.945,383.966 301.821 C 384.167 301.696,384.459 300.246,384.613 298.597 C 384.768 296.949,385.053 295.600,385.247 295.600 C 385.441 295.600,385.600 293.656,385.600 291.280 C 385.600 288.357,385.762 286.798,386.100 286.460 C 387.002 285.558,387.037 14.763,386.135 14.103 C 385.138 13.374,384.859 13.457,383.460 14.900 M173.538 18.033 C 136.697 18.219,114.199 18.477,113.738 18.719 C 113.332 18.933,112.010 19.238,110.800 19.398 C 109.590 19.558,107.790 20.058,106.800 20.510 C 105.810 20.963,104.052 21.415,102.893 21.517 C 101.734 21.618,100.688 21.858,100.569 22.050 C 100.450 22.243,99.913 22.400,99.376 22.400 C 98.839 22.400,98.400 22.555,98.400 22.744 C 98.400 22.934,97.349 23.184,96.065 23.301 C 94.780 23.417,93.385 23.691,92.965 23.910 C 92.544 24.128,91.660 24.529,91.000 24.800 C 90.340 25.071,89.530 25.449,89.200 25.639 C 87.690 26.512,85.193 27.600,84.702 27.600 C 84.404 27.600,83.989 27.756,83.780 27.947 C 83.571 28.138,82.500 28.621,81.400 29.019 C 80.300 29.417,78.861 30.116,78.202 30.572 C 76.780 31.555,74.983 32.618,73.600 33.294 C 73.050 33.564,72.510 33.887,72.400 34.013 C 72.290 34.139,71.531 34.553,70.714 34.933 C 69.897 35.313,68.997 35.953,68.714 36.355 C 68.431 36.756,67.827 37.203,67.371 37.347 C 66.914 37.491,66.194 37.924,65.771 38.308 C 65.347 38.692,64.491 39.333,63.869 39.733 C 63.247 40.132,62.347 40.795,61.869 41.205 C 61.391 41.616,60.550 42.338,60.000 42.810 C 59.450 43.283,58.371 44.149,57.603 44.735 C 55.730 46.162,46.954 54.954,45.199 57.160 C 44.430 58.127,43.485 59.202,43.100 59.548 C 42.715 59.895,42.400 60.338,42.400 60.535 C 42.400 60.731,41.539 61.906,40.487 63.146 C 39.435 64.386,38.224 66.075,37.796 66.900 C 37.368 67.725,36.879 68.400,36.709 68.400 C 36.539 68.400,36.400 68.588,36.400 68.817 C 36.400 69.046,36.039 69.621,35.598 70.094 C 35.157 70.567,34.421 71.730,33.963 72.677 C 33.504 73.625,32.965 74.400,32.764 74.400 C 32.564 74.400,32.400 74.655,32.400 74.968 C 32.400 75.492,31.259 77.940,30.800 78.400 C 30.243 78.958,29.298 80.793,27.661 84.495 C 27.297 85.318,26.865 85.993,26.700 85.995 C 26.535 85.998,26.400 86.350,26.400 86.779 C 26.400 87.207,25.950 88.404,25.400 89.438 C 24.850 90.473,24.400 91.742,24.400 92.260 C 24.400 92.777,24.228 93.200,24.018 93.200 C 23.808 93.200,23.518 93.830,23.374 94.600 C 23.229 95.370,22.951 96.000,22.755 96.000 C 22.560 96.000,22.394 96.405,22.387 96.900 C 22.373 97.858,21.093 101.841,20.659 102.275 C 20.516 102.417,20.400 102.998,20.400 103.567 C 20.400 104.135,20.024 105.588,19.565 106.795 C 19.106 108.003,18.570 110.163,18.373 111.595 C 17.495 117.982,17.103 120.247,16.764 120.895 C 16.564 121.277,16.400 123.651,16.400 126.171 C 16.400 128.794,16.229 130.858,16.000 131.000 C 15.151 131.524,15.481 380.968,16.331 381.738 C 17.607 382.893,184.683 382.741,185.925 381.584 C 187.057 380.530,187.021 380.065,185.694 378.564 C 185.092 377.884,183.520 376.108,182.200 374.618 C 180.880 373.127,179.530 371.543,179.200 371.097 C 178.870 370.651,177.925 369.555,177.100 368.662 C 176.275 367.769,175.600 366.926,175.600 366.787 C 175.600 366.649,175.150 366.294,174.600 366.000 C 174.050 365.706,173.600 365.291,173.600 365.078 C 173.600 364.866,173.150 364.275,172.600 363.765 C 172.050 363.255,171.600 362.732,171.600 362.602 C 171.600 362.472,170.983 361.698,170.229 360.883 C 169.474 360.067,168.329 358.680,167.684 357.800 C 166.391 356.038,164.615 354.400,163.997 354.400 C 163.779 354.400,163.600 354.212,163.600 353.983 C 163.600 353.753,163.150 353.080,162.600 352.487 C 162.050 351.893,161.600 351.291,161.600 351.149 C 161.600 351.006,160.835 350.102,159.900 349.139 C 158.965 348.176,157.840 346.889,157.400 346.278 C 156.960 345.667,155.700 344.208,154.600 343.034 C 150.242 338.387,148.969 336.936,148.244 335.792 C 147.191 334.130,144.701 331.615,144.100 331.607 C 143.825 331.603,143.600 331.244,143.600 330.809 C 143.600 330.374,143.150 329.724,142.600 329.363 C 142.050 329.003,141.600 328.478,141.600 328.197 C 141.600 327.236,140.284 327.200,104.967 327.200 L 69.600 327.200 69.600 268.369 L 69.600 209.539 70.700 210.869 C 71.305 211.601,71.935 212.260,72.100 212.333 C 72.265 212.407,72.400 212.655,72.400 212.886 C 72.400 213.117,73.030 213.900,73.800 214.626 C 74.570 215.352,75.200 216.061,75.200 216.202 C 75.200 216.342,75.425 216.690,75.700 216.974 C 75.975 217.258,76.830 218.263,77.600 219.207 C 80.468 222.722,83.785 226.400,84.088 226.400 C 84.259 226.400,84.400 226.601,84.400 226.847 C 84.400 227.093,84.895 227.865,85.500 228.561 C 86.105 229.258,87.140 230.522,87.800 231.370 C 88.460 232.218,89.181 233.111,89.402 233.356 C 89.623 233.600,90.883 235.057,92.202 236.592 C 93.521 238.128,95.185 240.001,95.900 240.754 C 96.615 241.507,97.200 242.262,97.200 242.433 C 97.200 242.603,97.426 242.981,97.701 243.271 C 97.977 243.562,99.445 245.285,100.964 247.100 C 102.482 248.915,103.877 250.400,104.063 250.400 C 104.248 250.400,104.400 250.604,104.400 250.854 C 104.400 251.104,104.824 251.701,105.343 252.182 C 105.861 252.662,106.356 253.240,106.443 253.466 C 106.672 254.062,109.448 257.372,112.100 260.208 C 113.365 261.561,114.400 262.812,114.400 262.988 C 114.400 263.164,114.815 263.693,115.322 264.163 C 115.829 264.633,116.370 265.346,116.524 265.747 C 116.678 266.148,117.124 266.560,117.515 266.662 C 117.906 266.764,118.473 267.407,118.776 268.090 C 119.078 268.773,120.467 270.517,121.861 271.966 C 123.256 273.415,124.397 274.753,124.398 274.940 C 124.399 275.126,125.255 276.122,126.300 277.152 C 127.345 278.182,128.441 279.487,128.735 280.052 C 129.030 280.617,129.930 281.794,130.735 282.667 C 133.096 285.226,134.400 286.777,134.400 287.025 C 134.400 287.420,135.520 288.400,135.971 288.400 C 136.207 288.400,136.400 288.670,136.400 289.000 C 136.400 289.330,136.580 289.600,136.800 289.600 C 137.020 289.600,137.200 289.851,137.200 290.157 C 137.200 290.464,137.470 290.818,137.800 290.945 C 138.130 291.071,138.400 291.436,138.400 291.754 C 138.400 292.073,138.555 292.393,138.744 292.467 C 138.933 292.540,140.126 293.828,141.394 295.329 C 142.662 296.830,144.307 298.648,145.049 299.369 C 145.792 300.091,146.400 300.888,146.400 301.140 C 146.400 301.393,146.580 301.600,146.800 301.600 C 147.020 301.600,147.200 301.870,147.200 302.200 C 147.200 302.530,147.470 302.800,147.800 302.800 C 148.130 302.800,148.400 302.997,148.400 303.237 C 148.400 303.780,149.625 305.369,152.128 308.073 C 153.189 309.219,154.622 310.886,155.314 311.778 C 156.005 312.670,156.964 313.779,157.444 314.243 C 157.925 314.706,158.761 315.786,159.304 316.643 C 159.846 317.499,161.231 319.190,162.382 320.400 C 163.532 321.610,164.949 323.230,165.529 324.000 C 166.110 324.770,166.951 325.760,167.399 326.200 C 167.846 326.640,168.643 327.630,169.170 328.400 C 170.266 330.001,170.784 330.610,173.466 333.444 C 174.530 334.569,175.760 335.997,176.200 336.619 C 176.640 337.241,177.376 338.161,177.836 338.664 C 178.296 339.167,179.016 340.045,179.436 340.615 C 180.678 342.301,181.874 343.723,183.691 345.671 C 184.631 346.679,185.801 348.021,186.291 348.652 C 186.780 349.283,187.725 350.409,188.391 351.154 C 189.056 351.899,189.600 352.632,189.600 352.782 C 189.600 352.933,190.095 353.612,190.700 354.293 C 191.305 354.973,192.610 356.469,193.600 357.617 C 196.041 360.448,196.398 360.800,196.829 360.800 C 197.033 360.800,197.200 361.076,197.200 361.413 C 197.200 361.749,197.470 362.129,197.800 362.255 C 198.130 362.382,198.400 362.736,198.400 363.043 C 198.400 363.349,198.580 363.600,198.800 363.600 C 199.020 363.600,199.202 363.825,199.205 364.100 C 199.211 364.602,202.667 368.691,205.100 371.073 C 205.815 371.773,206.400 372.498,206.400 372.684 C 206.400 372.870,206.715 373.306,207.100 373.653 C 207.485 373.999,208.790 375.591,210.000 377.189 C 212.677 380.724,215.347 383.600,215.952 383.600 C 216.198 383.600,216.406 383.915,216.413 384.300 C 216.421 384.685,217.244 385.900,218.243 387.000 C 219.243 388.100,220.617 389.855,221.297 390.900 L 222.535 392.800 261.467 392.800 L 300.400 392.800 300.400 391.631 C 300.400 390.943,299.947 389.915,299.300 389.136 C 298.695 388.407,297.840 387.377,297.400 386.847 C 296.960 386.316,296.195 385.467,295.700 384.959 C 295.205 384.452,294.800 383.884,294.800 383.699 C 294.800 383.513,294.080 382.612,293.200 381.696 C 292.320 380.780,291.600 379.934,291.600 379.815 C 291.600 379.697,291.285 379.272,290.900 378.871 C 289.303 377.209,287.600 375.206,287.600 374.992 C 287.600 374.865,287.150 374.345,286.600 373.835 C 286.050 373.325,285.600 372.795,285.600 372.657 C 285.600 372.366,284.282 370.786,282.700 369.179 C 282.095 368.564,281.598 367.913,281.597 367.731 C 281.595 367.549,280.702 366.500,279.613 365.400 C 278.525 364.300,277.626 363.241,277.617 363.046 C 277.608 362.851,277.192 362.311,276.693 361.846 C 276.194 361.381,275.249 360.284,274.593 359.408 C 272.946 357.210,271.974 356.046,270.775 354.835 C 270.211 354.266,269.224 353.080,268.582 352.200 C 267.940 351.320,266.866 350.060,266.195 349.400 C 265.525 348.740,264.585 347.563,264.107 346.784 C 263.629 346.005,262.421 344.565,261.422 343.584 C 260.423 342.603,259.605 341.579,259.603 341.308 C 259.601 341.038,258.700 339.926,257.600 338.838 C 256.500 337.749,255.598 336.711,255.596 336.529 C 255.593 336.348,254.514 335.040,253.198 333.622 C 251.882 332.205,250.701 330.720,250.575 330.322 C 250.449 329.925,250.178 329.600,249.973 329.600 C 249.768 329.600,249.600 329.422,249.600 329.205 C 249.600 328.988,248.700 327.906,247.600 326.800 C 246.500 325.694,245.600 324.655,245.600 324.491 C 245.600 324.326,244.921 323.474,244.091 322.596 C 243.261 321.718,242.051 320.280,241.402 319.400 C 240.121 317.664,238.434 315.684,236.700 313.882 C 236.095 313.253,235.600 312.511,235.600 312.233 C 235.600 311.956,235.150 311.523,234.600 311.273 C 234.050 311.022,233.595 310.588,233.589 310.309 C 233.580 309.849,231.683 307.509,229.599 305.386 C 229.160 304.938,228.797 304.398,228.794 304.186 C 228.784 303.613,226.565 301.200,226.047 301.200 C 225.801 301.200,225.600 301.012,225.600 300.783 C 225.600 300.553,225.150 299.880,224.600 299.287 C 224.050 298.693,223.600 298.068,223.600 297.897 C 223.600 297.726,223.005 297.004,222.279 296.293 C 221.552 295.582,220.224 294.010,219.328 292.800 C 218.432 291.590,217.226 290.164,216.649 289.630 C 216.072 289.097,215.600 288.518,215.600 288.344 C 215.600 288.170,215.103 287.519,214.496 286.898 C 213.888 286.277,212.673 284.875,211.796 283.784 C 210.918 282.693,210.065 281.740,209.900 281.667 C 209.735 281.593,209.600 281.364,209.600 281.156 C 209.600 280.774,207.584 278.383,206.300 277.244 C 205.915 276.902,205.600 276.496,205.600 276.342 C 205.600 276.188,205.105 275.552,204.500 274.928 C 203.095 273.481,200.830 270.795,199.800 269.356 C 198.778 267.927,197.009 265.833,195.106 263.800 C 194.282 262.920,193.607 262.059,193.604 261.887 C 193.602 261.714,193.105 261.073,192.500 260.462 C 190.896 258.840,189.600 257.240,189.600 256.879 C 189.600 256.706,188.925 255.835,188.100 254.942 C 187.275 254.050,185.790 252.365,184.800 251.197 C 183.810 250.029,182.723 248.787,182.385 248.437 C 182.047 248.087,181.243 247.080,180.599 246.200 C 179.956 245.320,179.242 244.374,179.014 244.097 C 178.787 243.820,178.150 243.047,177.600 242.378 C 177.050 241.710,175.475 239.960,174.100 238.490 C 172.725 237.020,171.600 235.601,171.600 235.337 C 171.600 235.074,171.150 234.504,170.600 234.071 C 170.050 233.639,169.600 233.086,169.600 232.842 C 169.600 232.599,169.432 232.400,169.227 232.400 C 169.022 232.400,168.738 232.035,168.597 231.589 C 168.455 231.143,167.273 229.709,165.970 228.402 C 164.666 227.094,163.600 225.875,163.600 225.691 C 163.600 225.508,162.700 224.439,161.600 223.315 C 160.500 222.192,159.600 221.077,159.600 220.837 C 159.600 220.596,159.432 220.400,159.227 220.400 C 159.022 220.400,158.750 220.085,158.623 219.700 C 158.495 219.315,157.538 218.068,156.496 216.928 C 155.453 215.788,153.700 213.834,152.600 212.586 C 151.500 211.338,150.375 210.078,150.100 209.787 C 149.200 208.833,149.532 208.385,155.900 201.981 C 159.365 198.496,162.432 195.409,162.715 195.122 C 162.998 194.835,165.158 192.666,167.515 190.301 C 169.872 187.937,172.533 185.237,173.428 184.301 C 174.323 183.366,175.626 182.060,176.322 181.400 C 177.018 180.740,179.040 178.670,180.816 176.800 C 182.592 174.930,184.230 173.220,184.456 173.000 C 190.800 166.812,193.604 163.940,193.973 163.251 C 194.223 162.783,194.617 162.400,194.849 162.400 C 195.401 162.400,199.361 158.401,199.710 157.490 C 199.860 157.100,200.279 156.668,200.642 156.529 C 201.004 156.389,201.863 155.668,202.551 154.926 C 203.781 153.597,205.556 151.845,208.237 149.313 C 208.987 148.606,209.600 147.751,209.600 147.413 C 209.600 147.076,209.777 146.800,209.993 146.800 C 210.452 146.800,212.330 145.180,214.133 143.229 C 215.529 141.718,216.036 141.222,218.160 139.290 C 218.952 138.569,219.600 137.808,219.600 137.599 C 219.600 137.390,220.050 136.924,220.600 136.563 C 221.150 136.203,221.600 135.659,221.600 135.354 C 221.600 135.049,221.779 134.800,221.999 134.800 C 222.631 134.800,225.600 131.965,225.600 131.361 C 225.600 131.061,226.005 130.707,226.500 130.574 C 226.995 130.442,228.120 129.431,229.000 128.329 C 230.917 125.928,233.080 123.691,234.535 122.605 C 235.121 122.168,235.600 121.583,235.600 121.305 C 235.600 121.027,235.757 120.800,235.949 120.800 C 236.141 120.800,237.266 119.787,238.449 118.550 C 240.965 115.917,245.733 111.145,247.656 109.334 C 252.157 105.093,253.185 103.345,251.920 102.080 C 251.553 101.713,242.576 101.600,213.952 101.600 L 176.463 101.600 173.532 104.263 C 169.044 108.340,168.423 108.966,168.411 109.428 C 168.405 109.664,167.730 110.384,166.912 111.028 C 164.757 112.725,157.204 120.168,157.180 120.618 C 157.169 120.828,156.255 121.720,155.148 122.600 C 154.042 123.480,152.439 124.920,151.587 125.800 C 147.461 130.064,143.604 133.917,142.368 135.011 C 141.616 135.677,140.370 136.909,139.600 137.749 C 136.645 140.972,85.028 192.000,84.722 192.000 C 84.545 192.000,84.400 192.183,84.400 192.407 C 84.400 192.814,83.064 194.156,80.029 196.800 C 79.145 197.570,78.417 198.338,78.411 198.507 C 78.399 198.837,76.667 200.543,74.054 202.800 C 73.162 203.570,72.425 204.425,72.416 204.700 C 72.407 204.975,72.263 205.200,72.096 205.200 C 71.929 205.200,71.299 205.657,70.696 206.216 L 69.600 207.232 69.600 170.211 C 69.600 147.476,69.747 132.921,69.982 132.495 C 70.191 132.113,70.477 130.405,70.616 128.700 C 70.755 126.995,71.033 125.600,71.234 125.600 C 71.435 125.600,71.600 124.700,71.600 123.600 C 71.600 122.500,71.777 121.600,71.992 121.600 C 72.208 121.600,72.504 121.105,72.649 120.500 C 72.795 119.895,73.224 118.770,73.603 118.000 C 73.982 117.230,74.414 115.925,74.564 115.100 C 74.714 114.275,74.963 113.599,75.118 113.597 C 75.453 113.593,76.400 111.646,76.400 110.961 C 76.400 110.697,76.940 109.455,77.600 108.200 C 78.260 106.945,78.800 105.667,78.800 105.359 C 78.800 105.052,78.980 104.800,79.200 104.800 C 79.420 104.800,79.600 104.502,79.600 104.138 C 79.600 103.774,80.050 102.886,80.600 102.164 C 81.150 101.443,81.600 100.602,81.600 100.294 C 81.600 99.987,82.020 99.511,82.532 99.236 C 83.045 98.962,83.800 98.166,84.210 97.469 C 84.620 96.771,85.145 95.999,85.378 95.752 C 85.610 95.506,86.610 94.352,87.600 93.188 C 89.854 90.538,91.411 88.997,93.194 87.652 C 94.618 86.578,96.502 84.997,97.427 84.100 C 97.711 83.825,98.058 83.600,98.198 83.600 C 98.339 83.600,99.043 83.150,99.764 82.600 C 100.486 82.050,101.214 81.600,101.384 81.600 C 101.554 81.600,102.551 80.970,103.600 80.200 C 104.649 79.430,105.815 78.800,106.192 78.800 C 106.568 78.800,107.354 78.555,107.938 78.255 C 109.159 77.629,111.390 76.813,112.700 76.513 C 113.195 76.399,113.600 76.148,113.600 75.953 C 113.600 75.759,114.309 75.600,115.176 75.600 C 116.043 75.600,116.864 75.420,117.000 75.200 C 117.136 74.980,117.665 74.800,118.175 74.800 C 118.685 74.800,119.326 74.530,119.600 74.200 C 120.039 73.671,128.936 73.600,195.249 73.600 L 270.400 73.600 270.400 110.720 C 270.400 139.058,270.514 147.954,270.880 148.320 C 271.589 149.029,273.186 148.903,273.489 148.113 C 273.633 147.736,274.843 146.042,276.176 144.350 C 277.509 142.658,279.050 140.686,279.600 139.967 C 280.150 139.248,280.825 138.434,281.100 138.158 C 281.375 137.883,281.600 137.374,281.600 137.029 C 281.600 136.683,281.737 136.400,281.905 136.400 C 282.270 136.400,285.597 132.204,285.608 131.730 C 285.612 131.549,286.248 130.680,287.022 129.800 C 287.795 128.920,288.981 127.345,289.656 126.300 C 290.331 125.255,291.004 124.400,291.151 124.400 C 291.298 124.400,291.757 123.770,292.172 123.000 C 292.587 122.230,293.078 121.600,293.263 121.600 C 293.448 121.600,293.600 121.412,293.600 121.183 C 293.600 120.953,294.050 120.280,294.600 119.687 C 295.150 119.093,295.600 118.463,295.600 118.287 C 295.600 118.110,296.050 117.480,296.600 116.887 C 297.150 116.293,297.600 115.663,297.600 115.485 C 297.600 115.307,298.008 114.765,298.508 114.281 C 299.602 113.219,301.600 110.564,301.600 110.173 C 301.600 110.018,302.050 109.475,302.600 108.965 C 303.150 108.455,303.600 107.841,303.600 107.600 C 303.600 107.359,304.050 106.745,304.600 106.235 C 305.150 105.725,305.600 105.186,305.600 105.037 C 305.600 104.887,306.050 104.280,306.600 103.687 C 307.150 103.093,307.603 102.426,307.608 102.204 C 307.612 101.982,308.242 101.082,309.008 100.204 L 310.400 98.609 310.400 85.277 L 310.400 71.945 308.000 68.568 C 306.680 66.711,305.600 65.095,305.600 64.978 C 305.600 64.861,305.150 64.280,304.600 63.687 C 304.050 63.093,303.600 62.464,303.600 62.287 C 303.600 62.111,303.417 61.749,303.193 61.483 C 302.657 60.847,300.309 57.650,299.800 56.862 C 299.580 56.522,299.262 56.054,299.093 55.822 C 296.564 52.346,294.400 49.105,294.400 48.794 C 294.400 48.577,294.220 48.400,294.000 48.400 C 293.780 48.400,293.600 48.212,293.600 47.983 C 293.600 47.753,293.150 47.080,292.600 46.487 C 292.050 45.893,291.600 45.264,291.600 45.087 C 291.600 44.911,291.417 44.549,291.193 44.283 C 290.969 44.017,289.773 42.360,288.535 40.600 C 287.297 38.840,286.130 37.340,285.942 37.267 C 285.754 37.193,285.600 36.788,285.600 36.367 C 285.600 35.945,285.465 35.596,285.300 35.591 C 285.135 35.586,284.370 34.690,283.600 33.600 C 282.830 32.510,282.065 31.614,281.900 31.609 C 281.735 31.604,281.600 31.317,281.600 30.971 C 281.600 30.626,281.375 30.092,281.100 29.785 C 280.024 28.586,279.600 28.024,279.600 27.800 C 279.600 27.671,278.835 26.560,277.900 25.331 C 276.965 24.102,276.020 22.812,275.800 22.465 C 275.580 22.118,275.192 21.605,274.937 21.326 C 274.683 21.046,274.235 20.276,273.942 19.615 C 272.922 17.309,283.639 17.478,173.538 18.033 M213.900 228.032 C 213.515 228.256,213.205 228.836,213.212 229.320 C 213.224 230.180,213.235 230.182,213.678 229.400 C 213.927 228.960,214.327 228.468,214.566 228.306 C 215.690 227.545,257.046 227.967,257.752 228.747 C 258.368 229.428,258.426 231.314,258.407 250.319 C 258.394 264.018,258.526 271.231,258.793 271.396 C 259.067 271.565,259.200 264.758,259.200 250.605 L 259.200 229.564 258.218 228.582 L 257.236 227.600 235.918 227.612 C 222.184 227.620,214.351 227.769,213.900 228.032 " stroke="none" fill="#bc2324" fill-rule="evenodd"></path><path id="path1" d="M255.424 166.203 C 254.996 166.531,254.117 166.800,253.470 166.800 C 251.789 166.800,249.136 167.619,248.200 168.426 C 247.760 168.806,246.458 169.242,245.308 169.395 C 244.157 169.548,242.807 169.989,242.308 170.376 C 241.808 170.762,240.899 171.200,240.287 171.350 C 239.674 171.500,238.869 171.977,238.498 172.411 C 238.126 172.845,237.670 173.200,237.484 173.200 C 237.299 173.200,236.557 173.650,235.836 174.200 C 235.114 174.750,234.250 175.200,233.915 175.200 C 233.580 175.200,232.427 176.204,231.353 177.431 C 228.861 180.278,224.867 184.371,223.575 185.402 C 222.011 186.650,218.400 193.026,218.400 194.539 C 218.400 194.902,218.220 195.200,218.000 195.200 C 217.780 195.200,217.600 195.448,217.600 195.751 C 217.600 196.054,217.330 196.526,217.000 196.800 C 216.670 197.074,216.400 197.895,216.400 198.625 C 216.400 199.355,216.220 200.064,216.000 200.200 C 215.780 200.336,215.600 200.775,215.600 201.175 C 215.600 201.575,215.330 202.126,215.000 202.400 C 214.642 202.698,214.400 203.572,214.400 204.573 C 214.400 205.494,214.136 206.596,213.813 207.024 C 212.998 208.101,212.941 217.287,213.745 217.954 C 214.139 218.282,220.361 218.378,236.233 218.303 L 258.176 218.200 258.682 217.200 C 259.415 215.751,259.418 168.256,258.685 166.800 C 258.090 165.619,256.549 165.337,255.424 166.203 M268.475 228.416 L 267.600 229.231 267.600 251.016 L 267.600 272.800 290.600 272.800 L 313.600 272.800 313.600 250.664 L 313.600 228.528 312.581 228.064 C 310.487 227.110,269.526 227.436,268.475 228.416 " stroke="none" fill="#913ad2" fill-rule="evenodd"></path><path id="path2" d="M268.300 166.032 C 267.409 166.551,267.195 217.035,268.080 217.920 C 268.589 218.429,311.667 218.656,312.967 218.157 C 313.703 217.875,313.927 211.200,313.200 211.200 C 312.967 211.200,312.800 209.883,312.800 208.049 C 312.800 205.736,312.640 204.766,312.200 204.400 C 311.858 204.116,311.600 203.244,311.600 202.375 C 311.600 201.535,311.420 200.736,311.200 200.600 C 310.980 200.464,310.800 200.019,310.800 199.611 C 310.800 198.801,308.516 194.119,307.950 193.769 C 307.758 193.650,307.600 193.284,307.600 192.954 C 307.600 191.955,306.054 188.890,304.851 187.505 C 304.228 186.787,303.646 185.992,303.559 185.739 C 303.321 185.048,294.857 176.400,294.420 176.400 C 294.211 176.400,293.556 175.950,292.962 175.400 C 292.369 174.850,291.632 174.400,291.325 174.400 C 291.018 174.400,290.381 174.041,289.910 173.602 C 288.750 172.521,286.153 171.200,285.188 171.200 C 284.754 171.200,284.400 171.011,284.400 170.780 C 284.400 170.241,281.925 169.200,280.646 169.200 C 280.107 169.200,279.607 169.021,279.533 168.802 C 279.342 168.230,275.234 166.800,273.782 166.800 C 273.106 166.800,272.204 166.536,271.776 166.213 C 270.874 165.530,269.302 165.448,268.300 166.032 " stroke="none" fill="#54f423" fill-rule="evenodd"></path><path id="path3" d="M214.560 228.306 C 213.273 229.165,213.200 230.388,213.200 251.094 C 213.200 266.696,213.319 271.959,213.680 272.320 C 214.288 272.928,257.816 273.022,258.190 272.416 C 258.844 271.359,258.414 229.478,257.742 228.736 C 257.045 227.966,215.686 227.554,214.560 228.306 " stroke="none" fill="#f45424" fill-rule="evenodd"></path><path id="path4" d="" stroke="none" fill="#c05454" fill-rule="evenodd"></path></g></svg>