<svg id="svg" version="1.1" xmlns="http://www.w3.org/2000/svg" xmlns:xlink="http://www.w3.org/1999/xlink" width="400" height="400" viewBox="0, 0, 400,400"><g id="svgg"><path id="path0" d="M381.200 21.951 C 381.200 22.416,382.364 23.370,382.619 23.114 C 382.981 22.752,382.326 21.600,381.757 21.600 C 381.451 21.600,381.200 21.758,381.200 21.951 M277.200 70.800 L 259.800 71.000 256.300 72.972 C 254.182 74.165,252.800 75.196,252.800 75.583 C 252.800 76.338,251.748 77.303,249.919 78.225 C 248.312 79.035,246.000 81.174,246.000 81.852 C 246.000 82.124,245.685 82.448,245.300 82.572 C 244.344 82.880,235.200 91.694,235.200 92.308 C 235.200 92.579,234.855 92.800,234.434 92.800 C 234.013 92.800,233.158 93.351,232.534 94.024 C 231.910 94.698,230.275 96.141,228.900 97.231 C 227.525 98.321,226.400 99.480,226.400 99.807 C 226.400 100.133,226.207 100.400,225.971 100.400 C 225.735 100.400,223.948 102.020,222.000 104.000 C 220.052 105.980,218.187 107.600,217.856 107.600 C 217.525 107.600,217.136 107.973,216.991 108.429 C 216.829 108.939,216.505 109.172,216.149 109.036 C 215.829 108.913,215.461 109.097,215.327 109.447 C 215.057 110.149,209.263 116.000,208.837 116.000 C 208.690 116.000,207.969 116.990,207.236 118.200 C 206.502 119.410,205.609 120.413,205.251 120.429 C 204.280 120.473,202.185 121.837,202.300 122.352 C 202.355 122.598,202.218 122.800,201.995 122.800 C 201.303 122.800,192.400 131.351,192.400 132.016 C 192.400 132.227,192.130 132.400,191.800 132.400 C 191.457 132.400,191.200 132.760,191.200 133.243 C 191.200 133.821,191.015 134.015,190.611 133.859 C 190.286 133.735,189.881 133.876,189.711 134.172 C 189.540 134.469,188.410 135.481,187.200 136.423 C 185.990 137.364,183.825 139.364,182.389 140.867 C 180.953 142.370,179.558 143.600,179.289 143.600 C 179.020 143.600,178.800 143.851,178.800 144.157 C 178.800 144.464,178.519 144.822,178.175 144.954 C 177.831 145.086,177.669 145.388,177.815 145.624 C 177.962 145.863,177.707 146.152,177.240 146.274 C 176.778 146.394,176.396 146.697,176.391 146.947 C 176.387 147.196,175.622 147.938,174.691 148.596 C 170.810 151.342,159.871 161.600,160.824 161.600 C 161.031 161.600,161.200 161.783,161.200 162.008 C 161.200 162.243,160.777 162.309,160.200 162.164 C 159.611 162.016,159.200 162.085,159.200 162.331 C 159.200 162.805,155.186 166.800,154.710 166.800 C 154.539 166.800,154.400 167.160,154.400 167.600 C 154.400 168.133,154.133 168.400,153.600 168.400 C 153.145 168.400,152.800 168.667,152.800 169.018 C 152.800 169.357,152.570 169.582,152.290 169.518 C 152.009 169.453,151.154 170.038,150.390 170.816 C 149.625 171.594,148.280 172.760,147.400 173.406 C 146.520 174.053,144.986 175.396,143.991 176.391 C 142.996 177.386,139.756 180.483,136.791 183.274 C 133.826 186.065,130.461 189.260,129.314 190.374 C 128.167 191.488,127.087 192.404,126.914 192.409 C 126.741 192.415,126.070 193.135,125.423 194.009 C 124.776 194.884,124.095 195.600,123.910 195.600 C 123.402 195.600,117.600 201.199,117.600 201.689 C 117.600 201.860,117.398 202.000,117.151 202.000 C 116.572 202.000,111.368 206.865,111.500 207.283 C 111.555 207.457,111.285 207.604,110.900 207.609 C 110.515 207.615,109.670 208.335,109.023 209.209 C 108.376 210.084,107.720 210.800,107.564 210.800 C 107.409 210.800,105.329 212.715,102.941 215.056 C 100.553 217.397,97.700 220.065,96.600 220.986 C 93.413 223.653,88.477 228.726,88.191 229.630 C 88.038 230.112,87.700 230.370,87.383 230.249 C 86.584 229.942,84.800 232.265,84.800 233.611 C 84.800 234.243,84.574 234.904,84.298 235.080 C 83.079 235.856,82.751 238.278,82.995 244.691 C 83.652 261.995,83.440 308.587,82.633 324.200 C 82.394 328.825,83.797 332.401,86.259 333.443 C 87.326 333.895,134.902 334.399,143.182 334.046 C 145.192 333.961,147.375 332.780,147.529 331.694 C 147.599 331.196,147.803 330.878,147.982 330.989 C 148.509 331.314,148.935 301.514,148.652 284.200 C 148.343 265.332,148.699 262.179,151.599 258.142 C 152.259 257.222,152.800 256.364,152.800 256.235 C 152.800 255.981,154.026 254.566,155.083 253.600 C 155.936 252.820,160.948 248.029,166.103 243.067 C 168.350 240.904,170.687 238.840,171.295 238.480 C 171.903 238.121,172.496 237.527,172.613 237.160 C 172.729 236.793,174.360 235.077,176.236 233.346 C 178.113 231.616,180.222 229.584,180.924 228.830 C 182.587 227.045,184.573 225.157,187.900 222.200 C 189.385 220.880,192.580 217.817,195.000 215.393 C 197.420 212.970,200.030 210.510,200.800 209.927 C 201.570 209.345,202.650 208.401,203.200 207.830 C 203.750 207.259,204.905 206.119,205.766 205.296 C 206.627 204.473,208.994 202.180,211.027 200.200 C 213.060 198.220,217.835 193.630,221.639 190.000 C 225.443 186.370,229.637 182.365,230.960 181.100 C 232.283 179.835,233.464 178.800,233.584 178.800 C 233.704 178.800,235.996 176.595,238.678 173.900 C 241.360 171.205,245.013 167.650,246.796 166.000 C 252.003 161.181,259.200 153.968,259.200 153.568 C 259.200 153.366,259.429 153.200,259.708 153.200 C 259.987 153.200,263.220 150.275,266.891 146.700 C 270.563 143.125,275.587 138.310,278.056 136.000 C 283.830 130.598,284.366 130.051,286.020 127.856 C 286.779 126.849,287.590 126.019,287.823 126.012 C 288.704 125.987,300.800 114.703,300.800 113.907 C 300.800 113.508,302.111 112.201,303.025 111.690 C 303.863 111.221,314.400 100.776,314.400 100.414 C 314.400 100.278,315.412 99.275,316.648 98.184 C 320.394 94.878,324.712 90.764,327.735 87.621 C 329.311 85.982,331.095 84.187,331.700 83.631 C 332.305 83.076,332.800 82.392,332.800 82.111 C 332.800 81.830,332.996 81.600,333.236 81.600 C 333.903 81.600,340.000 75.960,340.000 75.343 C 340.000 75.044,340.155 74.800,340.344 74.800 C 340.986 74.800,343.665 71.996,343.499 71.498 C 343.136 70.407,326.568 70.233,277.200 70.800 M150.548 298.000 C 150.548 300.310,150.614 301.255,150.695 300.100 C 150.776 298.945,150.776 297.055,150.695 295.900 C 150.614 294.745,150.548 295.690,150.548 298.000 M43.467 338.667 C 43.044 339.090,43.157 343.126,43.600 343.400 C 43.851 343.555,44.000 342.671,44.000 341.024 C 44.000 338.382,43.954 338.179,43.467 338.667 M45.138 347.500 C 45.056 350.009,45.187 351.331,45.556 351.709 C 45.723 351.879,45.847 350.574,45.832 348.809 C 45.803 345.381,45.242 344.322,45.138 347.500 M15.340 355.200 C 15.340 357.070,15.409 357.835,15.493 356.900 C 15.577 355.965,15.577 354.435,15.493 353.500 C 15.409 352.565,15.340 353.330,15.340 355.200 M18.400 370.400 C 18.400 372.267,18.567 373.600,18.800 373.600 C 19.033 373.600,19.200 372.267,19.200 370.400 C 19.200 368.533,19.033 367.200,18.800 367.200 C 18.567 367.200,18.400 368.533,18.400 370.400 " stroke="none" fill="#be2825" fill-rule="evenodd"></path><path id="path1" d="M237.933 16.776 C 201.047 16.899,170.747 17.119,170.602 17.265 C 170.456 17.411,170.306 24.206,170.268 32.365 L 170.200 47.200 171.200 47.202 C 171.750 47.204,172.662 47.446,173.227 47.741 C 174.780 48.551,275.095 48.562,275.905 47.752 C 276.367 47.290,283.009 47.200,316.629 47.200 L 356.800 47.200 356.800 48.371 C 356.800 49.016,356.530 49.813,356.200 50.143 C 355.680 50.663,355.600 53.959,355.600 74.886 L 355.600 99.030 356.445 99.093 C 356.910 99.128,357.355 99.222,357.435 99.302 C 357.872 99.739,357.255 347.280,356.816 347.600 C 356.665 347.710,356.425 348.115,356.283 348.500 C 355.938 349.437,355.401 349.382,354.399 348.307 C 353.641 347.493,353.625 347.371,354.219 346.937 C 355.016 346.354,354.851 345.240,353.879 344.643 C 353.306 344.291,353.075 344.344,352.759 344.900 C 352.540 345.285,352.168 345.600,351.934 345.600 C 351.239 345.600,346.499 340.213,346.654 339.600 C 346.851 338.817,345.894 337.600,345.080 337.600 C 344.049 337.600,337.136 330.785,335.057 327.719 C 334.430 326.794,333.454 325.734,332.887 325.363 C 331.484 324.444,325.294 318.063,324.482 316.700 C 324.122 316.095,323.678 315.600,323.494 315.600 C 323.119 315.600,312.964 305.212,312.023 303.867 C 311.690 303.390,310.534 302.190,309.456 301.200 C 306.300 298.304,303.148 294.399,303.369 293.660 C 303.634 292.777,301.824 290.739,301.041 291.040 C 299.769 291.528,291.903 283.457,292.273 282.043 C 292.567 280.919,291.750 280.000,290.458 280.000 C 289.431 280.000,284.333 275.118,278.600 268.647 C 277.500 267.405,275.902 265.717,275.049 264.895 C 273.369 263.275,269.788 259.565,264.170 253.623 C 262.207 251.546,260.195 249.440,259.700 248.942 C 259.205 248.444,258.800 247.664,258.800 247.208 C 258.800 246.671,258.413 246.235,257.700 245.968 C 256.454 245.502,246.639 235.585,245.756 233.900 C 245.439 233.295,245.045 232.800,244.880 232.800 C 244.489 232.800,240.320 228.718,237.897 225.963 C 233.873 221.388,224.869 212.400,224.311 212.400 C 223.989 212.400,221.852 214.315,219.562 216.655 C 211.688 224.703,208.198 227.985,207.505 227.992 C 207.103 227.997,206.581 228.551,206.263 229.311 C 205.946 230.070,200.304 236.062,192.858 243.548 C 178.802 257.679,178.861 257.598,181.241 259.600 C 183.825 261.773,187.196 265.436,187.198 266.073 C 187.199 266.443,187.537 266.853,187.950 266.984 C 188.610 267.193,190.906 269.518,194.323 273.435 C 194.915 274.115,196.840 276.217,198.600 278.107 C 200.360 279.997,203.330 283.270,205.200 285.380 C 207.070 287.491,209.305 289.979,210.166 290.909 C 211.027 291.839,212.292 293.320,212.976 294.200 C 213.660 295.080,215.476 297.078,217.010 298.639 C 219.978 301.660,224.671 306.819,226.082 308.613 C 226.776 309.496,226.847 309.833,226.466 310.442 C 225.887 311.371,225.870 311.728,226.423 311.386 C 227.966 310.432,234.000 315.883,234.000 318.231 C 234.000 318.936,234.220 319.200,234.807 319.200 C 235.765 319.200,240.673 323.967,240.867 325.085 C 240.940 325.507,242.170 326.842,243.600 328.052 C 246.656 330.638,248.124 332.639,247.884 333.893 C 247.742 334.635,247.934 334.826,249.026 335.031 C 250.672 335.340,254.306 339.029,254.648 340.738 C 254.810 341.549,255.187 342.010,255.817 342.169 C 257.686 342.638,262.442 348.562,261.792 349.612 C 261.658 349.830,262.081 350.000,262.754 350.000 C 263.736 350.000,264.295 350.421,265.806 352.300 C 266.824 353.565,269.219 356.239,271.128 358.242 C 277.483 364.908,282.194 370.085,282.692 370.947 C 282.963 371.416,284.359 372.970,285.795 374.400 C 287.231 375.830,288.628 377.495,288.900 378.100 C 289.173 378.705,289.564 379.200,289.771 379.200 C 289.978 379.200,291.409 380.505,292.952 382.100 C 294.495 383.695,295.991 384.947,296.278 384.882 C 296.565 384.818,296.800 384.953,296.800 385.182 C 296.800 385.412,296.620 385.600,296.400 385.600 C 296.180 385.600,296.000 386.069,296.000 386.643 C 296.000 387.500,296.125 387.625,296.700 387.343 C 297.085 387.154,300.600 387.063,304.510 387.140 C 309.511 387.239,311.787 387.143,312.181 386.816 C 312.588 386.478,315.661 386.402,323.470 386.540 C 329.372 386.643,337.445 386.731,341.410 386.734 C 349.054 386.740,350.800 386.946,350.800 387.843 C 350.800 388.312,354.098 388.400,371.600 388.400 L 392.400 388.400 392.400 206.224 C 392.400 85.204,392.534 23.964,392.800 23.800 C 393.020 23.664,393.200 22.663,393.200 21.576 C 393.200 20.489,393.020 19.600,392.800 19.600 C 392.580 19.600,392.400 18.920,392.400 18.089 L 392.400 16.577 348.700 16.565 C 324.665 16.558,274.820 16.653,237.933 16.776 M121.500 17.099 C 125.515 17.165,132.085 17.165,136.100 17.099 C 140.115 17.034,136.830 16.981,128.800 16.981 C 120.770 16.981,117.485 17.034,121.500 17.099 M100.300 17.495 C 101.455 17.576,103.345 17.576,104.500 17.495 C 105.655 17.414,104.710 17.348,102.400 17.348 C 100.090 17.348,99.145 17.414,100.300 17.495 M14.667 17.867 C 14.520 18.013,14.403 18.328,14.406 18.567 C 14.410 18.846,14.518 18.833,14.711 18.530 C 14.876 18.271,15.728 17.986,16.605 17.897 L 18.200 17.734 16.567 17.667 C 15.668 17.630,14.813 17.720,14.667 17.867 M149.293 19.600 C 149.293 20.370,149.375 20.685,149.476 20.300 C 149.576 19.915,149.576 19.285,149.476 18.900 C 149.375 18.515,149.293 18.830,149.293 19.600 M382.720 22.080 C 383.382 22.742,383.321 23.200,382.571 23.200 C 381.965 23.200,380.800 22.298,380.800 21.829 C 380.800 21.407,382.235 21.595,382.720 22.080 M150.032 28.339 C 149.379 29.560,149.514 29.900,150.241 28.863 C 150.593 28.360,150.788 27.854,150.673 27.740 C 150.559 27.625,150.270 27.895,150.032 28.339 M56.327 48.300 C 61.017 48.364,68.577 48.364,73.127 48.299 C 77.677 48.235,73.840 48.183,64.600 48.183 C 55.360 48.183,51.637 48.236,56.327 48.300 M46.998 179.000 C 46.998 250.500,47.044 279.810,47.100 244.132 C 47.156 208.455,47.156 149.955,47.100 114.132 C 47.044 78.310,46.998 107.500,46.998 179.000 M81.781 72.400 C 81.781 80.650,81.834 84.025,81.899 79.900 C 81.964 75.775,81.964 69.025,81.899 64.900 C 81.834 60.775,81.781 64.150,81.781 72.400 M334.778 81.900 L 333.400 83.400 334.900 82.022 C 336.296 80.738,336.584 80.400,336.278 80.400 C 336.212 80.400,335.537 81.075,334.778 81.900 M81.763 94.000 C 81.763 97.630,81.823 99.115,81.898 97.300 C 81.972 95.485,81.972 92.515,81.898 90.700 C 81.823 88.885,81.763 90.370,81.763 94.000 M232.187 92.500 L 229.800 95.000 232.300 92.613 C 233.675 91.299,234.800 90.174,234.800 90.113 C 234.800 89.817,234.405 90.178,232.187 92.500 M322.575 94.100 L 321.400 95.400 322.700 94.225 C 323.415 93.579,324.000 92.994,324.000 92.925 C 324.000 92.616,323.670 92.888,322.575 94.100 M219.986 103.900 L 217.800 106.200 220.100 104.014 C 221.365 102.811,222.400 101.776,222.400 101.714 C 222.400 101.417,222.018 101.763,219.986 103.900 M206.000 117.000 C 205.028 117.990,204.323 118.800,204.433 118.800 C 204.543 118.800,205.428 117.990,206.400 117.000 C 207.372 116.010,208.077 115.200,207.967 115.200 C 207.857 115.200,206.972 116.010,206.000 117.000 M199.578 123.100 L 198.200 124.600 199.700 123.222 C 200.525 122.463,201.200 121.788,201.200 121.722 C 201.200 121.416,200.862 121.704,199.578 123.100 M195.775 126.500 L 194.600 127.800 195.900 126.625 C 196.615 125.979,197.200 125.394,197.200 125.325 C 197.200 125.016,196.870 125.288,195.775 126.500 M192.975 129.300 L 191.800 130.600 193.100 129.425 C 194.312 128.330,194.584 128.000,194.275 128.000 C 194.206 128.000,193.621 128.585,192.975 129.300 M150.144 134.400 C 150.144 136.490,150.212 137.345,150.294 136.300 C 150.376 135.255,150.376 133.545,150.294 132.500 C 150.212 131.455,150.144 132.310,150.144 134.400 M174.778 146.300 L 173.400 147.800 174.900 146.422 C 175.725 145.663,176.400 144.988,176.400 144.922 C 176.400 144.616,176.062 144.904,174.778 146.300 M14.165 195.600 C 14.165 199.450,14.225 201.025,14.298 199.100 C 14.371 197.175,14.371 194.025,14.298 192.100 C 14.225 190.175,14.165 191.750,14.165 195.600 M81.720 240.000 C 81.720 241.210,81.795 241.705,81.887 241.100 C 81.978 240.495,81.978 239.505,81.887 238.900 C 81.795 238.295,81.720 238.790,81.720 240.000 M81.767 267.200 C 81.767 271.490,81.826 273.245,81.898 271.100 C 81.970 268.955,81.970 265.445,81.898 263.300 C 81.826 261.155,81.767 262.910,81.767 267.200 M46.981 330.400 C 46.981 338.430,47.034 341.715,47.099 337.700 C 47.165 333.685,47.165 327.115,47.099 323.100 C 47.034 319.085,46.981 322.370,46.981 330.400 M49.712 387.495 C 50.764 387.577,52.384 387.576,53.312 387.492 C 54.240 387.408,53.380 387.341,51.400 387.342 C 49.420 387.343,48.660 387.412,49.712 387.495 M74.120 387.498 C 76.055 387.572,79.115 387.571,80.920 387.497 C 82.724 387.423,81.140 387.363,77.400 387.364 C 73.660 387.364,72.184 387.425,74.120 387.498 M110.900 387.500 C 117.225 387.562,127.575 387.562,133.900 387.500 C 140.225 387.438,135.050 387.387,122.400 387.387 C 109.750 387.387,104.575 387.438,110.900 387.500 " stroke="none" fill="#dc9334" fill-rule="evenodd"></path><path id="path2" d="M57.700 18.300 L 15.200 18.404 15.200 19.353 C 15.200 19.875,14.934 20.523,14.608 20.793 C 14.180 21.149,14.124 21.485,14.407 22.013 C 14.622 22.414,14.696 23.007,14.571 23.331 C 14.447 23.654,14.538 24.038,14.773 24.183 C 15.408 24.576,15.289 26.628,14.598 27.202 C 14.004 27.695,13.954 141.641,14.519 208.800 C 14.618 220.640,14.542 229.995,14.342 230.247 C 13.873 230.842,14.379 305.044,15.088 339.600 C 15.293 349.610,15.322 359.600,15.152 361.800 C 13.987 376.864,13.899 379.625,14.559 380.355 C 15.366 381.246,15.387 382.947,14.600 383.600 C 12.855 385.048,14.662 386.273,18.821 386.462 C 20.981 386.560,22.195 386.784,22.302 387.106 C 22.524 387.773,23.196 387.728,24.011 386.990 C 24.678 386.387,26.000 386.554,26.000 387.243 C 26.000 387.912,39.576 387.681,40.257 387.000 C 41.142 386.115,54.466 386.115,55.200 387.000 C 55.934 387.884,68.973 387.884,69.857 387.000 C 70.739 386.118,83.661 386.118,84.543 387.000 C 85.414 387.871,97.785 387.873,99.454 387.002 C 101.186 386.099,157.240 386.097,158.143 387.000 C 158.872 387.729,194.554 387.922,195.000 387.200 C 195.327 386.672,202.400 386.672,202.400 387.200 C 202.400 387.437,203.867 387.600,206.000 387.600 C 208.133 387.600,209.600 387.437,209.600 387.200 C 209.600 386.672,216.673 386.672,217.000 387.200 C 217.335 387.742,231.600 387.742,231.600 387.200 C 231.600 386.961,233.133 386.800,235.400 386.800 C 237.667 386.800,239.200 386.961,239.200 387.200 C 239.200 387.863,245.625 387.702,246.378 387.020 C 246.897 386.551,248.958 386.420,257.116 386.339 C 262.669 386.284,267.382 386.134,267.590 386.006 C 268.372 385.523,265.993 381.685,263.418 379.277 C 261.986 377.937,258.450 374.176,255.560 370.920 C 248.443 362.900,243.386 357.400,241.079 355.170 C 240.023 354.149,239.130 352.928,239.094 352.457 L 239.030 351.600 220.958 351.600 C 204.969 351.600,202.858 351.672,202.647 352.223 C 202.323 353.066,77.581 352.944,77.300 352.100 C 77.033 351.300,55.769 351.383,55.461 352.186 C 55.290 352.630,54.511 352.768,52.228 352.756 C 50.574 352.747,49.031 352.857,48.800 353.000 C 48.061 353.457,46.195 352.804,45.621 351.888 C 44.943 350.806,44.983 345.981,45.673 345.555 C 46.029 345.335,46.182 309.727,46.309 196.933 C 46.462 61.726,46.533 48.556,47.115 48.100 C 47.787 47.573,79.606 47.345,81.504 47.853 C 82.862 48.217,82.808 46.078,82.907 104.018 C 82.994 154.889,83.043 158.301,83.700 159.304 C 84.085 159.891,84.400 160.657,84.400 161.006 C 84.400 162.936,86.743 165.805,97.544 177.100 C 106.488 186.453,105.914 186.195,109.739 182.585 C 111.245 181.163,112.685 179.999,112.939 179.997 C 113.192 179.996,113.835 179.356,114.366 178.576 C 114.898 177.796,115.708 176.965,116.166 176.730 C 116.625 176.495,117.810 175.469,118.800 174.451 C 119.790 173.432,122.400 171.090,124.600 169.246 C 126.800 167.402,130.736 163.841,133.346 161.332 C 135.956 158.823,138.746 156.288,139.546 155.698 C 141.822 154.020,147.325 148.748,148.100 147.505 C 148.994 146.070,149.210 19.370,148.320 18.480 C 147.955 18.115,142.124 18.024,124.020 18.098 C 110.919 18.152,81.075 18.243,57.700 18.300 M44.000 341.024 C 44.000 342.671,43.851 343.555,43.600 343.400 C 42.886 342.959,43.129 338.400,43.867 338.400 C 43.940 338.400,44.000 339.581,44.000 341.024 M19.200 370.400 C 19.200 372.267,19.033 373.600,18.800 373.600 C 18.567 373.600,18.400 372.267,18.400 370.400 C 18.400 368.533,18.567 367.200,18.800 367.200 C 19.033 367.200,19.200 368.533,19.200 370.400 " stroke="none" fill="#442414" fill-rule="evenodd"></path><path id="path3" d="M14.000 16.229 C 14.000 17.208,13.045 17.928,11.558 18.070 C 9.436 18.273,9.554 20.147,11.700 20.324 L 13.200 20.448 13.200 24.201 C 13.200 27.950,13.702 29.467,14.197 27.212 C 14.342 26.555,14.353 25.068,14.222 23.909 C 14.092 22.749,14.126 20.900,14.297 19.800 L 14.610 17.800 60.205 17.553 C 85.282 17.417,112.910 17.166,121.600 16.996 C 136.949 16.694,147.723 16.935,148.805 17.603 C 149.097 17.784,149.481 19.143,149.661 20.637 C 149.964 23.158,150.518 24.222,151.281 23.750 C 151.748 23.461,151.672 18.800,151.200 18.800 C 150.980 18.800,150.800 18.080,150.800 17.200 L 150.800 15.600 124.800 15.600 C 107.733 15.600,98.800 15.737,98.800 16.000 C 98.800 16.264,85.067 16.400,58.400 16.400 C 31.733 16.400,18.000 16.264,18.000 16.000 C 18.000 15.780,17.100 15.600,16.000 15.600 C 14.448 15.600,14.000 15.741,14.000 16.229 M167.062 15.871 C 166.501 16.433,166.835 17.684,167.600 17.884 C 168.467 18.111,168.776 20.520,168.000 21.000 C 167.780 21.136,167.600 22.396,167.600 23.800 C 167.600 25.204,167.780 26.464,168.000 26.600 C 168.247 26.753,168.400 30.263,168.400 35.800 C 168.400 41.337,168.247 44.847,168.000 45.000 C 167.404 45.368,167.517 46.633,168.196 47.196 C 168.523 47.468,168.703 47.834,168.594 48.009 C 168.283 48.513,168.833 49.600,169.400 49.600 C 169.683 49.600,170.018 49.870,170.145 50.200 C 170.506 51.142,172.400 50.975,172.400 50.000 C 172.400 49.560,172.580 49.178,172.800 49.150 C 173.020 49.123,173.380 49.078,173.600 49.050 C 175.125 48.859,172.988 47.217,171.200 47.206 L 170.200 47.200 170.268 32.365 C 170.306 24.206,170.456 17.411,170.602 17.265 C 170.747 17.119,201.227 16.907,238.333 16.793 C 275.440 16.679,305.845 16.544,305.900 16.493 C 306.778 15.680,300.268 15.596,236.662 15.602 C 198.527 15.606,167.207 15.727,167.062 15.871 M378.212 15.980 C 377.830 16.599,380.285 16.846,385.567 16.719 C 389.098 16.635,390.583 16.455,390.701 16.100 C 390.905 15.486,378.591 15.367,378.212 15.980 M150.480 28.420 C 149.828 29.464,149.794 57.268,150.443 58.480 C 151.402 60.273,151.588 57.796,151.594 43.124 C 151.600 28.442,151.477 26.824,150.480 28.420 M275.825 47.832 C 274.506 49.151,275.811 49.200,312.200 49.200 C 336.137 49.200,348.838 49.338,349.000 49.600 C 349.321 50.119,351.479 50.119,351.800 49.600 C 352.173 48.996,353.391 49.118,354.775 49.900 C 356.213 50.712,356.783 50.260,356.794 48.300 L 356.800 47.200 316.629 47.200 C 280.543 47.200,276.393 47.264,275.825 47.832 M187.621 48.374 C 187.159 48.670,187.241 48.794,188.021 48.987 C 189.630 49.384,201.991 49.045,202.101 48.600 C 202.230 48.080,188.415 47.864,187.621 48.374 M232.608 48.387 C 232.466 48.617,232.604 48.903,232.914 49.022 C 233.859 49.385,239.000 49.028,239.000 48.600 C 239.000 48.052,232.940 47.849,232.608 48.387 M261.026 48.358 C 260.671 48.933,261.870 49.200,264.800 49.200 C 267.730 49.200,268.929 48.933,268.574 48.358 C 268.452 48.161,266.754 48.000,264.800 48.000 C 262.846 48.000,261.148 48.161,261.026 48.358 M47.441 48.733 C 47.017 49.420,47.117 352.077,47.541 352.501 C 47.821 352.781,48.538 352.718,49.798 352.303 C 50.998 351.908,52.110 351.799,52.969 351.993 C 54.326 352.299,55.786 351.825,55.402 351.203 C 55.284 351.012,53.926 350.852,52.384 350.847 C 50.456 350.841,49.397 350.654,48.990 350.248 C 48.265 349.522,48.075 117.048,48.800 116.600 C 49.351 116.259,49.351 58.541,48.800 58.200 C 48.580 58.064,48.400 56.883,48.400 55.576 C 48.400 54.259,48.578 53.200,48.800 53.200 C 49.020 53.200,49.200 52.660,49.200 52.000 L 49.200 50.800 52.176 50.800 C 53.813 50.800,55.264 50.620,55.400 50.400 C 55.555 50.149,59.780 50.000,66.750 50.000 L 77.853 50.000 79.126 51.439 L 80.400 52.877 80.400 77.815 C 80.400 100.277,80.624 106.067,81.333 101.896 C 81.454 101.183,81.608 88.900,81.676 74.600 L 81.800 48.600 64.726 48.496 C 55.336 48.438,47.557 48.545,47.441 48.733 M72.552 56.182 C 72.147 57.237,73.186 58.053,74.766 57.920 C 75.997 57.817,76.200 57.658,76.200 56.800 C 76.200 55.562,72.998 55.019,72.552 56.182 M258.463 68.000 C 257.730 68.991,257.293 69.200,255.949 69.200 C 254.687 69.200,254.083 69.451,253.260 70.317 C 251.849 71.805,249.654 72.784,248.315 72.523 C 247.632 72.391,247.002 72.541,246.615 72.928 C 245.932 73.610,245.772 75.600,246.400 75.600 C 247.338 75.600,246.733 77.163,245.600 77.664 C 244.940 77.956,244.400 78.331,244.400 78.498 C 244.400 78.664,243.933 78.800,243.363 78.800 C 242.684 78.800,242.257 79.060,242.129 79.550 C 242.021 79.963,241.453 80.545,240.866 80.842 C 238.802 81.891,237.200 83.303,237.200 84.076 C 237.200 84.973,236.659 85.563,235.100 86.368 C 234.495 86.680,234.000 87.265,234.000 87.668 C 234.000 88.111,233.711 88.400,233.267 88.400 C 232.614 88.400,230.000 91.139,230.000 91.823 C 230.000 92.449,226.971 94.800,226.165 94.800 C 225.681 94.800,225.190 95.050,225.072 95.356 C 224.843 95.953,222.607 97.200,221.765 97.200 C 220.868 97.200,220.618 98.878,221.427 99.470 C 222.187 100.025,221.356 101.153,220.161 101.187 C 218.963 101.222,217.308 102.505,216.804 103.790 C 216.278 105.131,215.600 105.686,215.600 104.776 C 215.600 103.612,212.601 104.590,212.464 105.799 C 212.389 106.458,212.119 107.147,211.864 107.329 C 211.515 107.579,211.520 107.710,211.885 107.859 C 212.192 107.984,211.865 108.562,210.991 109.436 C 209.766 110.660,209.519 110.758,208.780 110.307 C 208.065 109.871,207.853 109.915,207.274 110.619 C 206.903 111.070,206.285 111.560,205.900 111.707 C 205.150 111.994,204.944 113.394,205.592 113.795 C 206.252 114.203,205.089 115.600,204.090 115.600 C 202.988 115.600,201.119 116.746,201.422 117.235 C 201.969 118.121,200.848 119.045,199.427 118.879 C 198.020 118.715,198.000 118.733,198.000 120.180 C 198.000 120.987,197.849 121.554,197.665 121.440 C 197.201 121.154,195.566 122.355,195.637 122.930 C 195.761 123.935,195.578 124.400,195.059 124.400 C 194.353 124.400,192.291 126.384,191.361 127.958 C 190.839 128.842,190.327 129.200,189.586 129.200 C 188.316 129.200,186.800 130.823,186.800 132.181 C 186.800 133.058,186.612 133.168,184.933 133.278 C 183.196 133.392,183.063 133.478,183.019 134.523 C 182.987 135.277,182.550 135.975,181.686 136.652 C 180.979 137.205,180.400 137.838,180.400 138.058 C 180.400 138.459,179.418 139.600,179.073 139.600 C 178.972 139.600,178.914 139.310,178.944 138.955 C 179.039 137.859,177.730 137.298,176.934 138.094 C 176.293 138.735,176.294 138.820,176.945 139.539 C 177.610 140.274,177.592 140.310,176.480 140.474 C 175.383 140.635,175.325 140.569,175.361 139.222 C 175.396 137.962,175.286 137.800,174.400 137.800 C 173.058 137.800,172.766 141.722,174.048 142.523 C 175.066 143.158,174.995 143.600,173.875 143.600 C 172.871 143.600,170.991 145.738,171.405 146.409 C 171.904 147.215,171.060 146.761,170.200 145.760 C 169.154 144.543,167.858 144.604,167.675 145.879 C 167.598 146.419,167.219 146.798,166.679 146.875 C 165.482 147.047,165.372 148.157,166.453 149.164 C 167.201 149.861,167.238 150.000,166.675 150.000 C 166.304 150.000,166.000 150.199,166.000 150.442 C 166.000 151.540,163.517 154.000,162.409 154.000 C 161.305 154.000,160.852 154.516,160.538 156.131 C 160.335 157.173,159.396 158.000,158.416 158.000 C 157.953 158.000,157.474 158.315,157.351 158.700 C 156.831 160.328,156.279 161.095,155.660 161.049 C 155.261 161.019,154.950 161.356,154.872 161.900 C 154.746 162.791,154.000 163.196,154.000 162.373 C 154.000 162.139,153.505 162.004,152.900 162.073 C 151.953 162.182,151.798 162.382,151.787 163.509 C 151.772 164.894,150.744 166.113,148.700 167.168 C 148.095 167.480,147.600 167.980,147.600 168.280 C 147.600 168.580,147.285 168.946,146.901 169.093 C 145.872 169.488,144.400 171.071,144.400 171.782 C 144.400 172.133,144.055 172.400,143.600 172.400 C 143.067 172.400,142.800 172.667,142.800 173.200 C 142.800 174.002,140.924 174.391,140.259 173.726 C 139.595 173.061,137.240 172.520,136.824 172.936 C 136.116 173.644,136.346 174.399,137.392 174.797 C 138.331 175.154,138.459 176.400,137.557 176.400 C 137.361 176.400,137.200 176.940,137.200 177.600 C 137.200 178.260,137.033 178.800,136.828 178.800 C 136.623 178.800,136.398 179.205,136.328 179.700 C 136.230 180.389,135.980 180.569,135.260 180.468 C 134.310 180.335,132.409 181.727,132.391 182.570 C 132.376 183.244,129.743 186.000,129.113 186.000 C 128.802 186.000,127.953 186.675,127.226 187.500 C 126.499 188.325,125.538 189.094,125.090 189.209 C 124.642 189.324,124.079 189.753,123.838 190.162 C 123.597 190.572,123.040 191.303,122.600 191.788 C 122.160 192.273,121.260 193.325,120.600 194.126 C 119.757 195.150,119.073 195.585,118.300 195.591 C 117.520 195.597,117.200 195.805,117.200 196.304 C 117.200 197.253,115.657 198.217,115.073 197.633 C 114.762 197.322,114.776 197.200,115.120 197.200 C 115.387 197.200,115.600 196.667,115.600 196.000 C 115.600 194.943,115.462 194.800,114.440 194.800 C 113.289 194.800,113.280 194.818,113.280 197.200 C 113.280 199.291,113.378 199.600,114.040 199.600 C 115.036 199.600,114.999 199.837,113.818 201.018 C 113.278 201.558,112.378 202.000,111.818 202.000 C 111.067 202.000,110.800 202.210,110.800 202.800 C 110.800 203.324,110.533 203.600,110.027 203.600 C 109.175 203.600,107.600 205.540,107.600 206.590 C 107.600 207.556,106.694 208.315,105.361 208.468 C 104.545 208.561,104.216 208.808,104.256 209.300 C 104.297 209.818,104.011 210.000,103.156 210.000 C 102.291 210.000,102.000 210.189,102.000 210.753 C 102.000 211.180,101.639 211.601,101.168 211.724 C 100.527 211.892,100.366 212.202,100.468 213.069 C 100.554 213.806,100.416 214.197,100.068 214.198 C 99.775 214.199,99.305 214.515,99.024 214.900 C 98.742 215.285,98.289 215.600,98.018 215.600 C 97.440 215.600,95.274 217.058,94.383 218.046 C 94.044 218.423,93.234 218.791,92.583 218.865 C 91.553 218.983,91.383 219.182,91.271 220.400 C 91.109 222.169,90.680 222.600,89.080 222.600 C 87.973 222.600,87.783 222.753,87.671 223.730 C 87.516 225.075,86.668 226.155,84.900 227.256 C 84.185 227.701,83.600 228.277,83.600 228.536 C 83.600 228.796,83.240 229.232,82.800 229.507 C 82.230 229.863,82.000 230.440,82.000 231.515 C 82.000 232.565,81.757 233.199,81.200 233.600 C 80.760 233.917,80.400 234.420,80.400 234.717 C 80.400 235.014,80.130 235.527,79.800 235.857 C 79.031 236.626,79.031 237.560,79.800 237.855 C 80.324 238.057,80.400 241.225,80.400 263.019 C 80.400 285.744,80.560 289.845,81.364 287.748 C 81.501 287.393,81.621 276.182,81.632 262.836 C 81.656 231.782,81.080 234.454,89.510 226.319 C 92.086 223.834,95.681 220.360,97.498 218.600 C 99.316 216.840,100.905 215.085,101.029 214.700 C 101.152 214.315,101.454 214.000,101.698 214.000 C 101.942 214.000,103.325 212.911,104.771 211.580 C 106.217 210.249,110.280 206.524,113.800 203.301 C 117.320 200.078,122.030 195.632,124.267 193.421 C 126.504 191.209,129.463 188.410,130.843 187.200 C 132.224 185.990,134.714 183.720,136.377 182.156 C 138.039 180.592,142.190 176.722,145.600 173.556 C 149.010 170.390,153.240 166.401,155.000 164.691 C 156.760 162.981,161.170 158.852,164.800 155.516 C 171.277 149.562,174.404 146.653,181.200 140.260 C 186.480 135.293,191.119 130.930,194.413 127.833 C 196.070 126.275,199.760 122.840,202.612 120.200 C 205.464 117.560,208.456 114.770,209.261 114.000 C 214.528 108.965,222.079 101.891,223.600 100.568 C 224.590 99.707,227.426 97.033,229.902 94.624 C 232.377 92.216,234.558 90.145,234.748 90.023 C 235.436 89.579,242.242 83.310,246.173 79.500 C 248.387 77.355,250.311 75.600,250.450 75.600 C 250.588 75.600,250.923 75.334,251.193 75.009 C 252.018 74.014,257.162 70.778,258.880 70.172 C 260.910 69.456,345.767 69.300,346.207 70.011 C 346.472 70.440,343.373 73.781,336.628 80.338 C 334.444 82.462,329.218 87.620,325.015 91.800 C 320.813 95.980,315.370 101.348,312.921 103.728 C 310.471 106.109,307.674 108.899,306.704 109.928 C 304.789 111.962,291.041 125.199,290.458 125.572 C 290.261 125.697,285.537 130.210,279.961 135.600 C 274.385 140.990,268.204 146.930,266.227 148.800 C 264.249 150.670,259.834 154.904,256.415 158.210 C 252.997 161.515,248.130 166.195,245.601 168.610 C 243.071 171.024,239.448 174.530,237.549 176.400 C 235.650 178.270,233.309 180.496,232.348 181.347 C 231.387 182.197,228.075 185.347,224.988 188.347 C 221.902 191.346,218.032 195.047,216.388 196.571 C 214.745 198.094,209.620 202.969,205.000 207.403 C 200.380 211.837,195.745 216.238,194.700 217.183 C 193.655 218.129,192.800 219.140,192.800 219.432 C 192.800 219.723,191.945 220.540,190.900 221.246 C 189.855 221.952,188.417 223.176,187.705 223.965 C 186.993 224.754,186.214 225.580,185.975 225.800 C 185.736 226.020,184.969 226.771,184.270 227.469 C 183.572 228.167,182.190 229.399,181.200 230.206 C 180.210 231.013,176.688 234.312,173.373 237.537 C 170.059 240.762,164.705 245.890,161.476 248.934 C 154.139 255.851,150.309 260.786,150.919 262.537 C 151.008 262.792,150.747 263.429,150.340 263.954 C 149.493 265.046,149.380 266.420,150.080 267.120 C 150.927 267.967,151.600 267.659,151.600 266.424 C 151.600 265.777,151.780 265.136,152.000 265.000 C 152.220 264.864,152.400 264.133,152.400 263.376 C 152.400 262.619,152.580 262.000,152.800 262.000 C 153.020 262.000,153.210 261.685,153.222 261.300 C 153.246 260.537,155.600 258.452,155.600 259.194 C 155.600 259.474,156.174 259.601,157.100 259.524 C 158.675 259.394,159.819 256.400,158.293 256.400 C 157.905 256.400,157.791 256.042,157.914 255.204 C 158.011 254.546,158.226 254.092,158.393 254.195 C 158.559 254.298,159.214 253.937,159.848 253.392 C 160.482 252.847,161.229 252.401,161.510 252.400 C 161.790 252.400,162.190 251.952,162.398 251.404 C 162.775 250.414,165.532 247.436,166.094 247.412 C 166.256 247.406,167.282 246.547,168.373 245.504 C 169.465 244.461,170.468 243.786,170.602 244.004 C 171.232 245.023,172.425 244.407,172.355 243.100 C 172.296 241.991,172.685 241.393,175.006 239.034 L 177.726 236.268 178.427 237.134 C 178.819 237.619,179.584 238.000,180.164 238.000 C 181.668 238.000,181.645 236.149,180.133 235.575 L 179.066 235.169 180.033 234.507 C 180.565 234.143,181.277 233.536,181.615 233.159 C 182.064 232.659,182.416 232.577,182.918 232.858 C 183.297 233.070,183.785 233.133,184.003 232.998 C 184.522 232.678,184.519 230.800,184.000 230.800 C 183.780 230.800,183.600 230.620,183.600 230.400 C 183.600 230.180,184.140 230.000,184.800 230.000 C 185.460 230.000,186.000 230.180,186.000 230.400 C 186.000 230.620,186.527 230.800,187.171 230.800 C 188.326 230.800,188.343 230.769,188.343 228.572 C 188.343 226.257,189.393 224.592,190.568 225.043 C 191.247 225.303,192.147 224.160,191.857 223.405 C 191.683 222.951,191.914 222.800,192.785 222.800 C 193.681 222.800,193.973 222.597,194.072 221.904 C 194.144 221.398,194.679 220.778,195.300 220.482 C 196.057 220.120,196.400 219.651,196.400 218.978 C 196.400 218.440,196.580 218.000,196.800 218.000 C 197.020 218.000,197.200 218.192,197.200 218.427 C 197.200 218.661,197.695 218.796,198.300 218.727 C 199.454 218.594,200.265 216.400,199.160 216.400 C 198.889 216.400,198.786 216.281,198.931 216.136 C 199.076 215.990,199.541 216.185,199.965 216.568 C 201.678 218.118,204.065 215.505,202.429 213.869 C 201.701 213.141,201.946 212.880,203.300 212.941 C 204.467 212.994,204.602 212.886,204.617 211.881 C 204.628 211.147,205.144 210.237,206.117 209.235 C 206.933 208.394,207.600 207.585,207.600 207.435 C 207.600 206.348,210.806 204.400,212.595 204.400 C 213.909 204.400,214.000 204.317,214.000 203.120 C 214.000 202.124,214.107 201.947,214.480 202.320 C 215.216 203.056,216.171 202.895,217.130 201.874 C 218.106 200.836,218.232 199.992,217.520 199.280 C 217.147 198.907,217.147 198.800,217.520 198.800 C 217.784 198.800,218.000 198.440,218.000 198.000 C 218.000 197.168,218.262 197.067,220.100 197.188 C 221.104 197.254,221.200 197.138,221.200 195.863 C 221.200 194.141,221.537 193.200,222.154 193.200 C 222.412 193.200,222.883 192.840,223.200 192.400 C 223.517 191.960,224.097 191.600,224.488 191.600 C 224.933 191.600,225.200 191.300,225.200 190.800 C 225.200 190.267,225.467 190.000,226.000 190.000 C 226.533 190.000,226.800 189.733,226.800 189.200 C 226.800 188.760,227.046 188.400,227.346 188.400 C 227.646 188.400,228.346 188.043,228.901 187.606 C 229.910 186.813,229.910 186.813,230.126 187.638 C 230.455 188.897,232.200 188.529,232.200 187.200 C 232.200 186.372,232.011 186.203,231.100 186.216 C 230.495 186.224,230.006 186.134,230.013 186.016 C 230.041 185.540,231.116 184.400,231.537 184.400 C 231.784 184.400,232.665 183.787,233.493 183.037 C 238.709 178.318,239.600 177.429,239.600 176.942 C 239.600 176.644,239.911 176.400,240.291 176.400 C 240.671 176.400,241.683 175.635,242.539 174.700 C 243.437 173.719,244.456 173.000,244.948 173.000 C 245.559 173.000,245.813 172.738,245.847 172.072 C 245.892 171.170,252.000 164.762,252.000 165.616 C 252.000 166.367,252.610 165.977,253.281 164.797 C 253.656 164.139,254.295 163.600,254.701 163.600 C 255.710 163.600,256.400 162.829,256.400 161.702 C 256.400 160.533,258.079 158.800,259.210 158.800 C 260.208 158.800,261.200 157.917,261.200 157.029 C 261.200 156.683,261.350 156.400,261.532 156.400 C 261.715 156.400,262.120 155.905,262.432 155.300 C 263.371 153.481,263.931 153.045,264.606 153.605 C 265.540 154.380,266.529 153.768,266.235 152.596 C 266.073 151.953,266.153 151.600,266.461 151.600 C 266.723 151.600,267.266 151.302,267.669 150.938 C 268.350 150.321,268.400 150.323,268.400 150.961 C 268.400 152.127,271.759 151.686,271.928 150.498 C 272.005 149.957,271.805 149.500,271.428 149.355 C 270.665 149.062,270.538 146.733,271.300 147.001 C 272.144 147.299,273.519 146.044,272.821 145.613 C 272.413 145.361,272.704 145.220,273.821 145.129 C 275.205 145.016,275.421 144.860,275.598 143.843 C 275.709 143.206,276.070 142.560,276.400 142.406 C 276.730 142.252,277.360 141.917,277.800 141.662 C 278.240 141.407,279.005 141.023,279.500 140.809 C 280.192 140.510,280.400 140.091,280.400 138.997 C 280.400 136.993,282.588 134.800,284.587 134.800 C 285.704 134.800,286.000 134.642,286.000 134.047 C 286.000 133.630,286.357 133.200,286.800 133.084 C 287.341 132.943,287.600 132.538,287.600 131.837 C 287.600 130.968,287.781 130.800,288.720 130.800 C 290.041 130.800,290.795 130.158,290.813 129.020 C 290.834 127.645,291.916 126.600,293.319 126.600 C 294.413 126.600,294.618 126.442,294.724 125.522 C 294.803 124.842,295.038 124.516,295.360 124.640 C 295.996 124.884,296.962 123.785,296.611 123.218 C 296.463 122.979,296.706 122.800,297.176 122.800 C 297.629 122.800,298.000 122.620,298.000 122.400 C 298.000 122.180,298.360 122.000,298.800 122.000 C 299.388 122.000,299.600 121.733,299.600 120.995 C 299.600 119.029,300.769 117.599,303.329 116.432 C 304.638 115.836,305.200 115.343,305.200 114.790 C 305.200 114.356,305.380 114.000,305.600 114.000 C 305.820 114.000,306.000 113.638,306.000 113.197 C 306.000 112.512,306.111 112.462,306.747 112.860 C 307.789 113.511,308.800 113.011,308.800 111.846 C 308.800 110.586,309.671 110.290,310.209 111.368 C 310.719 112.392,311.566 112.440,312.156 111.477 C 312.507 110.905,312.454 110.645,311.906 110.237 C 311.525 109.953,311.325 109.608,311.463 109.470 C 311.601 109.332,311.475 108.931,311.183 108.579 C 310.496 107.752,311.215 107.237,312.668 107.515 C 313.228 107.622,313.809 107.509,313.960 107.265 C 314.246 106.801,315.150 106.629,316.724 106.737 C 317.232 106.771,317.549 106.960,317.428 107.155 C 317.101 107.683,318.298 108.525,318.995 108.257 C 319.855 107.927,319.744 107.163,318.800 106.916 C 318.360 106.801,317.978 106.458,317.950 106.153 C 317.870 105.271,317.804 105.025,317.529 104.596 C 317.208 104.093,317.966 103.038,318.900 102.688 C 319.385 102.506,319.600 101.991,319.600 101.013 C 319.600 99.681,319.676 99.600,320.920 99.600 C 321.646 99.600,322.436 99.404,322.675 99.165 C 322.988 98.852,323.185 98.852,323.378 99.165 C 324.286 100.634,325.131 99.569,325.151 96.932 C 325.162 95.465,325.326 94.160,325.515 94.032 C 325.704 93.905,325.985 93.457,326.140 93.039 C 326.411 92.306,326.442 92.305,326.953 93.004 C 327.590 93.874,328.782 93.554,329.075 92.435 C 329.184 92.016,329.617 91.584,330.037 91.474 C 330.843 91.264,331.073 90.216,330.403 89.802 C 329.820 89.442,331.818 87.600,332.792 87.600 C 333.307 87.600,333.764 87.222,334.001 86.598 C 334.210 86.047,335.016 85.293,335.791 84.924 C 336.608 84.534,337.200 83.959,337.200 83.554 C 337.200 83.139,337.558 82.804,338.084 82.728 C 338.642 82.647,339.053 82.232,339.200 81.600 C 339.344 80.983,339.758 80.553,340.282 80.477 C 340.779 80.404,341.389 79.810,341.753 79.042 C 342.096 78.321,342.831 77.388,343.388 76.970 C 343.945 76.552,344.400 75.893,344.400 75.505 C 344.400 74.740,345.002 74.556,345.400 75.200 C 345.813 75.868,346.862 75.648,347.071 74.850 C 347.179 74.437,347.702 73.866,348.234 73.582 C 349.259 73.033,349.650 70.800,348.720 70.800 C 348.347 70.800,348.347 70.693,348.720 70.320 C 350.245 68.795,348.825 66.223,346.999 67.201 C 346.250 67.601,345.655 67.608,344.166 67.233 C 342.848 66.901,342.155 66.885,341.861 67.179 C 341.290 67.750,260.953 67.771,260.600 67.200 C 260.156 66.482,259.367 66.777,258.463 68.000 M333.200 93.151 C 333.200 94.338,334.124 94.890,335.018 94.237 C 335.656 93.770,335.689 93.590,335.236 93.043 C 334.491 92.146,333.200 92.214,333.200 93.151 M355.745 99.290 C 355.342 99.940,356.020 229.349,356.428 229.773 C 357.304 230.685,357.411 227.828,357.600 198.467 C 358.004 135.740,357.708 99.322,356.794 99.082 C 356.358 98.968,355.885 99.062,355.745 99.290 M201.805 108.792 C 201.672 109.007,201.769 109.568,202.021 110.038 C 202.574 111.072,203.897 110.150,203.467 109.031 C 203.198 108.330,202.181 108.184,201.805 108.792 M150.408 116.385 C 150.083 116.992,150.052 141.183,150.369 146.300 C 150.386 146.575,150.670 146.800,151.000 146.800 C 151.523 146.800,151.600 144.800,151.600 131.200 C 151.600 116.041,151.468 114.404,150.408 116.385 M195.661 119.154 C 194.870 119.655,195.267 121.000,196.205 121.000 C 196.779 121.000,197.000 120.731,197.000 120.033 C 197.000 118.966,196.488 118.631,195.661 119.154 M80.667 123.067 C 80.223 123.510,80.352 143.923,80.800 144.200 C 81.063 144.362,81.200 140.737,81.200 133.624 C 81.200 127.671,81.140 122.800,81.067 122.800 C 80.993 122.800,80.813 122.920,80.667 123.067 M147.960 149.100 C 147.206 149.925,145.434 151.590,144.023 152.800 C 140.439 155.873,133.570 162.023,129.975 165.378 C 128.312 166.930,126.223 168.830,125.334 169.600 C 121.226 173.159,117.213 176.820,114.812 179.200 C 111.965 182.023,107.812 185.338,106.207 186.069 C 104.814 186.704,104.792 188.400,106.176 188.400 C 106.713 188.400,107.264 188.220,107.400 188.000 C 107.536 187.780,107.997 187.600,108.424 187.600 C 108.851 187.600,109.200 187.420,109.200 187.200 C 109.200 186.980,109.560 186.800,110.000 186.800 C 110.622 186.800,110.800 186.533,110.800 185.600 C 110.800 184.757,110.994 184.400,111.453 184.400 C 111.812 184.400,113.001 183.455,114.096 182.300 C 115.311 181.018,116.160 180.395,116.276 180.700 C 116.577 181.490,118.051 181.289,118.277 180.428 C 118.388 180.003,118.731 179.559,119.039 179.440 C 119.348 179.322,119.600 178.870,119.600 178.436 C 119.600 178.002,119.780 177.536,120.000 177.400 C 120.220 177.264,120.400 176.803,120.400 176.376 C 120.400 175.867,120.675 175.600,121.200 175.600 C 121.733 175.600,122.000 175.333,122.000 174.800 C 122.000 174.192,122.267 174.000,123.111 174.000 C 123.863 174.000,124.591 173.580,125.364 172.700 C 126.496 171.412,126.509 171.408,126.840 172.300 C 127.387 173.774,129.200 173.543,129.200 172.000 C 129.200 171.211,128.999 170.800,128.613 170.800 C 128.221 170.800,128.112 170.567,128.285 170.100 C 128.611 169.220,130.435 167.601,131.100 167.600 C 131.375 167.600,131.600 167.240,131.600 166.800 C 131.600 165.927,134.101 165.593,134.600 166.400 C 135.659 168.113,137.448 166.361,136.850 164.197 C 136.277 162.120,136.918 161.200,138.942 161.200 C 140.435 161.200,140.485 161.157,140.315 160.000 C 140.141 158.817,140.843 158.299,141.400 159.200 C 142.048 160.249,144.400 159.640,144.400 158.424 C 144.400 157.777,144.211 157.131,143.981 156.988 C 143.715 156.824,143.699 156.559,143.938 156.264 C 144.145 156.009,144.381 155.440,144.462 155.000 C 144.544 154.560,144.793 154.200,145.015 154.200 C 145.237 154.200,145.853 153.795,146.385 153.300 C 147.581 152.186,148.400 152.145,148.400 153.200 C 148.400 153.640,148.208 154.000,147.973 154.000 C 147.739 154.000,147.604 154.495,147.673 155.100 C 147.817 156.352,149.865 156.728,150.394 155.600 C 150.549 155.270,150.881 154.602,151.131 154.116 C 151.764 152.889,151.337 152.062,149.857 151.651 C 148.739 151.341,148.689 151.268,149.400 150.990 C 150.754 150.462,151.600 149.520,151.600 148.538 C 151.600 146.969,149.630 147.274,147.960 149.100 M80.400 152.400 C 80.400 154.131,80.917 154.476,81.600 153.200 C 81.904 152.632,81.904 152.168,81.600 151.600 C 80.917 150.324,80.400 150.669,80.400 152.400 M80.400 158.000 C 80.400 159.333,80.578 160.400,80.800 160.400 C 81.020 160.400,81.200 160.760,81.200 161.200 C 81.200 161.640,81.335 162.001,81.500 162.003 C 81.859 162.007,82.800 163.944,82.800 164.680 C 82.800 164.966,82.938 165.200,83.106 165.200 C 83.274 165.200,83.723 165.920,84.104 166.800 C 84.486 167.680,84.958 168.400,85.153 168.400 C 86.103 168.400,88.333 171.319,87.905 172.003 C 87.230 173.085,87.825 174.065,89.097 173.966 C 92.113 173.730,92.400 173.875,92.400 175.637 C 92.400 176.938,92.564 177.318,93.200 177.484 C 94.524 177.830,94.101 178.251,92.604 178.076 C 90.631 177.846,90.230 178.980,91.833 180.262 C 93.265 181.408,93.791 181.434,94.522 180.390 C 95.354 179.203,99.600 181.361,99.600 182.971 C 99.600 183.333,99.939 183.600,100.400 183.600 C 101.015 183.600,101.200 183.867,101.200 184.751 C 101.200 186.156,101.935 186.830,103.341 186.713 C 104.919 186.583,104.658 185.655,102.407 183.398 C 101.312 182.299,99.197 179.987,97.708 178.260 C 96.219 176.534,94.608 174.914,94.128 174.660 C 93.648 174.407,92.747 173.538,92.127 172.729 C 91.507 171.920,89.610 169.699,87.912 167.795 C 84.788 164.291,83.600 162.463,83.600 161.162 C 83.600 160.769,83.436 160.346,83.235 160.222 C 83.034 160.097,82.748 159.273,82.598 158.390 C 82.335 156.831,81.529 155.600,80.771 155.600 C 80.567 155.600,80.400 156.680,80.400 158.000 M151.067 159.067 C 150.252 159.881,150.829 161.200,152.000 161.200 C 153.067 161.200,153.200 161.067,153.200 160.000 C 153.200 158.829,151.881 158.252,151.067 159.067 M129.345 181.000 C 128.991 181.920,129.517 182.875,130.294 182.725 C 131.162 182.558,131.466 181.214,130.739 180.754 C 129.958 180.259,129.605 180.321,129.345 181.000 M13.467 187.067 C 13.017 187.516,13.149 230.800,13.600 230.800 C 13.862 230.800,14.000 223.200,14.000 208.800 C 14.000 196.700,13.940 186.800,13.867 186.800 C 13.793 186.800,13.613 186.920,13.467 187.067 M222.943 202.605 C 222.648 203.373,223.482 204.400,224.400 204.400 C 225.318 204.400,226.152 203.373,225.857 202.605 C 225.720 202.247,225.125 202.000,224.400 202.000 C 223.675 202.000,223.080 202.247,222.943 202.605 M217.273 210.300 C 217.374 211.173,217.606 211.400,218.400 211.400 C 219.194 211.400,219.426 211.173,219.527 210.300 C 219.641 209.307,219.531 209.200,218.400 209.200 C 217.269 209.200,217.159 209.307,217.273 210.300 M222.000 211.200 C 221.450 211.847,220.803 212.381,220.562 212.388 C 219.845 212.408,218.800 213.798,218.800 214.731 C 218.800 215.400,218.561 215.600,217.763 215.600 C 217.062 215.600,216.657 215.859,216.516 216.400 C 216.401 216.840,216.051 217.200,215.739 217.200 C 214.758 217.200,213.235 218.427,213.467 219.030 C 213.587 219.344,213.497 219.600,213.266 219.600 C 212.654 219.600,212.320 218.897,212.793 218.604 C 213.723 218.030,213.243 216.400,212.144 216.400 C 210.079 216.400,209.302 219.005,210.868 220.673 C 212.182 222.071,211.276 223.600,209.132 223.600 C 207.867 223.600,207.600 223.739,207.600 224.400 C 207.600 225.005,207.332 225.201,206.500 225.203 C 205.423 225.206,204.400 226.510,204.400 227.880 C 204.400 228.166,204.083 228.400,203.696 228.400 C 202.815 228.400,201.825 229.844,202.443 230.227 C 203.116 230.643,200.153 233.200,198.999 233.200 C 198.160 233.200,198.000 233.389,198.000 234.376 C 198.000 235.023,197.820 235.664,197.600 235.800 C 197.380 235.936,197.200 236.376,197.200 236.777 C 197.200 237.908,195.584 238.125,194.531 237.135 C 193.005 235.702,191.396 237.636,192.880 239.120 C 193.221 239.461,193.229 239.600,192.908 239.600 C 192.659 239.600,192.398 239.987,192.328 240.459 C 192.258 240.932,191.885 241.472,191.500 241.659 C 191.115 241.847,190.485 242.153,190.100 242.341 C 189.715 242.528,189.345 243.050,189.278 243.500 C 189.210 243.950,188.805 244.410,188.378 244.522 C 187.860 244.657,187.600 245.072,187.600 245.763 C 187.600 246.635,187.420 246.800,186.468 246.800 C 185.633 246.800,185.189 247.090,184.781 247.900 C 184.476 248.505,184.184 249.066,184.132 249.148 C 183.926 249.470,182.800 248.017,182.800 247.429 C 182.800 246.998,182.425 246.800,181.607 246.800 L 180.414 246.800 180.444 249.300 C 180.498 253.927,180.484 253.999,179.500 254.006 C 178.310 254.014,177.429 254.600,177.772 255.155 C 177.952 255.445,177.612 255.600,176.797 255.600 C 175.220 255.600,175.111 257.702,176.677 257.925 C 177.776 258.081,180.400 260.445,180.400 261.279 C 180.400 262.014,181.358 262.909,181.737 262.530 C 181.987 262.279,182.161 263.876,182.031 265.239 C 181.924 266.361,183.122 267.041,184.114 266.421 C 184.724 266.041,185.006 266.019,185.115 266.346 C 185.198 266.595,185.612 266.800,186.033 266.800 C 186.502 266.800,186.800 267.077,186.800 267.512 C 186.800 267.903,187.160 268.483,187.600 268.800 C 188.059 269.131,188.400 269.835,188.400 270.453 C 188.400 271.157,188.814 271.877,189.600 272.539 C 190.359 273.177,190.800 273.925,190.800 274.574 C 190.800 275.486,190.960 275.600,192.247 275.600 C 193.825 275.600,196.116 277.634,195.714 278.679 C 195.437 279.401,196.328 280.400,197.249 280.400 C 197.817 280.400,198.000 280.693,198.000 281.600 C 198.000 282.645,198.143 282.800,199.112 282.800 C 199.765 282.800,200.461 283.130,200.800 283.600 C 201.117 284.040,201.613 284.400,201.902 284.400 C 202.298 284.400,202.326 284.591,202.016 285.171 C 201.486 286.160,201.910 287.278,202.750 287.108 C 203.956 286.864,205.394 288.633,205.260 290.195 L 205.139 291.600 207.102 291.600 C 208.839 291.600,209.130 291.727,209.632 292.700 C 209.945 293.305,210.515 294.035,210.900 294.323 C 211.832 295.019,211.787 295.600,210.800 295.600 C 209.714 295.600,209.718 297.462,210.806 298.405 L 211.611 299.104 210.806 299.314 C 209.162 299.744,210.312 302.800,212.117 302.800 C 212.477 302.800,212.980 302.411,213.235 301.935 L 213.698 301.069 214.349 301.917 C 214.838 302.553,215.418 302.757,216.682 302.735 C 218.889 302.697,219.600 303.441,219.600 305.790 L 219.600 307.637 221.441 307.542 C 222.825 307.470,223.376 307.615,223.662 308.125 C 224.487 309.599,225.887 310.917,226.334 310.640 C 227.208 310.101,226.800 309.298,224.257 306.549 C 222.858 305.037,221.283 303.266,220.757 302.613 C 220.231 301.960,218.545 300.160,217.010 298.613 C 215.476 297.066,213.660 295.080,212.976 294.200 C 212.292 293.320,211.027 291.839,210.166 290.909 C 209.305 289.979,207.070 287.491,205.200 285.380 C 203.330 283.270,200.360 279.997,198.600 278.107 C 196.840 276.217,194.915 274.115,194.323 273.435 C 190.906 269.518,188.610 267.193,187.950 266.984 C 187.537 266.853,187.199 266.443,187.198 266.073 C 187.196 265.436,183.825 261.773,181.241 259.600 C 178.861 257.598,178.802 257.679,192.858 243.548 C 200.304 236.062,205.946 230.070,206.263 229.311 C 206.581 228.551,207.103 227.997,207.505 227.992 C 208.198 227.985,211.688 224.703,219.562 216.655 C 221.852 214.315,223.989 212.400,224.311 212.400 C 224.869 212.400,233.873 221.388,237.897 225.963 C 240.320 228.718,244.489 232.800,244.880 232.800 C 245.045 232.800,245.437 233.295,245.751 233.900 C 246.474 235.291,256.898 246.000,257.530 246.000 C 258.428 246.000,258.119 242.356,257.200 242.116 C 256.757 242.000,256.400 241.570,256.400 241.153 C 256.400 240.739,256.147 240.400,255.837 240.400 C 255.472 240.400,255.348 240.120,255.484 239.600 C 255.672 238.880,255.496 238.800,253.714 238.800 C 251.959 238.800,251.671 238.675,251.168 237.700 C 250.856 237.095,250.449 236.489,250.264 236.354 C 250.078 236.218,250.151 235.747,250.426 235.307 C 251.193 234.079,250.616 233.065,249.295 233.318 C 247.953 233.575,246.000 232.505,246.000 231.514 C 246.000 231.121,245.820 230.800,245.600 230.800 C 245.380 230.800,245.200 230.513,245.200 230.162 C 245.200 228.317,242.070 225.200,240.217 225.200 L 238.800 225.200 238.800 222.870 C 238.800 220.108,237.795 218.800,235.674 218.800 C 234.973 218.800,234.400 218.655,234.400 218.477 C 234.400 217.989,230.963 214.400,230.495 214.400 C 230.270 214.400,229.982 214.130,229.855 213.800 C 229.729 213.470,229.349 213.200,229.013 213.200 C 228.676 213.200,228.397 212.885,228.394 212.500 C 228.383 211.262,227.674 210.487,227.206 211.200 C 226.943 211.601,226.810 211.634,226.806 211.300 C 226.803 211.025,226.440 210.800,226.000 210.800 C 225.560 210.800,225.200 210.620,225.200 210.400 C 225.200 209.495,222.977 210.051,222.000 211.200 M78.267 231.067 C 77.401 231.932,78.352 234.000,79.616 234.000 C 80.541 234.000,81.371 232.088,80.763 231.355 C 80.285 230.780,78.733 230.600,78.267 231.067 M259.067 245.867 C 258.501 246.432,258.840 248.077,259.700 248.942 C 260.195 249.440,262.207 251.546,264.170 253.623 C 269.788 259.565,273.369 263.275,275.049 264.895 C 275.902 265.717,277.500 267.405,278.600 268.647 C 286.346 277.391,291.682 281.933,291.587 279.700 C 291.564 279.143,290.515 278.000,290.027 278.000 C 288.820 278.000,287.654 275.687,287.508 273.000 C 287.388 270.770,285.804 269.732,285.324 271.568 C 284.980 272.885,282.800 272.126,282.800 270.689 C 282.800 270.347,282.575 269.962,282.300 269.833 C 281.900 269.647,281.900 269.553,282.300 269.367 C 283.373 268.866,282.903 266.687,281.768 266.904 C 281.113 267.029,280.660 266.900,280.526 266.551 C 280.409 266.248,279.974 266.000,279.557 266.000 C 279.141 266.000,278.800 265.820,278.800 265.600 C 278.800 265.380,278.525 265.200,278.189 265.200 C 277.653 265.200,274.000 261.919,274.000 261.437 C 274.000 261.336,274.495 261.196,275.100 261.127 C 276.975 260.911,277.000 257.904,275.126 258.008 C 273.102 258.120,272.800 258.046,272.800 257.443 C 272.800 256.690,271.622 256.284,270.981 256.816 C 270.351 257.339,262.000 249.194,262.000 248.056 C 262.000 246.667,259.862 245.071,259.067 245.867 M271.745 254.599 C 271.376 255.561,272.246 256.293,273.111 255.747 C 274.083 255.135,273.967 254.224,272.898 254.072 C 272.345 253.993,271.899 254.197,271.745 254.599 M172.545 257.800 C 172.191 258.720,172.717 259.675,173.494 259.525 C 174.362 259.358,174.666 258.014,173.939 257.554 C 173.158 257.059,172.805 257.121,172.545 257.800 M150.560 269.760 C 150.414 270.142,150.492 270.652,150.734 270.894 C 151.054 271.214,151.246 271.145,151.440 270.640 C 151.586 270.258,151.508 269.748,151.266 269.506 C 150.946 269.186,150.754 269.255,150.560 269.760 M150.554 272.175 C 150.273 272.908,150.696 274.237,151.086 273.847 C 151.541 273.392,151.610 272.053,151.192 271.795 C 150.973 271.660,150.686 271.831,150.554 272.175 M288.557 272.967 C 288.226 273.829,288.687 274.904,289.300 274.700 C 289.575 274.608,289.800 274.113,289.800 273.600 C 289.800 272.504,288.909 272.050,288.557 272.967 M150.800 280.000 C 150.800 280.747,150.907 280.853,151.280 280.480 C 151.653 280.107,151.653 279.893,151.280 279.520 C 150.907 279.147,150.800 279.253,150.800 280.000 M292.277 282.027 C 292.093 282.729,292.706 283.606,295.297 286.354 C 300.343 291.703,301.200 292.225,301.200 289.947 C 301.200 288.677,299.590 286.802,298.500 286.800 C 298.225 286.800,298.000 286.453,298.000 286.028 C 298.000 285.536,297.679 285.209,297.113 285.128 C 296.459 285.033,296.134 284.607,295.874 283.500 C 295.573 282.224,295.359 282.000,294.440 282.000 C 293.846 282.000,293.168 281.808,292.934 281.574 C 292.632 281.272,292.440 281.404,292.277 282.027 M13.467 287.067 C 13.069 287.464,13.144 374.318,13.542 374.564 C 14.149 374.939,14.346 360.614,14.246 323.507 C 14.153 288.979,14.099 286.435,13.467 287.067 M303.389 293.618 C 302.994 294.257,304.175 295.801,308.094 299.771 C 310.065 301.767,311.891 303.700,312.153 304.067 C 313.041 305.311,323.159 315.600,323.494 315.600 C 323.678 315.600,324.122 316.095,324.482 316.700 C 325.294 318.063,331.484 324.444,332.887 325.363 C 333.454 325.734,334.430 326.794,335.057 327.719 C 336.981 330.556,344.050 337.600,344.974 337.600 C 346.181 337.600,346.906 336.297,346.219 335.359 C 345.768 334.741,345.589 334.711,345.043 335.164 C 344.476 335.635,344.400 335.551,344.400 334.449 C 344.400 333.371,344.258 333.200,343.360 333.200 C 342.721 333.200,341.889 332.738,341.200 332.000 C 340.583 331.340,339.881 330.800,339.640 330.800 C 339.398 330.800,339.200 330.638,339.200 330.440 C 339.200 330.242,338.570 329.450,337.800 328.680 C 337.030 327.910,336.400 327.100,336.400 326.880 C 336.400 326.375,333.813 323.767,333.005 323.457 C 332.090 323.106,332.281 322.532,333.300 322.568 C 333.944 322.591,334.200 322.372,334.200 321.800 C 334.200 321.274,333.926 320.993,333.400 320.978 C 331.515 320.927,330.208 319.858,330.000 318.197 C 329.789 316.509,328.266 315.642,327.772 316.928 C 327.456 317.752,326.000 317.280,326.000 316.353 C 326.000 315.939,325.820 315.600,325.600 315.600 C 325.380 315.600,325.200 315.103,325.200 314.496 C 325.200 313.826,324.886 313.196,324.400 312.893 C 323.319 312.218,323.328 311.427,324.411 312.006 C 325.058 312.352,325.461 312.269,326.411 311.592 C 327.784 310.615,327.954 309.618,326.800 309.316 C 326.360 309.201,326.000 308.948,326.000 308.753 C 326.000 308.201,324.648 308.337,323.261 309.029 C 322.568 309.375,322.000 309.930,322.000 310.263 C 322.000 310.603,321.782 310.765,321.500 310.634 C 321.225 310.505,320.685 310.289,320.300 310.154 C 319.852 309.996,319.600 309.491,319.600 308.753 C 319.600 308.119,319.420 307.600,319.200 307.600 C 318.980 307.600,318.800 307.338,318.800 307.019 C 318.800 306.699,318.170 306.139,317.400 305.773 C 316.630 305.408,316.000 304.887,316.000 304.616 C 316.000 304.005,314.707 302.800,314.050 302.800 C 313.280 302.800,311.684 301.000,311.525 299.953 C 311.446 299.429,311.156 299.046,310.882 299.103 C 310.607 299.160,310.220 298.777,310.020 298.254 C 309.821 297.729,309.196 297.185,308.629 297.043 C 307.952 296.873,307.600 296.511,307.600 295.982 C 307.600 295.514,307.218 295.035,306.684 294.832 C 306.180 294.640,305.527 294.195,305.235 293.842 C 304.626 293.109,303.768 293.004,303.389 293.618 M310.824 295.775 C 310.043 296.606,309.969 296.881,310.390 297.388 C 311.070 298.207,311.732 298.159,312.573 297.230 C 314.157 295.480,312.441 294.053,310.824 295.775 M80.400 315.869 L 80.400 330.605 79.148 331.159 C 78.459 331.464,77.811 332.035,77.708 332.429 C 77.605 332.823,77.269 333.241,76.961 333.360 C 75.659 333.859,77.111 337.200,78.629 337.200 C 79.163 337.200,79.600 337.020,79.600 336.800 C 79.600 336.580,80.140 336.400,80.800 336.400 C 81.460 336.400,82.000 336.198,82.000 335.951 C 82.000 335.651,82.210 335.676,82.632 336.027 C 83.124 336.435,83.432 336.447,84.014 336.084 C 84.489 335.788,84.852 335.760,85.005 336.008 C 85.306 336.494,100.265 336.543,100.564 336.058 C 101.094 335.200,98.464 334.800,92.281 334.798 L 85.800 334.796 84.323 333.440 C 81.683 331.015,81.435 329.395,81.416 314.435 C 81.404 304.430,81.286 301.431,80.900 301.301 C 80.506 301.169,80.400 304.258,80.400 315.869 M150.800 310.643 C 150.800 311.903,150.923 312.810,151.074 312.660 C 151.486 312.247,151.550 308.816,151.150 308.569 C 150.957 308.450,150.800 309.383,150.800 310.643 M355.733 309.031 C 355.443 309.786,356.539 311.008,357.162 310.624 C 357.403 310.475,357.600 309.913,357.600 309.376 C 357.600 308.242,356.139 307.972,355.733 309.031 M226.400 311.504 C 226.400 311.671,227.026 312.346,227.791 313.004 C 228.557 313.662,229.187 314.515,229.191 314.900 C 229.199 315.529,229.644 315.783,230.500 315.647 C 230.665 315.621,230.800 315.949,230.800 316.376 C 230.800 316.803,230.980 317.264,231.200 317.400 C 231.420 317.536,231.600 318.002,231.600 318.436 C 231.600 318.870,231.875 319.330,232.210 319.459 C 232.678 319.639,232.714 319.821,232.365 320.242 C 231.791 320.934,232.176 322.000,233.000 322.000 C 233.848 322.000,234.203 320.926,233.596 320.195 C 233.324 319.868,233.219 319.600,233.362 319.600 C 233.751 319.600,237.006 322.932,237.799 324.143 C 238.180 324.724,238.752 325.200,239.070 325.200 C 239.387 325.200,239.568 325.335,239.471 325.500 C 239.145 326.053,239.967 327.600,240.587 327.600 C 240.933 327.600,241.200 327.948,241.200 328.400 C 241.200 328.840,241.380 329.200,241.600 329.200 C 241.820 329.200,242.000 329.560,242.000 330.000 C 242.000 330.440,242.233 330.800,242.518 330.800 C 242.803 330.800,244.009 331.700,245.199 332.799 C 247.439 334.869,248.323 334.943,247.841 333.019 C 247.516 331.726,245.370 329.321,242.775 327.342 C 241.688 326.513,240.800 325.509,240.800 325.110 C 240.800 324.115,235.817 319.200,234.807 319.200 C 234.220 319.200,234.000 318.936,234.000 318.231 C 234.000 317.368,233.217 316.171,231.154 313.882 C 229.441 311.981,226.400 310.459,226.400 311.504 M224.262 313.531 C 223.212 314.692,223.419 315.600,224.732 315.600 C 225.933 315.600,227.147 314.084,226.624 313.238 C 226.208 312.567,224.999 312.717,224.262 313.531 M330.533 317.031 C 330.400 317.378,330.556 317.927,330.880 318.251 C 331.727 319.098,332.772 317.931,332.000 317.000 C 331.358 316.227,330.837 316.238,330.533 317.031 M149.450 331.007 C 149.093 331.365,148.798 332.049,148.795 332.529 C 148.790 333.562,146.040 335.062,144.517 334.863 C 143.989 334.794,143.328 334.928,143.048 335.160 C 142.701 335.448,142.100 335.458,141.172 335.192 C 139.091 334.595,127.603 334.716,126.466 335.346 L 125.533 335.864 126.552 336.532 C 127.679 337.270,129.200 337.424,129.200 336.800 C 129.200 336.549,131.733 336.400,136.000 336.400 C 140.267 336.400,142.800 336.549,142.800 336.800 C 142.800 337.020,143.340 337.200,144.000 337.200 C 144.660 337.200,145.200 337.020,145.200 336.800 C 145.200 336.580,145.740 336.400,146.400 336.400 C 147.060 336.400,147.600 336.220,147.600 336.000 C 147.600 335.780,148.067 335.600,148.637 335.600 C 149.322 335.600,149.743 335.340,149.874 334.837 C 149.984 334.417,150.417 333.984,150.837 333.874 C 151.821 333.617,151.828 332.211,150.850 331.162 C 150.158 330.419,150.050 330.407,149.450 331.007 M346.873 332.700 C 347.074 334.443,349.200 334.558,349.200 332.827 C 349.200 331.724,349.076 331.600,347.973 331.600 C 346.871 331.600,346.760 331.712,346.873 332.700 M248.400 335.495 C 248.400 335.816,248.940 336.583,249.600 337.200 C 250.260 337.817,250.800 338.596,250.800 338.933 C 250.800 339.636,252.557 340.968,253.936 341.311 C 254.777 341.520,254.846 341.439,254.615 340.516 C 254.022 338.155,248.400 333.613,248.400 335.495 M122.717 336.104 C 123.679 336.412,124.159 336.401,124.497 336.063 C 124.848 335.712,124.528 335.610,123.180 335.641 L 121.400 335.682 122.717 336.104 M346.400 338.349 C 346.400 338.791,346.583 339.266,346.807 339.404 C 347.030 339.542,347.126 339.797,347.019 339.970 C 346.703 340.480,351.203 345.600,351.968 345.600 C 353.088 345.600,353.173 344.074,352.092 343.368 C 350.689 342.450,350.217 341.964,349.890 341.100 C 349.744 340.715,349.361 340.400,349.038 340.400 C 348.668 340.400,348.404 339.919,348.325 339.100 C 348.176 337.556,346.400 336.862,346.400 338.349 M254.800 342.767 C 254.800 343.188,255.003 343.601,255.251 343.684 C 255.498 343.766,255.723 344.276,255.751 344.817 C 255.793 345.653,256.024 345.819,257.300 345.924 C 258.697 346.040,259.499 346.800,258.224 346.800 C 256.902 346.800,257.089 348.584,258.456 349.018 C 258.886 349.154,259.500 349.049,259.819 348.784 C 260.285 348.398,260.400 348.426,260.400 348.927 C 260.400 349.742,261.160 350.200,261.668 349.692 C 262.221 349.139,261.005 346.920,258.909 344.661 C 256.467 342.027,254.800 341.259,254.800 342.767 M356.667 345.067 C 356.252 345.482,356.353 346.800,356.800 346.800 C 357.020 346.800,357.200 346.350,357.200 345.800 C 357.200 344.753,357.108 344.626,356.667 345.067 M353.837 347.139 C 353.594 347.534,355.041 349.200,355.628 349.200 C 356.338 349.200,356.494 348.036,355.867 347.410 C 355.199 346.742,354.168 346.605,353.837 347.139 M262.000 350.566 C 262.000 350.878,262.711 351.807,263.581 352.630 C 264.450 353.454,265.215 354.504,265.281 354.964 C 265.356 355.494,265.693 355.800,266.200 355.800 C 267.224 355.800,267.676 356.427,267.128 357.087 C 266.580 357.747,267.392 358.800,268.449 358.800 C 268.862 358.800,269.200 358.980,269.200 359.200 C 269.200 359.420,269.560 359.600,270.000 359.600 C 270.440 359.600,270.804 359.825,270.809 360.100 C 270.814 360.375,271.170 361.050,271.600 361.600 C 272.030 362.150,272.386 363.005,272.391 363.500 C 272.397 364.105,272.642 364.400,273.138 364.400 C 273.963 364.400,275.473 365.860,275.068 366.266 C 274.659 366.675,275.617 367.600,276.449 367.600 C 276.862 367.600,277.200 367.780,277.200 368.000 C 277.200 368.220,277.470 368.400,277.800 368.400 C 278.130 368.400,278.400 368.686,278.400 369.035 C 278.400 369.981,280.839 373.198,281.568 373.213 C 282.385 373.229,283.379 374.011,283.712 374.900 C 283.857 375.285,284.169 375.600,284.406 375.600 C 285.140 375.600,286.926 377.647,286.976 378.546 C 287.040 379.695,287.521 380.400,288.242 380.400 C 289.023 380.400,290.800 382.193,290.800 382.982 C 290.800 383.333,291.145 383.600,291.600 383.600 C 292.133 383.600,292.400 383.867,292.400 384.400 C 292.400 384.861,292.133 385.200,291.771 385.200 C 290.827 385.200,290.000 386.214,290.000 387.371 C 290.000 388.184,290.197 388.400,290.938 388.400 C 292.037 388.400,293.195 387.264,293.213 386.169 C 293.223 385.514,293.347 385.563,294.046 386.500 C 295.131 387.954,296.000 387.930,296.000 386.445 C 296.000 385.307,290.756 379.200,289.779 379.200 C 289.568 379.200,289.173 378.705,288.900 378.100 C 288.628 377.495,287.231 375.830,285.795 374.400 C 284.359 372.970,282.963 371.416,282.692 370.947 C 282.194 370.085,277.483 364.908,271.128 358.242 C 269.219 356.239,266.824 353.565,265.806 352.300 C 263.978 350.027,262.000 349.126,262.000 350.566 M77.219 351.180 C 76.225 351.808,83.621 351.892,143.712 351.929 C 199.814 351.965,203.047 351.923,202.577 351.163 C 202.281 350.685,77.977 350.701,77.219 351.180 M239.493 351.040 C 238.792 351.741,243.727 357.555,245.051 357.589 C 245.300 357.595,245.735 358.161,246.020 358.847 C 246.729 360.561,252.674 366.534,253.395 366.257 C 253.739 366.125,253.884 366.238,253.766 366.544 C 253.389 367.528,256.755 371.523,264.697 379.520 C 266.074 380.905,267.200 382.209,267.200 382.416 C 267.200 382.624,267.560 383.018,268.000 383.293 C 268.440 383.568,268.800 383.937,268.800 384.113 C 268.800 384.289,269.160 384.820,269.600 385.292 C 270.040 385.764,270.400 386.477,270.400 386.875 C 270.400 387.667,271.769 387.897,272.212 387.181 C 272.389 386.894,272.650 386.909,273.036 387.230 C 273.468 387.589,273.740 387.582,274.200 387.200 C 275.045 386.499,274.945 385.563,274.000 385.316 C 272.565 384.941,272.906 382.800,274.400 382.800 C 275.467 382.800,275.600 382.667,275.600 381.600 C 275.600 380.533,275.467 380.400,274.400 380.400 C 273.740 380.400,273.200 380.586,273.200 380.814 C 273.200 381.093,272.937 381.087,272.392 380.796 C 271.947 380.558,271.426 380.460,271.234 380.579 C 271.041 380.698,270.781 380.526,270.654 380.198 C 270.363 379.438,269.645 379.435,268.811 380.190 C 268.233 380.713,268.084 380.690,267.484 379.990 C 266.959 379.377,266.932 379.200,267.361 379.200 C 268.163 379.200,268.332 378.472,268.253 375.371 C 268.184 372.719,268.142 372.609,267.191 372.604 C 266.152 372.600,266.143 372.630,266.037 376.263 C 265.986 378.017,264.400 377.717,264.400 375.953 C 264.400 374.939,264.256 374.800,263.200 374.800 C 262.321 374.800,262.000 374.612,262.000 374.096 C 262.000 373.709,261.640 373.168,261.200 372.893 C 260.760 372.618,260.400 372.035,260.400 371.597 C 260.400 370.978,260.132 370.800,259.200 370.800 L 258.000 370.800 258.000 368.400 C 258.000 366.291,257.906 366.000,257.224 366.000 C 256.797 366.000,256.325 365.803,256.177 365.562 C 256.028 365.322,255.486 365.205,254.973 365.303 C 254.420 365.409,253.956 365.261,253.833 364.941 C 253.718 364.643,253.427 364.400,253.184 364.400 C 252.624 364.400,251.833 363.606,251.490 362.700 C 251.344 362.315,250.993 362.000,250.709 362.000 C 250.425 362.000,249.968 361.640,249.693 361.200 C 249.253 360.497,249.293 360.400,250.023 360.400 C 250.693 360.400,250.829 360.187,250.727 359.300 C 250.557 357.829,248.953 357.516,248.457 358.857 L 248.119 359.770 247.660 358.911 C 247.407 358.439,247.200 357.777,247.200 357.440 C 247.200 357.104,246.842 356.636,246.404 356.402 C 245.966 356.168,245.651 355.781,245.704 355.543 C 245.757 355.304,245.381 355.039,244.869 354.953 C 243.779 354.769,242.800 353.892,242.800 353.098 C 242.800 351.868,240.252 350.282,239.493 351.040 M260.544 357.803 C 260.402 358.171,260.566 358.738,260.914 359.086 C 261.764 359.935,262.891 359.448,262.728 358.302 C 262.570 357.191,260.923 356.815,260.544 357.803 M251.900 358.433 C 250.980 358.968,251.015 359.664,252.005 360.511 C 253.739 361.996,255.421 361.023,254.124 359.285 C 253.196 358.042,252.820 357.898,251.900 358.433 M269.755 364.172 C 269.357 365.210,269.915 366.068,270.898 365.928 C 271.559 365.834,271.800 365.533,271.800 364.800 C 271.800 363.619,270.161 363.116,269.755 364.172 M259.280 367.280 C 258.342 368.218,258.711 369.200,260.000 369.200 C 260.889 369.200,261.200 369.013,261.200 368.480 C 261.200 367.786,260.496 366.800,260.000 366.800 C 259.868 366.800,259.544 367.016,259.280 367.280 M12.971 380.300 C 12.511 381.323,12.458 382.389,12.854 382.633 C 13.044 382.751,13.200 383.197,13.200 383.624 C 13.200 384.801,13.869 384.552,14.340 383.200 C 15.036 381.203,13.770 378.521,12.971 380.300 M270.800 382.480 C 270.800 383.126,270.682 383.242,270.355 382.915 C 270.110 382.670,270.031 382.274,270.178 382.035 C 270.592 381.365,270.800 381.514,270.800 382.480 M11.280 385.680 C 10.666 386.294,10.666 387.306,11.280 387.920 C 11.846 388.486,22.225 388.607,22.568 388.051 C 22.843 387.608,20.468 387.210,17.509 387.204 C 15.510 387.201,15.135 387.073,14.563 386.200 C 13.851 385.113,12.121 384.839,11.280 385.680 M267.603 386.789 C 267.275 386.997,266.601 387.065,266.104 386.940 C 265.608 386.816,264.886 386.850,264.501 387.016 C 264.115 387.182,260.428 387.276,256.307 387.226 C 248.796 387.133,246.198 387.349,246.619 388.030 C 247.033 388.700,270.000 388.477,270.000 387.803 C 270.000 386.827,268.529 386.204,267.603 386.789 M312.178 386.836 C 311.952 387.201,310.176 387.253,304.935 387.048 C 298.149 386.783,296.003 387.034,296.612 388.020 C 297.029 388.694,350.800 388.518,350.800 387.843 C 350.800 386.946,349.055 386.740,341.410 386.734 C 337.445 386.730,329.312 386.643,323.338 386.540 C 315.113 386.398,312.404 386.470,312.178 386.836 M40.295 387.477 C 39.907 387.578,39.693 387.827,39.819 388.030 C 40.105 388.494,54.676 388.524,54.962 388.061 C 55.296 387.521,42.136 386.996,40.295 387.477 M122.078 387.500 C 106.786 387.570,98.841 387.743,99.002 388.003 C 99.313 388.507,158.259 388.552,158.570 388.049 C 158.947 387.438,156.473 387.197,150.850 387.297 C 147.853 387.350,134.905 387.441,122.078 387.500 M23.400 388.000 C 23.536 388.220,24.166 388.400,24.800 388.400 C 25.434 388.400,26.064 388.220,26.200 388.000 C 26.350 387.758,25.796 387.600,24.800 387.600 C 23.804 387.600,23.250 387.758,23.400 388.000 M69.400 388.000 C 69.551 388.244,72.596 388.400,77.200 388.400 C 81.804 388.400,84.849 388.244,85.000 388.000 C 85.162 387.738,82.463 387.600,77.200 387.600 C 71.937 387.600,69.238 387.738,69.400 388.000 M194.800 388.000 C 195.593 388.513,201.883 388.513,202.200 388.000 C 202.359 387.743,200.972 387.602,198.324 387.606 C 195.513 387.610,194.391 387.736,194.800 388.000 M209.800 388.000 C 210.117 388.513,216.407 388.513,217.200 388.000 C 217.609 387.736,216.487 387.610,213.676 387.606 C 211.028 387.602,209.641 387.743,209.800 388.000 M231.600 388.000 C 232.393 388.513,238.683 388.513,239.000 388.000 C 239.159 387.743,237.772 387.602,235.124 387.606 C 232.313 387.610,231.191 387.736,231.600 388.000 " stroke="none" fill="#edbba2" fill-rule="evenodd"></path><path id="path4" d="M105.000 17.465 C 104.120 17.542,83.570 17.648,59.333 17.702 C 35.096 17.756,15.146 17.921,14.998 18.068 C 14.391 18.676,14.046 21.260,14.638 20.768 C 14.947 20.512,15.200 19.904,15.200 19.417 L 15.200 18.532 81.447 18.256 C 131.048 18.049,147.833 18.095,148.247 18.439 C 149.203 19.232,149.058 145.966,148.100 147.505 C 147.325 148.748,141.822 154.020,139.546 155.698 C 138.746 156.288,135.956 158.823,133.346 161.332 C 130.736 163.841,126.800 167.402,124.600 169.246 C 122.400 171.090,119.790 173.432,118.800 174.451 C 117.810 175.469,116.625 176.495,116.166 176.730 C 115.708 176.965,114.898 177.796,114.366 178.576 C 113.835 179.356,113.192 179.996,112.939 179.997 C 112.685 179.999,111.245 181.163,109.739 182.585 C 105.914 186.195,106.488 186.453,97.544 177.100 C 86.743 165.805,84.400 162.936,84.400 161.006 C 84.400 160.657,84.085 159.891,83.700 159.304 C 83.043 158.301,82.994 154.889,82.907 104.018 C 82.808 46.078,82.862 48.217,81.504 47.853 C 79.606 47.345,47.787 47.573,47.115 48.100 C 46.588 48.513,45.554 311.929,45.932 349.590 C 45.959 352.352,46.492 353.206,48.176 353.194 C 48.917 353.189,48.899 353.137,48.000 352.682 L 47.000 352.176 46.899 200.717 C 46.808 63.422,46.858 49.199,47.428 48.629 C 48.323 47.734,80.828 47.669,81.568 48.561 C 81.917 48.982,81.977 55.813,81.806 75.861 C 81.140 154.133,81.138 150.869,81.859 151.665 C 82.478 152.349,82.478 152.451,81.862 153.131 C 81.047 154.032,81.007 155.342,81.774 155.979 C 82.090 156.241,82.465 157.028,82.607 157.728 C 83.298 161.126,84.280 163.403,85.918 165.400 C 87.683 167.552,92.550 172.913,94.800 175.183 C 101.703 182.148,104.877 185.928,104.587 186.841 C 104.448 187.280,104.536 187.600,104.797 187.600 C 105.044 187.600,105.147 187.438,105.024 187.239 C 104.902 187.041,105.386 186.533,106.101 186.111 C 108.307 184.808,112.844 181.127,115.604 178.400 C 118.762 175.279,122.621 171.723,125.802 169.000 C 127.087 167.900,130.405 164.930,133.176 162.400 C 135.946 159.870,139.644 156.540,141.394 155.000 C 143.143 153.460,145.798 151.066,147.293 149.680 C 148.896 148.194,150.201 147.277,150.474 147.445 C 150.806 147.651,150.832 147.515,150.568 146.966 C 150.033 145.853,149.855 116.000,150.384 116.000 C 150.929 116.000,150.967 59.859,150.422 58.841 C 149.854 57.779,149.786 28.454,150.351 27.889 C 150.984 27.256,150.909 24.734,150.228 23.761 C 149.913 23.312,149.530 21.826,149.375 20.458 C 149.184 18.768,148.882 17.858,148.433 17.618 C 147.823 17.291,108.592 17.153,105.000 17.465 M14.006 22.440 C 14.003 23.012,14.193 24.035,14.429 24.712 C 14.749 25.629,14.732 26.181,14.364 26.872 C 13.914 27.716,13.929 27.750,14.535 27.251 C 15.270 26.644,15.437 24.594,14.784 24.190 C 14.555 24.048,14.461 23.633,14.575 23.266 C 14.689 22.900,14.609 22.330,14.397 22.000 C 14.095 21.529,14.011 21.624,14.006 22.440 M258.671 70.435 C 257.610 70.861,255.655 71.972,254.326 72.905 C 252.997 73.837,251.503 74.871,251.007 75.203 C 250.510 75.535,249.120 76.795,247.917 78.003 C 246.714 79.211,243.591 82.180,240.977 84.600 C 231.682 93.204,217.311 106.609,211.400 112.188 C 203.795 119.366,192.740 129.700,186.817 135.169 C 184.296 137.496,180.426 141.134,178.217 143.252 C 176.008 145.371,173.730 147.531,173.155 148.052 C 168.730 152.063,163.433 157.008,161.322 159.100 C 159.934 160.475,158.647 161.600,158.462 161.600 C 158.276 161.600,156.250 163.445,153.959 165.700 C 150.186 169.412,145.389 173.925,135.615 182.955 C 133.737 184.690,131.618 186.708,130.908 187.440 C 130.197 188.173,129.064 189.057,128.390 189.405 C 127.717 189.753,126.965 190.435,126.719 190.919 C 126.474 191.404,124.727 193.240,122.836 195.000 C 120.946 196.760,116.909 200.540,113.866 203.400 C 110.822 206.260,108.032 208.755,107.666 208.945 C 107.300 209.135,106.008 210.305,104.797 211.545 C 103.585 212.785,98.752 217.490,94.058 222.000 C 80.561 234.967,81.692 231.165,81.917 262.800 C 81.946 266.870,81.812 275.150,81.619 281.200 C 81.426 287.250,81.342 300.111,81.432 309.780 C 81.618 329.895,81.765 331.114,84.258 333.306 L 85.730 334.600 92.765 334.918 C 100.986 335.289,123.749 335.333,133.099 334.996 C 137.080 334.853,140.175 334.921,141.087 335.173 C 142.059 335.441,142.712 335.448,142.968 335.192 C 143.184 334.976,143.944 334.800,144.657 334.800 C 146.583 334.800,148.655 333.425,148.950 331.952 C 149.099 331.203,149.498 330.647,149.975 330.522 C 150.799 330.307,151.202 274.498,150.389 273.183 C 150.216 272.902,150.271 272.355,150.513 271.968 C 150.838 271.447,150.824 271.110,150.457 270.668 C 150.121 270.264,150.097 269.988,150.381 269.812 C 150.994 269.433,150.892 268.035,150.200 267.343 C 149.404 266.546,149.441 265.205,150.293 263.989 C 150.674 263.445,150.935 262.695,150.872 262.322 C 150.543 260.374,154.253 255.744,162.088 248.326 C 165.646 244.957,170.997 239.835,173.979 236.943 C 176.961 234.052,180.300 230.922,181.400 229.986 C 182.500 229.051,184.660 226.998,186.200 225.424 C 187.740 223.850,189.855 221.956,190.900 221.214 C 191.945 220.471,192.800 219.648,192.800 219.383 C 192.800 219.118,193.655 218.130,194.700 217.186 C 195.745 216.242,200.560 211.662,205.400 207.009 C 210.240 202.355,215.353 197.480,216.762 196.174 C 220.599 192.618,221.373 191.880,227.648 185.800 C 230.826 182.720,237.013 176.780,241.395 172.600 C 245.777 168.420,252.611 161.833,256.581 157.963 C 260.552 154.092,265.235 149.592,266.989 147.963 C 271.575 143.703,280.295 135.358,282.400 133.215 C 283.390 132.207,287.341 128.416,291.181 124.791 C 295.020 121.166,303.840 112.588,310.781 105.730 C 317.721 98.871,328.597 88.135,334.949 81.871 C 341.827 75.090,346.387 70.302,346.221 70.034 C 345.654 69.116,260.992 69.504,258.671 70.435 M341.767 70.731 C 342.629 70.880,343.409 71.226,343.499 71.498 C 343.665 71.996,340.986 74.800,340.344 74.800 C 340.155 74.800,340.000 75.044,340.000 75.343 C 340.000 75.960,333.903 81.600,333.236 81.600 C 332.996 81.600,332.800 81.830,332.800 82.111 C 332.800 82.392,332.305 83.076,331.700 83.631 C 331.095 84.187,329.311 85.982,327.735 87.621 C 324.712 90.764,320.394 94.878,316.648 98.184 C 315.412 99.275,314.400 100.278,314.400 100.414 C 314.400 100.776,303.863 111.221,303.025 111.690 C 302.111 112.201,300.800 113.508,300.800 113.907 C 300.800 114.703,288.704 125.987,287.823 126.012 C 287.590 126.019,286.779 126.849,286.020 127.856 C 284.366 130.051,283.830 130.598,278.056 136.000 C 275.587 138.310,270.563 143.125,266.891 146.700 C 263.220 150.275,259.987 153.200,259.708 153.200 C 259.429 153.200,259.200 153.366,259.200 153.568 C 259.200 153.968,252.003 161.181,246.796 166.000 C 245.013 167.650,241.360 171.205,238.678 173.900 C 235.996 176.595,233.704 178.800,233.584 178.800 C 233.464 178.800,232.283 179.835,230.960 181.100 C 229.637 182.365,225.443 186.370,221.639 190.000 C 217.835 193.630,213.060 198.220,211.027 200.200 C 208.994 202.180,206.627 204.473,205.766 205.296 C 204.905 206.119,203.750 207.259,203.200 207.830 C 202.650 208.401,201.570 209.345,200.800 209.927 C 200.030 210.510,197.420 212.970,195.000 215.393 C 192.580 217.817,189.385 220.880,187.900 222.200 C 184.573 225.157,182.587 227.045,180.924 228.830 C 180.222 229.584,178.113 231.616,176.236 233.346 C 174.360 235.077,172.729 236.793,172.613 237.160 C 172.496 237.527,171.903 238.121,171.295 238.480 C 170.687 238.840,168.350 240.904,166.103 243.067 C 160.948 248.029,155.936 252.820,155.083 253.600 C 154.026 254.566,152.800 255.981,152.800 256.235 C 152.800 256.364,152.259 257.222,151.599 258.142 C 148.699 262.179,148.343 265.332,148.652 284.200 C 148.935 301.514,148.509 331.314,147.982 330.989 C 147.803 330.878,147.599 331.196,147.529 331.694 C 147.375 332.780,145.192 333.961,143.182 334.046 C 134.902 334.399,87.326 333.895,86.259 333.443 C 83.797 332.401,82.394 328.825,82.633 324.200 C 83.440 308.587,83.652 261.995,82.995 244.691 C 82.751 238.278,83.079 235.856,84.298 235.080 C 84.574 234.904,84.800 234.243,84.800 233.611 C 84.800 232.265,86.584 229.942,87.383 230.249 C 87.700 230.370,88.038 230.112,88.191 229.630 C 88.477 228.726,93.413 223.653,96.600 220.986 C 97.700 220.065,100.553 217.397,102.941 215.056 C 105.329 212.715,107.409 210.800,107.564 210.800 C 107.720 210.800,108.376 210.084,109.023 209.209 C 109.670 208.335,110.515 207.615,110.900 207.609 C 111.285 207.604,111.555 207.457,111.500 207.283 C 111.368 206.865,116.572 202.000,117.151 202.000 C 117.398 202.000,117.600 201.860,117.600 201.689 C 117.600 201.199,123.402 195.600,123.910 195.600 C 124.095 195.600,124.776 194.884,125.423 194.009 C 126.070 193.135,126.741 192.415,126.914 192.409 C 127.087 192.404,128.167 191.488,129.314 190.374 C 130.461 189.260,133.826 186.065,136.791 183.274 C 139.756 180.483,142.996 177.386,143.991 176.391 C 144.986 175.396,146.520 174.053,147.400 173.406 C 148.280 172.760,149.625 171.594,150.390 170.816 C 151.154 170.038,152.009 169.453,152.290 169.518 C 152.570 169.582,152.800 169.357,152.800 169.018 C 152.800 168.667,153.145 168.400,153.600 168.400 C 154.133 168.400,154.400 168.133,154.400 167.600 C 154.400 167.160,154.539 166.800,154.710 166.800 C 155.186 166.800,159.200 162.805,159.200 162.331 C 159.200 162.085,159.611 162.016,160.200 162.164 C 160.777 162.309,161.200 162.243,161.200 162.008 C 161.200 161.783,161.031 161.600,160.824 161.600 C 159.871 161.600,170.810 151.342,174.691 148.596 C 175.622 147.938,176.387 147.196,176.391 146.947 C 176.396 146.697,176.778 146.394,177.240 146.274 C 177.707 146.152,177.962 145.863,177.815 145.624 C 177.669 145.388,177.831 145.086,178.175 144.954 C 178.519 144.822,178.800 144.464,178.800 144.157 C 178.800 143.851,179.020 143.600,179.289 143.600 C 179.558 143.600,180.953 142.370,182.389 140.867 C 183.825 139.364,185.990 137.364,187.200 136.423 C 188.410 135.481,189.540 134.469,189.711 134.172 C 189.881 133.876,190.286 133.735,190.611 133.859 C 191.015 134.015,191.200 133.821,191.200 133.243 C 191.200 132.760,191.457 132.400,191.800 132.400 C 192.130 132.400,192.400 132.227,192.400 132.016 C 192.400 131.351,201.303 122.800,201.995 122.800 C 202.218 122.800,202.355 122.598,202.300 122.352 C 202.185 121.837,204.280 120.473,205.251 120.429 C 205.609 120.413,206.502 119.410,207.236 118.200 C 207.969 116.990,208.690 116.000,208.837 116.000 C 209.263 116.000,215.057 110.149,215.327 109.447 C 215.461 109.097,215.829 108.913,216.149 109.036 C 216.505 109.172,216.829 108.939,216.991 108.429 C 217.136 107.973,217.525 107.600,217.856 107.600 C 218.187 107.600,220.052 105.980,222.000 104.000 C 223.948 102.020,225.735 100.400,225.971 100.400 C 226.207 100.400,226.400 100.133,226.400 99.807 C 226.400 99.480,227.525 98.321,228.900 97.231 C 230.275 96.141,231.910 94.698,232.534 94.024 C 233.158 93.351,234.013 92.800,234.434 92.800 C 234.855 92.800,235.200 92.579,235.200 92.308 C 235.200 91.694,244.344 82.880,245.300 82.572 C 245.685 82.448,246.000 82.124,246.000 81.852 C 246.000 81.174,248.312 79.035,249.919 78.225 C 251.748 77.303,252.800 76.338,252.800 75.583 C 252.800 75.196,254.182 74.165,256.300 72.972 L 259.800 71.000 277.200 70.800 C 305.494 70.475,340.081 70.438,341.767 70.731 M14.051 208.895 C 13.956 222.624,14.041 230.422,14.285 230.271 C 14.707 230.010,14.867 188.353,14.447 187.679 C 14.311 187.461,14.133 197.008,14.051 208.895 M14.193 330.927 C 14.198 358.578,14.327 372.986,14.545 370.200 C 15.097 363.151,15.037 288.631,14.479 287.727 C 14.318 287.467,14.190 306.908,14.193 330.927 M55.005 351.993 C 54.834 352.269,54.097 352.351,53.065 352.207 C 52.149 352.080,50.860 352.139,50.200 352.338 C 49.230 352.630,49.593 352.707,52.085 352.736 C 54.804 352.767,56.118 352.384,55.480 351.747 C 55.370 351.637,55.156 351.747,55.005 351.993 M77.200 351.956 C 77.200 352.898,202.353 353.142,202.667 352.200 C 202.756 351.934,183.211 351.867,144.300 352.000 C 112.125 352.110,85.629 352.065,85.420 351.900 C 84.880 351.474,77.200 351.526,77.200 351.956 M239.120 351.813 C 238.644 352.289,239.292 353.368,241.162 355.213 C 243.487 357.507,248.822 363.327,255.560 370.920 C 258.450 374.176,261.986 377.937,263.418 379.277 C 265.993 381.685,268.372 385.523,267.590 386.006 C 267.382 386.134,262.665 386.283,257.106 386.337 C 246.570 386.440,244.888 386.716,246.376 388.097 C 246.736 388.432,246.829 388.442,246.652 388.128 C 246.165 387.260,249.443 387.070,261.200 387.285 C 262.764 387.314,267.180 386.860,268.061 386.580 C 268.553 386.424,269.152 386.594,269.629 387.026 C 270.366 387.693,270.400 387.689,270.400 386.924 C 270.400 386.484,270.040 385.798,269.600 385.400 C 269.160 385.002,268.800 384.477,268.800 384.234 C 268.800 383.991,268.440 383.568,268.000 383.293 C 267.560 383.018,267.200 382.656,267.200 382.487 C 267.200 382.319,264.576 379.485,261.368 376.191 C 258.161 372.896,255.056 369.478,254.468 368.595 C 253.881 367.712,251.735 365.354,249.700 363.354 C 247.665 361.355,246.000 359.512,246.000 359.259 C 246.000 358.766,245.719 358.467,242.377 355.400 C 241.178 354.300,240.015 352.983,239.791 352.474 C 239.568 351.965,239.266 351.667,239.120 351.813 M14.442 380.933 C 14.824 381.771,14.824 382.229,14.442 383.067 C 14.009 384.017,14.024 384.078,14.578 383.618 C 14.920 383.334,15.200 382.606,15.200 382.000 C 15.200 381.394,14.920 380.666,14.578 380.382 C 14.024 379.922,14.009 379.983,14.442 380.933 M14.390 385.982 C 14.883 386.903,15.607 387.128,18.079 387.127 C 19.112 387.127,20.507 387.248,21.179 387.395 C 22.585 387.704,22.880 387.022,21.500 386.652 C 21.005 386.519,19.385 386.408,17.900 386.405 C 16.415 386.402,15.200 386.239,15.200 386.043 C 15.200 385.846,14.926 385.580,14.591 385.452 C 14.099 385.263,14.061 385.366,14.390 385.982 M24.055 386.933 C 23.703 387.358,23.857 387.467,24.806 387.467 C 26.095 387.467,26.389 387.035,25.367 386.643 C 24.537 386.324,24.566 386.318,24.055 386.933 M40.500 386.665 C 39.089 387.234,40.665 387.400,47.500 387.400 C 53.957 387.400,54.982 387.483,54.871 388.000 C 54.771 388.470,54.849 388.495,55.234 388.117 C 55.623 387.735,55.619 387.505,55.214 387.017 C 54.711 386.410,41.891 386.104,40.500 386.665 M70.100 386.665 C 68.686 387.235,70.275 387.400,77.200 387.400 C 84.295 387.400,85.733 387.244,84.167 386.643 C 83.415 386.354,70.822 386.374,70.100 386.665 M99.700 386.812 C 99.205 387.011,98.800 387.225,98.800 387.287 C 98.800 387.349,112.210 387.400,128.600 387.400 C 156.194 387.400,159.516 387.314,157.767 386.643 C 156.743 386.250,100.692 386.414,99.700 386.812 M195.000 387.200 C 194.842 387.456,196.129 387.600,198.576 387.600 C 200.859 387.600,202.400 387.439,202.400 387.200 C 202.400 386.963,200.941 386.800,198.824 386.800 C 196.857 386.800,195.136 386.980,195.000 387.200 M209.600 387.200 C 209.600 387.439,211.141 387.600,213.424 387.600 C 215.871 387.600,217.158 387.456,217.000 387.200 C 216.864 386.980,215.143 386.800,213.176 386.800 C 211.059 386.800,209.600 386.963,209.600 387.200 M231.600 387.200 C 231.600 387.439,233.133 387.600,235.400 387.600 C 237.667 387.600,239.200 387.439,239.200 387.200 C 239.200 386.961,237.667 386.800,235.400 386.800 C 233.133 386.800,231.600 386.961,231.600 387.200 " stroke="none" fill="#953d3b" fill-rule="evenodd"></path></g></svg>