<svg id="svg" version="1.1" xmlns="http://www.w3.org/2000/svg" xmlns:xlink="http://www.w3.org/1999/xlink" width="400" height="400" viewBox="0, 0, 400,400"><g id="svgg"><path id="path0" d="M172.400 25.040 C 173.390 25.122,175.685 25.298,177.500 25.430 L 180.800 25.672 180.800 35.236 L 180.800 44.800 179.700 44.806 C 178.596 44.812,177.050 45.515,177.800 45.670 C 178.020 45.716,176.490 45.864,174.400 46.000 C 172.310 46.136,192.335 46.281,218.900 46.323 C 259.407 46.388,267.200 46.312,267.200 45.856 C 267.200 45.217,269.953 44.809,274.300 44.803 L 277.200 44.800 277.200 35.245 L 277.200 25.691 272.900 25.443 C 268.361 25.182,169.309 24.785,172.400 25.040 M120.800 200.000 C 120.800 271.146,120.911 293.200,121.270 293.200 C 121.529 293.200,122.744 292.141,123.970 290.847 C 127.081 287.564,136.207 277.613,137.728 275.846 C 138.326 275.150,141.665 271.520,146.200 266.636 C 146.640 266.162,147.798 264.880,148.773 263.787 C 149.749 262.694,152.359 259.838,154.573 257.439 C 160.226 251.318,160.242 251.300,163.800 247.394 C 165.560 245.461,167.450 243.390,168.000 242.791 C 168.550 242.192,170.350 240.216,172.000 238.400 C 173.650 236.584,175.450 234.608,176.000 234.009 C 176.550 233.410,177.973 231.858,179.162 230.560 C 180.351 229.262,183.132 226.255,185.343 223.877 L 189.362 219.555 190.666 221.077 C 191.383 221.915,191.977 222.825,191.985 223.100 C 191.993 223.375,192.141 223.600,192.314 223.600 C 192.486 223.600,192.949 224.145,193.343 224.811 C 193.736 225.477,194.495 226.459,195.029 226.993 C 195.563 227.527,196.000 228.118,196.000 228.306 C 196.000 228.495,196.324 228.998,196.721 229.425 C 197.118 229.851,199.035 232.360,200.983 235.000 C 202.930 237.640,204.636 239.890,204.774 240.000 C 204.912 240.110,205.884 241.370,206.935 242.800 C 207.985 244.230,209.062 245.670,209.328 246.000 C 209.594 246.330,210.256 247.230,210.800 248.000 C 211.344 248.770,212.011 249.670,212.283 250.000 C 212.556 250.330,214.582 253.030,216.786 256.000 C 221.867 262.845,222.467 263.632,223.200 264.409 C 223.530 264.759,224.427 265.935,225.193 267.022 C 226.649 269.089,227.460 270.131,228.300 271.016 C 228.575 271.306,228.804 271.691,228.809 271.871 C 228.814 272.052,229.399 272.861,230.109 273.670 C 230.819 274.478,232.420 276.548,233.666 278.270 C 234.912 279.991,236.322 281.850,236.801 282.400 C 237.279 282.950,237.963 283.895,238.321 284.500 C 238.680 285.105,239.114 285.600,239.286 285.600 C 239.459 285.600,239.600 285.790,239.600 286.022 C 239.600 286.254,240.139 287.019,240.798 287.722 C 241.457 288.425,241.997 289.132,241.998 289.293 C 242.000 289.558,242.969 290.743,244.888 292.829 C 245.838 293.861,295.854 294.047,296.248 293.020 C 296.486 292.399,295.388 290.623,293.515 288.600 C 292.904 287.940,292.403 287.252,292.402 287.071 C 292.401 286.891,292.175 286.514,291.900 286.235 C 291.382 285.709,290.971 285.172,287.741 280.800 C 286.685 279.370,284.729 276.850,283.395 275.200 C 282.061 273.550,280.535 271.570,280.004 270.800 C 279.473 270.030,278.939 269.310,278.818 269.200 C 278.697 269.090,277.790 267.920,276.802 266.600 C 275.815 265.280,274.690 263.909,274.303 263.553 C 273.917 263.197,273.600 262.702,273.600 262.453 C 273.600 262.204,273.420 262.000,273.200 262.000 C 272.980 262.000,272.800 261.730,272.800 261.400 C 272.800 261.070,272.656 260.800,272.480 260.800 C 272.304 260.800,271.642 259.981,271.009 258.981 C 270.377 257.980,269.663 257.035,269.423 256.881 C 269.183 256.726,268.719 256.212,268.393 255.737 C 266.823 253.452,261.770 246.926,261.127 246.353 C 260.727 245.997,260.400 245.544,260.400 245.346 C 260.400 245.148,259.680 244.089,258.800 242.993 C 257.920 241.897,257.057 240.820,256.882 240.600 C 256.526 240.151,252.898 235.443,251.026 233.001 C 250.352 232.121,249.215 230.694,248.500 229.829 C 247.785 228.964,247.200 228.091,247.200 227.888 C 247.200 227.686,246.660 227.017,246.000 226.400 C 245.340 225.783,244.800 225.097,244.800 224.874 C 244.800 224.651,244.170 223.820,243.400 223.027 C 242.630 222.234,242.000 221.431,242.000 221.243 C 242.000 221.055,241.404 220.249,240.674 219.453 L 239.349 218.006 215.185 217.903 L 191.022 217.800 193.808 214.600 C 195.340 212.840,197.495 210.484,198.597 209.364 C 199.699 208.245,201.860 205.933,203.400 204.227 C 204.940 202.520,206.920 200.361,207.800 199.427 C 208.680 198.493,210.197 196.845,211.172 195.765 C 212.146 194.684,214.925 191.674,217.347 189.075 C 219.769 186.476,222.090 183.956,222.505 183.475 C 222.920 182.994,225.092 180.642,227.330 178.248 C 229.569 175.855,231.831 173.425,232.357 172.848 C 232.883 172.272,234.503 170.534,235.957 168.986 C 237.411 167.439,240.310 164.306,242.400 162.025 C 244.490 159.744,247.831 156.150,249.825 154.039 C 251.818 151.927,254.338 149.214,255.425 148.010 C 256.511 146.805,258.030 145.179,258.800 144.396 C 259.570 143.613,261.270 141.808,262.577 140.386 C 263.884 138.964,266.404 136.265,268.177 134.388 C 269.950 132.512,273.110 129.133,275.200 126.879 C 277.290 124.625,280.260 121.467,281.800 119.862 C 283.340 118.256,286.040 115.343,287.800 113.388 C 289.560 111.434,291.500 109.300,292.110 108.647 C 293.838 106.800,294.028 106.813,264.150 106.806 L 236.100 106.800 232.950 110.272 C 231.218 112.182,228.990 114.597,228.000 115.639 C 227.010 116.681,225.589 118.223,224.842 119.067 C 222.828 121.340,216.038 128.715,214.200 130.625 C 213.320 131.540,211.229 133.799,209.554 135.644 C 205.233 140.403,204.740 140.942,200.658 145.356 C 198.646 147.532,196.670 149.692,196.268 150.156 C 194.703 151.959,181.741 165.895,180.972 166.600 C 180.733 166.820,179.561 168.154,178.368 169.565 C 177.176 170.976,174.645 173.766,172.743 175.765 C 170.842 177.764,168.191 180.570,166.851 182.000 L 164.415 184.600 164.407 146.180 C 164.402 116.839,164.287 107.647,163.920 107.280 C 163.559 106.919,158.169 106.800,142.120 106.800 L 120.800 106.800 120.800 200.000 M34.514 354.061 C 35.171 354.566,35.218 355.418,35.114 364.905 L 35.000 375.201 37.700 375.200 L 40.400 375.200 40.400 364.824 C 40.400 357.508,40.266 354.364,39.945 354.166 C 38.973 353.565,33.736 353.464,34.514 354.061 M63.314 354.061 C 63.971 354.566,64.018 355.418,63.914 364.905 L 63.800 375.201 66.500 375.200 L 69.200 375.200 69.200 364.824 C 69.200 357.508,69.066 354.364,68.745 354.166 C 67.773 353.565,62.536 353.464,63.314 354.061 M92.300 353.865 C 92.682 354.019,92.800 356.554,92.800 364.633 L 92.800 375.200 95.400 375.200 L 98.000 375.200 98.000 364.652 L 98.000 354.105 96.500 353.857 C 94.739 353.566,91.574 353.572,92.300 353.865 M171.340 353.989 C 174.970 354.178,177.867 354.507,178.120 354.760 C 178.362 355.002,179.064 355.200,179.680 355.200 L 180.800 355.200 180.800 364.600 L 180.800 374.000 179.400 374.000 C 178.630 374.000,178.000 374.170,178.000 374.377 C 178.000 374.584,177.235 374.823,176.300 374.907 C 175.365 374.991,196.071 375.092,222.313 375.130 C 264.398 375.192,270.052 375.129,270.255 374.600 C 270.435 374.133,271.228 374.000,273.843 374.000 L 277.200 374.000 277.200 364.600 L 277.200 355.200 273.500 355.143 C 270.873 355.103,270.264 355.013,271.400 354.832 C 274.358 354.362,251.694 354.003,208.200 353.830 C 182.980 353.730,167.639 353.796,171.340 353.989 M114.173 364.400 C 114.173 369.790,114.230 371.995,114.299 369.300 C 114.368 366.605,114.368 362.195,114.299 359.500 C 114.230 356.805,114.173 359.010,114.173 364.400 " stroke="none" fill="#bc2424" fill-rule="evenodd"></path><path id="path1" d="M25.600 120.800 C 25.600 184.533,25.466 216.800,25.200 216.800 C 24.935 216.800,24.800 237.400,24.800 277.800 C 24.800 324.978,24.909 338.800,25.280 338.800 C 25.653 338.800,25.653 338.907,25.280 339.280 C 24.702 339.858,24.632 344.000,25.200 344.000 C 25.420 344.000,25.600 344.360,25.600 344.800 C 25.600 345.580,25.865 345.600,36.300 345.594 C 46.023 345.588,48.136 345.419,48.034 344.655 C 48.015 344.515,48.000 277.350,48.000 195.400 L 48.000 46.400 73.100 46.323 C 86.905 46.280,96.400 46.135,94.200 46.000 C 91.292 45.822,90.834 45.734,92.524 45.677 C 93.954 45.630,94.752 45.446,94.600 45.200 C 94.453 44.962,94.925 44.800,95.763 44.800 L 97.172 44.800 97.286 35.197 C 97.349 29.915,97.340 25.415,97.267 25.197 C 97.180 24.938,84.664 24.800,61.367 24.800 L 25.600 24.800 25.600 120.800 M25.867 353.867 C 25.720 354.013,25.600 358.882,25.600 364.687 L 25.600 375.240 27.900 375.120 L 30.200 375.000 30.307 364.628 C 30.390 356.597,30.299 354.183,29.907 353.934 C 29.293 353.544,26.240 353.494,25.867 353.867 M54.685 353.849 C 54.528 354.005,54.400 358.873,54.400 364.667 L 54.400 375.200 56.807 375.200 L 59.213 375.200 59.107 364.500 L 59.000 353.800 56.985 353.682 C 55.876 353.617,54.841 353.692,54.685 353.849 M83.700 353.865 C 83.318 354.019,83.200 356.554,83.200 364.633 L 83.200 375.200 85.587 375.200 L 87.974 375.200 88.087 364.970 C 88.149 359.344,88.056 354.484,87.880 354.170 C 87.568 353.614,84.819 353.414,83.700 353.865 " stroke="none" fill="#e05524" fill-rule="evenodd"></path><path id="path2" d="M97.223 25.271 C 97.263 25.562,97.273 30.075,97.247 35.300 L 97.200 44.800 95.776 44.800 C 94.929 44.800,94.453 44.962,94.600 45.200 C 94.752 45.447,93.956 45.626,92.524 45.668 C 83.096 45.945,104.629 46.307,133.037 46.349 C 166.105 46.399,178.166 46.191,177.788 45.581 C 177.552 45.198,178.595 44.800,179.833 44.800 L 180.800 44.800 180.800 35.240 L 180.800 25.681 178.900 25.415 C 174.799 24.843,97.147 24.706,97.223 25.271 M29.913 353.938 C 30.314 354.192,30.402 356.554,30.313 364.749 L 30.200 375.234 32.600 375.117 L 35.000 375.000 35.107 364.800 C 35.230 353.099,35.385 353.596,31.624 353.606 C 30.324 353.610,29.613 353.748,29.913 353.938 M59.113 364.419 L 59.225 375.239 61.513 375.120 L 63.800 375.000 63.907 364.800 C 64.029 353.232,64.130 353.600,60.824 353.600 L 59.000 353.599 59.113 364.419 M87.801 354.002 C 87.938 354.223,88.033 359.083,88.013 364.802 L 87.977 375.200 90.389 375.200 L 92.800 375.200 92.800 364.643 C 92.800 352.758,93.048 353.600,89.544 353.600 C 88.312 353.600,87.648 353.753,87.801 354.002 M114.667 353.867 C 114.520 354.013,114.400 358.881,114.400 364.685 L 114.400 375.236 146.067 375.118 C 170.960 375.025,177.769 374.893,177.900 374.500 C 177.992 374.225,178.682 374.000,179.433 374.000 L 180.800 374.000 180.800 364.600 L 180.800 355.200 179.680 355.200 C 179.064 355.200,178.372 355.012,178.142 354.782 C 177.202 353.842,115.581 352.953,114.667 353.867 " stroke="none" fill="#cc3c24" fill-rule="evenodd"></path><path id="path3" d="M345.800 25.173 C 342.276 25.423,342.892 25.985,346.700 25.995 L 348.800 26.000 348.800 35.400 L 348.800 44.800 346.033 44.800 C 344.263 44.800,343.210 44.970,343.109 45.272 C 343.010 45.571,341.418 45.842,338.776 46.009 C 336.190 46.174,340.578 46.298,350.300 46.337 L 366.000 46.400 366.000 200.000 L 366.000 353.600 337.500 353.694 L 309.000 353.789 329.000 354.000 C 340.000 354.116,347.560 354.272,345.800 354.345 C 342.250 354.494,342.906 355.088,346.700 355.160 L 348.800 355.200 348.800 364.600 L 348.800 374.000 346.500 374.064 C 345.072 374.104,344.696 374.189,345.508 374.290 C 346.227 374.379,346.711 374.620,346.584 374.826 C 346.442 375.056,354.509 375.200,367.576 375.200 L 388.800 375.200 388.800 200.000 L 388.800 24.800 368.900 24.873 C 357.955 24.914,347.560 25.049,345.800 25.173 M120.300 166.700 C 120.355 199.425,120.446 241.230,120.502 259.600 C 120.559 277.970,120.649 251.195,120.702 200.100 C 120.756 149.005,120.665 107.200,120.500 107.200 C 120.335 107.200,120.245 133.975,120.300 166.700 M292.394 108.533 C 292.061 108.790,291.454 109.540,291.044 110.200 C 290.412 111.217,290.521 111.162,291.757 109.841 C 293.222 108.275,293.521 107.662,292.394 108.533 M227.587 115.212 C 226.874 115.878,226.372 116.506,226.472 116.606 C 226.573 116.706,227.263 116.161,228.006 115.394 C 229.666 113.681,229.366 113.550,227.587 115.212 M219.000 124.546 C 217.480 126.312,217.361 126.553,218.292 125.973 C 218.783 125.667,219.282 125.163,219.402 124.851 C 219.687 124.107,219.500 123.965,219.000 124.546 M267.634 135.353 L 266.669 136.600 267.813 135.512 C 268.443 134.914,268.877 134.353,268.779 134.265 C 268.680 134.177,268.165 134.667,267.634 135.353 M209.200 135.200 C 208.693 135.640,208.472 136.000,208.710 136.000 C 209.127 136.000,210.400 134.924,210.400 134.571 C 210.400 134.253,210.126 134.397,209.200 135.200 M190.860 155.042 C 190.562 155.378,190.399 155.732,190.495 155.829 C 190.592 155.926,190.998 155.644,191.398 155.202 C 191.797 154.761,191.961 154.407,191.762 154.415 C 191.563 154.424,191.157 154.705,190.860 155.042 M184.200 162.400 C 183.568 163.060,183.219 163.590,183.425 163.578 C 183.778 163.557,185.839 161.200,185.505 161.200 C 185.420 161.200,184.832 161.740,184.200 162.400 M226.460 179.068 C 225.734 179.853,226.025 180.064,226.925 179.406 C 227.322 179.115,227.502 178.788,227.324 178.680 C 227.146 178.572,226.757 178.747,226.460 179.068 M165.821 182.329 L 164.643 183.800 166.121 182.422 C 167.649 180.997,167.810 180.780,167.300 180.829 C 167.135 180.845,166.470 181.520,165.821 182.329 M198.629 209.429 C 198.205 209.738,197.972 210.105,198.110 210.243 C 198.249 210.382,198.662 210.195,199.029 209.829 C 199.891 208.966,199.625 208.700,198.629 209.429 M188.175 221.300 L 187.000 222.600 188.300 221.425 C 189.512 220.330,189.784 220.000,189.475 220.000 C 189.406 220.000,188.821 220.585,188.175 221.300 M155.780 256.462 C 154.706 257.596,154.008 258.451,154.229 258.362 C 154.685 258.178,158.201 254.400,157.917 254.400 C 157.816 254.400,156.854 255.328,155.780 256.462 M130.433 283.915 C 130.121 284.292,129.491 285.045,129.033 285.589 C 128.481 286.244,128.762 286.109,129.866 285.189 C 131.456 283.863,131.951 283.182,131.300 283.215 C 131.135 283.224,130.745 283.539,130.433 283.915 M43.071 353.878 C 44.769 354.209,44.832 354.646,44.714 365.158 L 44.600 375.201 46.300 375.200 L 48.000 375.200 48.000 364.400 L 48.000 353.600 45.100 353.654 C 43.505 353.684,42.592 353.785,43.071 353.878 M72.200 353.951 L 73.400 354.208 73.507 364.704 L 73.613 375.200 75.207 375.200 L 76.800 375.200 76.800 364.400 L 76.800 353.600 73.900 353.647 C 71.969 353.679,71.401 353.780,72.200 353.951 M101.000 353.941 L 102.200 354.208 102.307 364.704 L 102.413 375.200 104.213 375.200 L 106.013 375.200 105.907 364.500 L 105.800 353.800 102.800 353.737 C 101.014 353.700,100.286 353.783,101.000 353.941 " stroke="none" fill="#791c15" fill-rule="evenodd"></path><path id="path4" d="M262.800 25.221 C 267.970 25.371,273.325 25.517,274.700 25.547 L 277.200 25.600 277.200 35.200 L 277.200 44.800 274.300 44.803 C 269.953 44.809,267.200 45.217,267.200 45.856 C 267.200 47.049,342.717 46.449,343.116 45.252 C 343.209 44.974,344.331 44.800,346.033 44.800 L 348.800 44.800 348.800 35.400 L 348.800 26.000 346.700 25.995 C 342.892 25.985,342.276 25.423,345.800 25.173 C 347.560 25.049,327.490 24.947,301.200 24.947 C 274.910 24.948,257.630 25.071,262.800 25.221 M120.099 200.051 C 120.005 287.882,120.036 292.731,120.700 293.251 C 121.320 293.737,121.343 293.727,120.901 293.160 C 120.506 292.654,120.380 273.190,120.300 199.960 L 120.198 107.400 120.099 200.051 M230.500 112.311 C 229.785 113.087,229.200 113.874,229.200 114.062 C 229.200 114.249,229.855 113.677,230.656 112.791 C 231.457 111.904,232.042 111.116,231.956 111.040 C 231.870 110.964,231.215 111.536,230.500 112.311 M285.583 115.900 L 283.800 117.800 285.793 116.000 C 286.888 115.010,287.863 114.155,287.959 114.100 C 288.055 114.045,287.961 114.000,287.750 114.000 C 287.539 114.000,286.564 114.855,285.583 115.900 M221.749 121.843 C 220.841 122.817,220.211 123.668,220.349 123.733 C 220.487 123.799,221.390 122.986,222.357 121.927 C 223.323 120.867,223.953 120.016,223.757 120.036 C 223.560 120.056,222.657 120.869,221.749 121.843 M215.232 128.967 C 215.214 129.388,215.083 129.616,214.940 129.473 C 214.796 129.330,214.442 129.525,214.152 129.906 C 213.260 131.081,213.544 131.284,214.648 130.261 C 215.225 129.726,215.599 129.044,215.480 128.744 C 215.339 128.391,215.252 128.469,215.232 128.967 M211.116 133.227 C 210.520 133.872,210.161 134.400,210.320 134.400 C 210.642 134.400,212.800 132.472,212.800 132.184 C 212.800 131.724,212.110 132.152,211.116 133.227 M266.275 136.324 C 265.233 137.382,264.504 138.371,264.655 138.521 C 264.805 138.672,265.125 138.412,265.364 137.943 C 265.604 137.473,265.958 137.126,266.151 137.170 C 266.343 137.214,266.718 136.834,266.983 136.325 C 267.248 135.816,267.646 135.435,267.866 135.478 C 268.086 135.521,268.267 135.296,268.267 134.978 C 268.267 134.238,268.456 134.110,266.275 136.324 M202.564 142.659 C 201.444 143.834,200.598 144.865,200.685 144.951 C 200.771 145.038,201.760 144.137,202.883 142.950 C 204.006 141.762,204.851 140.731,204.762 140.658 C 204.673 140.585,203.684 141.485,202.564 142.659 M257.637 145.542 C 257.327 145.904,256.345 146.965,255.454 147.900 C 254.233 149.181,254.008 149.600,254.540 149.600 C 254.929 149.600,255.150 149.442,255.030 149.249 C 254.911 149.055,255.699 148.069,256.781 147.057 C 257.863 146.044,258.625 145.141,258.474 145.050 C 258.324 144.959,257.947 145.180,257.637 145.542 M198.081 147.545 C 196.916 148.728,196.061 149.794,196.181 149.915 C 196.302 150.035,196.445 150.055,196.500 149.958 C 196.555 149.862,197.489 148.846,198.576 147.701 C 201.202 144.934,200.784 144.802,198.081 147.545 M250.989 152.900 L 248.200 155.800 251.189 153.000 C 252.833 151.460,254.258 150.155,254.356 150.100 C 254.453 150.045,254.364 150.000,254.156 150.000 C 253.948 150.000,252.523 151.305,250.989 152.900 M193.686 152.280 C 192.744 153.284,192.069 154.202,192.186 154.319 C 192.304 154.437,192.445 154.455,192.500 154.359 C 192.555 154.263,193.402 153.333,194.383 152.293 C 195.364 151.252,195.994 150.412,195.783 150.427 C 195.572 150.443,194.629 151.276,193.686 152.280 M244.470 159.726 C 243.991 160.235,243.600 160.788,243.600 160.954 C 243.600 161.269,244.203 160.702,245.149 159.498 C 245.943 158.489,245.489 158.640,244.470 159.726 M186.033 160.715 C 185.721 161.092,185.094 161.850,184.639 162.400 C 184.183 162.950,184.573 162.688,185.505 161.819 C 186.437 160.949,187.200 160.184,187.200 160.119 C 187.200 159.774,186.529 160.117,186.033 160.715 M182.323 164.300 C 181.574 165.172,181.058 166.535,181.605 166.197 C 181.822 166.063,182.000 165.767,182.000 165.541 C 182.000 165.314,182.405 164.790,182.900 164.377 C 183.395 163.964,183.603 163.621,183.362 163.613 C 183.121 163.606,182.653 163.915,182.323 164.300 M233.868 171.196 C 232.627 172.518,231.707 173.600,231.823 173.600 C 232.180 173.600,236.478 169.144,236.296 168.963 C 236.202 168.869,235.110 169.874,233.868 171.196 M175.734 171.924 C 174.011 173.865,173.642 174.827,175.276 173.119 C 177.373 170.928,178.119 170.001,177.770 170.024 C 177.566 170.038,176.650 170.893,175.734 171.924 M221.764 184.263 C 216.653 189.758,215.615 191.260,220.148 186.600 C 223.522 183.131,226.250 180.000,225.898 180.000 C 225.805 180.000,223.944 181.918,221.764 184.263 M165.454 183.033 C 164.823 183.587,164.387 184.120,164.483 184.216 C 164.579 184.313,165.174 183.854,165.804 183.196 C 167.196 181.743,167.016 181.659,165.454 183.033 M214.075 192.524 C 213.154 193.462,212.400 194.365,212.400 194.530 C 212.400 194.696,213.217 193.990,214.215 192.963 C 215.213 191.936,215.967 191.033,215.890 190.956 C 215.813 190.880,214.996 191.585,214.075 192.524 M206.716 200.619 C 206.432 200.959,205.525 201.888,204.700 202.683 C 203.875 203.478,203.211 204.415,203.225 204.764 C 203.242 205.175,203.379 205.082,203.612 204.500 C 203.811 204.005,204.250 203.600,204.587 203.600 C 204.924 203.600,205.157 203.465,205.105 203.300 C 205.052 203.135,205.688 202.325,206.518 201.500 C 207.348 200.675,207.848 200.000,207.629 200.000 C 207.410 200.000,206.999 200.278,206.716 200.619 M195.600 212.472 C 193.450 214.893,192.922 215.921,194.843 213.944 C 197.299 211.417,198.145 210.400,197.770 210.422 C 197.566 210.435,196.590 211.357,195.600 212.472 M215.200 217.897 C 236.573 217.989,239.454 218.074,239.862 218.624 C 240.142 219.003,240.421 219.089,240.573 218.844 C 241.271 217.714,238.778 217.602,215.126 217.697 L 191.000 217.794 215.200 217.897 M187.790 221.210 C 186.936 222.085,186.370 222.800,186.531 222.800 C 186.692 222.800,187.387 222.159,188.074 221.377 C 188.983 220.342,189.410 220.093,189.640 220.465 C 189.814 220.747,190.061 220.873,190.188 220.745 C 190.315 220.618,190.177 220.313,189.881 220.067 C 189.463 219.720,188.996 219.975,187.790 221.210 M242.000 221.060 C 242.000 221.289,242.450 221.999,243.000 222.638 C 244.289 224.138,244.290 223.748,243.000 222.000 C 242.450 221.255,242.000 220.832,242.000 221.060 M190.800 222.000 C 191.035 222.440,191.430 222.800,191.676 222.800 C 191.922 222.800,191.798 222.440,191.400 222.000 C 191.002 221.560,190.608 221.200,190.524 221.200 C 190.440 221.200,190.565 221.560,190.800 222.000 M244.800 224.967 C 244.800 225.388,246.005 226.528,246.221 226.312 C 246.322 226.211,246.044 225.802,245.602 225.402 C 245.161 225.003,244.800 224.807,244.800 224.967 M247.200 227.915 C 247.200 228.088,247.748 228.853,248.419 229.615 L 249.638 231.000 248.566 229.300 C 247.503 227.614,247.200 227.307,247.200 227.915 M178.443 231.241 C 177.477 232.318,176.815 233.200,176.972 233.200 C 177.129 233.200,177.469 232.964,177.729 232.676 C 177.988 232.388,178.820 231.488,179.578 230.676 C 180.337 229.864,180.787 229.218,180.578 229.241 C 180.370 229.263,179.410 230.163,178.443 231.241 M197.200 230.509 C 197.200 230.852,197.335 231.193,197.500 231.267 C 197.665 231.340,198.295 231.999,198.900 232.731 C 200.481 234.643,200.257 233.889,198.600 231.718 C 197.830 230.710,197.200 230.166,197.200 230.509 M250.028 231.163 C 249.999 231.744,252.974 235.826,253.758 236.281 C 254.001 236.422,253.885 236.177,253.500 235.737 C 253.115 235.297,252.800 234.815,252.800 234.665 C 252.800 234.515,252.305 233.840,251.700 233.163 C 251.095 232.487,250.478 231.633,250.328 231.267 C 250.136 230.795,250.048 230.765,250.028 231.163 M200.800 235.400 C 201.317 235.950,201.806 236.400,201.888 236.400 C 202.221 236.400,200.572 234.424,200.230 234.413 C 200.027 234.406,200.283 234.850,200.800 235.400 M254.412 237.011 C 254.393 237.666,255.599 239.201,256.123 239.187 C 256.414 239.180,256.355 238.985,255.971 238.687 C 255.625 238.419,255.135 237.840,254.883 237.400 C 254.631 236.960,254.419 236.785,254.412 237.011 M170.015 240.589 L 168.629 242.200 170.013 241.000 C 170.773 240.340,171.461 239.766,171.540 239.725 C 171.619 239.684,171.620 239.499,171.542 239.314 C 171.464 239.130,170.777 239.703,170.015 240.589 M257.200 240.754 C 257.200 241.320,259.261 243.672,259.526 243.408 C 259.650 243.283,259.355 242.903,258.869 242.563 C 258.384 242.223,258.061 241.823,258.151 241.673 C 258.242 241.523,258.065 241.168,257.758 240.884 C 257.451 240.601,257.200 240.542,257.200 240.754 M161.600 249.697 C 160.827 250.597,160.558 251.097,161.000 250.814 C 161.944 250.209,163.809 247.985,163.330 248.034 C 163.149 248.052,162.370 248.801,161.600 249.697 M212.138 250.331 C 212.502 250.734,212.800 251.255,212.800 251.489 C 212.800 251.723,213.072 252.019,213.404 252.146 C 213.736 252.273,213.961 252.521,213.904 252.697 C 213.847 252.872,214.205 253.531,214.700 254.162 C 215.195 254.792,215.600 255.106,215.600 254.859 C 215.600 254.253,212.293 249.649,211.838 249.622 C 211.639 249.610,211.774 249.929,212.138 250.331 M265.140 251.516 C 265.633 252.209,266.244 252.904,266.497 253.060 C 266.750 253.217,266.554 252.777,266.060 252.084 C 265.567 251.391,264.956 250.696,264.703 250.540 C 264.450 250.383,264.646 250.823,265.140 251.516 M156.585 255.283 L 154.600 257.366 156.456 255.783 C 158.007 254.460,159.088 253.200,158.672 253.200 C 158.616 253.200,157.677 254.137,156.585 255.283 M216.002 255.482 C 216.001 255.747,216.450 256.414,217.000 256.964 C 218.278 258.242,218.270 257.765,216.988 256.200 C 216.447 255.540,216.003 255.217,216.002 255.482 M270.400 257.895 C 270.400 258.495,271.573 259.855,271.587 259.271 C 271.594 258.981,271.330 258.473,271.000 258.143 C 270.670 257.813,270.400 257.701,270.400 257.895 M151.809 260.391 C 150.731 261.486,149.927 262.448,150.024 262.528 C 150.121 262.609,151.118 261.713,152.239 260.538 C 153.360 259.362,154.164 258.400,154.024 258.400 C 153.884 258.400,152.888 259.296,151.809 260.391 M272.800 261.400 C 272.800 261.730,273.092 262.000,273.449 262.000 C 273.980 262.000,274.008 261.891,273.600 261.400 C 273.326 261.070,273.034 260.800,272.951 260.800 C 272.868 260.800,272.800 261.070,272.800 261.400 M224.013 265.856 C 224.031 266.344,225.157 267.776,225.361 267.571 C 225.455 267.477,225.187 266.975,224.766 266.456 C 224.345 265.936,224.006 265.666,224.013 265.856 M136.928 276.700 C 133.597 280.337,133.356 280.992,136.507 277.841 C 137.717 276.631,138.629 275.562,138.533 275.466 C 138.436 275.370,138.842 274.911,139.433 274.446 C 140.024 273.981,140.341 273.600,140.137 273.600 C 139.933 273.600,138.489 274.995,136.928 276.700 M230.812 274.526 C 230.795 274.984,231.627 276.484,232.235 277.092 C 233.122 277.979,233.374 277.639,232.524 276.700 C 232.076 276.205,231.510 275.440,231.267 275.000 C 231.023 274.560,230.819 274.347,230.812 274.526 M286.818 279.626 C 287.296 280.297,287.803 280.721,287.944 280.568 C 288.085 280.415,287.975 280.210,287.700 280.112 C 287.425 280.014,287.200 279.698,287.200 279.409 C 287.200 279.121,286.919 278.778,286.575 278.646 C 286.109 278.467,286.172 278.717,286.818 279.626 M289.037 282.600 C 289.397 283.150,289.864 283.600,290.075 283.600 C 290.285 283.600,290.174 283.317,289.829 282.971 C 289.483 282.626,289.200 282.176,289.200 281.971 C 289.200 281.767,289.016 281.600,288.791 281.600 C 288.566 281.600,288.676 282.050,289.037 282.600 M236.893 283.200 C 237.168 283.640,237.531 284.000,237.700 284.000 C 237.869 284.000,237.782 283.640,237.507 283.200 C 237.232 282.760,236.869 282.400,236.700 282.400 C 236.531 282.400,236.618 282.760,236.893 283.200 M126.975 287.650 C 126.152 288.525,126.052 288.747,126.641 288.391 C 127.367 287.951,128.643 286.400,128.278 286.400 C 128.208 286.400,127.621 286.963,126.975 287.650 M240.800 288.400 C 241.035 288.840,241.430 289.200,241.676 289.200 C 241.922 289.200,241.798 288.840,241.400 288.400 C 241.002 287.960,240.608 287.600,240.524 287.600 C 240.440 287.600,240.565 287.960,240.800 288.400 M243.293 291.600 C 243.568 292.040,243.931 292.400,244.100 292.400 C 244.269 292.400,244.182 292.040,243.907 291.600 C 243.632 291.160,243.269 290.800,243.100 290.800 C 242.931 290.800,243.018 291.160,243.293 291.600 M295.952 291.695 C 297.458 293.642,297.838 293.613,270.962 293.594 C 253.077 293.581,245.660 293.447,245.052 293.123 C 244.284 292.714,244.254 292.735,244.749 293.335 C 245.658 294.437,295.991 294.347,296.681 293.242 C 297.076 292.610,297.010 292.359,296.284 291.742 C 295.551 291.117,295.499 291.109,295.952 291.695 M39.200 353.926 L 40.200 354.236 40.307 364.739 L 40.413 375.241 42.507 375.121 L 44.600 375.000 44.707 364.955 C 44.830 353.350,45.046 353.986,40.904 353.762 C 39.245 353.672,38.587 353.736,39.200 353.926 M68.000 353.924 L 69.000 354.236 69.107 364.718 L 69.213 375.200 71.407 375.200 L 73.600 375.200 73.600 364.824 C 73.600 358.348,73.450 354.354,73.201 354.200 C 72.981 354.065,71.496 353.877,69.901 353.783 C 68.185 353.682,67.409 353.740,68.000 353.924 M96.900 353.853 L 98.000 354.053 98.000 364.627 L 98.000 375.200 100.200 375.200 L 102.400 375.200 102.400 364.824 C 102.400 358.348,102.250 354.354,102.001 354.200 C 101.781 354.065,100.296 353.886,98.701 353.804 C 97.105 353.721,96.295 353.744,96.900 353.853 M244.400 354.021 C 272.412 354.472,273.118 354.492,271.400 354.800 C 270.173 355.020,270.661 355.100,273.500 355.143 L 277.200 355.200 277.200 364.600 L 277.200 374.000 273.843 374.000 C 271.228 374.000,270.435 374.133,270.255 374.600 C 269.983 375.309,346.146 375.535,346.584 374.826 C 346.711 374.620,346.227 374.379,345.508 374.290 C 344.696 374.189,345.072 374.104,346.500 374.064 L 348.800 374.000 348.800 364.600 L 348.800 355.200 346.700 355.160 C 342.920 355.088,342.249 354.493,345.800 354.361 C 352.599 354.110,302.386 353.715,266.000 353.734 C 236.234 353.750,231.465 353.813,244.400 354.021 M113.680 364.400 C 113.643 369.790,113.744 374.408,113.906 374.663 C 114.068 374.918,114.152 371.408,114.093 366.863 C 113.933 354.455,113.756 353.400,113.680 364.400 " stroke="none" fill="#971c1c" fill-rule="evenodd"></path></g></svg>