<svg id="svg" version="1.1" xmlns="http://www.w3.org/2000/svg" xmlns:xlink="http://www.w3.org/1999/xlink" width="400" height="400" viewBox="0, 0, 400,400"><g id="svgg"><path id="path0" d="M12.070 18.516 C 10.809 20.036,11.928 26.986,13.298 26.139 C 13.549 25.984,13.606 26.066,13.438 26.338 C 13.281 26.592,13.338 26.800,13.564 26.800 C 13.790 26.800,13.878 27.052,13.760 27.360 C 13.642 27.667,13.721 28.027,13.935 28.160 C 14.150 28.292,14.231 28.761,14.116 29.200 C 13.947 29.847,14.104 30.000,14.939 30.000 C 16.082 30.000,16.733 30.903,16.611 32.318 C 16.564 32.859,16.716 33.164,16.982 33.062 C 17.726 32.777,18.877 33.878,18.941 34.935 C 18.973 35.479,19.123 35.848,19.272 35.755 C 19.422 35.663,19.660 35.773,19.800 36.000 C 19.940 36.227,20.251 36.292,20.491 36.144 C 20.770 35.971,20.851 36.161,20.717 36.675 C 20.582 37.190,20.777 37.643,21.263 37.947 C 21.857 38.318,21.931 38.582,21.608 39.185 C 21.169 40.005,21.738 40.748,22.215 39.976 C 22.529 39.467,23.997 40.866,24.005 41.683 C 24.008 41.967,24.663 42.623,25.462 43.141 C 26.587 43.870,26.789 44.164,26.357 44.444 C 25.908 44.736,25.986 44.950,26.754 45.546 C 27.386 46.036,27.555 46.380,27.254 46.566 C 26.410 47.088,26.793 47.658,27.900 47.529 C 28.889 47.413,28.987 47.511,28.871 48.500 C 28.801 49.105,28.936 49.600,29.171 49.600 C 29.407 49.600,29.555 49.817,29.500 50.081 C 29.445 50.346,29.760 50.571,30.200 50.581 C 30.747 50.594,31.040 50.917,31.125 51.600 C 31.194 52.150,31.824 53.110,32.525 53.734 C 33.226 54.357,33.530 54.728,33.200 54.557 C 32.718 54.308,32.692 54.360,33.066 54.823 C 33.322 55.140,33.532 55.550,33.533 55.733 C 33.533 55.917,33.638 56.172,33.767 56.300 C 33.895 56.428,34.000 56.323,34.000 56.067 C 34.000 55.810,34.180 55.600,34.400 55.600 C 34.620 55.600,34.800 55.870,34.800 56.200 C 34.800 56.530,35.025 56.803,35.300 56.806 C 35.664 56.811,35.651 56.906,35.252 57.159 C 34.794 57.450,34.800 57.563,35.294 57.853 C 35.618 58.044,36.099 58.610,36.362 59.111 C 36.625 59.612,37.011 59.917,37.220 59.788 C 37.429 59.658,37.600 59.833,37.600 60.176 C 37.600 60.519,37.780 60.800,38.000 60.800 C 38.220 60.800,38.400 61.160,38.400 61.600 C 38.400 62.040,38.599 62.400,38.843 62.400 C 39.086 62.400,39.183 62.667,39.058 62.994 C 38.807 63.647,40.095 64.553,40.611 64.086 C 40.785 63.929,40.822 64.096,40.693 64.458 C 40.412 65.242,42.310 67.703,42.909 67.332 C 43.161 67.177,43.241 67.471,43.120 68.104 C 42.978 68.848,43.072 69.071,43.462 68.921 C 43.808 68.788,44.000 69.016,44.000 69.557 C 44.000 70.054,44.256 70.400,44.624 70.400 C 44.967 70.400,45.156 70.547,45.045 70.727 C 44.934 70.907,45.193 71.307,45.621 71.615 C 46.050 71.924,46.403 72.632,46.406 73.188 C 46.410 73.805,46.531 74.013,46.717 73.721 C 46.900 73.433,47.237 73.375,47.562 73.576 C 47.859 73.760,47.978 74.112,47.826 74.358 C 47.674 74.604,47.841 74.918,48.198 75.054 C 48.554 75.191,48.749 75.557,48.630 75.867 C 48.511 76.177,48.669 76.528,48.981 76.648 C 49.294 76.768,49.452 77.121,49.332 77.433 C 49.063 78.134,49.655 78.172,50.379 77.500 C 50.742 77.163,50.831 77.154,50.652 77.472 C 50.506 77.732,50.570 78.058,50.793 78.196 C 51.017 78.334,51.200 78.797,51.200 79.224 C 51.200 79.651,51.391 80.000,51.624 80.000 C 51.857 80.000,51.937 80.178,51.803 80.395 C 51.662 80.623,51.824 80.689,52.182 80.551 C 52.638 80.377,53.026 80.810,53.622 82.156 C 54.070 83.170,54.680 84.000,54.976 84.000 C 55.642 84.000,56.148 85.103,56.031 86.300 C 55.982 86.795,56.155 87.200,56.414 87.200 C 56.683 87.200,56.779 87.477,56.638 87.844 C 56.439 88.363,56.582 88.441,57.368 88.244 C 58.407 87.983,59.154 89.104,58.570 90.048 C 58.399 90.326,58.504 90.432,58.840 90.320 C 59.563 90.079,60.943 91.849,60.643 92.633 C 60.514 92.967,60.575 93.139,60.777 93.014 C 60.980 92.889,61.399 93.148,61.709 93.591 C 62.018 94.033,62.391 94.276,62.536 94.131 C 62.807 93.860,62.952 94.580,62.821 95.540 C 62.780 95.837,62.936 95.963,63.169 95.819 C 63.425 95.661,63.497 95.802,63.353 96.179 C 63.222 96.521,63.308 96.800,63.545 96.800 C 63.781 96.800,63.874 97.063,63.751 97.384 C 63.590 97.803,63.757 97.924,64.338 97.812 C 64.964 97.691,65.207 97.923,65.406 98.828 C 65.548 99.473,65.812 100.000,65.994 100.000 C 66.176 100.000,66.224 100.388,66.099 100.863 C 65.907 101.601,66.005 101.692,66.776 101.490 C 67.273 101.360,67.580 101.353,67.459 101.475 C 67.337 101.596,67.501 101.958,67.823 102.280 C 68.144 102.601,68.288 103.058,68.142 103.294 C 67.992 103.536,68.063 103.608,68.304 103.459 C 68.541 103.313,69.140 103.864,69.649 104.698 C 70.153 105.524,70.709 106.260,70.883 106.333 C 71.057 106.407,71.200 106.923,71.200 107.480 C 71.200 108.297,71.355 108.453,72.001 108.284 C 72.441 108.169,72.709 108.223,72.597 108.405 C 72.485 108.587,72.636 108.979,72.933 109.276 C 73.231 109.573,73.428 110.127,73.373 110.507 C 73.317 110.886,73.435 111.298,73.636 111.422 C 73.836 111.546,74.000 111.442,74.000 111.190 C 74.000 110.161,74.973 111.156,75.402 112.623 C 75.655 113.491,76.063 114.158,76.308 114.108 C 76.934 113.978,78.472 116.034,78.227 116.673 C 78.046 117.147,78.476 117.377,79.300 117.247 C 79.465 117.221,79.555 117.425,79.500 117.700 C 79.445 117.975,79.614 118.159,79.876 118.108 C 80.458 117.996,80.960 119.417,80.564 120.058 C 80.385 120.348,80.451 120.416,80.738 120.238 C 81.012 120.069,81.200 120.207,81.200 120.576 C 81.200 120.919,81.459 121.200,81.776 121.200 C 82.093 121.200,82.481 121.408,82.638 121.662 C 82.826 121.966,82.731 122.024,82.362 121.831 C 82.053 121.671,82.160 121.868,82.600 122.270 C 83.040 122.671,83.402 123.450,83.405 124.000 C 83.408 124.616,83.638 125.000,84.005 125.000 C 84.708 125.000,86.467 127.167,86.163 127.660 C 86.047 127.847,86.253 128.000,86.619 128.000 C 87.047 128.000,87.203 128.215,87.055 128.600 C 86.912 128.973,87.058 129.200,87.440 129.200 C 87.872 129.200,87.979 129.437,87.800 130.000 C 87.654 130.459,87.728 130.800,87.973 130.800 C 88.208 130.800,88.400 131.085,88.400 131.433 C 88.400 131.782,88.625 131.986,88.900 131.887 C 89.884 131.534,90.846 132.367,90.405 133.190 C 90.081 133.797,90.157 133.996,90.792 134.198 C 91.228 134.336,91.542 134.663,91.492 134.924 C 91.441 135.186,91.760 135.402,92.200 135.404 C 92.823 135.407,92.982 135.649,92.920 136.498 C 92.875 137.097,92.965 137.545,93.120 137.493 C 93.274 137.442,93.433 137.549,93.474 137.730 C 93.514 137.912,93.962 138.420,94.469 138.859 C 94.975 139.299,95.392 139.878,95.395 140.146 C 95.398 140.414,95.889 141.123,96.486 141.721 C 97.083 142.319,97.482 143.043,97.372 143.329 C 97.262 143.616,97.569 144.199,98.055 144.625 C 98.592 145.097,98.802 145.165,98.592 144.800 C 98.294 144.283,98.340 144.276,98.923 144.749 C 99.295 145.051,99.600 145.512,99.600 145.773 C 99.600 146.034,99.883 146.596,100.230 147.024 C 100.576 147.451,100.728 147.547,100.568 147.238 C 100.387 146.889,100.437 146.776,100.701 146.939 C 100.934 147.083,101.031 147.561,100.916 148.000 C 100.757 148.609,100.904 148.800,101.530 148.800 C 101.982 148.800,102.481 149.008,102.638 149.262 C 102.826 149.565,102.731 149.624,102.362 149.432 C 102.053 149.272,102.112 149.397,102.494 149.710 C 102.875 150.023,103.070 150.396,102.927 150.540 C 102.784 150.683,102.877 150.800,103.133 150.800 C 103.390 150.800,103.600 151.081,103.600 151.424 C 103.600 151.767,103.744 151.958,103.920 151.849 C 104.096 151.741,104.469 152.019,104.749 152.468 C 105.031 152.918,105.067 153.165,104.830 153.018 C 104.593 152.872,104.400 152.943,104.400 153.176 C 104.400 153.409,104.689 153.600,105.043 153.600 C 105.396 153.600,105.612 153.825,105.521 154.100 C 105.362 154.583,107.195 156.676,107.600 156.475 C 107.710 156.420,107.858 156.845,107.930 157.419 C 108.019 158.142,108.239 158.394,108.642 158.239 C 109.149 158.045,109.789 158.965,110.216 160.500 C 110.262 160.665,110.345 160.890,110.400 161.000 C 110.455 161.110,110.522 161.425,110.550 161.700 C 110.578 161.975,110.815 162.200,111.077 162.200 C 111.785 162.200,113.242 163.904,113.311 164.811 C 113.368 165.564,113.671 165.755,114.633 165.645 C 114.872 165.618,115.032 166.002,114.989 166.498 C 114.946 166.994,115.250 167.726,115.665 168.124 C 116.079 168.522,116.296 169.045,116.147 169.286 C 115.995 169.531,116.059 169.611,116.293 169.466 C 116.826 169.137,117.460 169.903,117.811 171.302 C 117.972 171.945,118.361 172.400,118.747 172.400 C 119.510 172.400,120.542 173.847,120.188 174.419 C 119.883 174.913,121.548 177.279,122.003 176.998 C 122.191 176.882,122.450 176.957,122.579 177.166 C 122.708 177.374,122.617 177.666,122.377 177.814 C 121.959 178.073,123.082 179.176,123.639 179.053 C 124.413 178.882,125.159 180.129,124.745 180.903 C 124.391 181.564,124.417 181.679,124.878 181.502 C 125.221 181.371,125.759 181.746,126.225 182.440 C 126.651 183.077,127.129 183.598,127.287 183.599 C 127.446 183.599,127.460 183.900,127.319 184.266 C 127.138 184.739,127.212 184.840,127.575 184.616 C 127.954 184.381,128.016 184.520,127.815 185.152 C 127.619 185.772,127.743 186.074,128.272 186.262 C 129.535 186.709,130.756 188.048,130.503 188.708 C 130.346 189.119,130.424 189.233,130.732 189.042 C 130.989 188.883,131.200 188.943,131.200 189.176 C 131.200 189.409,131.474 189.600,131.808 189.600 C 132.238 189.600,132.363 189.893,132.234 190.600 C 132.110 191.286,132.233 191.600,132.626 191.600 C 132.942 191.600,133.200 191.780,133.200 192.000 C 133.200 192.220,133.009 192.400,132.776 192.400 C 132.543 192.400,132.459 192.572,132.589 192.783 C 132.719 192.993,133.092 193.063,133.417 192.938 C 133.837 192.777,133.937 192.899,133.762 193.355 C 133.581 193.826,133.748 194.000,134.381 194.000 C 134.857 194.000,135.162 194.137,135.059 194.305 C 134.834 194.668,135.832 196.644,136.168 196.500 C 136.816 196.221,137.200 196.481,137.200 197.200 C 137.200 197.640,137.399 198.000,137.643 198.000 C 137.886 198.000,137.993 198.242,137.879 198.538 C 137.766 198.834,138.016 199.324,138.436 199.626 C 138.856 199.929,139.200 200.417,139.200 200.712 C 139.200 201.006,139.348 201.156,139.529 201.044 C 139.978 200.767,141.282 202.344,140.991 202.814 C 140.863 203.021,141.038 203.084,141.379 202.953 C 141.878 202.761,142.238 203.248,141.932 203.700 C 141.689 204.060,142.925 205.570,143.282 205.349 C 143.548 205.185,143.610 205.260,143.438 205.538 C 143.281 205.792,143.343 206.000,143.576 206.000 C 143.809 206.000,144.000 206.276,144.000 206.613 C 144.000 206.949,144.275 207.330,144.610 207.459 C 145.075 207.638,145.113 207.823,144.770 208.236 C 144.415 208.664,144.625 208.959,145.759 209.629 C 146.551 210.096,147.094 210.647,146.967 210.854 C 146.839 211.061,147.435 211.910,148.292 212.741 C 149.148 213.573,149.774 214.479,149.681 214.756 C 149.503 215.291,151.171 217.069,151.692 216.900 C 152.013 216.796,152.135 217.350,152.031 218.439 C 151.959 219.196,153.043 220.185,153.954 220.194 C 154.399 220.198,154.587 220.538,154.558 221.288 C 154.535 221.886,154.670 222.281,154.858 222.164 C 155.046 222.048,155.200 222.227,155.200 222.562 C 155.200 222.898,155.577 223.374,156.038 223.620 C 156.498 223.867,157.227 224.863,157.656 225.834 C 158.086 226.805,158.699 227.600,159.019 227.600 C 159.732 227.600,159.766 228.073,159.100 228.744 C 158.699 229.148,158.752 229.189,159.369 228.954 C 159.987 228.719,160.087 228.797,159.874 229.351 C 159.716 229.762,159.769 229.943,160.005 229.797 C 160.222 229.663,160.400 229.844,160.400 230.200 C 160.400 230.556,160.556 230.751,160.747 230.633 C 161.187 230.361,162.494 231.773,162.134 232.132 C 161.987 232.280,162.077 232.400,162.333 232.400 C 162.590 232.400,162.800 232.658,162.800 232.973 C 162.800 233.288,163.160 233.660,163.600 233.800 C 164.327 234.031,164.578 234.475,164.447 235.300 C 164.421 235.465,164.595 235.600,164.833 235.600 C 165.072 235.600,165.194 235.819,165.104 236.087 C 165.015 236.355,165.490 237.075,166.160 237.687 C 166.830 238.299,167.226 238.800,167.040 238.800 C 166.854 238.800,166.926 239.070,167.200 239.400 C 167.474 239.730,167.564 240.000,167.400 240.000 C 167.236 240.000,167.328 240.272,167.604 240.605 C 167.986 241.065,168.237 241.101,168.653 240.756 C 168.954 240.506,169.223 240.459,169.251 240.651 C 169.279 240.843,169.344 241.393,169.395 241.873 C 169.505 242.899,170.568 244.085,171.017 243.681 C 171.188 243.526,171.206 243.614,171.056 243.875 C 170.906 244.137,171.102 244.529,171.492 244.747 C 171.881 244.965,172.158 245.291,172.106 245.472 C 172.055 245.652,172.544 246.363,173.193 247.051 C 173.935 247.839,174.314 248.608,174.214 249.128 C 174.105 249.691,174.224 249.889,174.587 249.750 C 174.880 249.637,175.240 249.741,175.387 249.979 C 175.535 250.218,175.827 250.307,176.038 250.177 C 176.248 250.047,176.377 250.089,176.325 250.270 C 176.273 250.452,176.466 251.027,176.755 251.548 C 177.066 252.111,177.101 252.386,176.840 252.225 C 176.598 252.075,176.400 252.143,176.400 252.376 C 176.400 252.609,176.659 252.800,176.976 252.800 C 177.850 252.800,178.134 253.556,177.534 254.284 C 177.057 254.863,177.121 254.903,178.128 254.652 C 179.061 254.419,179.243 254.494,179.186 255.085 C 179.088 256.088,179.620 257.600,180.070 257.600 C 180.278 257.600,180.328 257.407,180.182 257.170 C 180.036 256.934,180.294 256.977,180.755 257.265 C 181.286 257.596,181.513 258.044,181.373 258.484 C 181.229 258.940,181.652 259.679,182.604 260.630 C 183.420 261.446,183.961 262.326,183.840 262.641 C 183.722 262.948,183.823 263.200,184.066 263.200 C 184.308 263.200,184.829 263.572,185.223 264.026 C 185.617 264.481,186.088 264.838,186.270 264.821 C 186.451 264.804,186.619 265.128,186.643 265.540 C 186.700 266.548,187.174 267.263,187.608 266.995 C 188.061 266.715,188.864 268.193,188.486 268.612 C 188.329 268.786,188.416 268.804,188.680 268.653 C 188.955 268.495,189.345 268.724,189.594 269.189 C 189.833 269.635,189.898 270.000,189.738 270.000 C 189.579 270.000,190.030 270.569,190.742 271.265 C 191.454 271.961,191.956 272.739,191.858 272.994 C 191.760 273.249,192.037 273.680,192.473 273.953 C 192.909 274.225,193.617 275.240,194.045 276.208 C 194.473 277.175,195.025 278.092,195.273 278.245 C 195.547 278.414,195.613 278.344,195.441 278.066 C 195.258 277.771,195.378 277.693,195.779 277.847 C 196.121 277.978,196.423 278.336,196.450 278.643 C 196.478 278.949,196.523 279.339,196.550 279.510 C 196.600 279.821,197.201 280.598,198.500 282.029 C 198.885 282.453,199.110 282.800,199.000 282.800 C 198.890 282.800,199.527 283.527,200.415 284.415 C 201.303 285.303,201.940 286.173,201.831 286.349 C 201.494 286.895,202.787 288.380,203.395 288.147 C 203.804 287.990,203.922 288.164,203.809 288.755 C 203.721 289.210,203.818 289.688,204.025 289.815 C 204.231 289.943,204.400 290.319,204.400 290.652 C 204.400 291.437,205.484 292.519,205.969 292.219 C 206.176 292.091,206.470 292.190,206.624 292.438 C 206.777 292.686,206.691 293.020,206.432 293.180 C 206.089 293.392,206.127 293.608,206.577 293.981 C 206.915 294.261,207.100 294.638,206.989 294.818 C 206.878 294.998,206.957 295.250,207.166 295.379 C 207.374 295.508,207.663 295.421,207.808 295.187 C 208.210 294.536,209.200 295.532,209.200 296.588 C 209.200 297.417,210.453 299.285,210.970 299.226 C 211.644 299.149,211.748 299.245,211.301 299.529 C 210.939 299.759,211.200 300.280,212.248 301.423 C 213.043 302.290,213.848 303.405,214.037 303.900 C 214.226 304.395,214.655 304.800,214.990 304.800 C 215.326 304.800,215.600 304.991,215.600 305.224 C 215.600 305.457,215.756 305.551,215.947 305.433 C 216.138 305.315,216.293 305.529,216.292 305.909 C 216.287 307.634,216.476 308.019,217.613 308.607 C 218.280 308.952,218.733 309.385,218.619 309.569 C 218.383 309.952,220.307 312.000,220.904 312.000 C 221.134 312.000,221.109 312.228,220.844 312.547 C 220.499 312.963,220.534 313.213,220.991 313.592 C 221.321 313.866,221.498 314.241,221.384 314.425 C 221.176 314.762,222.654 315.759,223.400 315.786 C 223.620 315.794,223.822 316.025,223.850 316.300 C 223.878 316.575,223.943 316.935,223.996 317.100 C 224.049 317.265,224.117 317.623,224.146 317.896 C 224.176 318.168,224.316 318.348,224.458 318.296 C 225.106 318.056,226.429 319.821,226.318 320.777 C 226.249 321.370,226.409 321.818,226.700 321.848 C 226.975 321.877,227.453 321.923,227.763 321.950 C 228.121 321.982,228.249 322.291,228.116 322.800 C 227.987 323.293,228.104 323.600,228.420 323.600 C 228.702 323.600,228.822 323.711,228.686 323.848 C 228.351 324.183,229.408 325.200,230.091 325.200 C 230.393 325.200,230.882 325.875,231.179 326.700 C 231.929 328.784,232.810 330.041,233.306 329.735 C 233.560 329.577,233.603 329.672,233.415 329.976 C 233.018 330.618,233.961 332.400,234.696 332.400 C 235.005 332.400,235.527 332.670,235.857 333.000 C 236.187 333.330,236.332 333.600,236.180 333.600 C 236.027 333.600,236.110 333.851,236.365 334.158 C 236.620 334.465,236.800 334.870,236.767 335.058 C 236.628 335.832,236.822 336.434,237.147 336.233 C 237.494 336.018,238.631 337.051,238.871 337.800 C 238.942 338.020,239.135 338.155,239.300 338.100 C 239.465 338.045,239.555 338.162,239.500 338.360 C 239.445 338.558,239.539 338.734,239.708 338.752 C 240.445 338.827,241.100 339.885,241.031 340.889 C 240.989 341.488,241.022 341.912,241.102 341.831 C 241.183 341.751,241.698 342.135,242.248 342.685 C 242.798 343.235,243.150 343.783,243.030 343.903 C 242.911 344.023,243.123 344.348,243.503 344.626 C 243.883 344.904,244.196 345.462,244.197 345.866 C 244.199 346.317,244.491 346.601,244.955 346.602 C 245.386 346.603,245.863 347.017,246.066 347.566 C 246.261 348.095,246.697 348.729,247.033 348.975 C 247.369 349.221,247.685 349.697,247.734 350.034 C 247.832 350.698,248.442 351.517,250.000 353.076 C 250.550 353.627,251.023 354.240,251.050 354.439 C 251.078 354.637,251.144 354.935,251.197 355.100 C 251.251 355.265,251.273 355.535,251.247 355.700 C 251.221 355.865,251.425 356.003,251.700 356.006 C 252.621 356.017,253.299 356.700,253.412 357.732 C 253.555 359.032,253.952 359.677,254.428 359.383 C 254.632 359.256,254.800 359.439,254.800 359.789 C 254.800 360.139,255.070 360.529,255.400 360.655 C 255.730 360.782,256.000 361.071,256.000 361.299 C 256.000 361.526,256.315 361.970,256.700 362.286 C 257.085 362.601,257.147 362.728,256.838 362.568 C 256.469 362.376,256.374 362.435,256.562 362.738 C 256.719 362.992,257.218 363.200,257.670 363.200 C 258.297 363.200,258.443 363.391,258.284 364.001 C 258.142 364.545,258.448 365.155,259.237 365.900 C 259.877 366.504,260.400 367.278,260.400 367.622 C 260.400 368.338,265.449 373.054,266.044 372.894 C 266.261 372.835,266.384 373.101,266.319 373.484 C 266.250 373.886,266.454 374.186,266.800 374.192 C 267.130 374.199,267.760 374.406,268.200 374.653 C 268.640 374.901,269.720 375.072,270.600 375.034 C 272.432 374.956,273.200 375.374,273.200 376.449 C 273.200 377.295,273.826 377.463,274.136 376.700 C 274.294 376.311,274.424 376.321,274.720 376.743 C 274.931 377.044,275.203 377.119,275.331 376.912 C 275.460 376.703,276.458 376.653,277.600 376.800 C 278.721 376.944,279.736 376.904,279.855 376.711 C 279.974 376.519,280.297 376.548,280.572 376.777 C 280.848 377.006,281.197 377.069,281.348 376.918 C 281.802 376.464,282.800 376.441,282.800 376.884 C 282.800 377.143,283.011 377.123,283.364 376.830 C 283.769 376.493,284.005 376.485,284.200 376.800 C 284.386 377.102,284.626 377.111,284.965 376.829 C 285.305 376.547,285.600 376.560,285.913 376.873 C 286.251 377.211,286.514 377.203,286.947 376.844 C 287.363 376.499,287.606 376.487,287.800 376.800 C 287.997 377.118,288.216 377.118,288.600 376.800 C 288.984 376.482,289.203 376.482,289.400 376.800 C 289.597 377.118,289.816 377.118,290.200 376.800 C 290.584 376.482,290.803 376.482,291.000 376.800 C 291.189 377.105,291.424 377.112,291.772 376.823 C 292.048 376.594,292.402 376.535,292.558 376.691 C 292.714 376.848,292.724 376.666,292.578 376.288 C 292.433 375.910,292.469 375.579,292.657 375.554 C 292.846 375.529,293.523 375.448,294.161 375.374 C 294.800 375.299,295.565 375.145,295.861 375.032 C 296.158 374.918,296.400 374.999,296.400 375.213 C 296.400 375.426,296.940 375.600,297.600 375.600 C 298.260 375.600,298.800 375.465,298.800 375.300 C 298.800 374.977,386.415 375.082,386.739 375.405 C 387.096 375.763,388.749 375.605,389.007 375.189 C 389.146 374.964,389.562 374.829,389.930 374.889 C 390.509 374.985,390.600 374.577,390.600 371.900 C 390.600 370.195,390.493 368.800,390.361 368.800 C 389.581 368.800,388.542 367.328,388.808 366.600 C 389.167 365.617,388.829 364.911,388.356 365.657 C 388.086 366.084,388.011 366.055,388.006 365.523 C 388.003 365.150,387.685 364.610,387.300 364.323 C 386.915 364.035,386.543 363.538,386.473 363.219 C 386.403 362.899,385.995 362.392,385.566 362.091 C 385.137 361.791,384.898 361.366,385.033 361.146 C 385.172 360.922,384.955 360.802,384.540 360.873 C 383.970 360.971,383.830 360.788,383.929 360.080 C 384.014 359.467,383.713 358.889,383.025 358.348 C 382.457 357.901,382.097 357.366,382.226 357.158 C 382.354 356.950,382.252 356.830,381.998 356.890 C 381.744 356.951,381.235 356.558,380.868 356.017 C 380.445 355.394,380.394 355.153,380.730 355.359 C 381.168 355.628,381.169 355.539,380.733 354.842 C 380.444 354.379,379.970 354.000,379.680 354.000 C 379.390 354.000,379.265 353.819,379.402 353.597 C 379.539 353.376,379.369 353.086,379.025 352.954 C 378.681 352.822,378.400 352.289,378.400 351.770 C 378.400 351.053,378.239 350.887,377.734 351.081 C 377.287 351.252,377.164 351.183,377.358 350.868 C 377.517 350.611,377.437 350.400,377.181 350.400 C 376.924 350.400,376.814 350.139,376.937 349.820 C 377.085 349.433,376.967 349.315,376.580 349.463 C 376.186 349.614,376.000 349.414,376.000 348.843 C 376.000 348.379,375.743 348.000,375.429 348.000 C 374.553 348.000,373.630 346.881,373.796 346.021 C 373.877 345.598,373.687 345.038,373.372 344.777 C 373.057 344.516,372.800 344.054,372.800 343.751 C 372.800 343.448,372.530 343.200,372.200 343.200 C 371.781 343.200,371.600 342.778,371.600 341.800 C 371.600 341.030,371.420 340.400,371.200 340.400 C 370.980 340.400,370.800 340.588,370.800 340.819 C 370.800 341.049,370.373 340.915,369.850 340.521 C 369.328 340.127,368.970 339.621,369.056 339.398 C 369.142 339.174,368.638 338.363,367.937 337.596 C 367.236 336.828,366.648 336.110,366.631 336.000 C 366.614 335.890,366.483 335.839,366.341 335.886 C 366.199 335.934,366.173 335.624,366.285 335.198 C 366.434 334.628,366.184 334.289,365.344 333.919 C 364.003 333.330,363.484 332.719,364.033 332.379 C 364.248 332.246,363.775 331.449,362.981 330.608 C 362.087 329.660,361.609 328.808,361.724 328.369 C 361.851 327.884,361.733 327.728,361.350 327.874 C 360.966 328.022,360.868 327.889,361.036 327.450 C 361.206 327.007,360.962 326.690,360.241 326.415 C 359.668 326.198,359.200 325.758,359.200 325.439 C 359.200 324.761,357.254 323.119,356.790 323.406 C 356.617 323.513,356.566 323.250,356.679 322.820 C 356.797 322.368,356.488 321.485,355.943 320.720 C 355.426 319.994,355.045 319.310,355.097 319.200 C 355.149 319.090,354.878 318.996,354.496 318.991 C 354.090 318.985,353.843 318.720,353.903 318.355 C 353.998 317.776,352.648 316.200,352.058 316.200 C 351.916 316.200,351.855 316.036,351.921 315.837 C 351.988 315.637,351.808 315.328,351.521 315.151 C 351.235 314.974,350.978 314.643,350.950 314.415 C 350.923 314.187,350.878 313.841,350.850 313.647 C 350.822 313.452,350.395 313.182,349.900 313.047 C 349.199 312.855,349.122 312.721,349.553 312.444 C 349.989 312.163,349.925 312.030,349.253 311.817 C 348.784 311.668,348.400 311.227,348.400 310.837 C 348.400 310.447,347.940 309.919,347.377 309.663 C 346.815 309.406,346.466 309.017,346.601 308.798 C 346.736 308.579,346.649 308.400,346.406 308.400 C 346.163 308.400,346.012 308.175,346.069 307.900 C 346.127 307.625,345.598 306.779,344.894 306.019 C 343.997 305.050,343.759 304.549,344.096 304.341 C 344.437 304.130,344.365 303.961,343.849 303.763 C 342.810 303.365,341.144 301.614,341.404 301.194 C 341.685 300.740,340.208 299.935,339.789 300.314 C 339.615 300.471,339.583 300.291,339.719 299.913 C 339.854 299.535,339.811 299.130,339.622 299.014 C 339.434 298.897,339.317 298.255,339.364 297.587 C 339.423 296.733,339.294 296.432,338.929 296.572 C 338.643 296.682,338.452 296.561,338.505 296.304 C 338.557 296.047,338.330 295.811,338.000 295.780 C 336.276 295.614,336.286 295.619,336.778 295.027 C 337.445 294.223,336.155 292.173,335.385 292.812 C 334.705 293.377,334.454 292.891,334.592 291.281 C 334.654 290.555,334.612 290.055,334.497 290.169 C 334.151 290.515,331.800 288.327,331.799 287.658 C 331.798 287.316,331.350 286.930,330.803 286.801 C 330.131 286.642,329.969 286.466,330.304 286.259 C 330.577 286.091,330.800 285.773,330.800 285.553 C 330.800 285.333,330.646 285.248,330.458 285.364 C 330.271 285.480,329.894 285.086,329.622 284.487 C 329.349 283.889,329.181 283.400,329.248 283.400 C 329.316 283.400,328.643 282.679,327.753 281.798 C 326.863 280.917,326.199 280.003,326.278 279.767 C 326.356 279.531,325.966 279.131,325.410 278.878 C 324.855 278.624,324.400 278.143,324.400 277.809 C 324.400 277.474,324.209 277.200,323.976 277.200 C 323.743 277.200,323.667 277.015,323.807 276.789 C 323.947 276.563,323.507 275.861,322.830 275.228 C 322.154 274.596,321.599 273.836,321.599 273.540 C 321.598 273.243,321.063 272.641,320.409 272.203 C 319.544 271.624,319.264 271.162,319.382 270.510 C 319.471 270.017,319.349 269.492,319.111 269.345 C 318.851 269.185,318.791 269.263,318.962 269.538 C 319.124 269.801,319.013 270.000,318.704 270.000 C 318.216 270.000,317.023 267.606,317.009 266.600 C 317.006 266.380,316.373 265.796,315.602 265.302 C 314.831 264.808,314.357 264.403,314.549 264.402 C 314.741 264.401,314.697 264.158,314.452 263.863 C 314.207 263.568,314.140 263.179,314.303 262.999 C 314.467 262.819,314.411 262.779,314.181 262.909 C 313.726 263.167,312.621 262.624,312.565 262.115 C 312.546 261.942,312.391 261.482,312.220 261.094 C 312.050 260.706,312.007 260.017,312.126 259.562 C 312.268 259.018,312.177 258.800,311.858 258.922 C 311.256 259.153,309.461 257.749,309.753 257.276 C 310.093 256.726,308.774 255.124,308.171 255.356 C 307.549 255.594,307.105 255.037,307.043 253.940 C 307.019 253.528,306.831 253.205,306.624 253.224 C 306.418 253.244,305.938 252.481,305.557 251.530 C 305.177 250.578,304.671 249.845,304.433 249.900 C 304.195 249.955,304.000 249.841,304.000 249.647 C 304.000 249.452,303.654 249.203,303.230 249.092 C 302.678 248.948,302.493 248.598,302.574 247.857 C 302.636 247.288,302.533 246.918,302.344 247.035 C 302.155 247.152,302.000 246.782,302.000 246.214 C 302.000 245.479,301.711 245.070,301.000 244.800 C 300.450 244.591,300.000 244.145,300.000 243.810 C 300.000 243.474,299.845 243.200,299.655 243.200 C 299.466 243.200,299.397 242.750,299.502 242.200 C 299.673 241.306,299.561 241.200,298.447 241.200 C 297.114 241.200,296.896 240.866,297.700 240.056 C 298.101 239.652,298.051 239.609,297.445 239.840 C 296.910 240.044,296.743 239.972,296.869 239.594 C 296.967 239.300,296.496 238.534,295.823 237.890 C 295.070 237.170,294.651 236.411,294.733 235.916 C 294.808 235.456,294.694 235.218,294.465 235.360 C 294.245 235.496,293.801 235.344,293.480 235.023 C 293.158 234.701,292.784 234.550,292.648 234.686 C 292.397 234.936,292.370 234.856,292.207 233.372 C 292.097 232.368,290.789 230.760,290.319 231.050 C 290.133 231.165,290.013 231.111,290.054 230.930 C 290.094 230.748,290.019 230.330,289.887 230.000 C 289.755 229.670,289.585 229.040,289.509 228.600 C 289.429 228.134,289.107 227.844,288.739 227.905 C 288.391 227.963,287.858 227.704,287.553 227.328 C 287.075 226.739,287.081 226.693,287.600 226.992 C 288.027 227.238,287.998 227.106,287.499 226.536 C 287.114 226.096,286.934 225.600,287.099 225.434 C 287.265 225.269,287.220 225.191,287.000 225.261 C 286.462 225.432,284.373 223.567,284.632 223.148 C 284.940 222.650,284.049 221.200,283.434 221.200 C 282.896 221.200,281.867 219.201,281.867 218.156 C 281.867 217.840,281.464 217.600,280.933 217.600 C 280.061 217.600,279.717 216.832,279.969 215.451 C 280.004 215.259,279.748 215.211,279.400 215.345 C 278.954 215.516,278.802 215.383,278.884 214.894 C 278.948 214.508,278.778 214.244,278.500 214.300 C 278.213 214.357,278.000 213.998,278.000 213.456 C 278.000 212.565,276.451 210.965,275.790 211.173 C 275.250 211.344,274.847 210.259,275.204 209.593 C 275.543 208.959,274.505 207.764,273.791 207.967 C 273.222 208.129,272.509 206.227,272.933 205.677 C 273.221 205.303,273.184 205.190,272.803 205.277 C 272.510 205.345,272.138 204.950,271.975 204.400 C 271.813 203.850,271.662 203.661,271.640 203.980 C 271.586 204.758,270.611 203.825,270.605 202.989 C 270.602 202.670,270.497 202.452,270.371 202.504 C 269.955 202.679,268.800 201.269,268.800 200.586 C 268.800 200.156,268.586 199.997,268.205 200.143 C 267.877 200.268,267.637 200.243,267.670 200.086 C 267.941 198.815,266.713 197.152,265.418 197.035 C 265.208 197.016,265.049 196.344,265.065 195.543 C 265.088 194.415,264.949 194.110,264.447 194.192 C 263.689 194.315,262.722 193.649,263.002 193.197 C 263.108 193.025,262.926 192.781,262.598 192.654 C 262.269 192.528,262.000 192.156,262.000 191.827 C 262.000 191.497,261.628 191.029,261.174 190.786 C 260.498 190.424,260.438 190.236,260.842 189.750 C 261.135 189.397,261.161 189.205,260.908 189.277 C 260.672 189.345,260.465 189.262,260.447 189.093 C 260.428 188.925,259.780 188.154,259.007 187.380 C 257.739 186.113,257.403 185.511,257.700 185.042 C 257.755 184.955,257.485 184.535,257.099 184.110 C 256.714 183.684,256.519 183.215,256.666 183.068 C 256.923 182.811,255.832 182.623,255.000 182.781 C 254.780 182.823,254.825 182.628,255.100 182.349 C 255.685 181.754,255.771 180.400,255.224 180.400 C 255.017 180.400,254.725 180.598,254.575 180.840 C 254.076 181.648,252.440 179.522,252.892 178.652 C 253.165 178.125,253.149 177.984,252.840 178.175 C 252.598 178.325,252.400 178.246,252.400 178.000 C 252.400 177.754,252.220 177.664,252.000 177.800 C 251.780 177.936,251.600 177.677,251.600 177.224 C 251.600 176.771,251.420 176.400,251.200 176.400 C 250.980 176.400,250.800 176.080,250.800 175.689 C 250.800 175.298,250.440 174.670,250.000 174.293 C 249.560 173.916,249.200 173.718,249.200 173.853 C 249.200 173.988,248.932 173.876,248.604 173.604 C 248.277 173.332,248.081 172.993,248.169 172.851 C 248.485 172.339,247.225 170.000,246.633 170.000 C 246.012 170.000,245.067 168.666,245.431 168.302 C 245.543 168.191,245.094 167.646,244.435 167.091 C 243.775 166.536,243.129 165.657,242.999 165.137 C 242.868 164.618,242.238 163.892,241.598 163.525 C 240.765 163.047,240.481 162.619,240.597 162.018 C 240.685 161.556,240.593 161.281,240.391 161.406 C 240.189 161.531,239.914 161.198,239.781 160.667 C 239.648 160.135,239.091 159.497,238.545 159.248 C 237.840 158.926,237.587 158.534,237.675 157.897 C 237.769 157.225,237.599 157.000,237.000 156.999 C 236.560 156.999,236.200 156.780,236.200 156.512 C 236.200 156.245,235.900 155.675,235.533 155.247 C 235.166 154.818,234.970 154.363,235.097 154.236 C 235.225 154.108,234.833 153.577,234.226 153.056 C 233.619 152.534,233.095 151.663,233.061 151.120 C 233.027 150.578,232.820 150.114,232.600 150.090 C 230.913 149.908,230.594 149.663,230.475 148.464 C 230.406 147.769,230.181 147.200,229.975 147.200 C 229.769 147.200,229.645 146.975,229.700 146.700 C 229.755 146.425,229.575 146.245,229.300 146.300 C 229.025 146.355,228.800 146.119,228.800 145.776 C 228.800 145.433,228.620 145.264,228.400 145.400 C 228.057 145.612,227.778 144.131,227.963 143.070 C 227.994 142.889,227.842 142.850,227.625 142.985 C 227.127 143.292,225.491 141.700,225.797 141.205 C 225.921 141.005,225.652 140.642,225.200 140.400 C 224.748 140.158,224.491 139.777,224.629 139.553 C 224.773 139.321,224.563 139.201,224.140 139.273 C 223.654 139.357,223.399 139.159,223.396 138.697 C 223.392 137.926,221.380 135.600,220.717 135.600 C 220.449 135.600,220.463 135.406,220.756 135.053 C 221.242 134.467,220.392 133.341,219.863 133.870 C 219.718 134.015,219.600 133.923,219.600 133.667 C 219.600 133.410,219.791 133.200,220.024 133.200 C 220.257 133.200,220.343 133.031,220.215 132.825 C 220.088 132.618,219.627 132.518,219.192 132.602 C 218.480 132.739,218.210 132.380,218.356 131.489 C 218.384 131.318,218.147 131.078,217.829 130.956 C 217.495 130.828,217.353 130.466,217.493 130.101 C 217.654 129.683,217.578 129.567,217.268 129.758 C 216.986 129.933,216.800 129.795,216.800 129.411 C 216.800 129.061,216.525 128.670,216.190 128.541 C 215.759 128.375,215.699 128.162,215.986 127.816 C 216.400 127.318,216.157 126.800,215.510 126.800 C 215.313 126.800,215.264 126.980,215.400 127.200 C 215.536 127.420,215.564 127.600,215.463 127.600 C 215.179 127.600,213.439 124.639,213.525 124.300 C 213.566 124.135,213.430 124.000,213.223 124.000 C 213.016 124.000,212.918 123.623,213.007 123.163 C 213.112 122.616,212.996 122.393,212.671 122.517 C 211.868 122.826,210.409 121.394,210.586 120.473 C 210.788 119.421,210.121 118.800,208.787 118.800 C 208.149 118.800,207.631 117.076,208.095 116.500 C 208.380 116.147,208.335 116.000,207.944 116.000 C 207.639 116.000,207.212 115.595,206.995 115.100 C 206.778 114.605,206.330 114.200,206.000 114.200 C 205.410 114.200,205.350 114.052,205.250 112.351 C 205.210 111.667,205.090 111.593,204.636 111.970 C 204.042 112.463,203.516 112.015,203.342 110.869 C 203.171 109.737,202.800 109.200,202.189 109.200 C 201.839 109.200,201.649 109.044,201.767 108.853 C 201.885 108.663,201.630 108.189,201.200 107.800 C 200.770 107.411,200.515 106.937,200.633 106.747 C 200.751 106.556,200.662 106.400,200.436 106.400 C 200.210 106.400,200.140 106.100,200.281 105.734 C 200.457 105.276,200.385 105.162,200.050 105.369 C 199.418 105.760,198.400 104.903,198.400 103.980 C 198.400 103.583,197.950 102.904,197.400 102.471 C 196.850 102.039,196.400 101.396,196.400 101.042 C 196.400 100.689,196.209 100.400,195.976 100.400 C 195.743 100.400,195.656 100.232,195.783 100.028 C 195.909 99.823,195.827 99.540,195.600 99.400 C 195.373 99.260,195.277 98.999,195.387 98.821 C 195.497 98.643,195.029 98.386,194.347 98.249 C 193.409 98.062,193.152 97.827,193.293 97.289 C 193.453 96.677,192.449 95.189,192.096 95.514 C 191.829 95.760,190.800 94.422,190.800 93.829 C 190.800 93.483,190.601 93.200,190.357 93.200 C 190.114 93.200,190.022 92.921,190.153 92.579 C 190.284 92.238,190.240 92.052,190.056 92.166 C 189.871 92.279,189.483 91.929,189.193 91.386 C 188.902 90.844,188.515 90.400,188.332 90.400 C 188.150 90.400,188.000 90.040,188.000 89.600 C 188.000 89.075,187.733 88.800,187.224 88.800 C 186.256 88.800,185.724 88.018,186.405 87.597 C 186.772 87.370,186.454 86.819,185.257 85.610 C 184.345 84.690,183.600 83.681,183.600 83.368 C 183.600 82.042,182.888 81.233,181.889 81.423 C 181.498 81.497,181.284 81.388,181.413 81.179 C 181.542 80.971,181.457 80.800,181.224 80.800 C 180.991 80.800,180.800 80.517,180.800 80.171 C 180.800 79.347,179.925 78.492,179.296 78.701 C 179.023 78.792,178.800 78.571,178.800 78.210 C 178.800 77.797,178.986 77.660,179.300 77.841 C 179.575 77.999,179.376 77.663,178.858 77.094 C 178.340 76.525,178.009 75.909,178.123 75.725 C 178.236 75.541,178.051 75.033,177.711 74.596 C 177.210 73.951,177.138 73.933,177.334 74.500 C 177.637 75.381,177.526 75.376,176.476 74.466 C 175.818 73.895,175.736 73.624,176.108 73.252 C 176.479 72.881,176.386 72.722,175.693 72.540 C 175.202 72.412,174.778 72.148,174.750 71.953 C 174.723 71.759,174.678 71.413,174.650 71.185 C 174.623 70.957,174.352 70.618,174.049 70.430 C 173.746 70.243,173.621 69.889,173.772 69.645 C 173.940 69.373,173.726 69.200,173.224 69.200 C 172.771 69.200,172.445 68.975,172.500 68.700 C 172.555 68.425,172.393 68.239,172.140 68.287 C 171.709 68.368,170.978 66.595,171.144 65.870 C 171.186 65.689,171.035 65.655,170.810 65.794 C 170.584 65.933,170.400 65.878,170.400 65.670 C 170.400 65.463,170.029 65.196,169.575 65.078 C 169.122 64.959,168.790 64.623,168.838 64.331 C 168.949 63.660,168.403 62.360,167.719 61.668 C 167.429 61.375,167.294 60.972,167.417 60.772 C 167.541 60.573,167.338 60.526,166.966 60.668 C 166.501 60.847,166.348 60.756,166.474 60.378 C 166.575 60.076,166.035 59.259,165.275 58.562 C 164.515 57.866,164.014 57.101,164.162 56.861 C 164.310 56.622,164.077 56.205,163.644 55.934 C 163.019 55.544,162.941 55.284,163.268 54.673 C 163.562 54.123,163.554 53.981,163.240 54.175 C 162.987 54.331,162.800 54.164,162.800 53.781 C 162.800 53.358,162.584 53.197,162.211 53.340 C 161.411 53.647,160.206 51.971,160.906 51.526 C 161.213 51.331,160.974 51.210,160.276 51.206 C 159.658 51.203,159.248 51.047,159.364 50.859 C 159.480 50.671,159.330 50.184,159.032 49.776 C 158.733 49.367,158.571 48.819,158.672 48.557 C 158.772 48.295,158.662 47.962,158.427 47.817 C 158.192 47.672,158.000 47.743,158.000 47.976 C 158.000 48.209,157.801 48.400,157.557 48.400 C 157.314 48.400,157.207 48.158,157.321 47.862 C 157.434 47.566,157.184 47.076,156.764 46.774 C 156.344 46.471,156.000 45.987,156.000 45.699 C 156.000 45.411,155.730 45.071,155.400 44.945 C 155.070 44.818,154.800 44.483,154.800 44.200 C 154.800 43.917,154.528 43.581,154.196 43.454 C 153.864 43.327,153.616 43.082,153.644 42.911 C 153.770 42.142,153.569 41.572,153.244 41.773 C 153.048 41.894,152.579 41.523,152.202 40.947 C 151.825 40.372,151.714 40.023,151.954 40.172 C 152.227 40.340,152.302 40.209,152.153 39.821 C 152.022 39.479,151.734 39.200,151.514 39.200 C 151.294 39.200,151.213 38.943,151.333 38.629 C 151.574 38.001,150.686 37.047,150.259 37.474 C 149.937 37.796,148.795 36.331,149.048 35.922 C 149.146 35.764,148.725 35.316,148.113 34.927 C 146.833 34.112,146.376 33.562,146.633 33.147 C 146.732 32.986,146.638 32.747,146.424 32.615 C 146.210 32.483,146.148 32.081,146.285 31.722 C 146.453 31.285,146.381 31.165,146.068 31.358 C 145.787 31.532,145.600 31.398,145.600 31.024 C 145.600 30.681,145.349 30.400,145.043 30.400 C 144.474 30.400,143.997 29.609,143.731 28.224 C 143.542 27.240,143.464 27.170,142.473 27.096 C 142.023 27.062,141.735 26.906,141.832 26.749 C 141.928 26.592,141.511 26.073,140.904 25.596 C 140.297 25.118,139.800 24.609,139.800 24.464 C 139.800 24.048,138.043 22.400,137.600 22.400 C 137.380 22.400,137.200 22.126,137.200 21.790 C 137.200 21.455,136.750 21.009,136.200 20.800 C 135.650 20.591,135.200 20.266,135.200 20.078 C 135.200 19.890,134.795 19.751,134.300 19.768 C 133.727 19.788,133.415 19.577,133.441 19.186 C 133.464 18.848,133.194 18.512,132.841 18.439 C 130.587 17.972,12.459 18.047,12.070 18.516 M222.400 19.933 C 222.400 20.170,221.972 20.792,221.448 21.315 C 220.522 22.241,220.516 22.293,221.210 23.213 C 221.602 23.733,221.861 24.483,221.785 24.880 C 221.708 25.276,221.878 25.600,222.161 25.600 C 222.827 25.600,224.083 26.983,223.734 27.332 C 223.587 27.480,223.677 27.600,223.933 27.600 C 224.190 27.600,224.400 27.881,224.400 28.224 C 224.400 28.567,224.580 28.736,224.800 28.600 C 225.020 28.464,225.200 28.593,225.200 28.887 C 225.200 29.182,225.556 29.727,225.992 30.100 C 226.488 30.525,226.686 31.031,226.524 31.455 C 226.348 31.912,226.416 32.037,226.732 31.842 C 227.013 31.668,227.200 31.802,227.200 32.176 C 227.200 32.519,227.380 32.800,227.600 32.800 C 227.820 32.800,228.000 33.081,228.000 33.424 C 228.000 33.785,228.190 33.930,228.452 33.768 C 228.727 33.598,228.830 33.706,228.715 34.044 C 228.517 34.624,229.903 36.107,230.372 35.818 C 230.519 35.726,230.852 35.992,231.112 36.407 C 231.400 36.869,231.435 37.255,231.202 37.399 C 230.992 37.528,231.440 38.236,232.196 38.970 C 233.096 39.843,233.518 40.586,233.416 41.114 C 233.312 41.656,233.514 41.989,234.030 42.124 C 234.454 42.235,234.800 42.533,234.800 42.786 C 234.800 43.040,234.592 43.119,234.338 42.962 C 234.061 42.791,233.985 42.851,234.147 43.114 C 234.295 43.354,234.760 43.485,235.180 43.404 C 235.750 43.294,235.906 43.450,235.796 44.020 C 235.715 44.440,235.802 44.742,235.988 44.692 C 236.652 44.512,239.108 47.620,238.700 48.123 C 238.645 48.191,239.050 48.797,239.600 49.470 C 240.150 50.142,240.832 51.032,241.115 51.446 C 241.398 51.861,241.504 51.930,241.351 51.600 C 241.190 51.255,241.224 51.139,241.431 51.328 C 241.628 51.509,241.792 51.958,241.795 52.327 C 241.798 52.696,242.070 52.998,242.400 52.999 C 242.785 53.000,243.045 53.469,243.126 54.308 C 243.195 55.027,243.420 55.511,243.626 55.384 C 243.999 55.154,244.162 55.714,244.021 56.740 C 243.978 57.051,244.140 57.161,244.403 56.998 C 244.897 56.693,246.800 58.262,246.800 58.975 C 246.800 59.214,247.247 59.746,247.792 60.155 C 248.338 60.565,248.675 61.078,248.541 61.295 C 248.407 61.512,248.513 61.822,248.775 61.985 C 249.038 62.147,249.302 62.622,249.362 63.040 C 249.422 63.458,249.859 63.996,250.333 64.236 C 250.807 64.475,251.076 64.790,250.931 64.936 C 250.786 65.081,250.877 65.200,251.133 65.200 C 251.390 65.200,251.600 65.500,251.600 65.867 C 251.600 66.233,251.705 66.428,251.833 66.300 C 252.102 66.032,253.624 67.448,253.553 67.900 C 253.428 68.686,253.692 69.213,254.800 70.400 C 255.460 71.107,256.000 71.858,256.000 72.071 C 256.000 72.688,257.157 73.674,257.577 73.414 C 257.788 73.284,258.147 73.528,258.377 73.957 C 258.680 74.523,258.663 74.779,258.314 74.895 C 258.005 74.998,258.169 75.401,258.776 76.028 C 259.294 76.562,259.567 76.730,259.382 76.400 C 259.097 75.890,259.144 75.879,259.699 76.329 C 260.059 76.620,260.254 77.115,260.133 77.429 C 260.010 77.752,260.152 78.000,260.461 78.000 C 260.762 78.000,261.252 78.405,261.551 78.900 C 261.978 79.607,261.981 79.693,261.567 79.300 C 261.277 79.025,260.853 78.800,260.625 78.800 C 260.396 78.800,260.882 79.279,261.705 79.864 C 262.527 80.449,263.200 81.259,263.200 81.664 C 263.200 82.069,263.391 82.400,263.624 82.400 C 263.857 82.400,263.936 82.580,263.800 82.800 C 263.660 83.026,263.988 83.200,264.553 83.200 C 265.368 83.200,265.523 83.363,265.385 84.077 C 265.292 84.560,265.500 85.269,265.847 85.652 C 266.196 86.038,266.344 86.568,266.177 86.837 C 265.996 87.131,266.043 87.220,266.298 87.063 C 266.691 86.820,268.799 88.613,268.432 88.879 C 268.086 89.129,269.256 90.812,269.620 90.588 C 270.275 90.183,270.893 90.806,270.411 91.387 C 270.088 91.776,270.198 91.958,270.857 92.131 C 271.596 92.324,271.652 92.456,271.217 92.980 C 270.864 93.405,270.845 93.600,271.155 93.600 C 271.404 93.600,272.191 94.170,272.904 94.866 C 273.617 95.562,273.977 96.003,273.705 95.845 C 273.371 95.652,273.287 95.760,273.446 96.177 C 273.577 96.517,273.833 96.703,274.016 96.590 C 274.599 96.230,276.442 99.026,276.140 99.813 C 275.951 100.304,276.011 100.440,276.329 100.244 C 276.760 99.977,278.151 100.468,278.008 100.836 C 277.836 101.277,278.901 103.344,279.799 104.311 C 280.354 104.910,280.719 105.634,280.609 105.921 C 280.499 106.207,280.571 106.342,280.768 106.220 C 281.185 105.962,283.200 108.225,283.200 108.951 C 283.200 109.220,283.425 109.665,283.700 109.940 C 283.975 110.215,284.200 110.656,284.200 110.920 C 284.200 111.184,284.416 111.400,284.680 111.400 C 284.944 111.400,285.385 111.625,285.660 111.900 C 286.042 112.282,286.046 112.400,285.677 112.400 C 285.304 112.400,285.308 112.584,285.693 113.200 C 285.968 113.640,286.430 114.000,286.720 114.000 C 287.010 114.000,287.129 114.192,286.983 114.427 C 286.826 114.682,287.012 114.803,287.445 114.727 C 287.896 114.648,288.229 114.883,288.324 115.347 C 288.408 115.758,288.318 115.997,288.124 115.877 C 287.930 115.757,287.771 115.992,287.771 116.400 C 287.771 116.808,287.902 117.060,288.062 116.961 C 288.477 116.705,290.658 118.923,290.975 119.922 C 291.121 120.382,291.561 120.861,291.951 120.984 C 292.351 121.111,292.829 121.863,293.046 122.705 C 293.258 123.527,293.649 124.155,293.915 124.100 C 294.182 124.045,294.400 124.281,294.400 124.624 C 294.400 124.994,294.588 125.131,294.863 124.961 C 295.179 124.766,295.256 124.944,295.104 125.524 C 294.946 126.127,295.101 126.442,295.641 126.613 C 296.058 126.746,296.400 127.093,296.400 127.384 C 296.400 127.676,296.625 128.004,296.900 128.113 C 297.175 128.222,297.741 128.898,298.158 129.615 C 298.574 130.332,298.709 130.791,298.458 130.636 C 298.206 130.480,298.000 130.543,298.000 130.776 C 298.000 131.009,298.205 131.200,298.456 131.200 C 298.707 131.200,299.113 131.474,299.358 131.810 C 299.825 132.449,304.475 133.114,304.343 132.523 C 304.162 131.715,305.294 129.931,306.423 129.244 C 307.175 128.787,307.493 128.381,307.227 128.217 C 306.562 127.806,308.006 125.614,309.127 125.333 C 309.872 125.145,310.013 124.908,309.826 124.160 C 309.649 123.457,309.732 123.276,310.155 123.438 C 310.519 123.578,310.699 123.406,310.660 122.955 C 310.622 122.515,310.970 122.165,311.596 122.011 C 312.241 121.852,312.424 121.662,312.113 121.470 C 311.850 121.307,311.736 120.911,311.859 120.589 C 311.983 120.268,312.245 120.104,312.442 120.226 C 312.639 120.348,312.800 120.098,312.800 119.670 C 312.800 119.235,313.145 118.803,313.585 118.688 C 314.115 118.550,314.320 118.221,314.215 117.677 C 313.994 116.530,315.049 115.193,315.561 115.972 C 315.843 116.401,316.008 116.166,316.220 115.033 C 316.385 114.152,317.025 112.995,317.752 112.261 C 318.438 111.567,319.003 110.812,319.007 110.583 C 319.016 110.072,320.703 108.219,321.223 108.150 C 322.125 108.030,322.168 107.967,321.600 107.591 C 321.092 107.255,321.153 107.074,322.000 106.406 C 322.550 105.972,322.831 105.614,322.624 105.609 C 322.416 105.604,322.595 105.346,323.019 105.035 C 323.444 104.725,323.898 104.537,324.029 104.618 C 324.160 104.699,324.267 104.511,324.267 104.200 C 324.267 103.889,324.072 103.731,323.833 103.847 C 323.595 103.964,323.733 103.788,324.140 103.456 C 324.571 103.105,324.754 102.649,324.578 102.365 C 324.408 102.090,324.443 101.979,324.657 102.112 C 325.165 102.426,326.032 101.861,326.137 101.150 C 326.183 100.836,326.628 100.172,327.125 99.675 C 327.622 99.178,327.919 98.593,327.785 98.375 C 327.650 98.158,327.689 98.006,327.870 98.037 C 328.780 98.196,329.154 97.945,328.919 97.334 C 328.753 96.901,328.820 96.765,329.111 96.945 C 329.396 97.121,329.504 96.940,329.408 96.442 C 329.268 95.715,330.141 94.971,330.930 95.146 C 331.111 95.187,331.152 95.046,331.021 94.834 C 330.890 94.621,331.165 94.091,331.634 93.654 C 332.102 93.218,332.373 92.680,332.236 92.458 C 332.099 92.237,332.157 91.950,332.366 91.821 C 332.574 91.692,332.860 91.773,333.000 92.000 C 333.372 92.602,333.946 92.114,333.826 91.298 C 333.769 90.914,334.010 90.362,334.361 90.070 C 334.713 89.779,334.777 89.653,334.505 89.791 C 334.184 89.953,334.090 89.831,334.238 89.446 C 334.371 89.098,334.729 88.951,335.099 89.093 C 335.469 89.235,335.628 89.170,335.483 88.935 C 335.154 88.403,337.135 85.513,337.622 85.814 C 337.831 85.943,338.184 85.632,338.407 85.124 C 338.630 84.616,339.145 83.660,339.553 83.000 C 339.960 82.340,340.216 81.663,340.121 81.497 C 340.026 81.330,340.279 81.060,340.682 80.897 C 341.086 80.733,341.435 80.285,341.458 79.900 C 341.540 78.531,341.607 78.400,342.229 78.400 C 342.944 78.400,344.210 77.276,343.874 76.940 C 343.752 76.818,344.390 76.017,345.291 75.159 C 346.193 74.302,346.820 73.600,346.686 73.600 C 346.552 73.600,346.631 73.056,346.863 72.392 C 347.094 71.728,347.490 71.209,347.742 71.239 C 348.794 71.367,349.087 71.152,349.022 70.300 C 348.949 69.333,349.464 68.400,350.073 68.400 C 350.279 68.400,350.320 68.625,350.165 68.900 C 349.947 69.286,350.007 69.285,350.430 68.892 C 350.731 68.612,350.982 67.983,350.988 67.493 C 350.995 66.975,351.251 66.602,351.600 66.601 C 351.989 66.599,352.193 66.221,352.179 65.524 C 352.167 64.933,352.302 64.539,352.479 64.649 C 352.655 64.758,352.800 64.646,352.800 64.400 C 352.800 64.154,353.008 64.081,353.262 64.238 C 353.537 64.409,353.615 64.349,353.455 64.089 C 353.159 63.610,354.767 61.669,355.395 61.749 C 355.612 61.777,355.855 61.440,355.936 61.000 C 356.017 60.560,356.321 59.930,356.613 59.600 C 356.904 59.270,357.131 58.820,357.116 58.600 C 357.102 58.380,357.430 58.020,357.845 57.800 C 359.406 56.973,359.638 56.727,359.296 56.264 C 358.916 55.751,360.565 53.898,361.007 54.341 C 361.150 54.483,361.218 54.420,361.159 54.200 C 361.027 53.711,362.264 50.800,362.603 50.800 C 362.737 50.800,362.712 51.025,362.547 51.300 C 362.340 51.644,362.456 51.630,362.919 51.255 C 363.289 50.955,363.519 50.592,363.431 50.450 C 363.131 49.964,364.254 48.347,365.229 47.860 C 365.920 47.515,366.187 47.065,366.155 46.298 C 366.131 45.706,366.266 45.317,366.455 45.434 C 366.645 45.551,366.800 45.457,366.800 45.224 C 366.800 44.991,367.081 44.800,367.424 44.800 C 367.767 44.800,367.943 44.631,367.815 44.425 C 367.688 44.218,367.880 43.883,368.244 43.680 C 368.607 43.476,368.948 42.880,369.001 42.355 C 369.159 40.796,369.183 40.742,369.600 41.000 C 369.820 41.136,370.000 41.069,370.000 40.851 C 370.000 40.632,370.336 40.347,370.747 40.217 C 371.158 40.086,371.493 39.669,371.492 39.290 C 371.487 37.338,371.585 37.090,372.172 37.577 C 372.775 38.077,373.600 37.111,373.600 35.905 C 373.600 35.603,374.223 34.753,374.984 34.015 C 375.746 33.277,376.279 32.528,376.170 32.351 C 376.060 32.173,376.742 31.278,377.685 30.360 C 378.628 29.443,379.354 28.476,379.297 28.212 C 379.241 27.947,379.637 27.529,380.178 27.283 C 380.883 26.962,381.114 26.592,380.995 25.974 C 380.830 25.117,381.667 23.889,382.279 24.093 C 382.455 24.152,382.663 24.020,382.739 23.800 C 382.816 23.580,383.047 23.085,383.254 22.700 C 383.498 22.243,383.484 22.000,383.214 22.000 C 382.986 22.000,382.800 21.719,382.800 21.376 C 382.800 21.033,382.608 20.872,382.373 21.017 C 382.138 21.162,381.848 20.904,381.728 20.445 C 381.598 19.948,381.325 19.724,381.055 19.893 C 380.426 20.286,379.600 20.384,379.600 20.065 C 379.600 19.919,344.455 19.890,301.500 20.000 C 257.322 20.113,223.183 20.048,222.900 19.851 C 222.593 19.637,222.400 19.669,222.400 19.933 M98.260 260.987 C 98.136 261.310,98.207 261.681,98.417 261.811 C 98.628 261.941,98.800 262.239,98.800 262.473 C 98.800 262.741,98.578 262.714,98.200 262.400 C 97.707 261.991,97.600 262.022,97.600 262.575 C 97.600 262.945,97.427 263.140,97.215 263.009 C 97.003 262.879,96.673 263.363,96.481 264.086 C 96.246 264.971,95.922 265.363,95.487 265.287 C 95.045 265.210,94.887 265.411,94.985 265.921 C 95.220 267.145,94.591 267.856,93.830 267.225 C 93.284 266.772,93.200 266.839,93.200 267.727 C 93.200 268.291,93.017 268.866,92.793 269.004 C 92.570 269.142,92.491 269.423,92.617 269.628 C 92.744 269.832,92.644 270.000,92.395 270.000 C 91.646 270.000,90.731 271.110,91.227 271.417 C 91.507 271.590,91.353 272.012,90.788 272.613 C 90.309 273.123,90.043 273.746,90.198 273.997 C 90.366 274.269,90.141 274.543,89.645 274.672 C 89.185 274.793,88.427 275.510,87.959 276.266 C 87.492 277.022,86.677 277.924,86.148 278.271 C 85.399 278.762,85.286 279.022,85.639 279.447 C 85.994 279.874,85.887 280.067,85.146 280.342 C 84.626 280.534,84.245 280.806,84.300 280.946 C 84.355 281.086,84.306 281.196,84.192 281.192 C 83.515 281.164,82.913 282.240,83.325 282.743 C 83.798 283.321,82.612 284.578,81.968 284.180 C 81.454 283.863,80.353 285.713,80.794 286.154 C 81.232 286.592,80.586 287.592,79.851 287.613 C 79.603 287.619,79.054 288.099,78.632 288.678 C 78.209 289.258,78.074 289.601,78.332 289.442 C 79.127 288.951,78.854 289.458,77.600 290.800 C 76.940 291.507,76.400 292.248,76.400 292.448 C 76.400 292.648,75.850 293.304,75.178 293.906 C 74.506 294.508,73.912 295.306,73.857 295.681 C 73.803 296.055,73.183 296.912,72.479 297.584 C 71.776 298.257,71.200 298.985,71.200 299.203 C 71.200 299.422,71.020 299.600,70.800 299.600 C 70.580 299.600,70.429 299.735,70.464 299.900 C 70.625 300.665,69.886 301.664,69.550 301.134 C 69.294 300.729,69.211 300.775,69.206 301.324 C 69.203 301.722,69.057 301.959,68.883 301.851 C 68.709 301.744,68.524 302.208,68.472 302.883 C 68.349 304.500,68.139 304.781,67.192 304.598 C 66.698 304.503,66.400 304.663,66.400 305.023 C 66.400 305.340,66.220 305.600,66.000 305.600 C 65.780 305.600,65.629 305.735,65.665 305.900 C 65.779 306.432,64.828 308.409,64.509 308.303 C 64.339 308.246,64.142 308.380,64.071 308.600 C 64.001 308.820,63.681 309.289,63.362 309.642 C 63.042 309.995,62.875 310.535,62.991 310.842 C 63.118 311.179,62.716 311.675,61.975 312.096 C 61.300 312.479,60.855 312.965,60.985 313.176 C 61.116 313.387,60.592 314.134,59.822 314.835 C 59.051 315.536,58.502 316.242,58.602 316.403 C 58.701 316.564,58.315 317.214,57.744 317.848 C 57.173 318.482,56.845 318.747,57.015 318.438 C 57.220 318.065,57.169 317.972,56.862 318.162 C 56.608 318.319,56.400 318.717,56.400 319.047 C 56.400 319.377,56.253 319.556,56.072 319.445 C 55.892 319.333,55.824 319.780,55.920 320.437 C 56.017 321.094,55.939 321.603,55.748 321.569 C 54.861 321.407,54.461 321.687,54.006 322.786 C 53.736 323.438,53.309 323.933,53.057 323.886 C 52.806 323.839,52.645 324.025,52.700 324.300 C 52.755 324.575,52.609 324.800,52.376 324.800 C 52.143 324.800,52.082 325.008,52.239 325.263 C 52.433 325.578,52.259 325.656,51.694 325.509 C 51.021 325.333,50.894 325.449,51.024 326.123 C 51.112 326.581,50.873 327.311,50.492 327.746 C 50.074 328.224,50.023 328.406,50.362 328.207 C 50.741 327.984,50.831 328.027,50.638 328.338 C 50.481 328.592,50.026 328.800,49.626 328.800 C 49.136 328.800,48.820 329.198,48.655 330.027 C 48.518 330.708,48.230 331.142,48.005 331.003 C 47.641 330.778,47.426 331.299,47.553 332.100 C 47.579 332.265,47.263 332.400,46.850 332.400 C 46.315 332.400,46.100 332.689,46.100 333.409 C 46.100 334.526,43.832 336.991,43.177 336.586 C 42.959 336.451,42.806 336.489,42.837 336.670 C 43.034 337.802,42.738 338.342,42.000 338.200 C 41.422 338.089,41.200 338.261,41.200 338.823 C 41.200 339.250,41.380 339.600,41.600 339.600 C 41.820 339.600,42.000 339.810,42.000 340.067 C 42.000 340.323,41.882 340.415,41.737 340.270 C 41.391 339.925,40.350 340.795,40.608 341.213 C 40.718 341.391,40.341 341.903,39.771 342.351 C 38.875 343.056,38.570 343.630,38.431 344.873 C 38.414 345.023,38.057 345.255,37.639 345.388 C 37.220 345.521,36.598 346.217,36.257 346.936 C 35.478 348.577,34.192 349.766,33.594 349.396 C 33.268 349.195,33.205 349.539,33.372 350.591 C 33.536 351.625,33.466 352.022,33.139 351.913 C 32.288 351.629,30.535 353.581,31.216 354.055 C 31.649 354.356,31.673 354.512,31.310 354.660 C 31.040 354.770,30.758 354.802,30.681 354.730 C 30.437 354.501,29.096 356.029,29.333 356.267 C 29.459 356.392,29.286 356.771,28.950 357.107 C 28.613 357.444,28.425 358.052,28.531 358.460 C 28.655 358.933,28.512 359.200,28.134 359.200 C 27.523 359.200,26.087 360.390,26.671 360.413 C 26.852 360.420,26.651 360.690,26.224 361.013 C 25.796 361.336,25.573 361.600,25.727 361.600 C 25.881 361.600,25.469 362.163,24.811 362.851 C 24.154 363.539,23.679 364.214,23.757 364.351 C 23.834 364.488,23.533 364.960,23.087 365.400 C 22.642 365.840,22.421 365.930,22.597 365.600 C 22.838 365.148,22.799 365.109,22.438 365.440 C 22.175 365.683,21.930 366.268,21.895 366.740 C 21.859 367.213,21.688 367.600,21.515 367.600 C 21.342 367.600,21.200 367.939,21.200 368.353 C 21.200 368.770,20.843 369.200,20.402 369.315 C 19.963 369.430,19.496 369.856,19.364 370.262 C 19.231 370.668,19.016 371.270,18.884 371.600 C 18.128 373.502,19.999 375.885,21.733 375.226 C 22.416 374.966,22.800 374.960,22.800 375.210 C 22.800 375.462,50.386 375.600,100.800 375.600 C 155.431 375.600,178.800 375.473,178.800 375.176 C 178.800 374.943,178.965 374.855,179.168 374.980 C 179.370 375.105,179.799 374.944,180.120 374.623 C 180.442 374.301,180.812 374.145,180.943 374.276 C 181.074 374.407,181.490 374.263,181.867 373.957 C 182.321 373.588,182.452 373.569,182.253 373.900 C 182.088 374.175,182.143 374.400,182.376 374.400 C 182.609 374.400,182.800 374.209,182.800 373.976 C 182.800 373.743,182.981 373.665,183.203 373.802 C 183.436 373.946,183.409 373.619,183.139 373.025 C 182.882 372.461,182.346 372.000,181.948 372.000 C 181.480 372.000,181.304 371.795,181.448 371.419 C 181.571 371.100,181.523 370.605,181.342 370.319 C 181.018 369.809,180.950 369.598,180.850 368.800 C 180.822 368.580,180.570 368.400,180.289 368.400 C 179.727 368.400,178.400 367.009,178.400 366.420 C 178.400 366.216,177.868 365.467,177.219 364.756 C 176.569 364.045,175.984 363.089,175.919 362.631 C 175.837 362.060,175.520 361.810,174.902 361.832 C 174.408 361.849,174.084 361.783,174.183 361.684 C 174.281 361.585,174.099 361.242,173.777 360.920 C 173.456 360.599,173.287 360.184,173.401 359.998 C 173.766 359.407,172.699 357.600,171.986 357.600 C 171.513 357.600,171.300 357.275,171.300 356.555 C 171.300 355.979,171.074 355.370,170.799 355.199 C 170.523 355.029,170.421 354.689,170.572 354.445 C 170.936 353.857,170.287 353.873,169.693 354.467 C 169.337 354.823,169.185 354.799,169.051 354.367 C 168.546 352.726,167.715 351.308,166.500 350.010 C 166.005 349.482,165.614 348.858,165.632 348.625 C 165.649 348.391,165.754 348.425,165.865 348.700 C 165.976 348.975,166.260 349.200,166.495 349.200 C 166.731 349.200,166.605 348.847,166.214 348.416 C 165.824 347.985,165.313 347.670,165.078 347.716 C 164.843 347.762,164.280 347.110,163.826 346.267 C 163.372 345.425,162.685 344.561,162.300 344.348 C 161.915 344.135,161.600 343.721,161.600 343.429 C 161.600 343.137,161.330 342.674,161.000 342.400 C 160.670 342.126,160.400 341.584,160.400 341.195 C 160.400 340.772,160.124 340.511,159.710 340.544 C 159.330 340.575,159.006 340.420,158.990 340.200 C 158.930 339.379,158.319 337.947,158.116 338.151 C 157.853 338.413,156.800 337.394,156.800 336.878 C 156.800 336.669,156.532 336.276,156.204 336.004 C 155.877 335.732,155.708 335.348,155.830 335.152 C 156.091 334.729,155.055 333.600,154.405 333.600 C 154.156 333.600,154.052 333.439,154.174 333.242 C 154.296 333.045,154.125 332.780,153.794 332.653 C 153.463 332.526,153.239 332.192,153.296 331.911 C 153.353 331.630,153.175 331.445,152.900 331.500 C 152.625 331.555,152.400 331.319,152.400 330.976 C 152.400 330.607,152.212 330.469,151.938 330.638 C 151.663 330.809,151.585 330.749,151.745 330.489 C 151.892 330.251,151.830 329.942,151.607 329.804 C 151.383 329.666,151.200 329.203,151.200 328.776 C 151.200 328.349,151.009 328.000,150.776 328.000 C 150.543 328.000,150.451 327.840,150.572 327.645 C 150.693 327.450,150.534 327.315,150.219 327.345 C 149.904 327.375,149.643 327.259,149.638 327.086 C 149.633 326.913,149.352 326.495,149.014 326.157 C 148.676 325.819,148.400 325.286,148.400 324.971 C 148.400 324.657,148.220 324.378,148.000 324.350 C 147.780 324.322,147.375 324.278,147.101 324.250 C 146.826 324.223,146.583 323.930,146.561 323.600 C 146.444 321.825,146.366 321.574,146.000 321.800 C 145.780 321.936,145.600 321.902,145.600 321.724 C 145.599 321.546,145.153 320.882,144.608 320.248 C 144.063 319.614,143.709 318.946,143.822 318.764 C 144.159 318.219,143.062 316.800,142.304 316.800 C 141.917 316.800,141.600 316.521,141.600 316.181 C 141.600 315.840,141.131 315.128,140.559 314.597 C 139.986 314.066,139.491 313.174,139.459 312.614 C 139.417 311.898,139.030 311.421,138.148 311.002 C 136.888 310.404,136.147 309.004,136.857 308.565 C 137.482 308.179,136.397 307.200,135.343 307.200 C 134.536 307.200,134.422 307.051,134.621 306.258 C 134.856 305.321,133.994 304.000,133.148 304.000 C 132.931 304.000,132.864 303.820,133.000 303.600 C 133.136 303.380,133.057 303.200,132.824 303.200 C 132.591 303.200,132.400 302.852,132.400 302.427 C 132.400 301.735,131.092 300.913,130.314 301.116 C 130.157 301.157,130.125 300.941,130.242 300.636 C 130.359 300.331,130.259 299.960,130.021 299.813 C 129.782 299.665,129.693 299.373,129.823 299.162 C 129.953 298.952,129.829 298.830,129.548 298.890 C 129.267 298.951,129.028 298.775,129.018 298.500 C 129.008 298.225,128.910 298.037,128.800 298.082 C 128.445 298.227,126.835 296.668,127.023 296.362 C 127.124 296.200,126.995 295.557,126.738 294.934 C 126.481 294.310,126.304 293.652,126.345 293.470 C 126.386 293.289,126.260 293.239,126.065 293.360 C 125.726 293.569,122.935 290.820,123.060 290.401 C 123.093 290.290,122.936 290.252,122.711 290.316 C 122.486 290.380,122.411 290.149,122.544 289.801 C 122.685 289.434,122.539 289.075,122.196 288.943 C 121.871 288.818,121.696 288.567,121.809 288.386 C 121.921 288.204,121.830 287.942,121.607 287.804 C 121.383 287.666,121.200 287.228,121.200 286.831 C 121.200 286.306,120.937 286.139,120.234 286.216 C 119.380 286.310,119.285 286.186,119.417 285.148 C 119.498 284.503,119.438 284.049,119.283 284.140 C 118.499 284.600,117.208 283.521,116.763 282.034 C 116.498 281.150,116.128 280.521,115.941 280.637 C 115.753 280.752,115.600 280.556,115.600 280.200 C 115.600 279.844,115.420 279.664,115.200 279.800 C 114.831 280.028,114.620 279.474,114.766 278.659 C 114.853 278.175,113.188 276.800,112.515 276.800 C 112.204 276.800,112.076 276.601,112.228 276.355 C 112.379 276.111,112.277 275.771,112.001 275.601 C 111.726 275.430,111.500 274.821,111.500 274.245 C 111.500 273.604,111.278 273.200,110.926 273.200 C 110.611 273.200,110.463 273.022,110.597 272.805 C 110.734 272.583,110.585 272.508,110.259 272.633 C 109.854 272.788,109.594 272.482,109.406 271.628 C 109.258 270.953,108.900 270.400,108.611 270.400 C 108.171 270.400,107.569 269.581,107.435 268.799 C 107.416 268.689,106.804 268.028,106.075 267.332 C 105.346 266.635,104.799 265.826,104.859 265.533 C 105.016 264.764,104.030 263.134,103.577 263.414 C 103.161 263.671,101.834 262.520,101.746 261.827 C 101.717 261.592,101.672 261.175,101.646 260.900 C 101.578 260.167,98.545 260.245,98.260 260.987 " stroke="none" fill="#fc0c0c" fill-rule="evenodd"></path><path id="path1" d="" stroke="none" fill="#1000c0c" fill-rule="evenodd"></path><path id="path2" d="" stroke="none" fill="#1000c0c" fill-rule="evenodd"></path><path id="path3" d="" stroke="none" fill="#1000c0c" fill-rule="evenodd"></path><path id="path4" d="" stroke="none" fill="#1000c0c" fill-rule="evenodd"></path></g></svg>